<svg xmlns="http://www.w3.org/2000/svg" xmlns:xlink="http://www.w3.org/1999/xlink" contentStyleType="text/css" data-diagram-type="CLASS" height="780px" preserveAspectRatio="none" style="width:1536px;height:780px;background:#FFFFFF;" version="1.1" viewBox="0 0 1536 780" width="1536px" zoomAndPan="magnify"><defs/><g><!--class AbstractStatisticalModel--><g class="entity" data-entity="AbstractStatisticalModel" data-source-line="4" data-uid="ent0002" id="entity_AbstractStatisticalModel"><rect fill="#F1F1F1" height="395.1406" rx="2.5" ry="2.5" style="stroke:#181818;stroke-width:0.5;" width="275.2051" x="332" y="171"/><ellipse cx="407.1626" cy="185" fill="#A9DCDF" rx="9" ry="9" style="stroke:#181818;stroke-width:1;"/><path d="M408.3032,186.7344 L405.6313,186.7344 L405.3657,187.4063 L405.6313,187.4063 Q406.0376,187.4063 406.1938,187.5625 Q406.3657,187.7031 406.3657,187.9531 Q406.3657,188.1875 406.1938,188.3438 Q406.0376,188.5 405.6313,188.5 L404.147,188.5 Q403.7563,188.5 403.5845,188.3438 Q403.4126,188.1875 403.4126,187.9531 Q403.4126,187.7031 403.6001,187.5469 Q403.772,187.3906 404.1782,187.4063 L405.9126,183.0938 L405.1938,183.0938 Q404.7876,183.0938 404.6157,182.9375 Q404.4595,182.7813 404.4595,182.5313 Q404.4595,182.2969 404.6157,182.1406 Q404.7876,181.9844 405.1938,181.9844 L407.5688,181.9844 L409.7563,187.4063 Q410.147,187.4063 410.272,187.4844 Q410.522,187.6563 410.522,187.9531 Q410.522,188.1875 410.3501,188.3438 Q410.1782,188.5 409.7876,188.5 L408.3032,188.5 Q407.9126,188.5 407.7407,188.3438 Q407.5688,188.1875 407.5688,187.9531 Q407.5688,187.7031 407.7407,187.5625 Q407.9126,187.4063 408.3032,187.4063 L408.5688,187.4063 L408.3032,186.7344 Z M407.8501,185.625 L406.9595,183.4531 L406.0688,185.625 L407.8501,185.625 Z " fill="#000000"/><text fill="#000000" font-family="sans-serif" font-size="11" font-style="italic" lengthAdjust="spacing" textLength="117.3799" x="424.6626" y="189.5547">AbstractStatisticalModel</text><line style="stroke:#181818;stroke-width:0.5;" x1="333" x2="606.2051" y1="199" y2="199"/><text fill="#000000" font-family="sans-serif" font-size="11" lengthAdjust="spacing" textLength="161.0845" x="338" y="214.8701">+parameters: dict[str, Parameter]</text><text fill="#000000" font-family="sans-serif" font-size="11" lengthAdjust="spacing" textLength="85.9106" x="338" y="229.501">+is_discrete: bool</text><line style="stroke:#181818;stroke-width:1;" x1="333" x2="606.2051" y1="236.2617" y2="236.2617"/><text fill="#000000" font-family="sans-serif" font-size="11" lengthAdjust="spacing" textLength="216.7451" x="338" y="252.1318">+__init__(parameters: dict, is_discrete: bool)</text><text fill="#000000" font-family="sans-serif" font-size="11" lengthAdjust="spacing" textLength="146.4375" x="338" y="266.7627">+mini: float {abstract property}</text><text fill="#000000" font-family="sans-serif" font-size="11" lengthAdjust="spacing" textLength="149.4937" x="338" y="281.3936">+maxi: float {abstract property}</text><text fill="#000000" font-family="sans-serif" font-size="11" font-style="italic" lengthAdjust="spacing" textLength="107.7119" x="338" y="296.0244">+pdf(x): float | ndarray</text><text fill="#000000" font-family="sans-serif" font-size="11" lengthAdjust="spacing" textLength="258.9512" x="338" y="310.6553">+get_plot_data(): tuple[ndarray, ndarray, str, callable]</text><text fill="#000000" font-family="sans-serif" font-size="11" lengthAdjust="spacing" textLength="114.0229" x="338" y="325.2861">+get_parameters(): dict</text><text fill="#000000" font-family="sans-serif" font-size="11" lengthAdjust="spacing" textLength="107.0942" x="338" y="339.917">+cdf(x): float | ndarray</text><text fill="#000000" font-family="sans-serif" font-size="11" lengthAdjust="spacing" textLength="90.186" x="338" y="354.5479">+pxequals(x): float</text><text fill="#000000" font-family="sans-serif" font-size="11" lengthAdjust="spacing" textLength="98.7422" x="338" y="369.1787">+pxlessthan(x): float</text><text fill="#000000" font-family="sans-serif" font-size="11" lengthAdjust="spacing" textLength="134.8306" x="338" y="383.8096">+pxlessthanequalto(x): float</text><text fill="#000000" font-family="sans-serif" font-size="11" lengthAdjust="spacing" textLength="114.0337" x="338" y="398.4404">+pxgreaterthan(x): float</text><text fill="#000000" font-family="sans-serif" font-size="11" lengthAdjust="spacing" textLength="150.1221" x="338" y="413.0713">+pxgreaterthanequalto(x): float</text><text fill="#000000" font-family="sans-serif" font-size="11" lengthAdjust="spacing" textLength="121.3652" x="338" y="427.7021">+pxinclusivein(a, b): float</text><text fill="#000000" font-family="sans-serif" font-size="11" lengthAdjust="spacing" textLength="124.4214" x="338" y="442.333">+pxexclusivein(a, b): float</text><text fill="#000000" font-family="sans-serif" font-size="11" lengthAdjust="spacing" textLength="99.3599" x="338" y="456.9639">+xplessthan(p): float</text><text fill="#000000" font-family="sans-serif" font-size="11" lengthAdjust="spacing" textLength="135.4482" x="338" y="471.5947">+xplessthanequalto(p): float</text><text fill="#000000" font-family="sans-serif" font-size="11" lengthAdjust="spacing" textLength="114.6514" x="338" y="486.2256">+xpgreaterthan(p): float</text><text fill="#000000" font-family="sans-serif" font-size="11" lengthAdjust="spacing" textLength="150.7397" x="338" y="500.8564">+xpgreaterthanequalto(p): float</text><text fill="#000000" font-family="sans-serif" font-size="11" lengthAdjust="spacing" textLength="260.1489" x="338" y="515.4873">+xpinclusivein(p): tuple {raises NotImplementedError}</text><text fill="#000000" font-family="sans-serif" font-size="11" lengthAdjust="spacing" textLength="263.2051" x="338" y="530.1182">+xpexclusivein(p): tuple {raises NotImplementedError}</text><text fill="#000000" font-family="sans-serif" font-size="11" font-style="italic" lengthAdjust="spacing" textLength="96.916" x="338" y="544.749">+expectation(): float</text><text fill="#000000" font-family="sans-serif" font-size="11" font-style="italic" lengthAdjust="spacing" textLength="82.2314" x="338" y="559.3799">+variance(): float</text></g><!--class Normal--><g class="entity" data-entity="Normal" data-source-line="32" data-uid="ent0003" id="entity_Normal"><rect fill="#F1F1F1" height="44" rx="2.5" ry="2.5" style="stroke:#181818;stroke-width:0.5;" width="63.4492" x="7" y="686"/><ellipse cx="20" cy="700" fill="#ADD1B2" rx="9" ry="9" style="stroke:#181818;stroke-width:1;"/><path d="M21.5313,697.2656 Q21.625,697.125 21.75,697.0625 Q21.875,696.9844 22.0156,696.9844 Q22.25,696.9844 22.4063,697.1563 Q22.5625,697.3281 22.5625,697.7188 L22.5625,698.6563 Q22.5625,699.0469 22.4063,699.2188 Q22.25,699.3906 22.0156,699.3906 Q21.7969,699.3906 21.6563,699.2656 Q21.5156,699.1406 21.4531,698.8125 Q21.4219,698.5781 21.3125,698.4531 Q21.0938,698.2188 20.6875,698.0781 Q20.2969,697.9219 19.9063,697.9219 Q19.4063,697.9219 18.9844,698.1406 Q18.5781,698.3594 18.25,698.8438 Q17.9375,699.3281 17.9375,699.9844 L17.9375,700.7031 Q17.9375,701.5 18.5156,702.0313 Q19.0938,702.5625 20.125,702.5625 Q20.7344,702.5625 21.1563,702.3906 Q21.4063,702.2969 21.6875,702.0156 Q21.8594,701.8438 21.9531,701.7969 Q22.0469,701.7344 22.1719,701.7344 Q22.3906,701.7344 22.5625,701.9063 Q22.7344,702.0781 22.7344,702.2969 Q22.7344,702.5156 22.5,702.7813 Q22.1719,703.1563 21.6563,703.375 Q20.9688,703.6563 20.125,703.6563 Q19.1563,703.6563 18.375,703.2656 Q17.7344,702.9375 17.2813,702.25 Q16.8438,701.5469 16.8438,700.7188 L16.8438,699.9688 Q16.8438,699.1094 17.2344,698.375 Q17.6406,697.625 18.3438,697.2344 Q19.0625,696.8281 19.8594,696.8281 Q20.3281,696.8281 20.75,696.9375 Q21.1719,697.0469 21.5313,697.2656 Z " fill="#000000"/><text fill="#000000" font-family="sans-serif" font-size="11" lengthAdjust="spacing" textLength="35.4492" x="32" y="704.5547">Normal</text><line style="stroke:#181818;stroke-width:0.5;" x1="8" x2="69.4492" y1="714" y2="714"/><line style="stroke:#181818;stroke-width:0.5;" x1="8" x2="69.4492" y1="722" y2="722"/></g><!--class Binomial--><g class="entity" data-entity="Binomial" data-source-line="33" data-uid="ent0004" id="entity_Binomial"><rect fill="#F1F1F1" height="44" rx="2.5" ry="2.5" style="stroke:#181818;stroke-width:0.5;" width="70.1846" x="105.5" y="686"/><ellipse cx="118.5" cy="700" fill="#ADD1B2" rx="9" ry="9" style="stroke:#181818;stroke-width:1;"/><path d="M120.0313,697.2656 Q120.125,697.125 120.25,697.0625 Q120.375,696.9844 120.5156,696.9844 Q120.75,696.9844 120.9063,697.1563 Q121.0625,697.3281 121.0625,697.7188 L121.0625,698.6563 Q121.0625,699.0469 120.9063,699.2188 Q120.75,699.3906 120.5156,699.3906 Q120.2969,699.3906 120.1563,699.2656 Q120.0156,699.1406 119.9531,698.8125 Q119.9219,698.5781 119.8125,698.4531 Q119.5938,698.2188 119.1875,698.0781 Q118.7969,697.9219 118.4063,697.9219 Q117.9063,697.9219 117.4844,698.1406 Q117.0781,698.3594 116.75,698.8438 Q116.4375,699.3281 116.4375,699.9844 L116.4375,700.7031 Q116.4375,701.5 117.0156,702.0313 Q117.5938,702.5625 118.625,702.5625 Q119.2344,702.5625 119.6563,702.3906 Q119.9063,702.2969 120.1875,702.0156 Q120.3594,701.8438 120.4531,701.7969 Q120.5469,701.7344 120.6719,701.7344 Q120.8906,701.7344 121.0625,701.9063 Q121.2344,702.0781 121.2344,702.2969 Q121.2344,702.5156 121,702.7813 Q120.6719,703.1563 120.1563,703.375 Q119.4688,703.6563 118.625,703.6563 Q117.6563,703.6563 116.875,703.2656 Q116.2344,702.9375 115.7813,702.25 Q115.3438,701.5469 115.3438,700.7188 L115.3438,699.9688 Q115.3438,699.1094 115.7344,698.375 Q116.1406,697.625 116.8438,697.2344 Q117.5625,696.8281 118.3594,696.8281 Q118.8281,696.8281 119.25,696.9375 Q119.6719,697.0469 120.0313,697.2656 Z " fill="#000000"/><text fill="#000000" font-family="sans-serif" font-size="11" lengthAdjust="spacing" textLength="42.1846" x="130.5" y="704.5547">Binomial</text><line style="stroke:#181818;stroke-width:0.5;" x1="106.5" x2="174.6846" y1="714" y2="714"/><line style="stroke:#181818;stroke-width:0.5;" x1="106.5" x2="174.6846" y1="722" y2="722"/></g><!--class Poisson--><g class="entity" data-entity="Poisson" data-source-line="34" data-uid="ent0005" id="entity_Poisson"><rect fill="#F1F1F1" height="44" rx="2.5" ry="2.5" style="stroke:#181818;stroke-width:0.5;" width="67.1338" x="211" y="686"/><ellipse cx="224" cy="700" fill="#ADD1B2" rx="9" ry="9" style="stroke:#181818;stroke-width:1;"/><path d="M225.5313,697.2656 Q225.625,697.125 225.75,697.0625 Q225.875,696.9844 226.0156,696.9844 Q226.25,696.9844 226.4063,697.1563 Q226.5625,697.3281 226.5625,697.7188 L226.5625,698.6563 Q226.5625,699.0469 226.4063,699.2188 Q226.25,699.3906 226.0156,699.3906 Q225.7969,699.3906 225.6563,699.2656 Q225.5156,699.1406 225.4531,698.8125 Q225.4219,698.5781 225.3125,698.4531 Q225.0938,698.2188 224.6875,698.0781 Q224.2969,697.9219 223.9063,697.9219 Q223.4063,697.9219 222.9844,698.1406 Q222.5781,698.3594 222.25,698.8438 Q221.9375,699.3281 221.9375,699.9844 L221.9375,700.7031 Q221.9375,701.5 222.5156,702.0313 Q223.0938,702.5625 224.125,702.5625 Q224.7344,702.5625 225.1563,702.3906 Q225.4063,702.2969 225.6875,702.0156 Q225.8594,701.8438 225.9531,701.7969 Q226.0469,701.7344 226.1719,701.7344 Q226.3906,701.7344 226.5625,701.9063 Q226.7344,702.0781 226.7344,702.2969 Q226.7344,702.5156 226.5,702.7813 Q226.1719,703.1563 225.6563,703.375 Q224.9688,703.6563 224.125,703.6563 Q223.1563,703.6563 222.375,703.2656 Q221.7344,702.9375 221.2813,702.25 Q220.8438,701.5469 220.8438,700.7188 L220.8438,699.9688 Q220.8438,699.1094 221.2344,698.375 Q221.6406,697.625 222.3438,697.2344 Q223.0625,696.8281 223.8594,696.8281 Q224.3281,696.8281 224.75,696.9375 Q225.1719,697.0469 225.5313,697.2656 Z " fill="#000000"/><text fill="#000000" font-family="sans-serif" font-size="11" lengthAdjust="spacing" textLength="39.1338" x="236" y="704.5547">Poisson</text><line style="stroke:#181818;stroke-width:0.5;" x1="212" x2="277.1338" y1="714" y2="714"/><line style="stroke:#181818;stroke-width:0.5;" x1="212" x2="277.1338" y1="722" y2="722"/></g><!--class Geometric--><g class="entity" data-entity="Geometric" data-source-line="35" data-uid="ent0006" id="entity_Geometric"><rect fill="#F1F1F1" height="44" rx="2.5" ry="2.5" style="stroke:#181818;stroke-width:0.5;" width="78.7354" x="313" y="686"/><ellipse cx="326" cy="700" fill="#ADD1B2" rx="9" ry="9" style="stroke:#181818;stroke-width:1;"/><path d="M327.5313,697.2656 Q327.625,697.125 327.75,697.0625 Q327.875,696.9844 328.0156,696.9844 Q328.25,696.9844 328.4063,697.1563 Q328.5625,697.3281 328.5625,697.7188 L328.5625,698.6563 Q328.5625,699.0469 328.4063,699.2188 Q328.25,699.3906 328.0156,699.3906 Q327.7969,699.3906 327.6563,699.2656 Q327.5156,699.1406 327.4531,698.8125 Q327.4219,698.5781 327.3125,698.4531 Q327.0938,698.2188 326.6875,698.0781 Q326.2969,697.9219 325.9063,697.9219 Q325.4063,697.9219 324.9844,698.1406 Q324.5781,698.3594 324.25,698.8438 Q323.9375,699.3281 323.9375,699.9844 L323.9375,700.7031 Q323.9375,701.5 324.5156,702.0313 Q325.0938,702.5625 326.125,702.5625 Q326.7344,702.5625 327.1563,702.3906 Q327.4063,702.2969 327.6875,702.0156 Q327.8594,701.8438 327.9531,701.7969 Q328.0469,701.7344 328.1719,701.7344 Q328.3906,701.7344 328.5625,701.9063 Q328.7344,702.0781 328.7344,702.2969 Q328.7344,702.5156 328.5,702.7813 Q328.1719,703.1563 327.6563,703.375 Q326.9688,703.6563 326.125,703.6563 Q325.1563,703.6563 324.375,703.2656 Q323.7344,702.9375 323.2813,702.25 Q322.8438,701.5469 322.8438,700.7188 L322.8438,699.9688 Q322.8438,699.1094 323.2344,698.375 Q323.6406,697.625 324.3438,697.2344 Q325.0625,696.8281 325.8594,696.8281 Q326.3281,696.8281 326.75,696.9375 Q327.1719,697.0469 327.5313,697.2656 Z " fill="#000000"/><text fill="#000000" font-family="sans-serif" font-size="11" lengthAdjust="spacing" textLength="50.7354" x="338" y="704.5547">Geometric</text><line style="stroke:#181818;stroke-width:0.5;" x1="314" x2="390.7354" y1="714" y2="714"/><line style="stroke:#181818;stroke-width:0.5;" x1="314" x2="390.7354" y1="722" y2="722"/></g><!--class Exponential--><g class="entity" data-entity="Exponential" data-source-line="36" data-uid="ent0007" id="entity_Exponential"><rect fill="#F1F1F1" height="44" rx="2.5" ry="2.5" style="stroke:#181818;stroke-width:0.5;" width="85.4868" x="427" y="686"/><ellipse cx="440" cy="700" fill="#ADD1B2" rx="9" ry="9" style="stroke:#181818;stroke-width:1;"/><path d="M441.5313,697.2656 Q441.625,697.125 441.75,697.0625 Q441.875,696.9844 442.0156,696.9844 Q442.25,696.9844 442.4063,697.1563 Q442.5625,697.3281 442.5625,697.7188 L442.5625,698.6563 Q442.5625,699.0469 442.4063,699.2188 Q442.25,699.3906 442.0156,699.3906 Q441.7969,699.3906 441.6563,699.2656 Q441.5156,699.1406 441.4531,698.8125 Q441.4219,698.5781 441.3125,698.4531 Q441.0938,698.2188 440.6875,698.0781 Q440.2969,697.9219 439.9063,697.9219 Q439.4063,697.9219 438.9844,698.1406 Q438.5781,698.3594 438.25,698.8438 Q437.9375,699.3281 437.9375,699.9844 L437.9375,700.7031 Q437.9375,701.5 438.5156,702.0313 Q439.0938,702.5625 440.125,702.5625 Q440.7344,702.5625 441.1563,702.3906 Q441.4063,702.2969 441.6875,702.0156 Q441.8594,701.8438 441.9531,701.7969 Q442.0469,701.7344 442.1719,701.7344 Q442.3906,701.7344 442.5625,701.9063 Q442.7344,702.0781 442.7344,702.2969 Q442.7344,702.5156 442.5,702.7813 Q442.1719,703.1563 441.6563,703.375 Q440.9688,703.6563 440.125,703.6563 Q439.1563,703.6563 438.375,703.2656 Q437.7344,702.9375 437.2813,702.25 Q436.8438,701.5469 436.8438,700.7188 L436.8438,699.9688 Q436.8438,699.1094 437.2344,698.375 Q437.6406,697.625 438.3438,697.2344 Q439.0625,696.8281 439.8594,696.8281 Q440.3281,696.8281 440.75,696.9375 Q441.1719,697.0469 441.5313,697.2656 Z " fill="#000000"/><text fill="#000000" font-family="sans-serif" font-size="11" lengthAdjust="spacing" textLength="57.4868" x="452" y="704.5547">Exponential</text><line style="stroke:#181818;stroke-width:0.5;" x1="428" x2="511.4868" y1="714" y2="714"/><line style="stroke:#181818;stroke-width:0.5;" x1="428" x2="511.4868" y1="722" y2="722"/></g><!--class ChiSquared--><g class="entity" data-entity="ChiSquared" data-source-line="37" data-uid="ent0008" id="entity_ChiSquared"><rect fill="#F1F1F1" height="44" rx="2.5" ry="2.5" style="stroke:#181818;stroke-width:0.5;" width="86.0938" x="547.5" y="686"/><ellipse cx="560.5" cy="700" fill="#ADD1B2" rx="9" ry="9" style="stroke:#181818;stroke-width:1;"/><path d="M562.0313,697.2656 Q562.125,697.125 562.25,697.0625 Q562.375,696.9844 562.5156,696.9844 Q562.75,696.9844 562.9063,697.1563 Q563.0625,697.3281 563.0625,697.7188 L563.0625,698.6563 Q563.0625,699.0469 562.9063,699.2188 Q562.75,699.3906 562.5156,699.3906 Q562.2969,699.3906 562.1563,699.2656 Q562.0156,699.1406 561.9531,698.8125 Q561.9219,698.5781 561.8125,698.4531 Q561.5938,698.2188 561.1875,698.0781 Q560.7969,697.9219 560.4063,697.9219 Q559.9063,697.9219 559.4844,698.1406 Q559.0781,698.3594 558.75,698.8438 Q558.4375,699.3281 558.4375,699.9844 L558.4375,700.7031 Q558.4375,701.5 559.0156,702.0313 Q559.5938,702.5625 560.625,702.5625 Q561.2344,702.5625 561.6563,702.3906 Q561.9063,702.2969 562.1875,702.0156 Q562.3594,701.8438 562.4531,701.7969 Q562.5469,701.7344 562.6719,701.7344 Q562.8906,701.7344 563.0625,701.9063 Q563.2344,702.0781 563.2344,702.2969 Q563.2344,702.5156 563,702.7813 Q562.6719,703.1563 562.1563,703.375 Q561.4688,703.6563 560.625,703.6563 Q559.6563,703.6563 558.875,703.2656 Q558.2344,702.9375 557.7813,702.25 Q557.3438,701.5469 557.3438,700.7188 L557.3438,699.9688 Q557.3438,699.1094 557.7344,698.375 Q558.1406,697.625 558.8438,697.2344 Q559.5625,696.8281 560.3594,696.8281 Q560.8281,696.8281 561.25,696.9375 Q561.6719,697.0469 562.0313,697.2656 Z " fill="#000000"/><text fill="#000000" font-family="sans-serif" font-size="11" lengthAdjust="spacing" textLength="58.0938" x="572.5" y="704.5547">ChiSquared</text><line style="stroke:#181818;stroke-width:0.5;" x1="548.5" x2="632.5938" y1="714" y2="714"/><line style="stroke:#181818;stroke-width:0.5;" x1="548.5" x2="632.5938" y1="722" y2="722"/></g><!--class Parameter--><g class="entity" data-entity="Parameter" data-source-line="39" data-uid="ent0009" id="entity_Parameter"><rect fill="#F1F1F1" height="131.7852" rx="2.5" ry="2.5" style="stroke:#181818;stroke-width:0.5;" width="209.7637" x="668.5" y="642"/><ellipse cx="743.9553" cy="656" fill="#ADD1B2" rx="9" ry="9" style="stroke:#181818;stroke-width:1;"/><path d="M745.4866,653.2656 Q745.5803,653.125 745.7053,653.0625 Q745.8303,652.9844 745.9709,652.9844 Q746.2053,652.9844 746.3616,653.1563 Q746.5178,653.3281 746.5178,653.7188 L746.5178,654.6563 Q746.5178,655.0469 746.3616,655.2188 Q746.2053,655.3906 745.9709,655.3906 Q745.7522,655.3906 745.6116,655.2656 Q745.4709,655.1406 745.4084,654.8125 Q745.3772,654.5781 745.2678,654.4531 Q745.0491,654.2188 744.6428,654.0781 Q744.2522,653.9219 743.8616,653.9219 Q743.3616,653.9219 742.9397,654.1406 Q742.5334,654.3594 742.2053,654.8438 Q741.8928,655.3281 741.8928,655.9844 L741.8928,656.7031 Q741.8928,657.5 742.4709,658.0313 Q743.0491,658.5625 744.0803,658.5625 Q744.6897,658.5625 745.1116,658.3906 Q745.3616,658.2969 745.6428,658.0156 Q745.8147,657.8438 745.9084,657.7969 Q746.0022,657.7344 746.1272,657.7344 Q746.3459,657.7344 746.5178,657.9063 Q746.6897,658.0781 746.6897,658.2969 Q746.6897,658.5156 746.4553,658.7813 Q746.1272,659.1563 745.6116,659.375 Q744.9241,659.6563 744.0803,659.6563 Q743.1116,659.6563 742.3303,659.2656 Q741.6897,658.9375 741.2366,658.25 Q740.7991,657.5469 740.7991,656.7188 L740.7991,655.9688 Q740.7991,655.1094 741.1897,654.375 Q741.5959,653.625 742.2991,653.2344 Q743.0178,652.8281 743.8147,652.8281 Q744.2834,652.8281 744.7053,652.9375 Q745.1272,653.0469 745.4866,653.2656 Z " fill="#000000"/><text fill="#000000" font-family="sans-serif" font-size="11" lengthAdjust="spacing" textLength="51.353" x="761.4553" y="660.5547">Parameter</text><line style="stroke:#181818;stroke-width:0.5;" x1="669.5" x2="877.2637" y1="670" y2="670"/><text fill="#000000" font-family="sans-serif" font-size="11" lengthAdjust="spacing" textLength="47.9961" x="674.5" y="685.8701">+label: str</text><text fill="#000000" font-family="sans-serif" font-size="11" lengthAdjust="spacing" textLength="197.7637" x="674.5" y="700.501">+minimum, maximum, step, default: float</text><text fill="#000000" font-family="sans-serif" font-size="11" lengthAdjust="spacing" textLength="62.9814" x="674.5" y="715.1318">-_value: float</text><line style="stroke:#181818;stroke-width:1;" x1="669.5" x2="877.2637" y1="721.8926" y2="721.8926"/><text fill="#000000" font-family="sans-serif" font-size="11" lengthAdjust="spacing" textLength="110.3813" x="674.5" y="737.7627">+value: float {property}</text><text fill="#000000" font-family="sans-serif" font-size="11" lengthAdjust="spacing" textLength="104.8706" x="674.5" y="752.3936">+validate(value): bool</text><text fill="#000000" font-family="sans-serif" font-size="11" lengthAdjust="spacing" textLength="123.8198" x="674.5" y="767.0244">+get_spinbox_args(): dict</text></g><!--class Controller--><g class="entity" data-entity="Controller" data-source-line="49" data-uid="ent0010" id="entity_Controller"><rect fill="#F1F1F1" height="73.2617" rx="2.5" ry="2.5" style="stroke:#181818;stroke-width:0.5;" width="171.876" x="280.5" y="14.5"/><ellipse cx="338.8457" cy="28.5" fill="#ADD1B2" rx="9" ry="9" style="stroke:#181818;stroke-width:1;"/><path d="M340.377,25.7656 Q340.4707,25.625 340.5957,25.5625 Q340.7207,25.4844 340.8613,25.4844 Q341.0957,25.4844 341.252,25.6563 Q341.4082,25.8281 341.4082,26.2188 L341.4082,27.1563 Q341.4082,27.5469 341.252,27.7188 Q341.0957,27.8906 340.8613,27.8906 Q340.6426,27.8906 340.502,27.7656 Q340.3613,27.6406 340.2988,27.3125 Q340.2676,27.0781 340.1582,26.9531 Q339.9395,26.7188 339.5332,26.5781 Q339.1426,26.4219 338.752,26.4219 Q338.252,26.4219 337.8301,26.6406 Q337.4238,26.8594 337.0957,27.3438 Q336.7832,27.8281 336.7832,28.4844 L336.7832,29.2031 Q336.7832,30 337.3613,30.5313 Q337.9395,31.0625 338.9707,31.0625 Q339.5801,31.0625 340.002,30.8906 Q340.252,30.7969 340.5332,30.5156 Q340.7051,30.3438 340.7988,30.2969 Q340.8926,30.2344 341.0176,30.2344 Q341.2363,30.2344 341.4082,30.4063 Q341.5801,30.5781 341.5801,30.7969 Q341.5801,31.0156 341.3457,31.2813 Q341.0176,31.6563 340.502,31.875 Q339.8145,32.1563 338.9707,32.1563 Q338.002,32.1563 337.2207,31.7656 Q336.5801,31.4375 336.127,30.75 Q335.6895,30.0469 335.6895,29.2188 L335.6895,28.4688 Q335.6895,27.6094 336.0801,26.875 Q336.4863,26.125 337.1895,25.7344 Q337.9082,25.3281 338.7051,25.3281 Q339.1738,25.3281 339.5957,25.4375 Q340.0176,25.5469 340.377,25.7656 Z " fill="#000000"/><text fill="#000000" font-family="sans-serif" font-size="11" lengthAdjust="spacing" textLength="47.6846" x="356.3457" y="33.0547">Controller</text><line style="stroke:#181818;stroke-width:0.5;" x1="281.5" x2="451.376" y1="42.5" y2="42.5"/><text fill="#000000" font-family="sans-serif" font-size="11" lengthAdjust="spacing" textLength="159.876" x="286.5" y="58.3701">+model: AbstractStatisticalModel</text><line style="stroke:#181818;stroke-width:1;" x1="281.5" x2="451.376" y1="65.1309" y2="65.1309"/><text fill="#000000" font-family="sans-serif" font-size="11" lengthAdjust="spacing" textLength="47.9854" x="286.5" y="81.001">+refresh()</text></g><!--class CalculationFrame--><g class="entity" data-entity="CalculationFrame" data-source-line="55" data-uid="ent0011" id="entity_CalculationFrame"><rect fill="#F1F1F1" height="87.8926" rx="2.5" ry="2.5" style="stroke:#181818;stroke-width:0.5;" width="171.876" x="487.5" y="7"/><ellipse cx="526.5876" cy="21" fill="#ADD1B2" rx="9" ry="9" style="stroke:#181818;stroke-width:1;"/><path d="M528.1189,18.2656 Q528.2126,18.125 528.3376,18.0625 Q528.4626,17.9844 528.6033,17.9844 Q528.8376,17.9844 528.9939,18.1563 Q529.1501,18.3281 529.1501,18.7188 L529.1501,19.6563 Q529.1501,20.0469 528.9939,20.2188 Q528.8376,20.3906 528.6033,20.3906 Q528.3845,20.3906 528.2439,20.2656 Q528.1033,20.1406 528.0408,19.8125 Q528.0095,19.5781 527.9001,19.4531 Q527.6814,19.2188 527.2751,19.0781 Q526.8845,18.9219 526.4939,18.9219 Q525.9939,18.9219 525.572,19.1406 Q525.1658,19.3594 524.8376,19.8438 Q524.5251,20.3281 524.5251,20.9844 L524.5251,21.7031 Q524.5251,22.5 525.1033,23.0313 Q525.6814,23.5625 526.7126,23.5625 Q527.322,23.5625 527.7439,23.3906 Q527.9939,23.2969 528.2751,23.0156 Q528.447,22.8438 528.5408,22.7969 Q528.6345,22.7344 528.7595,22.7344 Q528.9783,22.7344 529.1501,22.9063 Q529.322,23.0781 529.322,23.2969 Q529.322,23.5156 529.0876,23.7813 Q528.7595,24.1563 528.2439,24.375 Q527.5564,24.6563 526.7126,24.6563 Q525.7439,24.6563 524.9626,24.2656 Q524.322,23.9375 523.8689,23.25 Q523.4314,22.5469 523.4314,21.7188 L523.4314,20.9688 Q523.4314,20.1094 523.822,19.375 Q524.2283,18.625 524.9314,18.2344 Q525.6501,17.8281 526.447,17.8281 Q526.9158,17.8281 527.3376,17.9375 Q527.7595,18.0469 528.1189,18.2656 Z " fill="#000000"/><text fill="#000000" font-family="sans-serif" font-size="11" lengthAdjust="spacing" textLength="86.2007" x="544.0876" y="25.5547">CalculationFrame</text><line style="stroke:#181818;stroke-width:0.5;" x1="488.5" x2="658.376" y1="35" y2="35"/><text fill="#000000" font-family="sans-serif" font-size="11" lengthAdjust="spacing" textLength="159.876" x="493.5" y="50.8701">+model: AbstractStatisticalModel</text><line style="stroke:#181818;stroke-width:1;" x1="488.5" x2="658.376" y1="57.6309" y2="57.6309"/><text fill="#000000" font-family="sans-serif" font-size="11" lengthAdjust="spacing" textLength="92.646" x="493.5" y="73.501">+entry1_updating()</text><text fill="#000000" font-family="sans-serif" font-size="11" lengthAdjust="spacing" textLength="92.646" x="493.5" y="88.1318">+entry2_updating()</text></g><!--class DistributionGraph--><g class="entity" data-entity="DistributionGraph" data-source-line="62" data-uid="ent0012" id="entity_DistributionGraph"><rect fill="#F1F1F1" height="58.6309" rx="2.5" ry="2.5" style="stroke:#181818;stroke-width:0.5;" width="457.4463" x="914" y="678.5"/><ellipse cx="1096.1763" cy="692.5" fill="#ADD1B2" rx="9" ry="9" style="stroke:#181818;stroke-width:1;"/><path d="M1097.7075,689.7656 Q1097.8013,689.625 1097.9263,689.5625 Q1098.0513,689.4844 1098.1919,689.4844 Q1098.4263,689.4844 1098.5825,689.6563 Q1098.7388,689.8281 1098.7388,690.2188 L1098.7388,691.1563 Q1098.7388,691.5469 1098.5825,691.7188 Q1098.4263,691.8906 1098.1919,691.8906 Q1097.9731,691.8906 1097.8325,691.7656 Q1097.6919,691.6406 1097.6294,691.3125 Q1097.5981,691.0781 1097.4888,690.9531 Q1097.27,690.7188 1096.8638,690.5781 Q1096.4731,690.4219 1096.0825,690.4219 Q1095.5825,690.4219 1095.1606,690.6406 Q1094.7544,690.8594 1094.4263,691.3438 Q1094.1138,691.8281 1094.1138,692.4844 L1094.1138,693.2031 Q1094.1138,694 1094.6919,694.5313 Q1095.27,695.0625 1096.3013,695.0625 Q1096.9106,695.0625 1097.3325,694.8906 Q1097.5825,694.7969 1097.8638,694.5156 Q1098.0356,694.3438 1098.1294,694.2969 Q1098.2231,694.2344 1098.3481,694.2344 Q1098.5669,694.2344 1098.7388,694.4063 Q1098.9106,694.5781 1098.9106,694.7969 Q1098.9106,695.0156 1098.6763,695.2813 Q1098.3481,695.6563 1097.8325,695.875 Q1097.145,696.1563 1096.3013,696.1563 Q1095.3325,696.1563 1094.5513,695.7656 Q1093.9106,695.4375 1093.4575,694.75 Q1093.02,694.0469 1093.02,693.2188 L1093.02,692.4688 Q1093.02,691.6094 1093.4106,690.875 Q1093.8169,690.125 1094.52,689.7344 Q1095.2388,689.3281 1096.0356,689.3281 Q1096.5044,689.3281 1096.9263,689.4375 Q1097.3481,689.5469 1097.7075,689.7656 Z " fill="#000000"/><text fill="#000000" font-family="sans-serif" font-size="11" lengthAdjust="spacing" textLength="85.5938" x="1113.6763" y="697.0547">DistributionGraph</text><line style="stroke:#181818;stroke-width:0.5;" x1="915" x2="1370.4463" y1="706.5" y2="706.5"/><line style="stroke:#181818;stroke-width:1;" x1="915" x2="1370.4463" y1="714.5" y2="714.5"/><text fill="#000000" font-family="sans-serif" font-size="11" lengthAdjust="spacing" textLength="445.4463" x="920" y="730.3701">+update_plot(x_vals, y_vals, graph_type, cdf_func, shade_min, shade_max, show_cursors)</text></g><g class="entity" data-entity="binary_search_for_x" data-source-line="67" data-uid="ent0013" id="entity_binary_search_for_x"><rect fill="#F1F1F1" height="49.2617" rx="2.5" ry="2.5" style="stroke:#181818;stroke-width:0.5;" width="113.666" x="1416.5" y="683.5"/><text fill="#000000" font-family="sans-serif" font-size="11" font-style="italic" lengthAdjust="spacing" textLength="50.7622" x="1447.9519" y="695.3701">&#171;function&#187;</text><text fill="#000000" font-family="sans-serif" font-size="11" lengthAdjust="spacing" textLength="99.666" x="1423.5" y="712.001">binary_search_for_x</text><line style="stroke:#181818;stroke-width:0.5;" x1="1417.5" x2="1529.166" y1="716.7617" y2="716.7617"/></g><!--reverse link AbstractStatisticalModel to Normal--><g class="link" data-entity-1="AbstractStatisticalModel" data-entity-2="Normal" data-source-line="69" data-uid="lnk14" id="link_AbstractStatisticalModel_Normal"><path codeLine="69" d="M316.7309,462.7796 C240.3809,512.5496 161.32,570.1 87.5,642 C73.93,655.21 61.15,672.4 52.04,685.79" fill="none" id="AbstractStatisticalModel-backto-Normal" style="stroke:#181818;stroke-width:1;"/><polygon fill="none" points="331.81,452.95,313.4544,457.7532,320.0074,467.8059,331.81,452.95" style="stroke:#181818;stroke-width:1;"/></g><!--reverse link AbstractStatisticalModel to Binomial--><g class="link" data-entity-1="AbstractStatisticalModel" data-entity-2="Binomial" data-source-line="70" data-uid="lnk15" id="link_AbstractStatisticalModel_Binomial"><path codeLine="70" d="M318.9274,512.3218 C273.8074,556.4918 236.99,594.17 193.5,642 C180.67,656.11 167.09,672.8 156.89,685.74" fill="none" id="AbstractStatisticalModel-backto-Binomial" style="stroke:#181818;stroke-width:1;"/><polygon fill="none" points="331.79,499.73,314.7301,508.0343,323.1247,516.6093,331.79,499.73" style="stroke:#181818;stroke-width:1;"/></g><!--reverse link AbstractStatisticalModel to Poisson--><g class="link" data-entity-1="AbstractStatisticalModel" data-entity-2="Poisson" data-source-line="71" data-uid="lnk16" id="link_AbstractStatisticalModel_Poisson"><path codeLine="71" d="M328.3054,581.2869 C295.9054,629.8869 275.63,660.31 258.64,685.78" fill="none" id="AbstractStatisticalModel-backto-Poisson" style="stroke:#181818;stroke-width:1;"/><polygon fill="none" points="338.29,566.31,323.3131,577.9587,333.2977,584.6151,338.29,566.31" style="stroke:#181818;stroke-width:1;"/></g><!--reverse link AbstractStatisticalModel to Geometric--><g class="link" data-entity-1="AbstractStatisticalModel" data-entity-2="Geometric" data-source-line="72" data-uid="lnk17" id="link_AbstractStatisticalModel_Geometric"><path codeLine="72" d="M395.3736,583.3168 C378.5236,631.9168 368.69,660.31 359.85,685.78" fill="none" id="AbstractStatisticalModel-backto-Geometric" style="stroke:#181818;stroke-width:1;"/><polygon fill="none" points="401.27,566.31,389.7047,581.3514,401.0425,585.2823,401.27,566.31" style="stroke:#181818;stroke-width:1;"/></g><!--reverse link AbstractStatisticalModel to Exponential--><g class="link" data-entity-1="AbstractStatisticalModel" data-entity-2="Exponential" data-source-line="73" data-uid="lnk18" id="link_AbstractStatisticalModel_Exponential"><path codeLine="73" d="M469.5,584.31 C469.5,632.91 469.5,660.31 469.5,685.78" fill="none" id="AbstractStatisticalModel-backto-Exponential" style="stroke:#181818;stroke-width:1;"/><polygon fill="none" points="469.5,566.31,463.5,584.31,475.5,584.31,469.5,566.31" style="stroke:#181818;stroke-width:1;"/></g><!--reverse link AbstractStatisticalModel to ChiSquared--><g class="link" data-entity-1="AbstractStatisticalModel" data-entity-2="ChiSquared" data-source-line="74" data-uid="lnk19" id="link_AbstractStatisticalModel_ChiSquared"><path codeLine="74" d="M546.1335,583.2544 C563.5535,631.8544 573.76,660.31 582.89,685.78" fill="none" id="AbstractStatisticalModel-backto-ChiSquared" style="stroke:#181818;stroke-width:1;"/><polygon fill="none" points="540.06,566.31,540.4854,585.2789,551.7816,581.2299,540.06,566.31" style="stroke:#181818;stroke-width:1;"/></g><!--reverse link AbstractStatisticalModel to Parameter--><g class="link" data-entity-1="AbstractStatisticalModel" data-entity-2="Parameter" data-source-line="76" data-uid="lnk20" id="link_AbstractStatisticalModel_Parameter"><path codeLine="76" d="M615.3014,531.366 C653.1614,573.396 684.18,607.84 714.91,641.95" fill="none" id="AbstractStatisticalModel-backto-Parameter" style="stroke:#181818;stroke-width:1;"/><polygon fill="#181818" points="607.27,522.45,608.3137,529.5852,615.3014,531.366,614.2577,524.2309,607.27,522.45" style="stroke:#181818;stroke-width:1;"/></g><!--link AbstractStatisticalModel to binary_search_for_x--><g class="link" data-entity-1="AbstractStatisticalModel" data-entity-2="binary_search_for_x" data-source-line="77" data-uid="lnk21" id="link_AbstractStatisticalModel_binary_search_for_x"><path codeLine="77" d="M607.26,407.34 C764.09,450.89 1027.68,525.5 1252.5,596 C1313.39,615.09 1332.18,612 1388.5,642 C1409.65,653.27 1426.4823,665.8131 1442.5223,679.3331" fill="none" id="AbstractStatisticalModel-to-binary_search_for_x" style="stroke:#181818;stroke-width:1;stroke-dasharray:7,7;"/><polygon fill="#181818" points="1447.11,683.2,1442.8064,674.3412,1443.2869,679.9776,1437.6505,680.4581,1447.11,683.2" style="stroke:#181818;stroke-width:1;"/><text fill="#000000" font-family="sans-serif" font-size="11" lengthAdjust="spacing" textLength="141.2329" x="1310.5" y="608.8701">xplessthan(), xpgreaterthan()</text></g><!--reverse link Controller to AbstractStatisticalModel--><g class="link" data-entity-1="Controller" data-entity-2="AbstractStatisticalModel" data-source-line="79" data-uid="lnk22" id="link_Controller_AbstractStatisticalModel"><path codeLine="79" d="M381.842,98.9882 C388.912,120.6582 394.86,138.86 405.26,170.73" fill="none" id="Controller-backto-AbstractStatisticalModel" style="stroke:#181818;stroke-width:1;"/><polygon fill="none" points="378.12,87.58,376.1783,94.5248,381.842,98.9882,383.7837,92.0434,378.12,87.58" style="stroke:#181818;stroke-width:1;"/><text fill="#000000" font-family="sans-serif" font-size="11" lengthAdjust="spacing" textLength="89.8584" x="395.5" y="137.8701">model (Dist mode)</text></g><!--reverse link CalculationFrame to AbstractStatisticalModel--><g class="link" data-entity-1="CalculationFrame" data-entity-2="AbstractStatisticalModel" data-source-line="80" data-uid="lnk23" id="link_CalculationFrame_AbstractStatisticalModel"><path codeLine="80" d="M555.4999,106.6057 C548.6499,127.3657 543.68,142.46 534.36,170.75" fill="none" id="CalculationFrame-backto-AbstractStatisticalModel" style="stroke:#181818;stroke-width:1;"/><polygon fill="none" points="559.26,95.21,553.5814,99.6545,555.4999,106.6057,561.1785,102.1612,559.26,95.21" style="stroke:#181818;stroke-width:1;"/><text fill="#000000" font-family="sans-serif" font-size="11" lengthAdjust="spacing" textLength="29.96" x="548.5" y="137.8701">model</text></g><!--link AbstractStatisticalModel to DistributionGraph--><g class="link" data-entity-1="AbstractStatisticalModel" data-entity-2="DistributionGraph" data-source-line="81" data-uid="lnk24" id="link_AbstractStatisticalModel_DistributionGraph"><path codeLine="81" d="M607.32,438.61 C754.41,512.38 975.0565,623.0306 1079.9765,675.6406" fill="none" id="AbstractStatisticalModel-to-DistributionGraph" style="stroke:#181818;stroke-width:1;"/><polygon fill="#181818" points="1085.34,678.33,1079.0877,670.7202,1080.8704,676.0888,1075.5018,677.8715,1085.34,678.33" style="stroke:#181818;stroke-width:1;"/><text fill="#000000" font-family="sans-serif" font-size="11" lengthAdjust="spacing" textLength="299.0088" x="944.5" y="608.8701">get_plot_data() provides x_vals, y_vals, graph_type, cdf_func</text></g><!--SRC=[bLLBJzmm4BxdL_YOj0agFKPe9Ke1SIX2ueYGDN5cTzqwTcexssmN_diTvydkPWkds3FVFFtDnFpYiWGD1M42ZBcqLlEiidZ7b7paVv5y2Sm0oN49bR0tIbglEpyF0iYCrS1iQqykk-kZ1SkDvGp43vMZ8Bk0aC_4-q6BsgGavym-ENHC7dhfimTnGtDkc7QIb6HA2ITD4g-Yb4jkAGtt7SM7Lf6tA9n1IfP2WIMx8TbIgnArtRws6AZ_YodpPLX7FUg5o1oqXks8Rs4hjBGKoj8SB8GERwjIu5E7Zibmy8MxxWZ813wFjaDTZN5JcLUnuz7Rp6hyNO4m8w0J2pJ6ha7EAhoTLGVwbKPmAHordUZcpBbaeZ9yWro649DiJutr2NLT3bcNCue-xBv-clK9tPpvDEkoVpYoqy0D6dAlx5tX10LAY_crrag_TeRJUZvWYCwIDLEYP1WTiA_5R41pa0oF0bw3e9svUwKB4Dtb6vUguCFrGN5ZbEnkjwWSkJHdtVswBfLqYOtugpL_T0tIcFVUX-7iHjWH5aNQy7UOhw8gOZz4_c0ibd6_AyOU9uHkG5GuaIHTaQEKxDvEdTDnDqaOUb0qh8DsM8nxj4pL5FHg79UXBLTkJMabn91vqIoYT7P5ZHbfN6eqwp2QE0F1Ak5VwwRfnqTTkYRhxJcjIbSDbwim6gLVfz8Xu7VdnwzY5_5MGxds4JjltW3zeWdhfgqc9jlkksh0r6vBZ9krGPULPEvHrf0ZTOyr7A5kZkeFPPKsIXiVMsK_7Ib9nYNeBJK8cgtfKcbQaukBnbEJpc8H1BDx_k8bINf6dWODJ3qDwnby6ZKo-pHkolZJoEaap28_DGds0p8FEpjR7ErfEjrtKRotnA8Wc71OkL2p0TAMYIHiQEFFKN10sVTucAyXIHP7I9dk__6Qt-Q6vsxplOUOmJy0]--></g></svg>