<svg xmlns="http://www.w3.org/2000/svg" xmlns:xlink="http://www.w3.org/1999/xlink" contentStyleType="text/css" data-diagram-type="CLASS" height="532px" preserveAspectRatio="none" style="width:823px;height:532px;background:#FFFFFF;" version="1.1" viewBox="0 0 823 532" width="823px" zoomAndPan="magnify"><defs/><g><!--class AbstractDicetribution--><g class="entity" data-entity="AbstractDicetribution" data-source-line="4" data-uid="ent0002" id="entity_AbstractDicetribution"><rect fill="#F1F1F1" height="219.5703" rx="2.5" ry="2.5" style="stroke:#181818;stroke-width:0.5;" width="199.4351" x="259.5" y="156"/><ellipse cx="304.7241" cy="170" fill="#A9DCDF" rx="9" ry="9" style="stroke:#181818;stroke-width:1;"/><path d="M305.8647,171.7344 L303.1929,171.7344 L302.9272,172.4063 L303.1929,172.4063 Q303.5991,172.4063 303.7554,172.5625 Q303.9272,172.7031 303.9272,172.9531 Q303.9272,173.1875 303.7554,173.3438 Q303.5991,173.5 303.1929,173.5 L301.7085,173.5 Q301.3179,173.5 301.146,173.3438 Q300.9741,173.1875 300.9741,172.9531 Q300.9741,172.7031 301.1616,172.5469 Q301.3335,172.3906 301.7397,172.4063 L303.4741,168.0938 L302.7554,168.0938 Q302.3491,168.0938 302.1772,167.9375 Q302.021,167.7813 302.021,167.5313 Q302.021,167.2969 302.1772,167.1406 Q302.3491,166.9844 302.7554,166.9844 L305.1304,166.9844 L307.3179,172.4063 Q307.7085,172.4063 307.8335,172.4844 Q308.0835,172.6563 308.0835,172.9531 Q308.0835,173.1875 307.9116,173.3438 Q307.7397,173.5 307.3491,173.5 L305.8647,173.5 Q305.4741,173.5 305.3022,173.3438 Q305.1304,173.1875 305.1304,172.9531 Q305.1304,172.7031 305.3022,172.5625 Q305.4741,172.4063 305.8647,172.4063 L306.1304,172.4063 L305.8647,171.7344 Z M305.4116,170.625 L304.521,168.4531 L303.6304,170.625 L305.4116,170.625 Z " fill="#000000"/><text fill="#000000" font-family="sans-serif" font-size="11" font-style="italic" lengthAdjust="spacing" textLength="101.4868" x="322.2241" y="174.5547">AbstractDicetribution</text><line style="stroke:#181818;stroke-width:0.5;" x1="260.5" x2="457.9351" y1="184" y2="184"/><text fill="#000000" font-family="sans-serif" font-size="11" lengthAdjust="spacing" textLength="115.8599" x="265.5" y="199.8701">+dice_data: list[list[Die]]</text><text fill="#000000" font-family="sans-serif" font-size="11" lengthAdjust="spacing" textLength="161.0845" x="265.5" y="214.501">+parameters: dict[str, Parameter]</text><line style="stroke:#181818;stroke-width:1;" x1="260.5" x2="457.9351" y1="221.2617" y2="221.2617"/><text fill="#000000" font-family="sans-serif" font-size="11" lengthAdjust="spacing" textLength="131.146" x="265.5" y="237.1318">+__init__(parameters: dict)</text><text fill="#000000" font-family="sans-serif" font-size="11" font-style="italic" lengthAdjust="spacing" textLength="121.3545" x="265.5" y="251.7627">+get_dice_row(): list[Die]</text><text fill="#000000" font-family="sans-serif" font-size="11" font-style="italic" lengthAdjust="spacing" textLength="167.2129" x="265.5" y="266.3936">+get_row_data(row: list[Die]): float</text><text fill="#000000" font-family="sans-serif" font-size="11" lengthAdjust="spacing" textLength="106.0898" x="265.5" y="281.0244">+add_dice_row(n: int)</text><text fill="#000000" font-family="sans-serif" font-size="11" lengthAdjust="spacing" textLength="124.416" x="265.5" y="295.6553">+remove_dice_row(n: int)</text><text fill="#000000" font-family="sans-serif" font-size="11" lengthAdjust="spacing" textLength="114.646" x="265.5" y="310.2861">+set_n_dice_row(n: int)</text><text fill="#000000" font-family="sans-serif" font-size="11" lengthAdjust="spacing" textLength="109.146" x="265.5" y="324.917">+get_n_dice_row(): int</text><text fill="#000000" font-family="sans-serif" font-size="11" lengthAdjust="spacing" textLength="132.3867" x="265.5" y="339.5479">+get_dice_data(): list[tuple]</text><text fill="#000000" font-family="sans-serif" font-size="11" font-style="italic" lengthAdjust="spacing" textLength="187.4351" x="265.5" y="354.1787">+get_plot_data(show_real: bool): tuple</text><text fill="#000000" font-family="sans-serif" font-size="11" font-style="italic" lengthAdjust="spacing" textLength="172.7505" x="265.5" y="368.8096">+e_and_var(show_real: bool): tuple</text></g><!--class Die--><g class="entity" data-entity="Die" data-source-line="20" data-uid="ent0003" id="entity_Die"><rect fill="#F1F1F1" height="73.2617" rx="2.5" ry="2.5" style="stroke:#181818;stroke-width:0.5;" width="58.1484" x="7" y="452"/><ellipse cx="26.1394" cy="466" fill="#ADD1B2" rx="9" ry="9" style="stroke:#181818;stroke-width:1;"/><path d="M27.6706,463.2656 Q27.7644,463.125 27.8894,463.0625 Q28.0144,462.9844 28.155,462.9844 Q28.3894,462.9844 28.5456,463.1563 Q28.7019,463.3281 28.7019,463.7188 L28.7019,464.6563 Q28.7019,465.0469 28.5456,465.2188 Q28.3894,465.3906 28.155,465.3906 Q27.9363,465.3906 27.7956,465.2656 Q27.655,465.1406 27.5925,464.8125 Q27.5613,464.5781 27.4519,464.4531 Q27.2331,464.2188 26.8269,464.0781 Q26.4363,463.9219 26.0456,463.9219 Q25.5456,463.9219 25.1238,464.1406 Q24.7175,464.3594 24.3894,464.8438 Q24.0769,465.3281 24.0769,465.9844 L24.0769,466.7031 Q24.0769,467.5 24.655,468.0313 Q25.2331,468.5625 26.2644,468.5625 Q26.8738,468.5625 27.2956,468.3906 Q27.5456,468.2969 27.8269,468.0156 Q27.9988,467.8438 28.0925,467.7969 Q28.1863,467.7344 28.3113,467.7344 Q28.53,467.7344 28.7019,467.9063 Q28.8738,468.0781 28.8738,468.2969 Q28.8738,468.5156 28.6394,468.7813 Q28.3113,469.1563 27.7956,469.375 Q27.1081,469.6563 26.2644,469.6563 Q25.2956,469.6563 24.5144,469.2656 Q23.8738,468.9375 23.4206,468.25 Q22.9831,467.5469 22.9831,466.7188 L22.9831,465.9688 Q22.9831,465.1094 23.3738,464.375 Q23.78,463.625 24.4831,463.2344 Q25.2019,462.8281 25.9988,462.8281 Q26.4675,462.8281 26.8894,462.9375 Q27.3113,463.0469 27.6706,463.2656 Z " fill="#000000"/><text fill="#000000" font-family="sans-serif" font-size="11" lengthAdjust="spacing" textLength="16.5054" x="39.5037" y="470.5547">Die</text><line style="stroke:#181818;stroke-width:0.5;" x1="8" x2="64.1484" y1="480" y2="480"/><text fill="#000000" font-family="sans-serif" font-size="11" lengthAdjust="spacing" textLength="45.5522" x="13" y="495.8701">+num: int</text><line style="stroke:#181818;stroke-width:1;" x1="8" x2="64.1484" y1="502.6309" y2="502.6309"/><text fill="#000000" font-family="sans-serif" font-size="11" lengthAdjust="spacing" textLength="46.1484" x="13" y="518.501">+roll(): int</text></g><!--class Parameter--><g class="entity" data-entity="Parameter" data-source-line="26" data-uid="ent0004" id="entity_Parameter"><rect fill="#F1F1F1" height="73.2617" rx="2.5" ry="2.5" style="stroke:#181818;stroke-width:0.5;" width="122.3813" x="114" y="452"/><ellipse cx="146.3627" cy="466" fill="#ADD1B2" rx="9" ry="9" style="stroke:#181818;stroke-width:1;"/><path d="M147.894,463.2656 Q147.9877,463.125 148.1127,463.0625 Q148.2377,462.9844 148.3784,462.9844 Q148.6127,462.9844 148.769,463.1563 Q148.9252,463.3281 148.9252,463.7188 L148.9252,464.6563 Q148.9252,465.0469 148.769,465.2188 Q148.6127,465.3906 148.3784,465.3906 Q148.1596,465.3906 148.019,465.2656 Q147.8784,465.1406 147.8159,464.8125 Q147.7846,464.5781 147.6752,464.4531 Q147.4565,464.2188 147.0502,464.0781 Q146.6596,463.9219 146.269,463.9219 Q145.769,463.9219 145.3471,464.1406 Q144.9409,464.3594 144.6127,464.8438 Q144.3002,465.3281 144.3002,465.9844 L144.3002,466.7031 Q144.3002,467.5 144.8784,468.0313 Q145.4565,468.5625 146.4877,468.5625 Q147.0971,468.5625 147.519,468.3906 Q147.769,468.2969 148.0502,468.0156 Q148.2221,467.8438 148.3159,467.7969 Q148.4096,467.7344 148.5346,467.7344 Q148.7534,467.7344 148.9252,467.9063 Q149.0971,468.0781 149.0971,468.2969 Q149.0971,468.5156 148.8627,468.7813 Q148.5346,469.1563 148.019,469.375 Q147.3315,469.6563 146.4877,469.6563 Q145.519,469.6563 144.7377,469.2656 Q144.0971,468.9375 143.644,468.25 Q143.2065,467.5469 143.2065,466.7188 L143.2065,465.9688 Q143.2065,465.1094 143.5971,464.375 Q144.0034,463.625 144.7065,463.2344 Q145.4252,462.8281 146.2221,462.8281 Q146.6909,462.8281 147.1127,462.9375 Q147.5346,463.0469 147.894,463.2656 Z " fill="#000000"/><text fill="#000000" font-family="sans-serif" font-size="11" lengthAdjust="spacing" textLength="51.353" x="162.6656" y="470.5547">Parameter</text><line style="stroke:#181818;stroke-width:0.5;" x1="115" x2="235.3813" y1="480" y2="480"/><text fill="#000000" font-family="sans-serif" font-size="11" lengthAdjust="spacing" textLength="62.9814" x="120" y="495.8701">-_value: float</text><line style="stroke:#181818;stroke-width:1;" x1="115" x2="235.3813" y1="502.6309" y2="502.6309"/><text fill="#000000" font-family="sans-serif" font-size="11" lengthAdjust="spacing" textLength="110.3813" x="120" y="518.501">+value: float {property}</text></g><!--class GeoDice--><g class="entity" data-entity="GeoDice" data-source-line="32" data-uid="ent0005" id="entity_GeoDice"><rect fill="#F1F1F1" height="44" rx="2.5" ry="2.5" style="stroke:#181818;stroke-width:0.5;" width="70.7969" x="271.5" y="466.5"/><ellipse cx="284.5" cy="480.5" fill="#ADD1B2" rx="9" ry="9" style="stroke:#181818;stroke-width:1;"/><path d="M286.0313,477.7656 Q286.125,477.625 286.25,477.5625 Q286.375,477.4844 286.5156,477.4844 Q286.75,477.4844 286.9063,477.6563 Q287.0625,477.8281 287.0625,478.2188 L287.0625,479.1563 Q287.0625,479.5469 286.9063,479.7188 Q286.75,479.8906 286.5156,479.8906 Q286.2969,479.8906 286.1563,479.7656 Q286.0156,479.6406 285.9531,479.3125 Q285.9219,479.0781 285.8125,478.9531 Q285.5938,478.7188 285.1875,478.5781 Q284.7969,478.4219 284.4063,478.4219 Q283.9063,478.4219 283.4844,478.6406 Q283.0781,478.8594 282.75,479.3438 Q282.4375,479.8281 282.4375,480.4844 L282.4375,481.2031 Q282.4375,482 283.0156,482.5313 Q283.5938,483.0625 284.625,483.0625 Q285.2344,483.0625 285.6563,482.8906 Q285.9063,482.7969 286.1875,482.5156 Q286.3594,482.3438 286.4531,482.2969 Q286.5469,482.2344 286.6719,482.2344 Q286.8906,482.2344 287.0625,482.4063 Q287.2344,482.5781 287.2344,482.7969 Q287.2344,483.0156 287,483.2813 Q286.6719,483.6563 286.1563,483.875 Q285.4688,484.1563 284.625,484.1563 Q283.6563,484.1563 282.875,483.7656 Q282.2344,483.4375 281.7813,482.75 Q281.3438,482.0469 281.3438,481.2188 L281.3438,480.4688 Q281.3438,479.6094 281.7344,478.875 Q282.1406,478.125 282.8438,477.7344 Q283.5625,477.3281 284.3594,477.3281 Q284.8281,477.3281 285.25,477.4375 Q285.6719,477.5469 286.0313,477.7656 Z " fill="#000000"/><text fill="#000000" font-family="sans-serif" font-size="11" lengthAdjust="spacing" textLength="42.7969" x="296.5" y="485.0547">GeoDice</text><line style="stroke:#181818;stroke-width:0.5;" x1="272.5" x2="341.2969" y1="494.5" y2="494.5"/><line style="stroke:#181818;stroke-width:0.5;" x1="272.5" x2="341.2969" y1="502.5" y2="502.5"/></g><!--class BinDice--><g class="entity" data-entity="BinDice" data-source-line="33" data-uid="ent0006" id="entity_BinDice"><rect fill="#F1F1F1" height="44" rx="2.5" ry="2.5" style="stroke:#181818;stroke-width:0.5;" width="65.9038" x="378" y="466.5"/><ellipse cx="391" cy="480.5" fill="#ADD1B2" rx="9" ry="9" style="stroke:#181818;stroke-width:1;"/><path d="M392.5313,477.7656 Q392.625,477.625 392.75,477.5625 Q392.875,477.4844 393.0156,477.4844 Q393.25,477.4844 393.4063,477.6563 Q393.5625,477.8281 393.5625,478.2188 L393.5625,479.1563 Q393.5625,479.5469 393.4063,479.7188 Q393.25,479.8906 393.0156,479.8906 Q392.7969,479.8906 392.6563,479.7656 Q392.5156,479.6406 392.4531,479.3125 Q392.4219,479.0781 392.3125,478.9531 Q392.0938,478.7188 391.6875,478.5781 Q391.2969,478.4219 390.9063,478.4219 Q390.4063,478.4219 389.9844,478.6406 Q389.5781,478.8594 389.25,479.3438 Q388.9375,479.8281 388.9375,480.4844 L388.9375,481.2031 Q388.9375,482 389.5156,482.5313 Q390.0938,483.0625 391.125,483.0625 Q391.7344,483.0625 392.1563,482.8906 Q392.4063,482.7969 392.6875,482.5156 Q392.8594,482.3438 392.9531,482.2969 Q393.0469,482.2344 393.1719,482.2344 Q393.3906,482.2344 393.5625,482.4063 Q393.7344,482.5781 393.7344,482.7969 Q393.7344,483.0156 393.5,483.2813 Q393.1719,483.6563 392.6563,483.875 Q391.9688,484.1563 391.125,484.1563 Q390.1563,484.1563 389.375,483.7656 Q388.7344,483.4375 388.2813,482.75 Q387.8438,482.0469 387.8438,481.2188 L387.8438,480.4688 Q387.8438,479.6094 388.2344,478.875 Q388.6406,478.125 389.3438,477.7344 Q390.0625,477.3281 390.8594,477.3281 Q391.3281,477.3281 391.75,477.4375 Q392.1719,477.5469 392.5313,477.7656 Z " fill="#000000"/><text fill="#000000" font-family="sans-serif" font-size="11" lengthAdjust="spacing" textLength="37.9038" x="403" y="485.0547">BinDice</text><line style="stroke:#181818;stroke-width:0.5;" x1="379" x2="442.9038" y1="494.5" y2="494.5"/><line style="stroke:#181818;stroke-width:0.5;" x1="379" x2="442.9038" y1="502.5" y2="502.5"/></g><!--class NormDice--><g class="entity" data-entity="NormDice" data-source-line="34" data-uid="ent0007" id="entity_NormDice"><rect fill="#F1F1F1" height="44" rx="2.5" ry="2.5" style="stroke:#181818;stroke-width:0.5;" width="76.8931" x="479.5" y="466.5"/><ellipse cx="492.5" cy="480.5" fill="#ADD1B2" rx="9" ry="9" style="stroke:#181818;stroke-width:1;"/><path d="M494.0313,477.7656 Q494.125,477.625 494.25,477.5625 Q494.375,477.4844 494.5156,477.4844 Q494.75,477.4844 494.9063,477.6563 Q495.0625,477.8281 495.0625,478.2188 L495.0625,479.1563 Q495.0625,479.5469 494.9063,479.7188 Q494.75,479.8906 494.5156,479.8906 Q494.2969,479.8906 494.1563,479.7656 Q494.0156,479.6406 493.9531,479.3125 Q493.9219,479.0781 493.8125,478.9531 Q493.5938,478.7188 493.1875,478.5781 Q492.7969,478.4219 492.4063,478.4219 Q491.9063,478.4219 491.4844,478.6406 Q491.0781,478.8594 490.75,479.3438 Q490.4375,479.8281 490.4375,480.4844 L490.4375,481.2031 Q490.4375,482 491.0156,482.5313 Q491.5938,483.0625 492.625,483.0625 Q493.2344,483.0625 493.6563,482.8906 Q493.9063,482.7969 494.1875,482.5156 Q494.3594,482.3438 494.4531,482.2969 Q494.5469,482.2344 494.6719,482.2344 Q494.8906,482.2344 495.0625,482.4063 Q495.2344,482.5781 495.2344,482.7969 Q495.2344,483.0156 495,483.2813 Q494.6719,483.6563 494.1563,483.875 Q493.4688,484.1563 492.625,484.1563 Q491.6563,484.1563 490.875,483.7656 Q490.2344,483.4375 489.7813,482.75 Q489.3438,482.0469 489.3438,481.2188 L489.3438,480.4688 Q489.3438,479.6094 489.7344,478.875 Q490.1406,478.125 490.8438,477.7344 Q491.5625,477.3281 492.3594,477.3281 Q492.8281,477.3281 493.25,477.4375 Q493.6719,477.5469 494.0313,477.7656 Z " fill="#000000"/><text fill="#000000" font-family="sans-serif" font-size="11" lengthAdjust="spacing" textLength="48.8931" x="504.5" y="485.0547">NormDice</text><line style="stroke:#181818;stroke-width:0.5;" x1="480.5" x2="555.3931" y1="494.5" y2="494.5"/><line style="stroke:#181818;stroke-width:0.5;" x1="480.5" x2="555.3931" y1="502.5" y2="502.5"/></g><!--class Controller--><g class="entity" data-entity="Controller" data-source-line="36" data-uid="ent0008" id="entity_Controller"><rect fill="#F1F1F1" height="73.2617" rx="2.5" ry="2.5" style="stroke:#181818;stroke-width:0.5;" width="155.9829" x="281" y="7"/><ellipse cx="331.3992" cy="21" fill="#ADD1B2" rx="9" ry="9" style="stroke:#181818;stroke-width:1;"/><path d="M332.9304,18.2656 Q333.0242,18.125 333.1492,18.0625 Q333.2742,17.9844 333.4148,17.9844 Q333.6492,17.9844 333.8054,18.1563 Q333.9617,18.3281 333.9617,18.7188 L333.9617,19.6563 Q333.9617,20.0469 333.8054,20.2188 Q333.6492,20.3906 333.4148,20.3906 Q333.196,20.3906 333.0554,20.2656 Q332.9148,20.1406 332.8523,19.8125 Q332.821,19.5781 332.7117,19.4531 Q332.4929,19.2188 332.0867,19.0781 Q331.696,18.9219 331.3054,18.9219 Q330.8054,18.9219 330.3835,19.1406 Q329.9773,19.3594 329.6492,19.8438 Q329.3367,20.3281 329.3367,20.9844 L329.3367,21.7031 Q329.3367,22.5 329.9148,23.0313 Q330.4929,23.5625 331.5242,23.5625 Q332.1335,23.5625 332.5554,23.3906 Q332.8054,23.2969 333.0867,23.0156 Q333.2585,22.8438 333.3523,22.7969 Q333.446,22.7344 333.571,22.7344 Q333.7898,22.7344 333.9617,22.9063 Q334.1335,23.0781 334.1335,23.2969 Q334.1335,23.5156 333.8992,23.7813 Q333.571,24.1563 333.0554,24.375 Q332.3679,24.6563 331.5242,24.6563 Q330.5554,24.6563 329.7742,24.2656 Q329.1335,23.9375 328.6804,23.25 Q328.2429,22.5469 328.2429,21.7188 L328.2429,20.9688 Q328.2429,20.1094 328.6335,19.375 Q329.0398,18.625 329.7429,18.2344 Q330.4617,17.8281 331.2585,17.8281 Q331.7273,17.8281 332.1492,17.9375 Q332.571,18.0469 332.9304,18.2656 Z " fill="#000000"/><text fill="#000000" font-family="sans-serif" font-size="11" lengthAdjust="spacing" textLength="47.6846" x="348.8992" y="25.5547">Controller</text><line style="stroke:#181818;stroke-width:0.5;" x1="282" x2="435.9829" y1="35" y2="35"/><text fill="#000000" font-family="sans-serif" font-size="11" lengthAdjust="spacing" textLength="143.9829" x="287" y="50.8701">+model: AbstractDicetribution</text><line style="stroke:#181818;stroke-width:1;" x1="282" x2="435.9829" y1="57.6309" y2="57.6309"/><text fill="#000000" font-family="sans-serif" font-size="11" lengthAdjust="spacing" textLength="47.9854" x="287" y="73.501">+refresh()</text></g><!--class DiceCanvas--><g class="entity" data-entity="DiceCanvas" data-source-line="42" data-uid="ent0009" id="entity_DiceCanvas"><rect fill="#F1F1F1" height="58.6309" rx="2.5" ry="2.5" style="stroke:#181818;stroke-width:0.5;" width="225.082" x="591.5" y="459"/><ellipse cx="670.6399" cy="473" fill="#ADD1B2" rx="9" ry="9" style="stroke:#181818;stroke-width:1;"/><path d="M672.1711,470.2656 Q672.2649,470.125 672.3899,470.0625 Q672.5149,469.9844 672.6555,469.9844 Q672.8899,469.9844 673.0461,470.1563 Q673.2024,470.3281 673.2024,470.7188 L673.2024,471.6563 Q673.2024,472.0469 673.0461,472.2188 Q672.8899,472.3906 672.6555,472.3906 Q672.4368,472.3906 672.2961,472.2656 Q672.1555,472.1406 672.093,471.8125 Q672.0618,471.5781 671.9524,471.4531 Q671.7336,471.2188 671.3274,471.0781 Q670.9368,470.9219 670.5461,470.9219 Q670.0461,470.9219 669.6243,471.1406 Q669.218,471.3594 668.8899,471.8438 Q668.5774,472.3281 668.5774,472.9844 L668.5774,473.7031 Q668.5774,474.5 669.1555,475.0313 Q669.7336,475.5625 670.7649,475.5625 Q671.3743,475.5625 671.7961,475.3906 Q672.0461,475.2969 672.3274,475.0156 Q672.4993,474.8438 672.593,474.7969 Q672.6868,474.7344 672.8118,474.7344 Q673.0305,474.7344 673.2024,474.9063 Q673.3743,475.0781 673.3743,475.2969 Q673.3743,475.5156 673.1399,475.7813 Q672.8118,476.1563 672.2961,476.375 Q671.6086,476.6563 670.7649,476.6563 Q669.7961,476.6563 669.0149,476.2656 Q668.3743,475.9375 667.9211,475.25 Q667.4836,474.5469 667.4836,473.7188 L667.4836,472.9688 Q667.4836,472.1094 667.8743,471.375 Q668.2805,470.625 668.9836,470.2344 Q669.7024,469.8281 670.4993,469.8281 Q670.968,469.8281 671.3899,469.9375 Q671.8118,470.0469 672.1711,470.2656 Z " fill="#000000"/><text fill="#000000" font-family="sans-serif" font-size="11" lengthAdjust="spacing" textLength="59.3022" x="688.1399" y="477.5547">DiceCanvas</text><line style="stroke:#181818;stroke-width:0.5;" x1="592.5" x2="815.582" y1="487" y2="487"/><line style="stroke:#181818;stroke-width:1;" x1="592.5" x2="815.582" y1="495" y2="495"/><text fill="#000000" font-family="sans-serif" font-size="11" lengthAdjust="spacing" textLength="213.082" x="597.5" y="510.8701">+__init__(container_frame, dice_vals_rows)</text></g><!--reverse link AbstractDicetribution to GeoDice--><g class="link" data-entity-1="AbstractDicetribution" data-entity-2="GeoDice" data-source-line="47" data-uid="lnk10" id="link_AbstractDicetribution_GeoDice"><path codeLine="47" d="M329.0984,393.7994 C321.0284,428.0194 317.06,444.85 312.04,466.13" fill="none" id="AbstractDicetribution-backto-GeoDice" style="stroke:#181818;stroke-width:1;"/><polygon fill="none" points="333.23,376.28,323.2586,392.4222,334.9383,395.1766,333.23,376.28" style="stroke:#181818;stroke-width:1;"/></g><!--reverse link AbstractDicetribution to BinDice--><g class="link" data-entity-1="AbstractDicetribution" data-entity-2="BinDice" data-source-line="48" data-uid="lnk11" id="link_AbstractDicetribution_BinDice"><path codeLine="48" d="M388.9016,393.7994 C396.9716,428.0194 400.94,444.85 405.96,466.13" fill="none" id="AbstractDicetribution-backto-BinDice" style="stroke:#181818;stroke-width:1;"/><polygon fill="none" points="384.77,376.28,383.0617,395.1766,394.7414,392.4222,384.77,376.28" style="stroke:#181818;stroke-width:1;"/></g><!--reverse link AbstractDicetribution to NormDice--><g class="link" data-entity-1="AbstractDicetribution" data-entity-2="NormDice" data-source-line="49" data-uid="lnk12" id="link_AbstractDicetribution_NormDice"><path codeLine="49" d="M448.3292,390.8792 C473.0092,425.0992 487.24,444.85 502.59,466.13" fill="none" id="AbstractDicetribution-backto-NormDice" style="stroke:#181818;stroke-width:1;"/><polygon fill="none" points="437.8,376.28,443.4628,394.3889,453.1956,387.3695,437.8,376.28" style="stroke:#181818;stroke-width:1;"/></g><!--reverse link AbstractDicetribution to Die--><g class="link" data-entity-1="AbstractDicetribution" data-entity-2="Die" data-source-line="51" data-uid="lnk13" id="link_AbstractDicetribution_Die"><path codeLine="51" d="M248.6042,316.1708 C199.4542,340.3708 151.64,367.94 105,406 C88.91,419.13 73.7,436.37 61.67,451.61" fill="none" id="AbstractDicetribution-backto-Die" style="stroke:#181818;stroke-width:1;"/><polygon fill="#181818" points="259.37,310.87,252.2202,309.9318,248.6042,316.1708,255.754,317.109,259.37,310.87" style="stroke:#181818;stroke-width:1;"/><text fill="#000000" font-family="sans-serif" font-size="11" lengthAdjust="spacing" textLength="112.5137" x="106" y="418.8701">dice_data rows contain</text></g><!--reverse link AbstractDicetribution to Parameter--><g class="link" data-entity-1="AbstractDicetribution" data-entity-2="Parameter" data-source-line="52" data-uid="lnk14" id="link_AbstractDicetribution_Parameter"><path codeLine="52" d="M256.1187,385.4006 C247.6487,395.4106 247.01,396.28 239,406 C226.76,420.86 213.57,437.54 202.37,451.91" fill="none" id="AbstractDicetribution-backto-Parameter" style="stroke:#181818;stroke-width:1;"/><polygon fill="#181818" points="263.87,376.24,256.9408,378.2365,256.1187,385.4006,263.0479,383.4041,263.87,376.24" style="stroke:#181818;stroke-width:1;"/><text fill="#000000" font-family="sans-serif" font-size="11" lengthAdjust="spacing" textLength="75.8076" x="240" y="418.8701">parameters dict</text></g><!--reverse link Controller to AbstractDicetribution--><g class="link" data-entity-1="Controller" data-entity-2="AbstractDicetribution" data-source-line="54" data-uid="lnk15" id="link_Controller_AbstractDicetribution"><path codeLine="54" d="M359,92.42 C359,113.16 359,128.48 359,155.72" fill="none" id="Controller-backto-AbstractDicetribution" style="stroke:#181818;stroke-width:1;"/><polygon fill="none" points="359,80.42,355,86.42,359,92.42,363,86.42,359,80.42" style="stroke:#181818;stroke-width:1;"/><text fill="#000000" font-family="sans-serif" font-size="11" lengthAdjust="spacing" textLength="92.9199" x="360" y="122.8701">model (Dice mode)</text></g><!--link AbstractDicetribution to DiceCanvas--><g class="link" data-entity-1="AbstractDicetribution" data-entity-2="DiceCanvas" data-source-line="55" data-uid="lnk16" id="link_AbstractDicetribution_DiceCanvas"><path codeLine="55" d="M458.79,330.78 C525.06,373.13 603.7944,423.4588 654.2844,455.7288" fill="none" id="AbstractDicetribution-to-DiceCanvas" style="stroke:#181818;stroke-width:1;"/><polygon fill="#181818" points="659.34,458.96,653.9107,450.7428,655.127,456.2673,649.6024,457.4836,659.34,458.96" style="stroke:#181818;stroke-width:1;"/><text fill="#000000" font-family="sans-serif" font-size="11" lengthAdjust="spacing" textLength="199.332" x="594" y="418.8701">get_dice_data() provides dice_vals_rows</text></g><!--SRC=[ZLDDQzmm4BthLypHJc9ehgOKqeI4NaeXnx08hJsRYCgIaSORqct-UoLPjXNZBBqOZ-RDl3TVxhVKlR2YWqO9vsw8hDmFX3yQen_b7uGlpCsG5WzYK7HlD4NVzJLZOk_8YeR6UBX9vfriS4mbZOOJ0xY4rh_nLf2eGKb7J_5p9t6tY-x8WOJMrG5AJpxJ5VoQNWEegYAISwabSLwiGyheVaRYaSkQrw9CP847JfFQzndeCL5JuNyog0yxA2De7IBQTicjQv0waLhip16tVSxpw6tNyqTN6LqVguZgfZ9ew1NkPa2l38q0z-8BiIXK3NjZbCT7w5e_Sg5RVXJsVmBU6HkdwZkIPgY7RfAOXc6DKfFkEM2UMWohm3Eg0LDFbzZy5KwzDJrQUik87z24JKhMTwapwwUnNJIJVUlNCeX9f9VGcHPzTPihcUd7WqNtKfHvkGtU2dqKRfI_sZf_6YIaHiiFeSghSR5zBIxCqCL4stVmzMzLpJMTWKo5de4irM-3BZmcZArUpWw2EaZgpuGjmwkpeum7nbZMPUEnsrdgiVTGXEVuNtx2LrNVydRNwxK7lnH7sQ9RDPdz0m00]--></g></svg>