<svg xmlns="http://www.w3.org/2000/svg" xmlns:xlink="http://www.w3.org/1999/xlink" contentStyleType="text/css" data-diagram-type="ACTIVITY" height="417px" preserveAspectRatio="none" style="width:446px;height:417px;background:#FFFFFF;" version="1.1" viewBox="0 0 446 417" width="446px" zoomAndPan="magnify"><defs/><g><rect fill="none" height="395.5039" style="stroke:#000000;stroke-width:1.5;" width="424.7305" x="11" y="11"/><path d="M256.751,11 L256.751,22.6211 L246.751,32.6211 L11,32.6211" fill="none" style="stroke:#000000;stroke-width:1.5;"/><text fill="#000000" font-family="sans-serif" font-size="14" lengthAdjust="spacing" textLength="235.751" x="14" y="27.1074">binarysearchforx(target,max,min,func)</text><ellipse cx="163.6082" cy="52.6211" fill="#222222" rx="10" ry="10" style="stroke:#222222;stroke-width:1;"/><rect fill="#F1F1F1" height="35.9609" rx="12.5" ry="12.5" style="stroke:#181818;stroke-width:0.5;" width="178.748" x="74.2341" y="82.6211"/><text fill="#000000" font-family="sans-serif" font-size="12" lengthAdjust="spacing" textLength="158.748" x="84.2341" y="105.5703">get target, max, min, and func</text><rect fill="#F1F1F1" height="35.9609" rx="12.5" ry="12.5" style="stroke:#181818;stroke-width:0.5;" width="113.3574" x="106.9294" y="182.582"/><text fill="#000000" font-family="sans-serif" font-size="12" lengthAdjust="spacing" textLength="93.3574" x="116.9294" y="205.5313">mid=(max+min)/2</text><polygon fill="#F1F1F1" points="99.1121,238.543,228.1042,238.543,240.1042,250.543,228.1042,262.543,99.1121,262.543,87.1121,250.543,99.1121,238.543" style="stroke:#181818;stroke-width:0.5;"/><text fill="#000000" font-family="sans-serif" font-size="11" lengthAdjust="spacing" textLength="128.9922" x="99.1121" y="255.0977">func(mid) is close to target</text><text fill="#000000" font-family="sans-serif" font-size="11" lengthAdjust="spacing" textLength="17.1177" x="69.9944" y="247.7822">yes</text><text fill="#000000" font-family="sans-serif" font-size="11" lengthAdjust="spacing" textLength="12.2354" x="240.1042" y="247.7822">no</text><rect fill="#F1F1F1" height="35.9609" rx="12.5" ry="12.5" style="stroke:#181818;stroke-width:0.5;" width="74.0176" x="23" y="272.543"/><text fill="#000000" font-family="sans-serif" font-size="12" lengthAdjust="spacing" textLength="54.0176" x="33" y="295.4922">return mid</text><ellipse cx="60.0088" cy="354.5039" fill="none" rx="11" ry="11" style="stroke:#222222;stroke-width:1;"/><ellipse cx="60.0088" cy="354.5039" fill="#222222" rx="6" ry="6" style="stroke:#222222;stroke-width:1;"/><polygon fill="#F1F1F1" points="223.9541,272.543,310.4609,272.543,322.4609,284.543,310.4609,296.543,223.9541,296.543,211.9541,284.543,223.9541,272.543" style="stroke:#181818;stroke-width:0.5;"/><text fill="#000000" font-family="sans-serif" font-size="11" lengthAdjust="spacing" textLength="86.5068" x="223.9541" y="289.0977">func(mid) &gt; target</text><text fill="#000000" font-family="sans-serif" font-size="11" lengthAdjust="spacing" textLength="17.1177" x="194.8364" y="281.7822">yes</text><text fill="#000000" font-family="sans-serif" font-size="11" lengthAdjust="spacing" textLength="12.2354" x="322.4609" y="281.7822">no</text><rect fill="#F1F1F1" height="35.9609" rx="12.5" ry="12.5" style="stroke:#181818;stroke-width:0.5;" width="131.0234" x="127.0176" y="306.543"/><text fill="#000000" font-family="sans-serif" font-size="12" lengthAdjust="spacing" textLength="111.0234" x="137.0176" y="329.4922">min, max = mid, max</text><rect fill="#F1F1F1" height="35.9609" rx="12.5" ry="12.5" style="stroke:#181818;stroke-width:0.5;" width="127.6895" x="278.041" y="306.543"/><text fill="#000000" font-family="sans-serif" font-size="12" lengthAdjust="spacing" textLength="107.6895" x="288.041" y="329.4922">min, max = min, mid</text><polygon fill="#F1F1F1" points="267.2075,348.5039,279.2075,360.5039,267.2075,372.5039,255.2075,360.5039,267.2075,348.5039" style="stroke:#181818;stroke-width:0.5;"/><polygon fill="#F1F1F1" points="163.6082,138.582,163.6082,138.582,175.6082,150.582,163.6082,162.582,163.6082,162.582,151.6082,150.582,163.6082,138.582" style="stroke:#181818;stroke-width:0.5;"/><line style="stroke:#181818;stroke-width:1;" x1="163.6082" x2="163.6082" y1="62.6211" y2="82.6211"/><polygon fill="#181818" points="159.6082,72.6211,163.6082,82.6211,167.6082,72.6211,163.6082,76.6211" style="stroke:#181818;stroke-width:1;"/><line style="stroke:#181818;stroke-width:1;" x1="60.0088" x2="60.0088" y1="308.5039" y2="343.5039"/><polygon fill="#181818" points="56.0088,333.5039,60.0088,343.5039,64.0088,333.5039,60.0088,337.5039" style="stroke:#181818;stroke-width:1;"/><line style="stroke:#181818;stroke-width:1;" x1="211.9541" x2="192.5293" y1="284.543" y2="284.543"/><line style="stroke:#181818;stroke-width:1;" x1="192.5293" x2="192.5293" y1="284.543" y2="306.543"/><polygon fill="#181818" points="188.5293,296.543,192.5293,306.543,196.5293,296.543,192.5293,300.543" style="stroke:#181818;stroke-width:1;"/><line style="stroke:#181818;stroke-width:1;" x1="322.4609" x2="341.8857" y1="284.543" y2="284.543"/><line style="stroke:#181818;stroke-width:1;" x1="341.8857" x2="341.8857" y1="284.543" y2="306.543"/><polygon fill="#181818" points="337.8857,296.543,341.8857,306.543,345.8857,296.543,341.8857,300.543" style="stroke:#181818;stroke-width:1;"/><line style="stroke:#181818;stroke-width:1;" x1="192.5293" x2="192.5293" y1="342.5039" y2="360.5039"/><line style="stroke:#181818;stroke-width:1;" x1="192.5293" x2="255.2075" y1="360.5039" y2="360.5039"/><polygon fill="#181818" points="245.2075,356.5039,255.2075,360.5039,245.2075,364.5039,249.2075,360.5039" style="stroke:#181818;stroke-width:1;"/><line style="stroke:#181818;stroke-width:1;" x1="341.8857" x2="341.8857" y1="342.5039" y2="360.5039"/><line style="stroke:#181818;stroke-width:1;" x1="341.8857" x2="279.2075" y1="360.5039" y2="360.5039"/><polygon fill="#181818" points="289.2075,356.5039,279.2075,360.5039,289.2075,364.5039,285.2075,360.5039" style="stroke:#181818;stroke-width:1;"/><line style="stroke:#181818;stroke-width:1;" x1="87.1121" x2="60.0088" y1="250.543" y2="250.543"/><line style="stroke:#181818;stroke-width:1;" x1="60.0088" x2="60.0088" y1="250.543" y2="272.543"/><polygon fill="#181818" points="56.0088,262.543,60.0088,272.543,64.0088,262.543,60.0088,266.543" style="stroke:#181818;stroke-width:1;"/><line style="stroke:#181818;stroke-width:1;" x1="240.1042" x2="267.2075" y1="250.543" y2="250.543"/><line style="stroke:#181818;stroke-width:1;" x1="267.2075" x2="267.2075" y1="250.543" y2="272.543"/><polygon fill="#181818" points="263.2075,262.543,267.2075,272.543,271.2075,262.543,267.2075,266.543" style="stroke:#181818;stroke-width:1;"/><line style="stroke:#181818;stroke-width:1;" x1="267.2075" x2="267.2075" y1="372.5039" y2="382.5039"/><line style="stroke:#181818;stroke-width:1;" x1="267.2075" x2="419.7305" y1="382.5039" y2="382.5039"/><polygon fill="#181818" points="415.7305,271.043,419.7305,261.043,423.7305,271.043,419.7305,267.043" style="stroke:#181818;stroke-width:1;"/><line style="stroke:#181818;stroke-width:1;" x1="419.7305" x2="419.7305" y1="150.582" y2="382.5039"/><line style="stroke:#181818;stroke-width:1;" x1="419.7305" x2="175.6082" y1="150.582" y2="150.582"/><polygon fill="#181818" points="185.6082,146.582,175.6082,150.582,185.6082,154.582,181.6082,150.582" style="stroke:#181818;stroke-width:1;"/><line style="stroke:#181818;stroke-width:1;" x1="163.6082" x2="163.6082" y1="218.543" y2="238.543"/><polygon fill="#181818" points="159.6082,228.543,163.6082,238.543,167.6082,228.543,163.6082,232.543" style="stroke:#181818;stroke-width:1;"/><line style="stroke:#181818;stroke-width:1;" x1="163.6082" x2="163.6082" y1="162.582" y2="182.582"/><polygon fill="#181818" points="159.6082,172.582,163.6082,182.582,167.6082,172.582,163.6082,176.582" style="stroke:#181818;stroke-width:1;"/><line style="stroke:#181818;stroke-width:1;" x1="163.6082" x2="163.6082" y1="118.582" y2="138.582"/><polygon fill="#181818" points="159.6082,128.582,163.6082,138.582,167.6082,128.582,163.6082,132.582" style="stroke:#181818;stroke-width:1;"/><!--SRC=[RO_BYiCm34Nt-WejRIQbq6L2-oF3B3onKWiIkTWgq_vzvH3eWzaOuNjqhdq9HLav2_woX7Al5CgOfbnkJaCvatPBk7KBIpTTPVG0rQuLUajm0x0Hs10C4h5n0_mbdWcTXtxXU7I6V1dXzuS1U4BN86U9HwuuphaIQjw47ZMHeBjJjVL2UYrY-ZXOTxu0pGOxoVv3TFftVNsMjUEnATPnU56yvsriFIIHf-Uv_WLstubZ9FdPdI2IXZ41F000]--></g></svg>