<svg xmlns="http://www.w3.org/2000/svg" xmlns:xlink="http://www.w3.org/1999/xlink" contentStyleType="text/css" data-diagram-type="CLASS" height="503px" preserveAspectRatio="none" style="width:944px;height:503px;background:#FFFFFF;" version="1.1" viewBox="0 0 944 503" width="944px" zoomAndPan="magnify"><defs/><g><!--class AbstractDicetribution--><g class="entity" data-entity="AbstractDicetribution" data-source-line="4" data-uid="ent0002" id="entity_AbstractDicetribution"><rect fill="#F1F1F1" height="102.5234" rx="2.5" ry="2.5" style="stroke:#181818;stroke-width:0.5;" width="129.4868" x="408.5" y="7"/><ellipse cx="421.5" cy="21" fill="#A9DCDF" rx="9" ry="9" style="stroke:#181818;stroke-width:1;"/><path d="M422.6406,22.7344 L419.9688,22.7344 L419.7031,23.4063 L419.9688,23.4063 Q420.375,23.4063 420.5313,23.5625 Q420.7031,23.7031 420.7031,23.9531 Q420.7031,24.1875 420.5313,24.3438 Q420.375,24.5 419.9688,24.5 L418.4844,24.5 Q418.0938,24.5 417.9219,24.3438 Q417.75,24.1875 417.75,23.9531 Q417.75,23.7031 417.9375,23.5469 Q418.1094,23.3906 418.5156,23.4063 L420.25,19.0938 L419.5313,19.0938 Q419.125,19.0938 418.9531,18.9375 Q418.7969,18.7813 418.7969,18.5313 Q418.7969,18.2969 418.9531,18.1406 Q419.125,17.9844 419.5313,17.9844 L421.9063,17.9844 L424.0938,23.4063 Q424.4844,23.4063 424.6094,23.4844 Q424.8594,23.6563 424.8594,23.9531 Q424.8594,24.1875 424.6875,24.3438 Q424.5156,24.5 424.125,24.5 L422.6406,24.5 Q422.25,24.5 422.0781,24.3438 Q421.9063,24.1875 421.9063,23.9531 Q421.9063,23.7031 422.0781,23.5625 Q422.25,23.4063 422.6406,23.4063 L422.9063,23.4063 L422.6406,22.7344 Z M422.1875,21.625 L421.2969,19.4531 L420.4063,21.625 L422.1875,21.625 Z " fill="#000000"/><text fill="#000000" font-family="sans-serif" font-size="11" font-style="italic" lengthAdjust="spacing" textLength="101.4868" x="433.5" y="25.5547">AbstractDicetribution</text><line style="stroke:#181818;stroke-width:0.5;" x1="409.5" x2="536.9868" y1="35" y2="35"/><text fill="#000000" font-family="sans-serif" font-size="11" lengthAdjust="spacing" textLength="115.8599" x="414.5" y="50.8701">+dice_data: list[list[Die]]</text><text fill="#000000" font-family="sans-serif" font-size="11" lengthAdjust="spacing" textLength="85.2876" x="414.5" y="65.501">+parameters: dict</text><line style="stroke:#181818;stroke-width:1;" x1="409.5" x2="536.9868" y1="72.2617" y2="72.2617"/><text fill="#000000" font-family="sans-serif" font-size="11" lengthAdjust="spacing" textLength="114.646" x="414.5" y="88.1318">+set_n_dice_row(n: int)</text><text fill="#000000" font-family="sans-serif" font-size="11" lengthAdjust="spacing" textLength="109.146" x="414.5" y="102.7627">+get_n_dice_row(): int</text></g><!--class BinDice--><g class="entity" data-entity="BinDice" data-source-line="12" data-uid="ent0003" id="entity_BinDice"><rect fill="#F1F1F1" height="175.6777" rx="2.5" ry="2.5" style="stroke:#181818;stroke-width:0.5;" width="247.1143" x="349.5" y="171"/><ellipse cx="450.3552" cy="185" fill="#ADD1B2" rx="9" ry="9" style="stroke:#181818;stroke-width:1;"/><path d="M451.8865,182.2656 Q451.9802,182.125 452.1052,182.0625 Q452.2302,181.9844 452.3708,181.9844 Q452.6052,181.9844 452.7615,182.1563 Q452.9177,182.3281 452.9177,182.7188 L452.9177,183.6563 Q452.9177,184.0469 452.7615,184.2188 Q452.6052,184.3906 452.3708,184.3906 Q452.1521,184.3906 452.0115,184.2656 Q451.8708,184.1406 451.8083,183.8125 Q451.7771,183.5781 451.6677,183.4531 Q451.449,183.2188 451.0427,183.0781 Q450.6521,182.9219 450.2615,182.9219 Q449.7615,182.9219 449.3396,183.1406 Q448.9333,183.3594 448.6052,183.8438 Q448.2927,184.3281 448.2927,184.9844 L448.2927,185.7031 Q448.2927,186.5 448.8708,187.0313 Q449.449,187.5625 450.4802,187.5625 Q451.0896,187.5625 451.5115,187.3906 Q451.7615,187.2969 452.0427,187.0156 Q452.2146,186.8438 452.3083,186.7969 Q452.4021,186.7344 452.5271,186.7344 Q452.7458,186.7344 452.9177,186.9063 Q453.0896,187.0781 453.0896,187.2969 Q453.0896,187.5156 452.8552,187.7813 Q452.5271,188.1563 452.0115,188.375 Q451.324,188.6563 450.4802,188.6563 Q449.5115,188.6563 448.7302,188.2656 Q448.0896,187.9375 447.6365,187.25 Q447.199,186.5469 447.199,185.7188 L447.199,184.9688 Q447.199,184.1094 447.5896,183.375 Q447.9958,182.625 448.699,182.2344 Q449.4177,181.8281 450.2146,181.8281 Q450.6833,181.8281 451.1052,181.9375 Q451.5271,182.0469 451.8865,182.2656 Z " fill="#000000"/><text fill="#000000" font-family="sans-serif" font-size="11" lengthAdjust="spacing" textLength="37.9038" x="467.8552" y="189.5547">BinDice</text><line style="stroke:#181818;stroke-width:0.5;" x1="350.5" x2="595.6143" y1="199" y2="199"/><text fill="#000000" font-family="sans-serif" font-size="11" lengthAdjust="spacing" textLength="133.8906" x="355.5" y="214.8701">+success_vals: list[int] = [6]</text><text fill="#000000" font-family="sans-serif" font-size="11" lengthAdjust="spacing" textLength="104.2798" x="355.5" y="229.501">+on_change: callable</text><text fill="#000000" font-family="sans-serif" font-size="11" lengthAdjust="spacing" textLength="75.2168" x="355.5" y="244.1318">-_cached_n: int</text><line style="stroke:#181818;stroke-width:1;" x1="350.5" x2="595.6143" y1="250.8926" y2="250.8926"/><text fill="#000000" font-family="sans-serif" font-size="11" lengthAdjust="spacing" textLength="235.1143" x="355.5" y="266.7627">+__init__(parameters: dict, on_change: callable)</text><text fill="#000000" font-family="sans-serif" font-size="11" lengthAdjust="spacing" textLength="106.4014" x="355.5" y="281.3936">-_check_n_changed()</text><text fill="#000000" font-family="sans-serif" font-size="11" lengthAdjust="spacing" textLength="121.3545" x="355.5" y="296.0244">+get_dice_row(): list[Die]</text><text fill="#000000" font-family="sans-serif" font-size="11" lengthAdjust="spacing" textLength="158.0391" x="355.5" y="310.6553">+get_row_data(row: list[Die]): int</text><text fill="#000000" font-family="sans-serif" font-size="11" lengthAdjust="spacing" textLength="187.4351" x="355.5" y="325.2861">+get_plot_data(show_real: bool): tuple</text><text fill="#000000" font-family="sans-serif" font-size="11" lengthAdjust="spacing" textLength="172.7505" x="355.5" y="339.917">+e_and_var(show_real: bool): tuple</text></g><!--class Die--><g class="entity" data-entity="Die" data-source-line="27" data-uid="ent0004" id="entity_Die"><rect fill="#F1F1F1" height="73.2617" rx="2.5" ry="2.5" style="stroke:#181818;stroke-width:0.5;" width="58.1484" x="7" y="423"/><ellipse cx="26.1394" cy="437" fill="#ADD1B2" rx="9" ry="9" style="stroke:#181818;stroke-width:1;"/><path d="M27.6706,434.2656 Q27.7644,434.125 27.8894,434.0625 Q28.0144,433.9844 28.155,433.9844 Q28.3894,433.9844 28.5456,434.1563 Q28.7019,434.3281 28.7019,434.7188 L28.7019,435.6563 Q28.7019,436.0469 28.5456,436.2188 Q28.3894,436.3906 28.155,436.3906 Q27.9363,436.3906 27.7956,436.2656 Q27.655,436.1406 27.5925,435.8125 Q27.5613,435.5781 27.4519,435.4531 Q27.2331,435.2188 26.8269,435.0781 Q26.4363,434.9219 26.0456,434.9219 Q25.5456,434.9219 25.1238,435.1406 Q24.7175,435.3594 24.3894,435.8438 Q24.0769,436.3281 24.0769,436.9844 L24.0769,437.7031 Q24.0769,438.5 24.655,439.0313 Q25.2331,439.5625 26.2644,439.5625 Q26.8738,439.5625 27.2956,439.3906 Q27.5456,439.2969 27.8269,439.0156 Q27.9988,438.8438 28.0925,438.7969 Q28.1863,438.7344 28.3113,438.7344 Q28.53,438.7344 28.7019,438.9063 Q28.8738,439.0781 28.8738,439.2969 Q28.8738,439.5156 28.6394,439.7813 Q28.3113,440.1563 27.7956,440.375 Q27.1081,440.6563 26.2644,440.6563 Q25.2956,440.6563 24.5144,440.2656 Q23.8738,439.9375 23.4206,439.25 Q22.9831,438.5469 22.9831,437.7188 L22.9831,436.9688 Q22.9831,436.1094 23.3738,435.375 Q23.78,434.625 24.4831,434.2344 Q25.2019,433.8281 25.9988,433.8281 Q26.4675,433.8281 26.8894,433.9375 Q27.3113,434.0469 27.6706,434.2656 Z " fill="#000000"/><text fill="#000000" font-family="sans-serif" font-size="11" lengthAdjust="spacing" textLength="16.5054" x="39.5037" y="441.5547">Die</text><line style="stroke:#181818;stroke-width:0.5;" x1="8" x2="64.1484" y1="451" y2="451"/><text fill="#000000" font-family="sans-serif" font-size="11" lengthAdjust="spacing" textLength="45.5522" x="13" y="466.8701">+num: int</text><line style="stroke:#181818;stroke-width:1;" x1="8" x2="64.1484" y1="473.6309" y2="473.6309"/><text fill="#000000" font-family="sans-serif" font-size="11" lengthAdjust="spacing" textLength="46.1484" x="13" y="489.501">+roll(): int</text></g><!--class Controller--><g class="entity" data-entity="Controller" data-source-line="33" data-uid="ent0005" id="entity_Controller"><rect fill="#F1F1F1" height="58.6309" rx="2.5" ry="2.5" style="stroke:#181818;stroke-width:0.5;" width="75.6846" x="151" y="430"/><ellipse cx="164" cy="444" fill="#ADD1B2" rx="9" ry="9" style="stroke:#181818;stroke-width:1;"/><path d="M165.5313,441.2656 Q165.625,441.125 165.75,441.0625 Q165.875,440.9844 166.0156,440.9844 Q166.25,440.9844 166.4063,441.1563 Q166.5625,441.3281 166.5625,441.7188 L166.5625,442.6563 Q166.5625,443.0469 166.4063,443.2188 Q166.25,443.3906 166.0156,443.3906 Q165.7969,443.3906 165.6563,443.2656 Q165.5156,443.1406 165.4531,442.8125 Q165.4219,442.5781 165.3125,442.4531 Q165.0938,442.2188 164.6875,442.0781 Q164.2969,441.9219 163.9063,441.9219 Q163.4063,441.9219 162.9844,442.1406 Q162.5781,442.3594 162.25,442.8438 Q161.9375,443.3281 161.9375,443.9844 L161.9375,444.7031 Q161.9375,445.5 162.5156,446.0313 Q163.0938,446.5625 164.125,446.5625 Q164.7344,446.5625 165.1563,446.3906 Q165.4063,446.2969 165.6875,446.0156 Q165.8594,445.8438 165.9531,445.7969 Q166.0469,445.7344 166.1719,445.7344 Q166.3906,445.7344 166.5625,445.9063 Q166.7344,446.0781 166.7344,446.2969 Q166.7344,446.5156 166.5,446.7813 Q166.1719,447.1563 165.6563,447.375 Q164.9688,447.6563 164.125,447.6563 Q163.1563,447.6563 162.375,447.2656 Q161.7344,446.9375 161.2813,446.25 Q160.8438,445.5469 160.8438,444.7188 L160.8438,443.9688 Q160.8438,443.1094 161.2344,442.375 Q161.6406,441.625 162.3438,441.2344 Q163.0625,440.8281 163.8594,440.8281 Q164.3281,440.8281 164.75,440.9375 Q165.1719,441.0469 165.5313,441.2656 Z " fill="#000000"/><text fill="#000000" font-family="sans-serif" font-size="11" lengthAdjust="spacing" textLength="47.6846" x="176" y="448.5547">Controller</text><line style="stroke:#181818;stroke-width:0.5;" x1="152" x2="225.6846" y1="458" y2="458"/><line style="stroke:#181818;stroke-width:1;" x1="152" x2="225.6846" y1="466" y2="466"/><text fill="#000000" font-family="sans-serif" font-size="11" lengthAdjust="spacing" textLength="47.9854" x="157" y="481.8701">+refresh()</text></g><g class="entity" data-entity="mean" data-source-line="38" data-uid="ent0006" id="entity_mean"><rect fill="#F1F1F1" height="41.2617" rx="2.5" ry="2.5" style="stroke:#181818;stroke-width:0.5;" width="95.7461" x="330" y="439"/><text fill="#000000" font-family="sans-serif" font-size="11" lengthAdjust="spacing" textLength="27.5161" x="364.115" y="452.8701">mean</text><line style="stroke:#181818;stroke-width:0.5;" x1="331" x2="424.7461" y1="457.6309" y2="457.6309"/><text fill="#000000" font-family="sans-serif" font-size="11" lengthAdjust="spacing" textLength="83.7461" x="336" y="473.501">mean(l: list): float</text></g><g class="entity" data-entity="sample_var" data-source-line="42" data-uid="ent0007" id="entity_sample_var"><rect fill="#F1F1F1" height="41.2617" rx="2.5" ry="2.5" style="stroke:#181818;stroke-width:0.5;" width="125.0884" x="461.5" y="439"/><text fill="#000000" font-family="sans-serif" font-size="11" lengthAdjust="spacing" textLength="56.8584" x="495.615" y="452.8701">sample_var</text><line style="stroke:#181818;stroke-width:0.5;" x1="462.5" x2="585.5884" y1="457.6309" y2="457.6309"/><text fill="#000000" font-family="sans-serif" font-size="11" lengthAdjust="spacing" textLength="113.0884" x="467.5" y="473.501">sample_var(l: list): float</text></g><g class="entity" data-entity="count_multiple" data-source-line="46" data-uid="ent0008" id="entity_count_multiple"><rect fill="#F1F1F1" height="41.2617" rx="2.5" ry="2.5" style="stroke:#181818;stroke-width:0.5;" width="162.4014" x="622" y="439"/><text fill="#000000" font-family="sans-serif" font-size="11" lengthAdjust="spacing" textLength="70.9307" x="667.7354" y="452.8701">count_multiple</text><line style="stroke:#181818;stroke-width:0.5;" x1="623" x2="783.4014" y1="457.6309" y2="457.6309"/><text fill="#000000" font-family="sans-serif" font-size="11" lengthAdjust="spacing" textLength="150.4014" x="628" y="473.501">count_multiple(l, value_list): int</text></g><g class="entity" data-entity="comb" data-source-line="50" data-uid="ent0009" id="entity_comb"><rect fill="#F1F1F1" height="41.2617" rx="2.5" ry="2.5" style="stroke:#181818;stroke-width:0.5;" width="104.313" x="833" y="439"/><text fill="#000000" font-family="sans-serif" font-size="11" lengthAdjust="spacing" textLength="26.8984" x="871.7073" y="452.8701">comb</text><line style="stroke:#181818;stroke-width:0.5;" x1="834" x2="936.313" y1="457.6309" y2="457.6309"/><text fill="#000000" font-family="sans-serif" font-size="11" lengthAdjust="spacing" textLength="92.313" x="839" y="473.501">scipy.special.comb</text></g><!--reverse link AbstractDicetribution to BinDice--><g class="link" data-entity-1="AbstractDicetribution" data-entity-2="BinDice" data-source-line="54" data-uid="lnk10" id="link_AbstractDicetribution_BinDice"><path codeLine="54" d="M473,128.1 C473,146.6 473,150.08 473,170.85" fill="none" id="AbstractDicetribution-backto-BinDice" style="stroke:#181818;stroke-width:1;"/><polygon fill="none" points="473,110.1,467,128.1,479,128.1,473,110.1" style="stroke:#181818;stroke-width:1;"/></g><!--reverse link BinDice to Die--><g class="link" data-entity-1="BinDice" data-entity-2="Die" data-source-line="55" data-uid="lnk11" id="link_BinDice_Die"><path codeLine="55" d="M337.5855,273.8655 C253.8055,287.4855 156.65,314.7 80,377 C65.53,388.77 55.14,406.6 48.1,422.59" fill="none" id="BinDice-backto-Die" style="stroke:#181818;stroke-width:1;"/><polygon fill="#181818" points="349.43,271.94,342.8659,268.9546,337.5855,273.8655,344.1496,276.8509,349.43,271.94" style="stroke:#181818;stroke-width:1;"/><text fill="#000000" font-family="sans-serif" font-size="11" lengthAdjust="spacing" textLength="111.8853" x="81" y="389.8701">get_dice_row() creates</text></g><!--link BinDice to Controller--><g class="link" data-entity-1="BinDice" data-entity-2="Controller" data-source-line="56" data-uid="lnk12" id="link_BinDice_Controller"><path codeLine="56" d="M349.27,289.57 C299.54,307.28 245.67,334.84 210,377 C197.64,391.61 193.1785,406.6569 191.0385,423.6769" fill="none" id="BinDice-to-Controller" style="stroke:#181818;stroke-width:1;"/><polygon fill="#181818" points="190.29,429.63,195.3815,421.1993,190.9138,424.6691,187.444,420.2013,190.29,429.63" style="stroke:#181818;stroke-width:1;"/><text fill="#000000" font-family="sans-serif" font-size="11" lengthAdjust="spacing" textLength="192.6235" x="211" y="389.8701">_check_n_changed() calls on_change()</text></g><!--link BinDice to mean--><g class="link" data-entity-1="BinDice" data-entity-2="mean" data-source-line="57" data-uid="lnk13" id="link_BinDice_mean"><path codeLine="57" d="M431.33,347.06 C414.98,381.23 400.2794,411.9475 389.9694,433.4975" fill="none" id="BinDice-to-mean" style="stroke:#181818;stroke-width:1;stroke-dasharray:7,7;"/><polygon fill="#181818" points="387.38,438.91,394.8725,432.5176,389.5379,434.3996,387.6559,429.065,387.38,438.91" style="stroke:#181818;stroke-width:1;"/><text fill="#000000" font-family="sans-serif" font-size="11" lengthAdjust="spacing" textLength="59.313" x="418" y="389.8701">e_and_var()</text></g><!--link BinDice to sample_var--><g class="link" data-entity-1="BinDice" data-entity-2="sample_var" data-source-line="58" data-uid="lnk14" id="link_BinDice_sample_var"><path codeLine="58" d="M495.37,347.06 C504.15,381.23 511.9361,411.5489 517.4761,433.0989" fill="none" id="BinDice-to-sample_var" style="stroke:#181818;stroke-width:1;stroke-dasharray:7,7;"/><polygon fill="#181818" points="518.97,438.91,520.6032,429.1975,517.7251,434.0675,512.8551,431.1893,518.97,438.91" style="stroke:#181818;stroke-width:1;"/><text fill="#000000" font-family="sans-serif" font-size="11" lengthAdjust="spacing" textLength="59.313" x="508" y="389.8701">e_and_var()</text></g><!--link BinDice to count_multiple--><g class="link" data-entity-1="BinDice" data-entity-2="count_multiple" data-source-line="59" data-uid="lnk15" id="link_BinDice_count_multiple"><path codeLine="59" d="M573.88,347.06 C613.47,381.23 650.7877,413.4398 675.7577,434.9898" fill="none" id="BinDice-to-count_multiple" style="stroke:#181818;stroke-width:1;stroke-dasharray:7,7;"/><polygon fill="#181818" points="680.3,438.91,676.1,430.0016,676.5148,435.6432,670.8731,436.058,680.3,438.91" style="stroke:#181818;stroke-width:1;"/><text fill="#000000" font-family="sans-serif" font-size="11" lengthAdjust="spacing" textLength="154.0967" x="624" y="389.8701">get_row_data(), get_plot_data()</text></g><!--link BinDice to comb--><g class="link" data-entity-1="BinDice" data-entity-2="comb" data-source-line="60" data-uid="lnk16" id="link_BinDice_comb"><path codeLine="60" d="M596.58,295.34 C656.25,315.03 727.61,342.58 787,377 C816.87,394.31 842.4052,416.6312 861.1652,434.6712" fill="none" id="BinDice-to-comb" style="stroke:#181818;stroke-width:1;stroke-dasharray:7,7;"/><polygon fill="#181818" points="865.49,438.83,861.7753,429.7085,861.886,435.3643,856.2302,435.475,865.49,438.83" style="stroke:#181818;stroke-width:1;"/><text fill="#000000" font-family="sans-serif" font-size="11" lengthAdjust="spacing" textLength="73.9976" x="811" y="389.8701">get_plot_data()</text></g><!--SRC=[VLDDRzGm4BtdLyoDX6uMzj93r5Og52JEI5ogbUKuiusfOqUs0mAMtzLxVnaJEr-RBhsid7blnc-Utxf7gLjkUGD2SUTklRUox3n-4KP_bRyHtYTkebHuu9toduts0TljaeINpbikVEo7s-7pJWgCewJHy2S1k82AQgpYdXUWfFFtuUTEuduVu707UhIkwAcUYdaU48UUQHRQhVcPwWAazbc07awXB439toI9SZv8tIiP1BXE27IE_U3A3Hg8lOThkB-C6encekRw0GiGN2bUAknb01DSr5YnUFMiZ36ffMSiNOlVd1kL3RDg58ziXAjqtcIvn-JEX18Gx4lfiC2pKLDajShuI7CrDLZage3I64KytxLXeGj0ndL5HjXNM6yWbZzTw-UdTWFVk0sdvwTqbxTPOBHatd7fwn7UmUNy02HmC5ztpSeyQvHwyM8VALmzW3RqZLGyM7GrMKL4Ktv72bo3F2QhFwGgEaBZ3ifml-0vtj0-_Qw1FN- -qYDCfprhAEoIoA7lj9Ig3T2w7R9Xmh34rD-KyJOXsrzRrwAGN6txSiyw_o-vEkRvcDXaJEvRglKc5gk0WA37yUWcOfxVBCqhpkGi1D7DoIGxn-xjzYOQMYoYSGelVFm_QMLSSHhSRBEAwBgPN2jUKFu1]--></g></svg>