<svg xmlns="http://www.w3.org/2000/svg" xmlns:xlink="http://www.w3.org/1999/xlink" contentStyleType="text/css" data-diagram-type="CLASS" height="641.2px" preserveAspectRatio="none" style="width:384px;height:641px;background:#FFFFFF;" version="1.1" viewBox="0 0 384 641" width="385px" zoomAndPan="magnify"><defs/><g><!--class AbstractStatisticalModel--><g class="entity" data-entity="AbstractStatisticalModel" data-source-line="4" data-uid="ent0002" id="entity_AbstractStatisticalModel"><rect fill="#F1F1F1" height="102.5664" rx="3.5" ry="3.5" style="stroke:#181818;stroke-width:0.7;" width="203.5318" x="97.3" y="9.8"/><ellipse cx="115.5" cy="29.4" fill="#A9DCDF" rx="12.6" ry="12.6" style="stroke:#181818;stroke-width:1.4;"/><path d="M117.0969,31.8281 L113.3562,31.8281 L112.9844,32.7687 L113.3562,32.7687 Q113.925,32.7687 114.1437,32.9875 Q114.3844,33.1844 114.3844,33.5344 Q114.3844,33.8625 114.1437,34.0812 Q113.925,34.3 113.3562,34.3 L111.2781,34.3 Q110.7312,34.3 110.4906,34.0812 Q110.25,33.8625 110.25,33.5344 Q110.25,33.1844 110.5125,32.9656 Q110.7531,32.7469 111.3219,32.7687 L113.75,26.7312 L112.7437,26.7312 Q112.175,26.7312 111.9344,26.5125 Q111.7156,26.2937 111.7156,25.9437 Q111.7156,25.6156 111.9344,25.3969 Q112.175,25.1781 112.7437,25.1781 L116.0687,25.1781 L119.1312,32.7687 Q119.6781,32.7687 119.8531,32.8781 Q120.2031,33.1187 120.2031,33.5344 Q120.2031,33.8625 119.9625,34.0812 Q119.7219,34.3 119.175,34.3 L117.0969,34.3 Q116.55,34.3 116.3094,34.0812 Q116.0687,33.8625 116.0687,33.5344 Q116.0687,33.1844 116.3094,32.9875 Q116.55,32.7687 117.0969,32.7687 L117.4687,32.7687 L117.0969,31.8281 Z M116.4625,30.275 L115.2156,27.2344 L113.9687,30.275 L116.4625,30.275 Z " fill="#000000"/><text fill="#000000" font-family="sans-serif" font-size="15.4" font-style="italic" lengthAdjust="spacing" textLength="164.3318" x="132.3" y="35.7766">AbstractStatisticalModel</text><line style="stroke:#181818;stroke-width:0.7;" x1="98.7" x2="299.4318" y1="49" y2="49"/><text fill="#000000" font-family="sans-serif" font-size="15.4" lengthAdjust="spacing" textLength="119.4026" x="105.7" y="71.2182">+parameters: dict</text><text fill="#000000" font-family="sans-serif" font-size="15.4" lengthAdjust="spacing" textLength="120.2749" x="105.7" y="91.7014">+is_discrete: bool</text><line style="stroke:#181818;stroke-width:0.7;" x1="98.7" x2="299.4318" y1="101.1664" y2="101.1664"/></g><!--class Binomial--><g class="entity" data-entity="Binomial" data-source-line="9" data-uid="ent0003" id="entity_Binomial"><rect fill="#F1F1F1" height="225.4656" rx="3.5" ry="3.5" style="stroke:#181818;stroke-width:0.7;" width="309.1143" x="44.1" y="197.4"/><ellipse cx="163.8779" cy="217" fill="#ADD1B2" rx="12.6" ry="12.6" style="stroke:#181818;stroke-width:1.4;"/><path d="M166.0217,213.1719 Q166.1529,212.975 166.3279,212.8875 Q166.5029,212.7781 166.6998,212.7781 Q167.0279,212.7781 167.2467,213.0187 Q167.4654,213.2594 167.4654,213.8062 L167.4654,215.1187 Q167.4654,215.6656 167.2467,215.9062 Q167.0279,216.1469 166.6998,216.1469 Q166.3936,216.1469 166.1967,215.9719 Q165.9998,215.7969 165.9123,215.3375 Q165.8686,215.0094 165.7154,214.8344 Q165.4092,214.5062 164.8404,214.3094 Q164.2936,214.0906 163.7467,214.0906 Q163.0467,214.0906 162.4561,214.3969 Q161.8873,214.7031 161.4279,215.3812 Q160.9904,216.0594 160.9904,216.9781 L160.9904,217.9844 Q160.9904,219.1 161.7998,219.8437 Q162.6092,220.5875 164.0529,220.5875 Q164.9061,220.5875 165.4967,220.3469 Q165.8467,220.2156 166.2404,219.8219 Q166.4811,219.5812 166.6123,219.5156 Q166.7436,219.4281 166.9186,219.4281 Q167.2248,219.4281 167.4654,219.6687 Q167.7061,219.9094 167.7061,220.2156 Q167.7061,220.5219 167.3779,220.8937 Q166.9186,221.4187 166.1967,221.725 Q165.2342,222.1187 164.0529,222.1187 Q162.6967,222.1187 161.6029,221.5719 Q160.7061,221.1125 160.0717,220.15 Q159.4592,219.1656 159.4592,218.0062 L159.4592,216.9562 Q159.4592,215.7531 160.0061,214.725 Q160.5748,213.675 161.5592,213.1281 Q162.5654,212.5594 163.6811,212.5594 Q164.3373,212.5594 164.9279,212.7125 Q165.5186,212.8656 166.0217,213.1719 Z " fill="#000000"/><text fill="#000000" font-family="sans-serif" font-size="15.4" lengthAdjust="spacing" textLength="59.0584" x="188.3779" y="223.3766">Binomial</text><line style="stroke:#181818;stroke-width:0.7;" x1="45.5" x2="351.8143" y1="236.6" y2="236.6"/><text fill="#000000" font-family="sans-serif" font-size="15.4" lengthAdjust="spacing" textLength="292.3143" x="52.5" y="258.8182">+parameters: {n: Parameter, p: Parameter}</text><text fill="#000000" font-family="sans-serif" font-size="15.4" lengthAdjust="spacing" textLength="169.4902" x="52.5" y="279.3014">+is_discrete: bool = True</text><line style="stroke:#181818;stroke-width:1.4;" x1="45.5" x2="351.8143" y1="288.7664" y2="288.7664"/><text fill="#000000" font-family="sans-serif" font-size="15.4" lengthAdjust="spacing" textLength="183.6044" x="52.5" y="310.9846">+__init__(parameters: dict)</text><text fill="#000000" font-family="sans-serif" font-size="15.4" lengthAdjust="spacing" textLength="85.1812" x="52.5" y="331.4678">+mini: int {0}</text><text fill="#000000" font-family="sans-serif" font-size="15.4" lengthAdjust="spacing" textLength="89.4599" x="52.5" y="351.951">+maxi: int {n}</text><text fill="#000000" font-family="sans-serif" font-size="15.4" lengthAdjust="spacing" textLength="150.7967" x="52.5" y="372.4342">+pdf(x): float | ndarray</text><text fill="#000000" font-family="sans-serif" font-size="15.4" lengthAdjust="spacing" textLength="172.5056" x="52.5" y="392.9174">+expectation(): float {n&#183;p}</text><text fill="#000000" font-family="sans-serif" font-size="15.4" lengthAdjust="spacing" textLength="189.5899" x="52.5" y="413.4006">+variance(): float {n&#183;p&#183;(1-p)}</text></g><!--class Parameter--><g class="entity" data-entity="Parameter" data-source-line="21" data-uid="ent0004" id="entity_Parameter"><rect fill="#F1F1F1" height="102.5664" rx="3.5" ry="3.5" style="stroke:#181818;stroke-width:0.7;" width="171.3339" x="9.8" y="529.2"/><ellipse cx="55.1078" cy="548.8" fill="#ADD1B2" rx="12.6" ry="12.6" style="stroke:#181818;stroke-width:1.4;"/><path d="M57.2516,544.9719 Q57.3828,544.775 57.5578,544.6875 Q57.7328,544.5781 57.9297,544.5781 Q58.2578,544.5781 58.4766,544.8187 Q58.6953,545.0594 58.6953,545.6062 L58.6953,546.9187 Q58.6953,547.4656 58.4766,547.7062 Q58.2578,547.9469 57.9297,547.9469 Q57.6235,547.9469 57.4266,547.7719 Q57.2297,547.5969 57.1422,547.1375 Q57.0985,546.8094 56.9453,546.6344 Q56.6391,546.3062 56.0703,546.1094 Q55.5235,545.8906 54.9766,545.8906 Q54.2766,545.8906 53.686,546.1969 Q53.1172,546.5031 52.6578,547.1812 Q52.2203,547.8594 52.2203,548.7781 L52.2203,549.7844 Q52.2203,550.9 53.0297,551.6437 Q53.8391,552.3875 55.2828,552.3875 Q56.136,552.3875 56.7266,552.1469 Q57.0766,552.0156 57.4703,551.6219 Q57.711,551.3812 57.8422,551.3156 Q57.9735,551.2281 58.1485,551.2281 Q58.4547,551.2281 58.6953,551.4687 Q58.936,551.7094 58.936,552.0156 Q58.936,552.3219 58.6078,552.6937 Q58.1485,553.2187 57.4266,553.525 Q56.4641,553.9187 55.2828,553.9187 Q53.9266,553.9187 52.8328,553.3719 Q51.936,552.9125 51.3016,551.95 Q50.6891,550.9656 50.6891,549.8062 L50.6891,548.7562 Q50.6891,547.5531 51.236,546.525 Q51.8047,545.475 52.7891,544.9281 Q53.7953,544.3594 54.911,544.3594 Q55.5672,544.3594 56.1578,544.5125 Q56.7485,544.6656 57.2516,544.9719 Z " fill="#000000"/><text fill="#000000" font-family="sans-serif" font-size="15.4" lengthAdjust="spacing" textLength="71.8942" x="77.9318" y="555.1766">Parameter</text><line style="stroke:#181818;stroke-width:0.7;" x1="11.2" x2="179.7339" y1="568.4" y2="568.4"/><text fill="#000000" font-family="sans-serif" font-size="15.4" lengthAdjust="spacing" textLength="88.174" x="18.2" y="590.6182">-_value: float</text><line style="stroke:#181818;stroke-width:1.4;" x1="11.2" x2="179.7339" y1="600.0832" y2="600.0832"/><text fill="#000000" font-family="sans-serif" font-size="15.4" lengthAdjust="spacing" textLength="154.5339" x="18.2" y="622.3014">+value: float {property}</text></g><g class="entity" data-entity="comb" data-source-line="27" data-uid="ent0005" id="entity_comb"><rect fill="#F1F1F1" height="57.7664" rx="3.5" ry="3.5" style="stroke:#181818;stroke-width:0.7;" width="146.0382" x="229.6" y="551.6"/><text fill="#000000" font-family="sans-serif" font-size="15.4" lengthAdjust="spacing" textLength="37.6578" x="283.7902" y="571.0182">comb</text><line style="stroke:#181818;stroke-width:0.7;" x1="231" x2="374.2382" y1="577.6832" y2="577.6832"/><text fill="#000000" font-family="sans-serif" font-size="15.4" lengthAdjust="spacing" textLength="129.2382" x="238" y="599.9014">scipy.special.comb</text></g><!--reverse link AbstractStatisticalModel to Binomial--><g class="link" data-entity-1="AbstractStatisticalModel" data-entity-2="Binomial" data-source-line="31" data-uid="lnk6" id="link_AbstractStatisticalModel_Binomial"><path codeLine="31" d="M198.8,137.368 C198.8,161.966 198.8,167.524 198.8,197.33" fill="none" id="AbstractStatisticalModel-backto-Binomial" style="stroke:#181818;stroke-width:1.4;"/><polygon fill="none" points="198.8,112.168,190.4,137.368,207.2,137.368,198.8,112.168" style="stroke:#181818;stroke-width:1.4;"/></g><!--reverse link Binomial to Parameter--><g class="link" data-entity-1="Binomial" data-entity-2="Parameter" data-source-line="32" data-uid="lnk7" id="link_Binomial_Parameter"><path codeLine="32" d="M149.5418,438.6338 C135.2198,475.6078 126.056,499.24 114.478,529.144" fill="none" id="Binomial-backto-Parameter" style="stroke:#181818;stroke-width:1.4;"/><polygon fill="#181818" points="155.61,422.968,147.354,428.7782,149.5418,438.6338,157.7978,432.8236,155.61,422.968" style="stroke:#181818;stroke-width:1.4;"/><text fill="#000000" font-family="sans-serif" font-size="15.4" lengthAdjust="spacing" textLength="25.6867" x="140" y="482.8182">n, p</text></g><!--link Binomial to comb--><g class="link" data-entity-1="Binomial" data-entity-2="comb" data-source-line="33" data-uid="lnk8" id="link_Binomial_comb"><path codeLine="33" d="M241.99,422.968 C260.19,469.966 276.839,512.9114 288.627,543.3334" fill="none" id="Binomial-to-comb" style="stroke:#181818;stroke-width:1.4;stroke-dasharray:9.8,9.8;"/><polygon fill="#181818" points="291.662,551.166,292.3312,537.3938,289.1329,544.6389,281.8878,541.4405,291.662,551.166" style="stroke:#181818;stroke-width:1.4;"/><text fill="#000000" font-family="sans-serif" font-size="15.4" lengthAdjust="spacing" textLength="31.6647" x="266" y="482.8182">pdf()</text></g><!--SRC=[TL51Ri8m4Bpx5NjCsYQ2QzHMeeTAFLIgHE_HnZ7IqiIsx0s21jx5dPSrSI11Y1vtPdQydl4_f2qwh45MwFs2sL7HiFgGHY_fLy5C-55IgXKs5RyRpO6RpuN0mhD3oSC-BCxZaf79CqciFasfAcW5m2C47yNA-GnAaXn0ydb9NheEpw0mfX878GQxDzAc9hottkeClYxp4zYhwN3V5bxWspMg8vCaAFASD76UHxTdnO6kEpO3qWpjRB2iSNj1z83OSXLjumnMbK66FUWIdSDTuDJMAjddO7GqIbfzEjfXTuEEK4jrGvwEqJonyM5AOVnOY261V8DLeyvBqtUkKMYjCrOvtWKVKwnLtv6fY-3X9TbTwhlxkd3J7kvL_vRtl4-IiGinblBGeTDj6UYkXebDqzVXmIoa58i_]--></g></svg>