<svg xmlns="http://www.w3.org/2000/svg" xmlns:xlink="http://www.w3.org/1999/xlink" contentStyleType="text/css" data-diagram-type="CLASS" height="839px" preserveAspectRatio="none" style="width:574px;height:839px;background:#FFFFFF;" version="1.1" viewBox="0 0 574 839" width="574px" zoomAndPan="magnify"><defs/><g><!--class CalculationFrame--><g class="entity" data-entity="CalculationFrame" data-source-line="4" data-uid="ent0002" id="entity_CalculationFrame"><rect fill="#F1F1F1" height="351.248" rx="2.5" ry="2.5" style="stroke:#181818;stroke-width:0.5;" width="436.6279" x="60" y="171"/><ellipse cx="231.4636" cy="185" fill="#ADD1B2" rx="9" ry="9" style="stroke:#181818;stroke-width:1;"/><path d="M232.9949,182.2656 Q233.0886,182.125 233.2136,182.0625 Q233.3386,181.9844 233.4792,181.9844 Q233.7136,181.9844 233.8699,182.1563 Q234.0261,182.3281 234.0261,182.7188 L234.0261,183.6563 Q234.0261,184.0469 233.8699,184.2188 Q233.7136,184.3906 233.4792,184.3906 Q233.2605,184.3906 233.1199,184.2656 Q232.9792,184.1406 232.9167,183.8125 Q232.8855,183.5781 232.7761,183.4531 Q232.5574,183.2188 232.1511,183.0781 Q231.7605,182.9219 231.3699,182.9219 Q230.8699,182.9219 230.448,183.1406 Q230.0417,183.3594 229.7136,183.8438 Q229.4011,184.3281 229.4011,184.9844 L229.4011,185.7031 Q229.4011,186.5 229.9792,187.0313 Q230.5574,187.5625 231.5886,187.5625 Q232.198,187.5625 232.6199,187.3906 Q232.8699,187.2969 233.1511,187.0156 Q233.323,186.8438 233.4167,186.7969 Q233.5105,186.7344 233.6355,186.7344 Q233.8542,186.7344 234.0261,186.9063 Q234.198,187.0781 234.198,187.2969 Q234.198,187.5156 233.9636,187.7813 Q233.6355,188.1563 233.1199,188.375 Q232.4324,188.6563 231.5886,188.6563 Q230.6199,188.6563 229.8386,188.2656 Q229.198,187.9375 228.7449,187.25 Q228.3074,186.5469 228.3074,185.7188 L228.3074,184.9688 Q228.3074,184.1094 228.698,183.375 Q229.1042,182.625 229.8074,182.2344 Q230.5261,181.8281 231.323,181.8281 Q231.7917,181.8281 232.2136,181.9375 Q232.6355,182.0469 232.9949,182.2656 Z " fill="#000000"/><text fill="#000000" font-family="sans-serif" font-size="11" lengthAdjust="spacing" textLength="86.2007" x="248.9636" y="189.5547">CalculationFrame</text><line style="stroke:#181818;stroke-width:0.5;" x1="61" x2="495.6279" y1="199" y2="199"/><text fill="#000000" font-family="sans-serif" font-size="11" lengthAdjust="spacing" textLength="218.3672" x="66" y="214.8701">+model: AbstractStatisticalModel | Piecewise</text><text fill="#000000" font-family="sans-serif" font-size="11" lengthAdjust="spacing" textLength="127.5151" x="66" y="229.501">+shade_between: callable</text><text fill="#000000" font-family="sans-serif" font-size="11" lengthAdjust="spacing" textLength="80.4214" x="66" y="244.1318">+label1: tk.Label</text><text fill="#000000" font-family="sans-serif" font-size="11" lengthAdjust="spacing" textLength="92.6567" x="66" y="258.7627">+label1_a: tk.Label</text><text fill="#000000" font-family="sans-serif" font-size="11" lengthAdjust="spacing" textLength="92.6567" x="66" y="273.3936">+label1_b: tk.Label</text><text fill="#000000" font-family="sans-serif" font-size="11" lengthAdjust="spacing" textLength="132.9937" x="66" y="288.0244">+label1_b_var: tk.StringVar</text><text fill="#000000" font-family="sans-serif" font-size="11" lengthAdjust="spacing" textLength="80.4214" x="66" y="302.6553">+label2: tk.Label</text><text fill="#000000" font-family="sans-serif" font-size="11" lengthAdjust="spacing" textLength="80.3945" x="66" y="317.2861">+entry1: tk.Entry</text><text fill="#000000" font-family="sans-serif" font-size="11" lengthAdjust="spacing" textLength="80.3945" x="66" y="331.917">+entry2: tk.Entry</text><text fill="#000000" font-family="sans-serif" font-size="11" lengthAdjust="spacing" textLength="80.3945" x="66" y="346.5479">+entry3: tk.Entry</text><text fill="#000000" font-family="sans-serif" font-size="11" lengthAdjust="spacing" textLength="121.9722" x="66" y="361.1787">+entry1_var: tk.StringVar</text><text fill="#000000" font-family="sans-serif" font-size="11" lengthAdjust="spacing" textLength="121.9722" x="66" y="375.8096">+entry2_var: tk.StringVar</text><text fill="#000000" font-family="sans-serif" font-size="11" lengthAdjust="spacing" textLength="121.9722" x="66" y="390.4404">+entry3_var: tk.StringVar</text><text fill="#000000" font-family="sans-serif" font-size="11" lengthAdjust="spacing" textLength="131.1514" x="66" y="405.0713">+combobox: ttk.Combobox</text><line style="stroke:#181818;stroke-width:1;" x1="61" x2="495.6279" y1="411.832" y2="411.832"/><text fill="#000000" font-family="sans-serif" font-size="11" lengthAdjust="spacing" textLength="424.6279" x="66" y="427.7021">+__init__(master: tk.Widget, model: AbstractStatisticalModel, shade_between: callable)</text><text fill="#000000" font-family="sans-serif" font-size="11" lengthAdjust="spacing" textLength="83.4614" x="66" y="442.333">+place_widgets()</text><text fill="#000000" font-family="sans-serif" font-size="11" lengthAdjust="spacing" textLength="126.8652" x="66" y="456.9639">+refresh(_event: tk.Event)</text><text fill="#000000" font-family="sans-serif" font-size="11" lengthAdjust="spacing" textLength="171.5259" x="66" y="471.5947">+entry1_updating(_event: tk.Event)</text><text fill="#000000" font-family="sans-serif" font-size="11" lengthAdjust="spacing" textLength="171.5259" x="66" y="486.2256">+entry2_updating(_event: tk.Event)</text><text fill="#000000" font-family="sans-serif" font-size="11" lengthAdjust="spacing" textLength="171.5259" x="66" y="500.8564">+entry3_updating(_event: tk.Event)</text><text fill="#000000" font-family="sans-serif" font-size="11" lengthAdjust="spacing" textLength="92.0444" x="66" y="515.4873">+update_shading()</text></g><!--class AbstractStatisticalModel--><g class="entity" data-entity="AbstractStatisticalModel" data-source-line="29" data-uid="ent0003" id="entity_AbstractStatisticalModel"><rect fill="#F1F1F1" height="234.2012" rx="2.5" ry="2.5" style="stroke:#181818;stroke-width:0.5;" width="162.7397" x="7" y="598"/><ellipse cx="27.8119" cy="612" fill="#A9DCDF" rx="9" ry="9" style="stroke:#181818;stroke-width:1;"/><path d="M28.9526,613.7344 L26.2807,613.7344 L26.0151,614.4063 L26.2807,614.4063 Q26.6869,614.4063 26.8432,614.5625 Q27.0151,614.7031 27.0151,614.9531 Q27.0151,615.1875 26.8432,615.3438 Q26.6869,615.5 26.2807,615.5 L24.7963,615.5 Q24.4057,615.5 24.2338,615.3438 Q24.0619,615.1875 24.0619,614.9531 Q24.0619,614.7031 24.2494,614.5469 Q24.4213,614.3906 24.8276,614.4063 L26.5619,610.0938 L25.8432,610.0938 Q25.4369,610.0938 25.2651,609.9375 Q25.1088,609.7813 25.1088,609.5313 Q25.1088,609.2969 25.2651,609.1406 Q25.4369,608.9844 25.8432,608.9844 L28.2182,608.9844 L30.4057,614.4063 Q30.7963,614.4063 30.9213,614.4844 Q31.1713,614.6563 31.1713,614.9531 Q31.1713,615.1875 30.9994,615.3438 Q30.8276,615.5 30.4369,615.5 L28.9526,615.5 Q28.5619,615.5 28.3901,615.3438 Q28.2182,615.1875 28.2182,614.9531 Q28.2182,614.7031 28.3901,614.5625 Q28.5619,614.4063 28.9526,614.4063 L29.2182,614.4063 L28.9526,613.7344 Z M28.4994,612.625 L27.6088,610.4531 L26.7182,612.625 L28.4994,612.625 Z " fill="#000000"/><text fill="#000000" font-family="sans-serif" font-size="11" font-style="italic" lengthAdjust="spacing" textLength="117.3799" x="41.5479" y="616.5547">AbstractStatisticalModel</text><line style="stroke:#181818;stroke-width:0.5;" x1="8" x2="168.7397" y1="626" y2="626"/><text fill="#000000" font-family="sans-serif" font-size="11" lengthAdjust="spacing" textLength="85.9106" x="13" y="641.8701">+is_discrete: bool</text><line style="stroke:#181818;stroke-width:1;" x1="8" x2="168.7397" y1="648.6309" y2="648.6309"/><text fill="#000000" font-family="sans-serif" font-size="11" lengthAdjust="spacing" textLength="98.7422" x="13" y="664.501">+pxlessthan(x): float</text><text fill="#000000" font-family="sans-serif" font-size="11" lengthAdjust="spacing" textLength="134.8306" x="13" y="679.1318">+pxlessthanequalto(x): float</text><text fill="#000000" font-family="sans-serif" font-size="11" lengthAdjust="spacing" textLength="90.186" x="13" y="693.7627">+pxequals(x): float</text><text fill="#000000" font-family="sans-serif" font-size="11" lengthAdjust="spacing" textLength="114.0337" x="13" y="708.3936">+pxgreaterthan(x): float</text><text fill="#000000" font-family="sans-serif" font-size="11" lengthAdjust="spacing" textLength="150.1221" x="13" y="723.0244">+pxgreaterthanequalto(x): float</text><text fill="#000000" font-family="sans-serif" font-size="11" lengthAdjust="spacing" textLength="121.3652" x="13" y="737.6553">+pxinclusivein(a, b): float</text><text fill="#000000" font-family="sans-serif" font-size="11" lengthAdjust="spacing" textLength="124.4214" x="13" y="752.2861">+pxexclusivein(a, b): float</text><text fill="#000000" font-family="sans-serif" font-size="11" lengthAdjust="spacing" textLength="99.3599" x="13" y="766.917">+xplessthan(p): float</text><text fill="#000000" font-family="sans-serif" font-size="11" lengthAdjust="spacing" textLength="135.4482" x="13" y="781.5479">+xplessthanequalto(p): float</text><text fill="#000000" font-family="sans-serif" font-size="11" lengthAdjust="spacing" textLength="114.6514" x="13" y="796.1787">+xpgreaterthan(p): float</text><text fill="#000000" font-family="sans-serif" font-size="11" lengthAdjust="spacing" textLength="150.7397" x="13" y="810.8096">+xpgreaterthanequalto(p): float</text><text fill="#000000" font-family="sans-serif" font-size="11" lengthAdjust="spacing" textLength="115.2529" x="13" y="825.4404">+xpexclusivein(p): tuple</text></g><!--class Piecewise--><g class="entity" data-entity="Piecewise" data-source-line="46" data-uid="ent0004" id="entity_Piecewise"><rect fill="#F1F1F1" height="117.1543" rx="2.5" ry="2.5" style="stroke:#181818;stroke-width:0.5;" width="146.8306" x="205" y="656.5"/><ellipse cx="249.9045" cy="670.5" fill="#ADD1B2" rx="9" ry="9" style="stroke:#181818;stroke-width:1;"/><path d="M251.4358,667.7656 Q251.5295,667.625 251.6545,667.5625 Q251.7795,667.4844 251.9202,667.4844 Q252.1545,667.4844 252.3108,667.6563 Q252.467,667.8281 252.467,668.2188 L252.467,669.1563 Q252.467,669.5469 252.3108,669.7188 Q252.1545,669.8906 251.9202,669.8906 Q251.7014,669.8906 251.5608,669.7656 Q251.4202,669.6406 251.3577,669.3125 Q251.3264,669.0781 251.217,668.9531 Q250.9983,668.7188 250.592,668.5781 Q250.2014,668.4219 249.8108,668.4219 Q249.3108,668.4219 248.8889,668.6406 Q248.4827,668.8594 248.1545,669.3438 Q247.842,669.8281 247.842,670.4844 L247.842,671.2031 Q247.842,672 248.4202,672.5313 Q248.9983,673.0625 250.0295,673.0625 Q250.6389,673.0625 251.0608,672.8906 Q251.3108,672.7969 251.592,672.5156 Q251.7639,672.3438 251.8577,672.2969 Q251.9514,672.2344 252.0764,672.2344 Q252.2952,672.2344 252.467,672.4063 Q252.6389,672.5781 252.6389,672.7969 Q252.6389,673.0156 252.4045,673.2813 Q252.0764,673.6563 251.5608,673.875 Q250.8733,674.1563 250.0295,674.1563 Q249.0608,674.1563 248.2795,673.7656 Q247.6389,673.4375 247.1858,672.75 Q246.7483,672.0469 246.7483,671.2188 L246.7483,670.4688 Q246.7483,669.6094 247.1389,668.875 Q247.5452,668.125 248.2483,667.7344 Q248.967,667.3281 249.7639,667.3281 Q250.2327,667.3281 250.6545,667.4375 Q251.0764,667.5469 251.4358,667.7656 Z " fill="#000000"/><text fill="#000000" font-family="sans-serif" font-size="11" lengthAdjust="spacing" textLength="49.5215" x="267.4045" y="675.0547">Piecewise</text><line style="stroke:#181818;stroke-width:0.5;" x1="206" x2="350.8306" y1="684.5" y2="684.5"/><text fill="#000000" font-family="sans-serif" font-size="11" lengthAdjust="spacing" textLength="85.9106" x="211" y="700.3701">+is_discrete: bool</text><line style="stroke:#181818;stroke-width:1;" x1="206" x2="350.8306" y1="707.1309" y2="707.1309"/><text fill="#000000" font-family="sans-serif" font-size="11" lengthAdjust="spacing" textLength="98.7422" x="211" y="723.001">+pxlessthan(x): float</text><text fill="#000000" font-family="sans-serif" font-size="11" lengthAdjust="spacing" textLength="134.8306" x="211" y="737.6318">+pxlessthanequalto(x): float</text><text fill="#000000" font-family="sans-serif" font-size="11" lengthAdjust="spacing" textLength="121.3652" x="211" y="752.2627">+pxinclusivein(a, b): float</text><text fill="#000000" font-family="sans-serif" font-size="11" lengthAdjust="spacing" textLength="124.4214" x="211" y="766.8936">+pxexclusivein(a, b): float</text></g><!--class View--><g class="entity" data-entity="View" data-source-line="55" data-uid="ent0005" id="entity_View"><rect fill="#F1F1F1" height="87.8926" rx="2.5" ry="2.5" style="stroke:#181818;stroke-width:0.5;" width="204.9082" x="176" y="7"/><ellipse cx="262.783" cy="21" fill="#ADD1B2" rx="9" ry="9" style="stroke:#181818;stroke-width:1;"/><path d="M264.3142,18.2656 Q264.408,18.125 264.533,18.0625 Q264.658,17.9844 264.7986,17.9844 Q265.033,17.9844 265.1892,18.1563 Q265.3455,18.3281 265.3455,18.7188 L265.3455,19.6563 Q265.3455,20.0469 265.1892,20.2188 Q265.033,20.3906 264.7986,20.3906 Q264.5798,20.3906 264.4392,20.2656 Q264.2986,20.1406 264.2361,19.8125 Q264.2048,19.5781 264.0955,19.4531 Q263.8767,19.2188 263.4705,19.0781 Q263.0798,18.9219 262.6892,18.9219 Q262.1892,18.9219 261.7673,19.1406 Q261.3611,19.3594 261.033,19.8438 Q260.7205,20.3281 260.7205,20.9844 L260.7205,21.7031 Q260.7205,22.5 261.2986,23.0313 Q261.8767,23.5625 262.908,23.5625 Q263.5173,23.5625 263.9392,23.3906 Q264.1892,23.2969 264.4705,23.0156 Q264.6423,22.8438 264.7361,22.7969 Q264.8298,22.7344 264.9548,22.7344 Q265.1736,22.7344 265.3455,22.9063 Q265.5173,23.0781 265.5173,23.2969 Q265.5173,23.5156 265.283,23.7813 Q264.9548,24.1563 264.4392,24.375 Q263.7517,24.6563 262.908,24.6563 Q261.9392,24.6563 261.158,24.2656 Q260.5173,23.9375 260.0642,23.25 Q259.6267,22.5469 259.6267,21.7188 L259.6267,20.9688 Q259.6267,20.1094 260.0173,19.375 Q260.4236,18.625 261.1267,18.2344 Q261.8455,17.8281 262.6423,17.8281 Q263.1111,17.8281 263.533,17.9375 Q263.9548,18.0469 264.3142,18.2656 Z " fill="#000000"/><text fill="#000000" font-family="sans-serif" font-size="11" lengthAdjust="spacing" textLength="23.8423" x="280.283" y="25.5547">View</text><line style="stroke:#181818;stroke-width:0.5;" x1="177" x2="379.9082" y1="35" y2="35"/><text fill="#000000" font-family="sans-serif" font-size="11" lengthAdjust="spacing" textLength="117.686" x="182" y="50.8701">+dice_or_calc: tk.Frame</text><line style="stroke:#181818;stroke-width:1;" x1="177" x2="379.9082" y1="57.6309" y2="57.6309"/><text fill="#000000" font-family="sans-serif" font-size="11" lengthAdjust="spacing" textLength="192.9082" x="182" y="73.501">+update_dice_or_calc(mode: str, *args)</text><text fill="#000000" font-family="sans-serif" font-size="11" lengthAdjust="spacing" textLength="73.6646" x="182" y="88.1318">+refresh_calc()</text></g><!--class Controller--><g class="entity" data-entity="Controller" data-source-line="62" data-uid="ent0006" id="entity_Controller"><rect fill="#F1F1F1" height="58.6309" rx="2.5" ry="2.5" style="stroke:#181818;stroke-width:0.5;" width="179.8628" x="387.5" y="685.5"/><ellipse cx="449.8391" cy="699.5" fill="#ADD1B2" rx="9" ry="9" style="stroke:#181818;stroke-width:1;"/><path d="M451.3704,696.7656 Q451.4641,696.625 451.5891,696.5625 Q451.7141,696.4844 451.8547,696.4844 Q452.0891,696.4844 452.2454,696.6563 Q452.4016,696.8281 452.4016,697.2188 L452.4016,698.1563 Q452.4016,698.5469 452.2454,698.7188 Q452.0891,698.8906 451.8547,698.8906 Q451.636,698.8906 451.4954,698.7656 Q451.3547,698.6406 451.2922,698.3125 Q451.261,698.0781 451.1516,697.9531 Q450.9329,697.7188 450.5266,697.5781 Q450.136,697.4219 449.7454,697.4219 Q449.2454,697.4219 448.8235,697.6406 Q448.4172,697.8594 448.0891,698.3438 Q447.7766,698.8281 447.7766,699.4844 L447.7766,700.2031 Q447.7766,701 448.3547,701.5313 Q448.9329,702.0625 449.9641,702.0625 Q450.5735,702.0625 450.9954,701.8906 Q451.2454,701.7969 451.5266,701.5156 Q451.6985,701.3438 451.7922,701.2969 Q451.886,701.2344 452.011,701.2344 Q452.2297,701.2344 452.4016,701.4063 Q452.5735,701.5781 452.5735,701.7969 Q452.5735,702.0156 452.3391,702.2813 Q452.011,702.6563 451.4954,702.875 Q450.8079,703.1563 449.9641,703.1563 Q448.9954,703.1563 448.2141,702.7656 Q447.5735,702.4375 447.1204,701.75 Q446.6829,701.0469 446.6829,700.2188 L446.6829,699.4688 Q446.6829,698.6094 447.0735,697.875 Q447.4797,697.125 448.1829,696.7344 Q448.9016,696.3281 449.6985,696.3281 Q450.1672,696.3281 450.5891,696.4375 Q451.011,696.5469 451.3704,696.7656 Z " fill="#000000"/><text fill="#000000" font-family="sans-serif" font-size="11" lengthAdjust="spacing" textLength="47.6846" x="467.3391" y="704.0547">Controller</text><line style="stroke:#181818;stroke-width:0.5;" x1="388.5" x2="566.3628" y1="713.5" y2="713.5"/><line style="stroke:#181818;stroke-width:1;" x1="388.5" x2="566.3628" y1="721.5" y2="721.5"/><text fill="#000000" font-family="sans-serif" font-size="11" lengthAdjust="spacing" textLength="167.8628" x="393.5" y="737.3701">+shade_between(shade_dict: dict)</text></g><!--reverse link View to CalculationFrame--><g class="link" data-entity-1="View" data-entity-2="CalculationFrame" data-source-line="67" data-uid="lnk7" id="link_View_CalculationFrame"><path codeLine="67" d="M278.5,107.31 C278.5,128.2 278.5,142.77 278.5,170.76" fill="none" id="View-backto-CalculationFrame" style="stroke:#181818;stroke-width:1;"/><polygon fill="#181818" points="278.5,95.31,274.5,101.31,278.5,107.31,282.5,101.31,278.5,95.31" style="stroke:#181818;stroke-width:1;"/><text fill="#000000" font-family="sans-serif" font-size="11" lengthAdjust="spacing" textLength="122.2729" x="279.5" y="137.8701">dice_or_calc (calc mode)</text></g><!--reverse link CalculationFrame to AbstractStatisticalModel--><g class="link" data-entity-1="CalculationFrame" data-entity-2="AbstractStatisticalModel" data-source-line="68" data-uid="lnk8" id="link_CalculationFrame_AbstractStatisticalModel"><path codeLine="68" d="M182.4282,532.8141 C169.0982,558.5341 161.17,573.83 148.65,597.97" fill="none" id="CalculationFrame-backto-AbstractStatisticalModel" style="stroke:#181818;stroke-width:1;"/><polygon fill="none" points="187.95,522.16,181.6378,525.6465,182.4282,532.8141,188.7405,529.3276,187.95,522.16" style="stroke:#181818;stroke-width:1;"/><text fill="#000000" font-family="sans-serif" font-size="11" lengthAdjust="spacing" textLength="29.96" x="173.5" y="564.8701">model</text></g><!--reverse link CalculationFrame to Piecewise--><g class="link" data-entity-1="CalculationFrame" data-entity-2="Piecewise" data-source-line="69" data-uid="lnk9" id="link_CalculationFrame_Piecewise"><path codeLine="69" d="M278.5,534.16 C278.5,582.65 278.5,619.94 278.5,656.42" fill="none" id="CalculationFrame-backto-Piecewise" style="stroke:#181818;stroke-width:1;"/><polygon fill="none" points="278.5,522.16,274.5,528.16,278.5,534.16,282.5,528.16,278.5,522.16" style="stroke:#181818;stroke-width:1;"/><text fill="#000000" font-family="sans-serif" font-size="11" lengthAdjust="spacing" textLength="29.96" x="279.5" y="564.8701">model</text></g><!--link CalculationFrame to Controller--><g class="link" data-entity-1="CalculationFrame" data-entity-2="Controller" data-source-line="70" data-uid="lnk10" id="link_CalculationFrame_Controller"><path codeLine="70" d="M373.34,522.16 C407.57,585.22 439.6869,644.3572 459.1369,680.1772" fill="none" id="CalculationFrame-to-Controller" style="stroke:#181818;stroke-width:1;"/><polygon fill="#181818" points="462,685.45,461.2206,675.632,459.6141,681.056,454.1901,679.4495,462,685.45" style="stroke:#181818;stroke-width:1;"/><text fill="#000000" font-family="sans-serif" font-size="11" lengthAdjust="spacing" textLength="127.7998" x="397.5" y="564.8701">shade_between() callback</text></g><!--SRC=[jLHBYzim4BxxL-XeR-FI93SV2aleGg65Gc1x56DvaeWeaYl9YVlwxzN3ZHqdpYw5NemytwUPRpGFi-Uo1Wq7mWGOysYjvcLZyIDJSir_87cNc3EbmWqqmZufQGCsdoT9k4PM85WZm78bdnmJoS-4a3Vae2eK1NaiZTN0xDewXh6SWVZi4VABVE78yCGD1hxPGOMqH7j2b0LnF06bY9WxePWNnExVVlB7WP72RNCvOQP7q05QkspbzXbq3oz6Tr1Q_Js6_U2FlN5noxYyPPnF18nkxe7B2P2fGwbArJh8OQlkpq5v7d1AkUIMqlG0ncBqy9LNMxIpbueocwf25ZpN0XZIK_1bqcZJkD5eTYd5erCTNy2Vik4JD7Nb0idjFTRYLQpbIwm08_LvU5AM_4uIwDADVJxTah5nkQ4LDqoZnOAKIed-QUjMe35s1p9jiu9iX08x0l1R0yAgAppOpPLvgz79rJTT3h0fhrmoqHX-H2vJc95o7BIz0xVrEPbw0lWRTemFLT_1fguFPNdCDYwYBrIiptal_DU2_ElJdMK-Spnr2Ylkva9fwZg9XOOCYx2NsJNba9RwKIo8wyGPUG2zDHVZ52bP7spbzgvMGg0E8Jk_5zEQnZyNn0s5_uRhGUL3db-lwU92Dad3rwlAaYkkSWucnwQ8Q-NshRwOaxGyVp_ChnYbbOKjL0BR9ty0]--></g></svg>