<svg xmlns="http://www.w3.org/2000/svg" xmlns:xlink="http://www.w3.org/1999/xlink" contentStyleType="text/css" data-diagram-type="CLASS" height="488px" preserveAspectRatio="none" style="width:448px;height:488px;background:#FFFFFF;" version="1.1" viewBox="0 0 448 488" width="448px" zoomAndPan="magnify"><defs/><g><!--class AbstractStatisticalModel--><g class="entity" data-entity="AbstractStatisticalModel" data-source-line="4" data-uid="ent0002" id="entity_AbstractStatisticalModel"><rect fill="#F1F1F1" height="87.8926" rx="2.5" ry="2.5" style="stroke:#181818;stroke-width:0.5;" width="145.3799" x="148.5" y="7"/><ellipse cx="161.5" cy="21" fill="#A9DCDF" rx="9" ry="9" style="stroke:#181818;stroke-width:1;"/><path d="M162.6406,22.7344 L159.9688,22.7344 L159.7031,23.4063 L159.9688,23.4063 Q160.375,23.4063 160.5313,23.5625 Q160.7031,23.7031 160.7031,23.9531 Q160.7031,24.1875 160.5313,24.3438 Q160.375,24.5 159.9688,24.5 L158.4844,24.5 Q158.0938,24.5 157.9219,24.3438 Q157.75,24.1875 157.75,23.9531 Q157.75,23.7031 157.9375,23.5469 Q158.1094,23.3906 158.5156,23.4063 L160.25,19.0938 L159.5313,19.0938 Q159.125,19.0938 158.9531,18.9375 Q158.7969,18.7813 158.7969,18.5313 Q158.7969,18.2969 158.9531,18.1406 Q159.125,17.9844 159.5313,17.9844 L161.9063,17.9844 L164.0938,23.4063 Q164.4844,23.4063 164.6094,23.4844 Q164.8594,23.6563 164.8594,23.9531 Q164.8594,24.1875 164.6875,24.3438 Q164.5156,24.5 164.125,24.5 L162.6406,24.5 Q162.25,24.5 162.0781,24.3438 Q161.9063,24.1875 161.9063,23.9531 Q161.9063,23.7031 162.0781,23.5625 Q162.25,23.4063 162.6406,23.4063 L162.9063,23.4063 L162.6406,22.7344 Z M162.1875,21.625 L161.2969,19.4531 L160.4063,21.625 L162.1875,21.625 Z " fill="#000000"/><text fill="#000000" font-family="sans-serif" font-size="11" font-style="italic" lengthAdjust="spacing" textLength="117.3799" x="173.5" y="25.5547">AbstractStatisticalModel</text><line style="stroke:#181818;stroke-width:0.5;" x1="149.5" x2="292.8799" y1="35" y2="35"/><text fill="#000000" font-family="sans-serif" font-size="11" lengthAdjust="spacing" textLength="85.2876" x="154.5" y="50.8701">+parameters: dict</text><text fill="#000000" font-family="sans-serif" font-size="11" lengthAdjust="spacing" textLength="85.9106" x="154.5" y="65.501">+is_discrete: bool</text><line style="stroke:#181818;stroke-width:1;" x1="149.5" x2="292.8799" y1="72.2617" y2="72.2617"/><text fill="#000000" font-family="sans-serif" font-size="11" lengthAdjust="spacing" textLength="107.0942" x="154.5" y="88.1318">+cdf(x): float | ndarray</text></g><!--class ChiSquared--><g class="entity" data-entity="ChiSquared" data-source-line="11" data-uid="ent0003" id="entity_ChiSquared"><rect fill="#F1F1F1" height="175.6777" rx="2.5" ry="2.5" style="stroke:#181818;stroke-width:0.5;" width="174.7388" x="133.5" y="156"/><ellipse cx="188.0725" cy="170" fill="#ADD1B2" rx="9" ry="9" style="stroke:#181818;stroke-width:1;"/><path d="M189.6038,167.2656 Q189.6975,167.125 189.8225,167.0625 Q189.9475,166.9844 190.0881,166.9844 Q190.3225,166.9844 190.4788,167.1563 Q190.635,167.3281 190.635,167.7188 L190.635,168.6563 Q190.635,169.0469 190.4788,169.2188 Q190.3225,169.3906 190.0881,169.3906 Q189.8694,169.3906 189.7288,169.2656 Q189.5881,169.1406 189.5256,168.8125 Q189.4944,168.5781 189.385,168.4531 Q189.1663,168.2188 188.76,168.0781 Q188.3694,167.9219 187.9788,167.9219 Q187.4788,167.9219 187.0569,168.1406 Q186.6506,168.3594 186.3225,168.8438 Q186.01,169.3281 186.01,169.9844 L186.01,170.7031 Q186.01,171.5 186.5881,172.0313 Q187.1663,172.5625 188.1975,172.5625 Q188.8069,172.5625 189.2288,172.3906 Q189.4788,172.2969 189.76,172.0156 Q189.9319,171.8438 190.0256,171.7969 Q190.1194,171.7344 190.2444,171.7344 Q190.4631,171.7344 190.635,171.9063 Q190.8069,172.0781 190.8069,172.2969 Q190.8069,172.5156 190.5725,172.7813 Q190.2444,173.1563 189.7288,173.375 Q189.0413,173.6563 188.1975,173.6563 Q187.2288,173.6563 186.4475,173.2656 Q185.8069,172.9375 185.3538,172.25 Q184.9163,171.5469 184.9163,170.7188 L184.9163,169.9688 Q184.9163,169.1094 185.3069,168.375 Q185.7131,167.625 186.4163,167.2344 Q187.135,166.8281 187.9319,166.8281 Q188.4006,166.8281 188.8225,166.9375 Q189.2444,167.0469 189.6038,167.2656 Z " fill="#000000"/><text fill="#000000" font-family="sans-serif" font-size="11" lengthAdjust="spacing" textLength="58.0938" x="205.5725" y="174.5547">ChiSquared</text><line style="stroke:#181818;stroke-width:0.5;" x1="134.5" x2="307.2388" y1="184" y2="184"/><text fill="#000000" font-family="sans-serif" font-size="11" lengthAdjust="spacing" textLength="145.2183" x="139.5" y="199.8701">+parameters: {nu: Parameter}</text><text fill="#000000" font-family="sans-serif" font-size="11" lengthAdjust="spacing" textLength="125.3452" x="139.5" y="214.501">+is_discrete: bool = False</text><line style="stroke:#181818;stroke-width:1;" x1="134.5" x2="307.2388" y1="221.2617" y2="221.2617"/><text fill="#000000" font-family="sans-serif" font-size="11" lengthAdjust="spacing" textLength="131.146" x="139.5" y="237.1318">+__init__(parameters: dict)</text><text fill="#000000" font-family="sans-serif" font-size="11" lengthAdjust="spacing" textLength="70.0176" x="139.5" y="251.7627">+mini: float {0}</text><text fill="#000000" font-family="sans-serif" font-size="11" lengthAdjust="spacing" textLength="117.1489" x="139.5" y="266.3936">+maxi: float {k + 5&#8730;(2k)}</text><text fill="#000000" font-family="sans-serif" font-size="11" lengthAdjust="spacing" textLength="107.7119" x="139.5" y="281.0244">+pdf(x): float | ndarray</text><text fill="#000000" font-family="sans-serif" font-size="11" lengthAdjust="spacing" textLength="162.7388" x="139.5" y="295.6553">+cdf(x): float | ndarray {overrides}</text><text fill="#000000" font-family="sans-serif" font-size="11" lengthAdjust="spacing" textLength="112.8198" x="139.5" y="310.2861">+expectation(): float {k}</text><text fill="#000000" font-family="sans-serif" font-size="11" lengthAdjust="spacing" textLength="104.2529" x="139.5" y="324.917">+variance(): float {2k}</text></g><!--class Parameter--><g class="entity" data-entity="Parameter" data-source-line="24" data-uid="ent0004" id="entity_Parameter"><rect fill="#F1F1F1" height="73.2617" rx="2.5" ry="2.5" style="stroke:#181818;stroke-width:0.5;" width="122.3813" x="7" y="408"/><ellipse cx="39.3627" cy="422" fill="#ADD1B2" rx="9" ry="9" style="stroke:#181818;stroke-width:1;"/><path d="M40.894,419.2656 Q40.9877,419.125 41.1127,419.0625 Q41.2377,418.9844 41.3784,418.9844 Q41.6127,418.9844 41.769,419.1563 Q41.9252,419.3281 41.9252,419.7188 L41.9252,420.6563 Q41.9252,421.0469 41.769,421.2188 Q41.6127,421.3906 41.3784,421.3906 Q41.1596,421.3906 41.019,421.2656 Q40.8784,421.1406 40.8159,420.8125 Q40.7846,420.5781 40.6752,420.4531 Q40.4565,420.2188 40.0502,420.0781 Q39.6596,419.9219 39.269,419.9219 Q38.769,419.9219 38.3471,420.1406 Q37.9409,420.3594 37.6127,420.8438 Q37.3002,421.3281 37.3002,421.9844 L37.3002,422.7031 Q37.3002,423.5 37.8784,424.0313 Q38.4565,424.5625 39.4877,424.5625 Q40.0971,424.5625 40.519,424.3906 Q40.769,424.2969 41.0502,424.0156 Q41.2221,423.8438 41.3159,423.7969 Q41.4096,423.7344 41.5346,423.7344 Q41.7534,423.7344 41.9252,423.9063 Q42.0971,424.0781 42.0971,424.2969 Q42.0971,424.5156 41.8627,424.7813 Q41.5346,425.1563 41.019,425.375 Q40.3315,425.6563 39.4877,425.6563 Q38.519,425.6563 37.7377,425.2656 Q37.0971,424.9375 36.644,424.25 Q36.2065,423.5469 36.2065,422.7188 L36.2065,421.9688 Q36.2065,421.1094 36.5971,420.375 Q37.0034,419.625 37.7065,419.2344 Q38.4252,418.8281 39.2221,418.8281 Q39.6909,418.8281 40.1127,418.9375 Q40.5346,419.0469 40.894,419.2656 Z " fill="#000000"/><text fill="#000000" font-family="sans-serif" font-size="11" lengthAdjust="spacing" textLength="51.353" x="55.6656" y="426.5547">Parameter</text><line style="stroke:#181818;stroke-width:0.5;" x1="8" x2="128.3813" y1="436" y2="436"/><text fill="#000000" font-family="sans-serif" font-size="11" lengthAdjust="spacing" textLength="62.9814" x="13" y="451.8701">-_value: float</text><line style="stroke:#181818;stroke-width:1;" x1="8" x2="128.3813" y1="458.6309" y2="458.6309"/><text fill="#000000" font-family="sans-serif" font-size="11" lengthAdjust="spacing" textLength="110.3813" x="13" y="474.501">+value: float {property}</text></g><g class="entity" data-entity="gamma" data-source-line="30" data-uid="ent0005" id="entity_gamma"><rect fill="#F1F1F1" height="41.2617" rx="2.5" ry="2.5" style="stroke:#181818;stroke-width:0.5;" width="114.0938" x="164" y="424"/><text fill="#000000" font-family="sans-serif" font-size="11" lengthAdjust="spacing" textLength="36.6792" x="202.7073" y="437.8701">gamma</text><line style="stroke:#181818;stroke-width:0.5;" x1="165" x2="277.0938" y1="442.6309" y2="442.6309"/><text fill="#000000" font-family="sans-serif" font-size="11" lengthAdjust="spacing" textLength="102.0938" x="170" y="458.501">scipy.special.gamma</text></g><g class="entity" data-entity="gammainc" data-source-line="34" data-uid="ent0006" id="entity_gammainc"><rect fill="#F1F1F1" height="41.2617" rx="2.5" ry="2.5" style="stroke:#181818;stroke-width:0.5;" width="128.1553" x="313" y="424"/><text fill="#000000" font-family="sans-serif" font-size="11" lengthAdjust="spacing" textLength="50.7407" x="351.7073" y="437.8701">gammainc</text><line style="stroke:#181818;stroke-width:0.5;" x1="314" x2="440.1553" y1="442.6309" y2="442.6309"/><text fill="#000000" font-family="sans-serif" font-size="11" lengthAdjust="spacing" textLength="116.1553" x="319" y="458.501">scipy.special.gammainc</text></g><!--reverse link AbstractStatisticalModel to ChiSquared--><g class="link" data-entity-1="AbstractStatisticalModel" data-entity-2="ChiSquared" data-source-line="38" data-uid="lnk7" id="link_AbstractStatisticalModel_ChiSquared"><path codeLine="38" d="M221,113.34 C221,131.28 221,134.76 221,155.72" fill="none" id="AbstractStatisticalModel-backto-ChiSquared" style="stroke:#181818;stroke-width:1;"/><polygon fill="none" points="221,95.34,215,113.34,227,113.34,221,95.34" style="stroke:#181818;stroke-width:1;"/></g><!--reverse link ChiSquared to Parameter--><g class="link" data-entity-1="ChiSquared" data-entity-2="Parameter" data-source-line="39" data-uid="lnk8" id="link_ChiSquared_Parameter"><path codeLine="39" d="M146.5657,341.5655 C126.0157,368.2355 111.86,386.59 95.53,407.78" fill="none" id="ChiSquared-backto-Parameter" style="stroke:#181818;stroke-width:1;"/><polygon fill="#181818" points="153.89,332.06,147.0594,334.3713,146.5657,341.5655,153.3964,339.2542,153.89,332.06" style="stroke:#181818;stroke-width:1;"/><text fill="#000000" font-family="sans-serif" font-size="11" lengthAdjust="spacing" textLength="12.2354" x="132" y="374.8701">nu</text></g><!--link ChiSquared to gamma--><g class="link" data-entity-1="ChiSquared" data-entity-2="gamma" data-source-line="40" data-uid="lnk9" id="link_ChiSquared_gamma"><path codeLine="40" d="M221,332.06 C221,366.23 221,396.36 221,417.91" fill="none" id="ChiSquared-to-gamma" style="stroke:#181818;stroke-width:1;stroke-dasharray:7,7;"/><polygon fill="#181818" points="221,423.91,225,414.91,221,418.91,217,414.91,221,423.91" style="stroke:#181818;stroke-width:1;"/><text fill="#000000" font-family="sans-serif" font-size="11" lengthAdjust="spacing" textLength="22.6177" x="222" y="374.8701">pdf()</text></g><!--link ChiSquared to gammainc--><g class="link" data-entity-1="ChiSquared" data-entity-2="gammainc" data-source-line="41" data-uid="lnk10" id="link_ChiSquared_gammainc"><path codeLine="41" d="M289.42,332.06 C316.28,366.23 340.952,397.6429 357.892,419.1929" fill="none" id="ChiSquared-to-gammainc" style="stroke:#181818;stroke-width:1;stroke-dasharray:7,7;"/><polygon fill="#181818" points="361.6,423.91,359.1827,414.3624,358.51,419.9791,352.8933,419.3064,361.6,423.91" style="stroke:#181818;stroke-width:1;"/><text fill="#000000" font-family="sans-serif" font-size="11" lengthAdjust="spacing" textLength="22" x="323" y="374.8701">cdf()</text></g><!--SRC=[VP91JiCm44NtFiKi4r2YjXAR290gf4eia91wW6ZYk33KiOFjL2rfzvo1ut4INATjegfbwV_6ysU-RPUaQZHO0PTexTGvGqNZn3FNQavV0aRCdafAiS16kfbMBh3nc34ih3F8NNSVfeVZtA4ZwuYZVD6baD0oW5i8VOGJncPG4dT199kNPBdnUWQ5rjAhIH8GBnVHEivW8JKws88gqHZSi1rZdT_JEyq_6pIYlE3GgYQ3rwEmksm63p13QKLlckUaoELvT3vj773bwN6YTjHrhN3TQqiltFr-_qIJPTpX-ieQ_wm8hLu9OwWKjkiXrhNW-rIrYkBUguChD8IAYm6PU7IAwHH2I2c1V8Mo4OVQVlEX2crjT2sCsuG-klZmzl26LOMXYULKRrBhXoAKQT3FwqZnQwKUxQklVfVxRP8C7fSDtld6atwV35Gpf6dwU1Wo2x775-5-iYn47xC_]--></g></svg>