<svg xmlns="http://www.w3.org/2000/svg" xmlns:xlink="http://www.w3.org/1999/xlink" contentStyleType="text/css" data-diagram-type="CLASS" height="488px" preserveAspectRatio="none" style="width:465px;height:488px;background:#FFFFFF;" version="1.1" viewBox="0 0 465 488" width="465px" zoomAndPan="magnify"><defs/><g><!--class ComboboxFrame--><g class="entity" data-entity="ComboboxFrame" data-source-line="4" data-uid="ent0002" id="entity_ComboboxFrame"><rect fill="#F1F1F1" height="175.6777" rx="2.5" ry="2.5" style="stroke:#181818;stroke-width:0.5;" width="253.8281" x="82" y="171"/><ellipse cx="162.676" cy="185" fill="#ADD1B2" rx="9" ry="9" style="stroke:#181818;stroke-width:1;"/><path d="M164.2073,182.2656 Q164.301,182.125 164.426,182.0625 Q164.551,181.9844 164.6917,181.9844 Q164.926,181.9844 165.0823,182.1563 Q165.2385,182.3281 165.2385,182.7188 L165.2385,183.6563 Q165.2385,184.0469 165.0823,184.2188 Q164.926,184.3906 164.6917,184.3906 Q164.4729,184.3906 164.3323,184.2656 Q164.1917,184.1406 164.1292,183.8125 Q164.0979,183.5781 163.9885,183.4531 Q163.7698,183.2188 163.3635,183.0781 Q162.9729,182.9219 162.5823,182.9219 Q162.0823,182.9219 161.6604,183.1406 Q161.2542,183.3594 160.926,183.8438 Q160.6135,184.3281 160.6135,184.9844 L160.6135,185.7031 Q160.6135,186.5 161.1917,187.0313 Q161.7698,187.5625 162.801,187.5625 Q163.4104,187.5625 163.8323,187.3906 Q164.0823,187.2969 164.3635,187.0156 Q164.5354,186.8438 164.6292,186.7969 Q164.7229,186.7344 164.8479,186.7344 Q165.0667,186.7344 165.2385,186.9063 Q165.4104,187.0781 165.4104,187.2969 Q165.4104,187.5156 165.176,187.7813 Q164.8479,188.1563 164.3323,188.375 Q163.6448,188.6563 162.801,188.6563 Q161.8323,188.6563 161.051,188.2656 Q160.4104,187.9375 159.9573,187.25 Q159.5198,186.5469 159.5198,185.7188 L159.5198,184.9688 Q159.5198,184.1094 159.9104,183.375 Q160.3167,182.625 161.0198,182.2344 Q161.7385,181.8281 162.5354,181.8281 Q163.0042,181.8281 163.426,181.9375 Q163.8479,182.0469 164.2073,182.2656 Z " fill="#000000"/><text fill="#000000" font-family="sans-serif" font-size="11" lengthAdjust="spacing" textLength="84.9761" x="180.176" y="189.5547">ComboboxFrame</text><line style="stroke:#181818;stroke-width:0.5;" x1="83" x2="334.8281" y1="199" y2="199"/><text fill="#000000" font-family="sans-serif" font-size="11" lengthAdjust="spacing" textLength="104.2798" x="88" y="214.8701">+on_change: callable</text><text fill="#000000" font-family="sans-serif" font-size="11" lengthAdjust="spacing" textLength="131.1514" x="88" y="229.501">+combobox: ttk.Combobox</text><text fill="#000000" font-family="sans-serif" font-size="11" lengthAdjust="spacing" textLength="95.0952" x="88" y="244.1318">+definition: tk.Label</text><text fill="#000000" font-family="sans-serif" font-size="11" lengthAdjust="spacing" textLength="178.0464" x="88" y="258.7627">+latex_image: tk.PhotoImage | None</text><line style="stroke:#181818;stroke-width:1;" x1="83" x2="334.8281" y1="265.5234" y2="265.5234"/><text fill="#000000" font-family="sans-serif" font-size="11" lengthAdjust="spacing" textLength="241.8281" x="88" y="281.3936">+__init__(master: tk.Widget, on_change: callable)</text><text fill="#000000" font-family="sans-serif" font-size="11" lengthAdjust="spacing" textLength="83.4614" x="88" y="296.0244">+place_widgets()</text><text fill="#000000" font-family="sans-serif" font-size="11" lengthAdjust="spacing" textLength="132.3706" x="88" y="310.6553">+callback(_event: tk.Event)</text><text fill="#000000" font-family="sans-serif" font-size="11" lengthAdjust="spacing" textLength="140.9375" x="88" y="325.2861">+set_definition(definition: str)</text><text fill="#000000" font-family="sans-serif" font-size="11" lengthAdjust="spacing" textLength="143.3706" x="88" y="339.917">+set_options(options: list[str])</text></g><!--class View--><g class="entity" data-entity="View" data-source-line="17" data-uid="ent0003" id="entity_View"><rect fill="#F1F1F1" height="87.8926" rx="2.5" ry="2.5" style="stroke:#181818;stroke-width:0.5;" width="160.2637" x="129" y="7"/><ellipse cx="193.4607" cy="21" fill="#ADD1B2" rx="9" ry="9" style="stroke:#181818;stroke-width:1;"/><path d="M194.9919,18.2656 Q195.0857,18.125 195.2107,18.0625 Q195.3357,17.9844 195.4763,17.9844 Q195.7107,17.9844 195.8669,18.1563 Q196.0232,18.3281 196.0232,18.7188 L196.0232,19.6563 Q196.0232,20.0469 195.8669,20.2188 Q195.7107,20.3906 195.4763,20.3906 Q195.2576,20.3906 195.1169,20.2656 Q194.9763,20.1406 194.9138,19.8125 Q194.8826,19.5781 194.7732,19.4531 Q194.5544,19.2188 194.1482,19.0781 Q193.7576,18.9219 193.3669,18.9219 Q192.8669,18.9219 192.4451,19.1406 Q192.0388,19.3594 191.7107,19.8438 Q191.3982,20.3281 191.3982,20.9844 L191.3982,21.7031 Q191.3982,22.5 191.9763,23.0313 Q192.5544,23.5625 193.5857,23.5625 Q194.1951,23.5625 194.6169,23.3906 Q194.8669,23.2969 195.1482,23.0156 Q195.3201,22.8438 195.4138,22.7969 Q195.5076,22.7344 195.6326,22.7344 Q195.8513,22.7344 196.0232,22.9063 Q196.1951,23.0781 196.1951,23.2969 Q196.1951,23.5156 195.9607,23.7813 Q195.6326,24.1563 195.1169,24.375 Q194.4294,24.6563 193.5857,24.6563 Q192.6169,24.6563 191.8357,24.2656 Q191.1951,23.9375 190.7419,23.25 Q190.3044,22.5469 190.3044,21.7188 L190.3044,20.9688 Q190.3044,20.1094 190.6951,19.375 Q191.1013,18.625 191.8044,18.2344 Q192.5232,17.8281 193.3201,17.8281 Q193.7888,17.8281 194.2107,17.9375 Q194.6326,18.0469 194.9919,18.2656 Z " fill="#000000"/><text fill="#000000" font-family="sans-serif" font-size="11" lengthAdjust="spacing" textLength="23.8423" x="210.9607" y="25.5547">View</text><line style="stroke:#181818;stroke-width:0.5;" x1="130" x2="288.2637" y1="35" y2="35"/><text fill="#000000" font-family="sans-serif" font-size="11" lengthAdjust="spacing" textLength="148.2637" x="135" y="50.8701">+combobox: ComboboxFrame</text><line style="stroke:#181818;stroke-width:1;" x1="130" x2="288.2637" y1="57.6309" y2="57.6309"/><text fill="#000000" font-family="sans-serif" font-size="11" lengthAdjust="spacing" textLength="120.1406" x="135" y="73.501">+set_definition(latex: str)</text><text fill="#000000" font-family="sans-serif" font-size="11" lengthAdjust="spacing" textLength="143.3706" x="135" y="88.1318">+set_options(options: list[str])</text></g><!--class Controller--><g class="entity" data-entity="Controller" data-source-line="24" data-uid="ent0004" id="entity_Controller"><rect fill="#F1F1F1" height="58.6309" rx="2.5" ry="2.5" style="stroke:#181818;stroke-width:0.5;" width="162.0952" x="7" y="423"/><ellipse cx="60.4553" cy="437" fill="#ADD1B2" rx="9" ry="9" style="stroke:#181818;stroke-width:1;"/><path d="M61.9866,434.2656 Q62.0803,434.125 62.2053,434.0625 Q62.3303,433.9844 62.4709,433.9844 Q62.7053,433.9844 62.8616,434.1563 Q63.0178,434.3281 63.0178,434.7188 L63.0178,435.6563 Q63.0178,436.0469 62.8616,436.2188 Q62.7053,436.3906 62.4709,436.3906 Q62.2522,436.3906 62.1116,436.2656 Q61.9709,436.1406 61.9084,435.8125 Q61.8772,435.5781 61.7678,435.4531 Q61.5491,435.2188 61.1428,435.0781 Q60.7522,434.9219 60.3616,434.9219 Q59.8616,434.9219 59.4397,435.1406 Q59.0334,435.3594 58.7053,435.8438 Q58.3928,436.3281 58.3928,436.9844 L58.3928,437.7031 Q58.3928,438.5 58.9709,439.0313 Q59.5491,439.5625 60.5803,439.5625 Q61.1897,439.5625 61.6116,439.3906 Q61.8616,439.2969 62.1428,439.0156 Q62.3147,438.8438 62.4084,438.7969 Q62.5022,438.7344 62.6272,438.7344 Q62.8459,438.7344 63.0178,438.9063 Q63.1897,439.0781 63.1897,439.2969 Q63.1897,439.5156 62.9553,439.7813 Q62.6272,440.1563 62.1116,440.375 Q61.4241,440.6563 60.5803,440.6563 Q59.6116,440.6563 58.8303,440.2656 Q58.1897,439.9375 57.7366,439.25 Q57.2991,438.5469 57.2991,437.7188 L57.2991,436.9688 Q57.2991,436.1094 57.6897,435.375 Q58.0959,434.625 58.7991,434.2344 Q59.5178,433.8281 60.3147,433.8281 Q60.7834,433.8281 61.2053,433.9375 Q61.6272,434.0469 61.9866,434.2656 Z " fill="#000000"/><text fill="#000000" font-family="sans-serif" font-size="11" lengthAdjust="spacing" textLength="47.6846" x="77.9553" y="441.5547">Controller</text><line style="stroke:#181818;stroke-width:0.5;" x1="8" x2="168.0952" y1="451" y2="451"/><line style="stroke:#181818;stroke-width:1;" x1="8" x2="168.0952" y1="459" y2="459"/><text fill="#000000" font-family="sans-serif" font-size="11" lengthAdjust="spacing" textLength="150.0952" x="13" y="474.8701">+set_distribution(dist_type: str)</text></g><g class="entity" data-entity="latex_to_tk_image" data-source-line="29" data-uid="ent0005" id="entity_latex_to_tk_image"><rect fill="#F1F1F1" height="55.8926" rx="2.5" ry="2.5" style="stroke:#181818;stroke-width:0.5;" width="254.4351" x="204" y="424.5"/><text fill="#000000" font-family="sans-serif" font-size="11" font-style="italic" lengthAdjust="spacing" textLength="50.7622" x="305.8364" y="436.3701">&#171;function&#187;</text><text fill="#000000" font-family="sans-serif" font-size="11" lengthAdjust="spacing" textLength="89.2783" x="286.5784" y="453.001">latex_to_tk_image</text><line style="stroke:#181818;stroke-width:0.5;" x1="205" x2="457.4351" y1="457.7617" y2="457.7617"/><text fill="#000000" font-family="sans-serif" font-size="11" lengthAdjust="spacing" textLength="242.4351" x="210" y="473.6318">+latex_to_tk_image(definition: str): tk.PhotoImage</text></g><!--reverse link View to ComboboxFrame--><g class="link" data-entity-1="View" data-entity-2="ComboboxFrame" data-source-line="33" data-uid="lnk6" id="link_View_ComboboxFrame"><path codeLine="33" d="M209,107.18 C209,129.13 209,144.62 209,170.72" fill="none" id="View-backto-ComboboxFrame" style="stroke:#181818;stroke-width:1;"/><polygon fill="#181818" points="209,95.18,205,101.18,209,107.18,213,101.18,209,95.18" style="stroke:#181818;stroke-width:1;"/><text fill="#000000" font-family="sans-serif" font-size="11" lengthAdjust="spacing" textLength="50.7515" x="210" y="137.8701">combobox</text></g><!--link ComboboxFrame to Controller--><g class="link" data-entity-1="ComboboxFrame" data-entity-2="Controller" data-source-line="34" data-uid="lnk7" id="link_ComboboxFrame_Controller"><path codeLine="34" d="M149.12,347.02 C142.55,357.06 136.06,367.2 130,377 C120.79,391.9 114.0489,403.6468 106.3289,417.6368" fill="none" id="ComboboxFrame-to-Controller" style="stroke:#181818;stroke-width:1;"/><polygon fill="#181818" points="103.43,422.89,111.2805,416.9427,105.8457,418.5123,104.2761,413.0776,103.43,422.89" style="stroke:#181818;stroke-width:1;"/><text fill="#000000" font-family="sans-serif" font-size="11" lengthAdjust="spacing" textLength="156.4976" x="131" y="389.8701">callback() calls set_distribution()</text></g><!--link ComboboxFrame to latex_to_tk_image--><g class="link" data-entity-1="ComboboxFrame" data-entity-2="latex_to_tk_image" data-source-line="35" data-uid="lnk8" id="link_ComboboxFrame_latex_to_tk_image"><path codeLine="35" d="M272.84,347.3 C279.5,357.2 286.02,367.23 292,377 C301.38,392.31 308.0607,404.7464 315.2607,419.1064" fill="none" id="ComboboxFrame-to-latex_to_tk_image" style="stroke:#181818;stroke-width:1;stroke-dasharray:7,7;"/><polygon fill="#181818" points="317.95,424.47,317.4918,414.6318,315.709,420.0004,310.3404,418.2175,317.95,424.47" style="stroke:#181818;stroke-width:1;"/><text fill="#000000" font-family="sans-serif" font-size="11" lengthAdjust="spacing" textLength="110.0591" x="302" y="389.8701">uses in set_definition()</text></g><!--SRC=[dL9DQyCm3BtdL_YOR4jOhw4KHbcXCCPWi1t6C8whjbuSEyJAsdtzzzbgrhHfJplPrdjwafxiIcLgqOYAIIsSkq5iLD4YpAKrZ-eJs7NazfG5B4MhSMOD4ZOQHH6biQcj2blOxSpJW7r5Z5qoQxXS2xE2d4cXjIWqK5nst9mXbjbV9a6-W38AbJKUBBCxKO0cG0k4BLUL26eUULXRjFFmPD_itfgWdAP4vJn8S1vNmY4qH7zMYnNWrRcM4aggjP30DqHpyIuM68MGPSpX7GoIq6suxM07oFj-uyFM7JOznzOXwEBkp9bM3byyvJM9VlxyUrAmwMphxJaojHzmK9Yi-K_DgLzZOxM6XYeVgdisVGCQp3yuVjJGrV3vjdW3YTrIq78iTwjXu_6oDJAaJIRTE2Ua4wS62mq5o8wBD1tygtnlJdGCfEdaS9oytrr2LtSwLZAGoBB9cO5orZfmJ9cXwqdq2m00]--></g></svg>