<svg xmlns="http://www.w3.org/2000/svg" xmlns:xlink="http://www.w3.org/1999/xlink" contentStyleType="text/css" data-diagram-type="CLASS" height="707px" preserveAspectRatio="none" style="width:1057px;height:707px;background:#FFFFFF;" version="1.1" viewBox="0 0 1057 707" width="1057px" zoomAndPan="magnify"><defs/><g><!--class Controller--><g class="entity" data-entity="Controller" data-source-line="4" data-uid="ent0002" id="entity_Controller"><rect fill="#F1F1F1" height="307.3555" rx="2.5" ry="2.5" style="stroke:#181818;stroke-width:0.5;" width="340.8237" x="427" y="7"/><ellipse cx="569.8196" cy="21" fill="#ADD1B2" rx="9" ry="9" style="stroke:#181818;stroke-width:1;"/><path d="M571.3508,18.2656 Q571.4446,18.125 571.5696,18.0625 Q571.6946,17.9844 571.8352,17.9844 Q572.0696,17.9844 572.2258,18.1563 Q572.3821,18.3281 572.3821,18.7188 L572.3821,19.6563 Q572.3821,20.0469 572.2258,20.2188 Q572.0696,20.3906 571.8352,20.3906 Q571.6165,20.3906 571.4758,20.2656 Q571.3352,20.1406 571.2727,19.8125 Q571.2415,19.5781 571.1321,19.4531 Q570.9133,19.2188 570.5071,19.0781 Q570.1165,18.9219 569.7258,18.9219 Q569.2258,18.9219 568.804,19.1406 Q568.3977,19.3594 568.0696,19.8438 Q567.7571,20.3281 567.7571,20.9844 L567.7571,21.7031 Q567.7571,22.5 568.3352,23.0313 Q568.9133,23.5625 569.9446,23.5625 Q570.554,23.5625 570.9758,23.3906 Q571.2258,23.2969 571.5071,23.0156 Q571.679,22.8438 571.7727,22.7969 Q571.8665,22.7344 571.9915,22.7344 Q572.2102,22.7344 572.3821,22.9063 Q572.554,23.0781 572.554,23.2969 Q572.554,23.5156 572.3196,23.7813 Q571.9915,24.1563 571.4758,24.375 Q570.7883,24.6563 569.9446,24.6563 Q568.9758,24.6563 568.1946,24.2656 Q567.554,23.9375 567.1008,23.25 Q566.6633,22.5469 566.6633,21.7188 L566.6633,20.9688 Q566.6633,20.1094 567.054,19.375 Q567.4602,18.625 568.1633,18.2344 Q568.8821,17.8281 569.679,17.8281 Q570.1477,17.8281 570.5696,17.9375 Q570.9915,18.0469 571.3508,18.2656 Z " fill="#000000"/><text fill="#000000" font-family="sans-serif" font-size="11" lengthAdjust="spacing" textLength="47.6846" x="587.3196" y="25.5547">Controller</text><line style="stroke:#181818;stroke-width:0.5;" x1="428" x2="766.8237" y1="35" y2="35"/><text fill="#000000" font-family="sans-serif" font-size="11" lengthAdjust="spacing" textLength="58.3838" x="433" y="50.8701">+view: View</text><text fill="#000000" font-family="sans-serif" font-size="11" lengthAdjust="spacing" textLength="52.2715" x="433" y="65.501">+mode: str</text><text fill="#000000" font-family="sans-serif" font-size="11" lengthAdjust="spacing" textLength="99.9668" x="433" y="80.1318">+piecewise_type: str</text><text fill="#000000" font-family="sans-serif" font-size="11" lengthAdjust="spacing" textLength="83.4722" x="433" y="94.7627">+show_real: bool</text><text fill="#000000" font-family="sans-serif" font-size="11" lengthAdjust="spacing" textLength="82.8599" x="433" y="109.3936">+shade_dict: dict</text><text fill="#000000" font-family="sans-serif" font-size="11" lengthAdjust="spacing" textLength="99.666" x="433" y="124.0244">-_is_refreshing: bool</text><text fill="#000000" font-family="sans-serif" font-size="11" lengthAdjust="spacing" textLength="328.8237" x="433" y="138.6553">+model: AbstractStatisticalModel | AbstractDicetribution | Piecewise</text><line style="stroke:#181818;stroke-width:1;" x1="428" x2="766.8237" y1="145.416" y2="145.416"/><text fill="#000000" font-family="sans-serif" font-size="11" lengthAdjust="spacing" textLength="150.106" x="433" y="161.2861">+__init__(view, starting_mode)</text><text fill="#000000" font-family="sans-serif" font-size="11" lengthAdjust="spacing" textLength="132.9614" x="433" y="175.917">+initialise_view(view: View)</text><text fill="#000000" font-family="sans-serif" font-size="11" lengthAdjust="spacing" textLength="107.9053" x="433" y="190.5479">+set_mode(mode: str)</text><text fill="#000000" font-family="sans-serif" font-size="11" lengthAdjust="spacing" textLength="150.0952" x="433" y="205.1787">+set_distribution(dist_type: str)</text><text fill="#000000" font-family="sans-serif" font-size="11" lengthAdjust="spacing" textLength="167.8628" x="433" y="219.8096">+shade_between(shade_dict: dict)</text><text fill="#000000" font-family="sans-serif" font-size="11" lengthAdjust="spacing" textLength="233.8467" x="433" y="234.4404">+refresh(success_vals: list[int], show_real: bool)</text><text fill="#000000" font-family="sans-serif" font-size="11" lengthAdjust="spacing" textLength="203.2959" x="433" y="249.0713">+set_piecewise_type(piecewise_type: str)</text><text fill="#000000" font-family="sans-serif" font-size="11" lengthAdjust="spacing" textLength="318.8765" x="433" y="263.7021">+point_moved(old_x: float, old_y: float, new_x: float, new_y: float)</text><text fill="#000000" font-family="sans-serif" font-size="11" lengthAdjust="spacing" textLength="155.042" x="433" y="278.333">+handle_add_point(point: tuple)</text><text fill="#000000" font-family="sans-serif" font-size="11" lengthAdjust="spacing" textLength="119.5498" x="433" y="292.9639">+handle_remove_point()</text><text fill="#000000" font-family="sans-serif" font-size="11" lengthAdjust="spacing" textLength="100.5845" x="433" y="307.5947">+handle_normalise()</text></g><!--class View--><g class="entity" data-entity="View" data-source-line="26" data-uid="ent0003" id="entity_View"><rect fill="#F1F1F1" height="190.3086" rx="2.5" ry="2.5" style="stroke:#181818;stroke-width:0.5;" width="193.2744" x="85" y="397.5"/><ellipse cx="165.9661" cy="411.5" fill="#ADD1B2" rx="9" ry="9" style="stroke:#181818;stroke-width:1;"/><path d="M167.4973,408.7656 Q167.5911,408.625 167.7161,408.5625 Q167.8411,408.4844 167.9817,408.4844 Q168.2161,408.4844 168.3723,408.6563 Q168.5286,408.8281 168.5286,409.2188 L168.5286,410.1563 Q168.5286,410.5469 168.3723,410.7188 Q168.2161,410.8906 167.9817,410.8906 Q167.7629,410.8906 167.6223,410.7656 Q167.4817,410.6406 167.4192,410.3125 Q167.3879,410.0781 167.2786,409.9531 Q167.0598,409.7188 166.6536,409.5781 Q166.2629,409.4219 165.8723,409.4219 Q165.3723,409.4219 164.9504,409.6406 Q164.5442,409.8594 164.2161,410.3438 Q163.9036,410.8281 163.9036,411.4844 L163.9036,412.2031 Q163.9036,413 164.4817,413.5313 Q165.0598,414.0625 166.0911,414.0625 Q166.7004,414.0625 167.1223,413.8906 Q167.3723,413.7969 167.6536,413.5156 Q167.8254,413.3438 167.9192,413.2969 Q168.0129,413.2344 168.1379,413.2344 Q168.3567,413.2344 168.5286,413.4063 Q168.7004,413.5781 168.7004,413.7969 Q168.7004,414.0156 168.4661,414.2813 Q168.1379,414.6563 167.6223,414.875 Q166.9348,415.1563 166.0911,415.1563 Q165.1223,415.1563 164.3411,414.7656 Q163.7004,414.4375 163.2473,413.75 Q162.8098,413.0469 162.8098,412.2188 L162.8098,411.4688 Q162.8098,410.6094 163.2004,409.875 Q163.6067,409.125 164.3098,408.7344 Q165.0286,408.3281 165.8254,408.3281 Q166.2942,408.3281 166.7161,408.4375 Q167.1379,408.5469 167.4973,408.7656 Z " fill="#000000"/><text fill="#000000" font-family="sans-serif" font-size="11" lengthAdjust="spacing" textLength="23.8423" x="183.4661" y="416.0547">View</text><line style="stroke:#181818;stroke-width:0.5;" x1="86" x2="277.2744" y1="425.5" y2="425.5"/><line style="stroke:#181818;stroke-width:0.5;" x1="86" x2="277.2744" y1="433.5" y2="433.5"/><text fill="#000000" font-family="sans-serif" font-size="11" lengthAdjust="spacing" textLength="107.3145" x="91" y="449.3701">+set_up_blank_view()</text><text fill="#000000" font-family="sans-serif" font-size="11" lengthAdjust="spacing" textLength="105.4829" x="91" y="464.001">+set_options(options)</text><text fill="#000000" font-family="sans-serif" font-size="11" lengthAdjust="spacing" textLength="101.8091" x="91" y="478.6318">+set_definition(latex)</text><text fill="#000000" font-family="sans-serif" font-size="11" lengthAdjust="spacing" textLength="181.2744" x="91" y="493.2627">+set_settings(mode, *args, **kwargs)</text><text fill="#000000" font-family="sans-serif" font-size="11" lengthAdjust="spacing" textLength="171.499" x="91" y="507.8936">+set_graph(mode, *args, **kwargs)</text><text fill="#000000" font-family="sans-serif" font-size="11" lengthAdjust="spacing" textLength="172.1489" x="91" y="522.5244">+update_e_and_var(labels, values)</text><text fill="#000000" font-family="sans-serif" font-size="11" lengthAdjust="spacing" textLength="156.8413" x="91" y="537.1553">+update_graph(*args, **kwargs)</text><text fill="#000000" font-family="sans-serif" font-size="11" lengthAdjust="spacing" textLength="174.5767" x="91" y="551.7861">+update_dice_or_calc(mode, *args)</text><text fill="#000000" font-family="sans-serif" font-size="11" lengthAdjust="spacing" textLength="73.6646" x="91" y="566.417">+refresh_calc()</text><text fill="#000000" font-family="sans-serif" font-size="11" lengthAdjust="spacing" textLength="103.0068" x="91" y="581.0479">+initialise_view(view)</text></g><!--class AbstractStatisticalModel--><g class="entity" data-entity="AbstractStatisticalModel" data-source-line="39" data-uid="ent0004" id="entity_AbstractStatisticalModel"><rect fill="#F1F1F1" height="87.8926" rx="2.5" ry="2.5" style="stroke:#181818;stroke-width:0.5;" width="145.3799" x="313" y="448.5"/><ellipse cx="326" cy="462.5" fill="#A9DCDF" rx="9" ry="9" style="stroke:#181818;stroke-width:1;"/><path d="M327.1406,464.2344 L324.4688,464.2344 L324.2031,464.9063 L324.4688,464.9063 Q324.875,464.9063 325.0313,465.0625 Q325.2031,465.2031 325.2031,465.4531 Q325.2031,465.6875 325.0313,465.8438 Q324.875,466 324.4688,466 L322.9844,466 Q322.5938,466 322.4219,465.8438 Q322.25,465.6875 322.25,465.4531 Q322.25,465.2031 322.4375,465.0469 Q322.6094,464.8906 323.0156,464.9063 L324.75,460.5938 L324.0313,460.5938 Q323.625,460.5938 323.4531,460.4375 Q323.2969,460.2813 323.2969,460.0313 Q323.2969,459.7969 323.4531,459.6406 Q323.625,459.4844 324.0313,459.4844 L326.4063,459.4844 L328.5938,464.9063 Q328.9844,464.9063 329.1094,464.9844 Q329.3594,465.1563 329.3594,465.4531 Q329.3594,465.6875 329.1875,465.8438 Q329.0156,466 328.625,466 L327.1406,466 Q326.75,466 326.5781,465.8438 Q326.4063,465.6875 326.4063,465.4531 Q326.4063,465.2031 326.5781,465.0625 Q326.75,464.9063 327.1406,464.9063 L327.4063,464.9063 L327.1406,464.2344 Z M326.6875,463.125 L325.7969,460.9531 L324.9063,463.125 L326.6875,463.125 Z " fill="#000000"/><text fill="#000000" font-family="sans-serif" font-size="11" font-style="italic" lengthAdjust="spacing" textLength="117.3799" x="338" y="467.0547">AbstractStatisticalModel</text><line style="stroke:#181818;stroke-width:0.5;" x1="314" x2="457.3799" y1="476.5" y2="476.5"/><line style="stroke:#181818;stroke-width:0.5;" x1="314" x2="457.3799" y1="484.5" y2="484.5"/><text fill="#000000" font-family="sans-serif" font-size="11" lengthAdjust="spacing" textLength="96.916" x="319" y="500.3701">+expectation(): float</text><text fill="#000000" font-family="sans-serif" font-size="11" lengthAdjust="spacing" textLength="82.2314" x="319" y="515.001">+variance(): float</text><text fill="#000000" font-family="sans-serif" font-size="11" lengthAdjust="spacing" textLength="110.3867" x="319" y="529.6318">+get_plot_data(): tuple</text></g><!--class AbstractDicetribution--><g class="entity" data-entity="AbstractDicetribution" data-source-line="45" data-uid="ent0005" id="entity_AbstractDicetribution"><rect fill="#F1F1F1" height="131.7852" rx="2.5" ry="2.5" style="stroke:#181818;stroke-width:0.5;" width="172.5259" x="618" y="426.5"/><ellipse cx="650.3676" cy="440.5" fill="#A9DCDF" rx="9" ry="9" style="stroke:#181818;stroke-width:1;"/><path d="M651.5082,442.2344 L648.8363,442.2344 L648.5707,442.9063 L648.8363,442.9063 Q649.2426,442.9063 649.3988,443.0625 Q649.5707,443.2031 649.5707,443.4531 Q649.5707,443.6875 649.3988,443.8438 Q649.2426,444 648.8363,444 L647.352,444 Q646.9613,444 646.7895,443.8438 Q646.6176,443.6875 646.6176,443.4531 Q646.6176,443.2031 646.8051,443.0469 Q646.977,442.8906 647.3832,442.9063 L649.1176,438.5938 L648.3988,438.5938 Q647.9926,438.5938 647.8207,438.4375 Q647.6645,438.2813 647.6645,438.0313 Q647.6645,437.7969 647.8207,437.6406 Q647.9926,437.4844 648.3988,437.4844 L650.7738,437.4844 L652.9613,442.9063 Q653.352,442.9063 653.477,442.9844 Q653.727,443.1563 653.727,443.4531 Q653.727,443.6875 653.5551,443.8438 Q653.3832,444 652.9926,444 L651.5082,444 Q651.1176,444 650.9457,443.8438 Q650.7738,443.6875 650.7738,443.4531 Q650.7738,443.2031 650.9457,443.0625 Q651.1176,442.9063 651.5082,442.9063 L651.7738,442.9063 L651.5082,442.2344 Z M651.0551,441.125 L650.1645,438.9531 L649.2738,441.125 L651.0551,441.125 Z " fill="#000000"/><text fill="#000000" font-family="sans-serif" font-size="11" font-style="italic" lengthAdjust="spacing" textLength="101.4868" x="666.6715" y="445.0547">AbstractDicetribution</text><line style="stroke:#181818;stroke-width:0.5;" x1="619" x2="789.5259" y1="454.5" y2="454.5"/><text fill="#000000" font-family="sans-serif" font-size="11" lengthAdjust="spacing" textLength="109.1245" x="624" y="470.3701">+success_vals: list[int]</text><line style="stroke:#181818;stroke-width:0.5;" x1="619" x2="789.5259" y1="477.1309" y2="477.1309"/><text fill="#000000" font-family="sans-serif" font-size="11" lengthAdjust="spacing" textLength="145.8413" x="624" y="493.001">+e_and_var(show_real): tuple</text><text fill="#000000" font-family="sans-serif" font-size="11" lengthAdjust="spacing" textLength="160.5259" x="624" y="507.6318">+get_plot_data(show_real): tuple</text><text fill="#000000" font-family="sans-serif" font-size="11" lengthAdjust="spacing" textLength="102.4214" x="624" y="522.2627">+get_dice_data(): list</text><text fill="#000000" font-family="sans-serif" font-size="11" lengthAdjust="spacing" textLength="106.0898" x="624" y="536.8936">+add_dice_row(n: int)</text><text fill="#000000" font-family="sans-serif" font-size="11" lengthAdjust="spacing" textLength="109.146" x="624" y="551.5244">+get_n_dice_row(): int</text></g><!--class Piecewise--><g class="entity" data-entity="Piecewise" data-source-line="54" data-uid="ent0006" id="entity_Piecewise"><rect fill="#F1F1F1" height="204.9395" rx="2.5" ry="2.5" style="stroke:#181818;stroke-width:0.5;" width="223.8896" x="826.5" y="390"/><ellipse cx="909.9341" cy="404" fill="#ADD1B2" rx="9" ry="9" style="stroke:#181818;stroke-width:1;"/><path d="M911.4653,401.2656 Q911.5591,401.125 911.6841,401.0625 Q911.8091,400.9844 911.9497,400.9844 Q912.1841,400.9844 912.3403,401.1563 Q912.4966,401.3281 912.4966,401.7188 L912.4966,402.6563 Q912.4966,403.0469 912.3403,403.2188 Q912.1841,403.3906 911.9497,403.3906 Q911.731,403.3906 911.5903,403.2656 Q911.4497,403.1406 911.3872,402.8125 Q911.356,402.5781 911.2466,402.4531 Q911.0278,402.2188 910.6216,402.0781 Q910.231,401.9219 909.8403,401.9219 Q909.3403,401.9219 908.9185,402.1406 Q908.5122,402.3594 908.1841,402.8438 Q907.8716,403.3281 907.8716,403.9844 L907.8716,404.7031 Q907.8716,405.5 908.4497,406.0313 Q909.0278,406.5625 910.0591,406.5625 Q910.6685,406.5625 911.0903,406.3906 Q911.3403,406.2969 911.6216,406.0156 Q911.7935,405.8438 911.8872,405.7969 Q911.981,405.7344 912.106,405.7344 Q912.3247,405.7344 912.4966,405.9063 Q912.6685,406.0781 912.6685,406.2969 Q912.6685,406.5156 912.4341,406.7813 Q912.106,407.1563 911.5903,407.375 Q910.9028,407.6563 910.0591,407.6563 Q909.0903,407.6563 908.3091,407.2656 Q907.6685,406.9375 907.2153,406.25 Q906.7778,405.5469 906.7778,404.7188 L906.7778,403.9688 Q906.7778,403.1094 907.1685,402.375 Q907.5747,401.625 908.2778,401.2344 Q908.9966,400.8281 909.7935,400.8281 Q910.2622,400.8281 910.6841,400.9375 Q911.106,401.0469 911.4653,401.2656 Z " fill="#000000"/><text fill="#000000" font-family="sans-serif" font-size="11" lengthAdjust="spacing" textLength="49.5215" x="927.4341" y="408.5547">Piecewise</text><line style="stroke:#181818;stroke-width:0.5;" x1="827.5" x2="1049.3896" y1="418" y2="418"/><text fill="#000000" font-family="sans-serif" font-size="11" lengthAdjust="spacing" textLength="101.1968" x="832.5" y="433.8701">+is_normalised: bool</text><text fill="#000000" font-family="sans-serif" font-size="11" lengthAdjust="spacing" textLength="57.7769" x="832.5" y="448.501">+pieces: list</text><line style="stroke:#181818;stroke-width:0.5;" x1="827.5" x2="1049.3896" y1="455.2617" y2="455.2617"/><text fill="#000000" font-family="sans-serif" font-size="11" lengthAdjust="spacing" textLength="148.8921" x="832.5" y="471.1318">+calculate_pieces(linear: bool)</text><text fill="#000000" font-family="sans-serif" font-size="11" lengthAdjust="spacing" textLength="84.0684" x="832.5" y="485.7627">+get_points(): list</text><text fill="#000000" font-family="sans-serif" font-size="11" lengthAdjust="spacing" textLength="211.8896" x="832.5" y="500.3936">+update_point(old_x, old_y, new_x, new_y)</text><text fill="#000000" font-family="sans-serif" font-size="11" lengthAdjust="spacing" textLength="85.9268" x="832.5" y="515.0244">+add_point(point)</text><text fill="#000000" font-family="sans-serif" font-size="11" lengthAdjust="spacing" textLength="80.3999" x="832.5" y="529.6553">+remove_point()</text><text fill="#000000" font-family="sans-serif" font-size="11" lengthAdjust="spacing" textLength="61.4346" x="832.5" y="544.2861">+normalise()</text><text fill="#000000" font-family="sans-serif" font-size="11" lengthAdjust="spacing" textLength="96.916" x="832.5" y="558.917">+expectation(): float</text><text fill="#000000" font-family="sans-serif" font-size="11" lengthAdjust="spacing" textLength="82.2314" x="832.5" y="573.5479">+variance(): float</text><text fill="#000000" font-family="sans-serif" font-size="11" lengthAdjust="spacing" textLength="60.8276" x="832.5" y="588.1787">+cdf(x): float</text></g><!--class Normal--><g class="entity" data-entity="Normal" data-source-line="73" data-uid="ent0011" id="entity_Normal"><rect fill="#F1F1F1" height="44" rx="2.5" ry="2.5" style="stroke:#181818;stroke-width:0.5;" width="63.4492" x="7" y="656"/><ellipse cx="20" cy="670" fill="#ADD1B2" rx="9" ry="9" style="stroke:#181818;stroke-width:1;"/><path d="M21.5313,667.2656 Q21.625,667.125 21.75,667.0625 Q21.875,666.9844 22.0156,666.9844 Q22.25,666.9844 22.4063,667.1563 Q22.5625,667.3281 22.5625,667.7188 L22.5625,668.6563 Q22.5625,669.0469 22.4063,669.2188 Q22.25,669.3906 22.0156,669.3906 Q21.7969,669.3906 21.6563,669.2656 Q21.5156,669.1406 21.4531,668.8125 Q21.4219,668.5781 21.3125,668.4531 Q21.0938,668.2188 20.6875,668.0781 Q20.2969,667.9219 19.9063,667.9219 Q19.4063,667.9219 18.9844,668.1406 Q18.5781,668.3594 18.25,668.8438 Q17.9375,669.3281 17.9375,669.9844 L17.9375,670.7031 Q17.9375,671.5 18.5156,672.0313 Q19.0938,672.5625 20.125,672.5625 Q20.7344,672.5625 21.1563,672.3906 Q21.4063,672.2969 21.6875,672.0156 Q21.8594,671.8438 21.9531,671.7969 Q22.0469,671.7344 22.1719,671.7344 Q22.3906,671.7344 22.5625,671.9063 Q22.7344,672.0781 22.7344,672.2969 Q22.7344,672.5156 22.5,672.7813 Q22.1719,673.1563 21.6563,673.375 Q20.9688,673.6563 20.125,673.6563 Q19.1563,673.6563 18.375,673.2656 Q17.7344,672.9375 17.2813,672.25 Q16.8438,671.5469 16.8438,670.7188 L16.8438,669.9688 Q16.8438,669.1094 17.2344,668.375 Q17.6406,667.625 18.3438,667.2344 Q19.0625,666.8281 19.8594,666.8281 Q20.3281,666.8281 20.75,666.9375 Q21.1719,667.0469 21.5313,667.2656 Z " fill="#000000"/><text fill="#000000" font-family="sans-serif" font-size="11" lengthAdjust="spacing" textLength="35.4492" x="32" y="674.5547">Normal</text><line style="stroke:#181818;stroke-width:0.5;" x1="8" x2="69.4492" y1="684" y2="684"/><line style="stroke:#181818;stroke-width:0.5;" x1="8" x2="69.4492" y1="692" y2="692"/></g><!--class Binomial--><g class="entity" data-entity="Binomial" data-source-line="74" data-uid="ent0013" id="entity_Binomial"><rect fill="#F1F1F1" height="44" rx="2.5" ry="2.5" style="stroke:#181818;stroke-width:0.5;" width="70.1846" x="105.5" y="656"/><ellipse cx="118.5" cy="670" fill="#ADD1B2" rx="9" ry="9" style="stroke:#181818;stroke-width:1;"/><path d="M120.0313,667.2656 Q120.125,667.125 120.25,667.0625 Q120.375,666.9844 120.5156,666.9844 Q120.75,666.9844 120.9063,667.1563 Q121.0625,667.3281 121.0625,667.7188 L121.0625,668.6563 Q121.0625,669.0469 120.9063,669.2188 Q120.75,669.3906 120.5156,669.3906 Q120.2969,669.3906 120.1563,669.2656 Q120.0156,669.1406 119.9531,668.8125 Q119.9219,668.5781 119.8125,668.4531 Q119.5938,668.2188 119.1875,668.0781 Q118.7969,667.9219 118.4063,667.9219 Q117.9063,667.9219 117.4844,668.1406 Q117.0781,668.3594 116.75,668.8438 Q116.4375,669.3281 116.4375,669.9844 L116.4375,670.7031 Q116.4375,671.5 117.0156,672.0313 Q117.5938,672.5625 118.625,672.5625 Q119.2344,672.5625 119.6563,672.3906 Q119.9063,672.2969 120.1875,672.0156 Q120.3594,671.8438 120.4531,671.7969 Q120.5469,671.7344 120.6719,671.7344 Q120.8906,671.7344 121.0625,671.9063 Q121.2344,672.0781 121.2344,672.2969 Q121.2344,672.5156 121,672.7813 Q120.6719,673.1563 120.1563,673.375 Q119.4688,673.6563 118.625,673.6563 Q117.6563,673.6563 116.875,673.2656 Q116.2344,672.9375 115.7813,672.25 Q115.3438,671.5469 115.3438,670.7188 L115.3438,669.9688 Q115.3438,669.1094 115.7344,668.375 Q116.1406,667.625 116.8438,667.2344 Q117.5625,666.8281 118.3594,666.8281 Q118.8281,666.8281 119.25,666.9375 Q119.6719,667.0469 120.0313,667.2656 Z " fill="#000000"/><text fill="#000000" font-family="sans-serif" font-size="11" lengthAdjust="spacing" textLength="42.1846" x="130.5" y="674.5547">Binomial</text><line style="stroke:#181818;stroke-width:0.5;" x1="106.5" x2="174.6846" y1="684" y2="684"/><line style="stroke:#181818;stroke-width:0.5;" x1="106.5" x2="174.6846" y1="692" y2="692"/></g><!--class Exponential--><g class="entity" data-entity="Exponential" data-source-line="75" data-uid="ent0015" id="entity_Exponential"><rect fill="#F1F1F1" height="44" rx="2.5" ry="2.5" style="stroke:#181818;stroke-width:0.5;" width="85.4868" x="211" y="656"/><ellipse cx="224" cy="670" fill="#ADD1B2" rx="9" ry="9" style="stroke:#181818;stroke-width:1;"/><path d="M225.5313,667.2656 Q225.625,667.125 225.75,667.0625 Q225.875,666.9844 226.0156,666.9844 Q226.25,666.9844 226.4063,667.1563 Q226.5625,667.3281 226.5625,667.7188 L226.5625,668.6563 Q226.5625,669.0469 226.4063,669.2188 Q226.25,669.3906 226.0156,669.3906 Q225.7969,669.3906 225.6563,669.2656 Q225.5156,669.1406 225.4531,668.8125 Q225.4219,668.5781 225.3125,668.4531 Q225.0938,668.2188 224.6875,668.0781 Q224.2969,667.9219 223.9063,667.9219 Q223.4063,667.9219 222.9844,668.1406 Q222.5781,668.3594 222.25,668.8438 Q221.9375,669.3281 221.9375,669.9844 L221.9375,670.7031 Q221.9375,671.5 222.5156,672.0313 Q223.0938,672.5625 224.125,672.5625 Q224.7344,672.5625 225.1563,672.3906 Q225.4063,672.2969 225.6875,672.0156 Q225.8594,671.8438 225.9531,671.7969 Q226.0469,671.7344 226.1719,671.7344 Q226.3906,671.7344 226.5625,671.9063 Q226.7344,672.0781 226.7344,672.2969 Q226.7344,672.5156 226.5,672.7813 Q226.1719,673.1563 225.6563,673.375 Q224.9688,673.6563 224.125,673.6563 Q223.1563,673.6563 222.375,673.2656 Q221.7344,672.9375 221.2813,672.25 Q220.8438,671.5469 220.8438,670.7188 L220.8438,669.9688 Q220.8438,669.1094 221.2344,668.375 Q221.6406,667.625 222.3438,667.2344 Q223.0625,666.8281 223.8594,666.8281 Q224.3281,666.8281 224.75,666.9375 Q225.1719,667.0469 225.5313,667.2656 Z " fill="#000000"/><text fill="#000000" font-family="sans-serif" font-size="11" lengthAdjust="spacing" textLength="57.4868" x="236" y="674.5547">Exponential</text><line style="stroke:#181818;stroke-width:0.5;" x1="212" x2="295.4868" y1="684" y2="684"/><line style="stroke:#181818;stroke-width:0.5;" x1="212" x2="295.4868" y1="692" y2="692"/></g><!--class Poisson--><g class="entity" data-entity="Poisson" data-source-line="76" data-uid="ent0017" id="entity_Poisson"><rect fill="#F1F1F1" height="44" rx="2.5" ry="2.5" style="stroke:#181818;stroke-width:0.5;" width="67.1338" x="331" y="656"/><ellipse cx="344" cy="670" fill="#ADD1B2" rx="9" ry="9" style="stroke:#181818;stroke-width:1;"/><path d="M345.5313,667.2656 Q345.625,667.125 345.75,667.0625 Q345.875,666.9844 346.0156,666.9844 Q346.25,666.9844 346.4063,667.1563 Q346.5625,667.3281 346.5625,667.7188 L346.5625,668.6563 Q346.5625,669.0469 346.4063,669.2188 Q346.25,669.3906 346.0156,669.3906 Q345.7969,669.3906 345.6563,669.2656 Q345.5156,669.1406 345.4531,668.8125 Q345.4219,668.5781 345.3125,668.4531 Q345.0938,668.2188 344.6875,668.0781 Q344.2969,667.9219 343.9063,667.9219 Q343.4063,667.9219 342.9844,668.1406 Q342.5781,668.3594 342.25,668.8438 Q341.9375,669.3281 341.9375,669.9844 L341.9375,670.7031 Q341.9375,671.5 342.5156,672.0313 Q343.0938,672.5625 344.125,672.5625 Q344.7344,672.5625 345.1563,672.3906 Q345.4063,672.2969 345.6875,672.0156 Q345.8594,671.8438 345.9531,671.7969 Q346.0469,671.7344 346.1719,671.7344 Q346.3906,671.7344 346.5625,671.9063 Q346.7344,672.0781 346.7344,672.2969 Q346.7344,672.5156 346.5,672.7813 Q346.1719,673.1563 345.6563,673.375 Q344.9688,673.6563 344.125,673.6563 Q343.1563,673.6563 342.375,673.2656 Q341.7344,672.9375 341.2813,672.25 Q340.8438,671.5469 340.8438,670.7188 L340.8438,669.9688 Q340.8438,669.1094 341.2344,668.375 Q341.6406,667.625 342.3438,667.2344 Q343.0625,666.8281 343.8594,666.8281 Q344.3281,666.8281 344.75,666.9375 Q345.1719,667.0469 345.5313,667.2656 Z " fill="#000000"/><text fill="#000000" font-family="sans-serif" font-size="11" lengthAdjust="spacing" textLength="39.1338" x="356" y="674.5547">Poisson</text><line style="stroke:#181818;stroke-width:0.5;" x1="332" x2="397.1338" y1="684" y2="684"/><line style="stroke:#181818;stroke-width:0.5;" x1="332" x2="397.1338" y1="692" y2="692"/></g><!--class Geometric--><g class="entity" data-entity="Geometric" data-source-line="77" data-uid="ent0019" id="entity_Geometric"><rect fill="#F1F1F1" height="44" rx="2.5" ry="2.5" style="stroke:#181818;stroke-width:0.5;" width="78.7354" x="433" y="656"/><ellipse cx="446" cy="670" fill="#ADD1B2" rx="9" ry="9" style="stroke:#181818;stroke-width:1;"/><path d="M447.5313,667.2656 Q447.625,667.125 447.75,667.0625 Q447.875,666.9844 448.0156,666.9844 Q448.25,666.9844 448.4063,667.1563 Q448.5625,667.3281 448.5625,667.7188 L448.5625,668.6563 Q448.5625,669.0469 448.4063,669.2188 Q448.25,669.3906 448.0156,669.3906 Q447.7969,669.3906 447.6563,669.2656 Q447.5156,669.1406 447.4531,668.8125 Q447.4219,668.5781 447.3125,668.4531 Q447.0938,668.2188 446.6875,668.0781 Q446.2969,667.9219 445.9063,667.9219 Q445.4063,667.9219 444.9844,668.1406 Q444.5781,668.3594 444.25,668.8438 Q443.9375,669.3281 443.9375,669.9844 L443.9375,670.7031 Q443.9375,671.5 444.5156,672.0313 Q445.0938,672.5625 446.125,672.5625 Q446.7344,672.5625 447.1563,672.3906 Q447.4063,672.2969 447.6875,672.0156 Q447.8594,671.8438 447.9531,671.7969 Q448.0469,671.7344 448.1719,671.7344 Q448.3906,671.7344 448.5625,671.9063 Q448.7344,672.0781 448.7344,672.2969 Q448.7344,672.5156 448.5,672.7813 Q448.1719,673.1563 447.6563,673.375 Q446.9688,673.6563 446.125,673.6563 Q445.1563,673.6563 444.375,673.2656 Q443.7344,672.9375 443.2813,672.25 Q442.8438,671.5469 442.8438,670.7188 L442.8438,669.9688 Q442.8438,669.1094 443.2344,668.375 Q443.6406,667.625 444.3438,667.2344 Q445.0625,666.8281 445.8594,666.8281 Q446.3281,666.8281 446.75,666.9375 Q447.1719,667.0469 447.5313,667.2656 Z " fill="#000000"/><text fill="#000000" font-family="sans-serif" font-size="11" lengthAdjust="spacing" textLength="50.7354" x="458" y="674.5547">Geometric</text><line style="stroke:#181818;stroke-width:0.5;" x1="434" x2="510.7354" y1="684" y2="684"/><line style="stroke:#181818;stroke-width:0.5;" x1="434" x2="510.7354" y1="692" y2="692"/></g><!--class ChiSquared--><g class="entity" data-entity="ChiSquared" data-source-line="78" data-uid="ent0021" id="entity_ChiSquared"><rect fill="#F1F1F1" height="44" rx="2.5" ry="2.5" style="stroke:#181818;stroke-width:0.5;" width="86.0938" x="547.5" y="656"/><ellipse cx="560.5" cy="670" fill="#ADD1B2" rx="9" ry="9" style="stroke:#181818;stroke-width:1;"/><path d="M562.0313,667.2656 Q562.125,667.125 562.25,667.0625 Q562.375,666.9844 562.5156,666.9844 Q562.75,666.9844 562.9063,667.1563 Q563.0625,667.3281 563.0625,667.7188 L563.0625,668.6563 Q563.0625,669.0469 562.9063,669.2188 Q562.75,669.3906 562.5156,669.3906 Q562.2969,669.3906 562.1563,669.2656 Q562.0156,669.1406 561.9531,668.8125 Q561.9219,668.5781 561.8125,668.4531 Q561.5938,668.2188 561.1875,668.0781 Q560.7969,667.9219 560.4063,667.9219 Q559.9063,667.9219 559.4844,668.1406 Q559.0781,668.3594 558.75,668.8438 Q558.4375,669.3281 558.4375,669.9844 L558.4375,670.7031 Q558.4375,671.5 559.0156,672.0313 Q559.5938,672.5625 560.625,672.5625 Q561.2344,672.5625 561.6563,672.3906 Q561.9063,672.2969 562.1875,672.0156 Q562.3594,671.8438 562.4531,671.7969 Q562.5469,671.7344 562.6719,671.7344 Q562.8906,671.7344 563.0625,671.9063 Q563.2344,672.0781 563.2344,672.2969 Q563.2344,672.5156 563,672.7813 Q562.6719,673.1563 562.1563,673.375 Q561.4688,673.6563 560.625,673.6563 Q559.6563,673.6563 558.875,673.2656 Q558.2344,672.9375 557.7813,672.25 Q557.3438,671.5469 557.3438,670.7188 L557.3438,669.9688 Q557.3438,669.1094 557.7344,668.375 Q558.1406,667.625 558.8438,667.2344 Q559.5625,666.8281 560.3594,666.8281 Q560.8281,666.8281 561.25,666.9375 Q561.6719,667.0469 562.0313,667.2656 Z " fill="#000000"/><text fill="#000000" font-family="sans-serif" font-size="11" lengthAdjust="spacing" textLength="58.0938" x="572.5" y="674.5547">ChiSquared</text><line style="stroke:#181818;stroke-width:0.5;" x1="548.5" x2="632.5938" y1="684" y2="684"/><line style="stroke:#181818;stroke-width:0.5;" x1="548.5" x2="632.5938" y1="692" y2="692"/></g><!--class GeoDice--><g class="entity" data-entity="GeoDice" data-source-line="80" data-uid="ent0023" id="entity_GeoDice"><rect fill="#F1F1F1" height="44" rx="2.5" ry="2.5" style="stroke:#181818;stroke-width:0.5;" width="70.7969" x="669" y="656"/><ellipse cx="682" cy="670" fill="#ADD1B2" rx="9" ry="9" style="stroke:#181818;stroke-width:1;"/><path d="M683.5313,667.2656 Q683.625,667.125 683.75,667.0625 Q683.875,666.9844 684.0156,666.9844 Q684.25,666.9844 684.4063,667.1563 Q684.5625,667.3281 684.5625,667.7188 L684.5625,668.6563 Q684.5625,669.0469 684.4063,669.2188 Q684.25,669.3906 684.0156,669.3906 Q683.7969,669.3906 683.6563,669.2656 Q683.5156,669.1406 683.4531,668.8125 Q683.4219,668.5781 683.3125,668.4531 Q683.0938,668.2188 682.6875,668.0781 Q682.2969,667.9219 681.9063,667.9219 Q681.4063,667.9219 680.9844,668.1406 Q680.5781,668.3594 680.25,668.8438 Q679.9375,669.3281 679.9375,669.9844 L679.9375,670.7031 Q679.9375,671.5 680.5156,672.0313 Q681.0938,672.5625 682.125,672.5625 Q682.7344,672.5625 683.1563,672.3906 Q683.4063,672.2969 683.6875,672.0156 Q683.8594,671.8438 683.9531,671.7969 Q684.0469,671.7344 684.1719,671.7344 Q684.3906,671.7344 684.5625,671.9063 Q684.7344,672.0781 684.7344,672.2969 Q684.7344,672.5156 684.5,672.7813 Q684.1719,673.1563 683.6563,673.375 Q682.9688,673.6563 682.125,673.6563 Q681.1563,673.6563 680.375,673.2656 Q679.7344,672.9375 679.2813,672.25 Q678.8438,671.5469 678.8438,670.7188 L678.8438,669.9688 Q678.8438,669.1094 679.2344,668.375 Q679.6406,667.625 680.3438,667.2344 Q681.0625,666.8281 681.8594,666.8281 Q682.3281,666.8281 682.75,666.9375 Q683.1719,667.0469 683.5313,667.2656 Z " fill="#000000"/><text fill="#000000" font-family="sans-serif" font-size="11" lengthAdjust="spacing" textLength="42.7969" x="694" y="674.5547">GeoDice</text><line style="stroke:#181818;stroke-width:0.5;" x1="670" x2="738.7969" y1="684" y2="684"/><line style="stroke:#181818;stroke-width:0.5;" x1="670" x2="738.7969" y1="692" y2="692"/></g><!--class BinDice--><g class="entity" data-entity="BinDice" data-source-line="81" data-uid="ent0025" id="entity_BinDice"><rect fill="#F1F1F1" height="44" rx="2.5" ry="2.5" style="stroke:#181818;stroke-width:0.5;" width="65.9038" x="775.5" y="656"/><ellipse cx="788.5" cy="670" fill="#ADD1B2" rx="9" ry="9" style="stroke:#181818;stroke-width:1;"/><path d="M790.0313,667.2656 Q790.125,667.125 790.25,667.0625 Q790.375,666.9844 790.5156,666.9844 Q790.75,666.9844 790.9063,667.1563 Q791.0625,667.3281 791.0625,667.7188 L791.0625,668.6563 Q791.0625,669.0469 790.9063,669.2188 Q790.75,669.3906 790.5156,669.3906 Q790.2969,669.3906 790.1563,669.2656 Q790.0156,669.1406 789.9531,668.8125 Q789.9219,668.5781 789.8125,668.4531 Q789.5938,668.2188 789.1875,668.0781 Q788.7969,667.9219 788.4063,667.9219 Q787.9063,667.9219 787.4844,668.1406 Q787.0781,668.3594 786.75,668.8438 Q786.4375,669.3281 786.4375,669.9844 L786.4375,670.7031 Q786.4375,671.5 787.0156,672.0313 Q787.5938,672.5625 788.625,672.5625 Q789.2344,672.5625 789.6563,672.3906 Q789.9063,672.2969 790.1875,672.0156 Q790.3594,671.8438 790.4531,671.7969 Q790.5469,671.7344 790.6719,671.7344 Q790.8906,671.7344 791.0625,671.9063 Q791.2344,672.0781 791.2344,672.2969 Q791.2344,672.5156 791,672.7813 Q790.6719,673.1563 790.1563,673.375 Q789.4688,673.6563 788.625,673.6563 Q787.6563,673.6563 786.875,673.2656 Q786.2344,672.9375 785.7813,672.25 Q785.3438,671.5469 785.3438,670.7188 L785.3438,669.9688 Q785.3438,669.1094 785.7344,668.375 Q786.1406,667.625 786.8438,667.2344 Q787.5625,666.8281 788.3594,666.8281 Q788.8281,666.8281 789.25,666.9375 Q789.6719,667.0469 790.0313,667.2656 Z " fill="#000000"/><text fill="#000000" font-family="sans-serif" font-size="11" lengthAdjust="spacing" textLength="37.9038" x="800.5" y="674.5547">BinDice</text><line style="stroke:#181818;stroke-width:0.5;" x1="776.5" x2="840.4038" y1="684" y2="684"/><line style="stroke:#181818;stroke-width:0.5;" x1="776.5" x2="840.4038" y1="692" y2="692"/></g><!--class NormDice--><g class="entity" data-entity="NormDice" data-source-line="82" data-uid="ent0027" id="entity_NormDice"><rect fill="#F1F1F1" height="44" rx="2.5" ry="2.5" style="stroke:#181818;stroke-width:0.5;" width="76.8931" x="877" y="656"/><ellipse cx="890" cy="670" fill="#ADD1B2" rx="9" ry="9" style="stroke:#181818;stroke-width:1;"/><path d="M891.5313,667.2656 Q891.625,667.125 891.75,667.0625 Q891.875,666.9844 892.0156,666.9844 Q892.25,666.9844 892.4063,667.1563 Q892.5625,667.3281 892.5625,667.7188 L892.5625,668.6563 Q892.5625,669.0469 892.4063,669.2188 Q892.25,669.3906 892.0156,669.3906 Q891.7969,669.3906 891.6563,669.2656 Q891.5156,669.1406 891.4531,668.8125 Q891.4219,668.5781 891.3125,668.4531 Q891.0938,668.2188 890.6875,668.0781 Q890.2969,667.9219 889.9063,667.9219 Q889.4063,667.9219 888.9844,668.1406 Q888.5781,668.3594 888.25,668.8438 Q887.9375,669.3281 887.9375,669.9844 L887.9375,670.7031 Q887.9375,671.5 888.5156,672.0313 Q889.0938,672.5625 890.125,672.5625 Q890.7344,672.5625 891.1563,672.3906 Q891.4063,672.2969 891.6875,672.0156 Q891.8594,671.8438 891.9531,671.7969 Q892.0469,671.7344 892.1719,671.7344 Q892.3906,671.7344 892.5625,671.9063 Q892.7344,672.0781 892.7344,672.2969 Q892.7344,672.5156 892.5,672.7813 Q892.1719,673.1563 891.6563,673.375 Q890.9688,673.6563 890.125,673.6563 Q889.1563,673.6563 888.375,673.2656 Q887.7344,672.9375 887.2813,672.25 Q886.8438,671.5469 886.8438,670.7188 L886.8438,669.9688 Q886.8438,669.1094 887.2344,668.375 Q887.6406,667.625 888.3438,667.2344 Q889.0625,666.8281 889.8594,666.8281 Q890.3281,666.8281 890.75,666.9375 Q891.1719,667.0469 891.5313,667.2656 Z " fill="#000000"/><text fill="#000000" font-family="sans-serif" font-size="11" lengthAdjust="spacing" textLength="48.8931" x="902" y="674.5547">NormDice</text><line style="stroke:#181818;stroke-width:0.5;" x1="878" x2="952.8931" y1="684" y2="684"/><line style="stroke:#181818;stroke-width:0.5;" x1="878" x2="952.8931" y1="692" y2="692"/></g><!--link Controller to View--><g class="link" data-entity-1="Controller" data-entity-2="View" data-source-line="68" data-uid="lnk7" id="link_Controller_View"><path codeLine="68" d="M426.74,286.96 C383.4,319.82 337.29,355.68 295.5,390 C289.77,394.71 288.492,395.7146 282.632,400.6946" fill="none" id="Controller-to-View" style="stroke:#181818;stroke-width:1;"/><polygon fill="#181818" points="278.06,404.58,287.5083,401.7999,281.87,401.3421,282.3277,395.7038,278.06,404.58" style="stroke:#181818;stroke-width:1;"/><text fill="#000000" font-family="sans-serif" font-size="11" lengthAdjust="spacing" textLength="82.543" x="353.5" y="356.8701">calls methods on</text></g><!--reverse link Controller to AbstractStatisticalModel--><g class="link" data-entity-1="Controller" data-entity-2="AbstractStatisticalModel" data-source-line="69" data-uid="lnk8" id="link_Controller_AbstractStatisticalModel"><path codeLine="69" d="M492.7745,324.5165 C461.2545,373.5865 435.3,413.98 413.17,448.43" fill="none" id="Controller-backto-AbstractStatisticalModel" style="stroke:#181818;stroke-width:1;"/><polygon fill="none" points="499.26,314.42,492.6518,317.3064,492.7745,324.5165,499.3828,321.6301,499.26,314.42" style="stroke:#181818;stroke-width:1;"/><text fill="#000000" font-family="sans-serif" font-size="11" lengthAdjust="spacing" textLength="59.2861" x="480.5" y="356.8701">model (Dist)</text></g><!--reverse link Controller to AbstractDicetribution--><g class="link" data-entity-1="Controller" data-entity-2="AbstractDicetribution" data-source-line="70" data-uid="lnk9" id="link_Controller_AbstractDicetribution"><path codeLine="70" d="M650.7826,325.8345 C663.5826,365.2945 672.97,394.25 683.41,426.47" fill="none" id="Controller-backto-AbstractDicetribution" style="stroke:#181818;stroke-width:1;"/><polygon fill="none" points="647.08,314.42,645.1265,321.3615,650.7826,325.8345,652.7361,318.893,647.08,314.42" style="stroke:#181818;stroke-width:1;"/><text fill="#000000" font-family="sans-serif" font-size="11" lengthAdjust="spacing" textLength="62.3477" x="662.5" y="356.8701">model (Dice)</text></g><!--reverse link Controller to Piecewise--><g class="link" data-entity-1="Controller" data-entity-2="Piecewise" data-source-line="71" data-uid="lnk10" id="link_Controller_Piecewise"><path codeLine="71" d="M764.1425,322.7658 C790.6225,348.3958 808.89,366.07 833.6,389.99" fill="none" id="Controller-backto-Piecewise" style="stroke:#181818;stroke-width:1;"/><polygon fill="none" points="755.52,314.42,757.0494,321.4671,764.1425,322.7658,762.6132,315.7187,755.52,314.42" style="stroke:#181818;stroke-width:1;"/><text fill="#000000" font-family="sans-serif" font-size="11" lengthAdjust="spacing" textLength="67.8584" x="800.5" y="356.8701">model (Piece)</text></g><!--reverse link AbstractStatisticalModel to Normal--><g class="link" data-entity-1="AbstractStatisticalModel" data-entity-2="Normal" data-source-line="73" data-uid="lnk12" id="link_AbstractStatisticalModel_Normal"><path codeLine="73" d="M345.0333,550.8938 C329.2233,571.2038 319.17,579.99 295.5,595 C214.15,646.61 178.16,623.41 87.5,656 C81.84,658.04 75.89,660.39 70.17,662.77" fill="none" id="AbstractStatisticalModel-backto-Normal" style="stroke:#181818;stroke-width:1;"/><polygon fill="none" points="356.09,536.69,340.2987,547.2082,349.7679,554.5794,356.09,536.69" style="stroke:#181818;stroke-width:1;"/></g><!--reverse link AbstractStatisticalModel to Binomial--><g class="link" data-entity-1="AbstractStatisticalModel" data-entity-2="Binomial" data-source-line="74" data-uid="lnk14" id="link_AbstractStatisticalModel_Binomial"><path codeLine="74" d="M341.6095,550.6266 C325.6795,569.9766 316.8,578.27 295.5,595 C258.04,624.44 208.45,648.53 175.57,662.81" fill="none" id="AbstractStatisticalModel-backto-Binomial" style="stroke:#181818;stroke-width:1;"/><polygon fill="none" points="353.05,536.73,336.9773,546.8131,346.2417,554.4401,353.05,536.73" style="stroke:#181818;stroke-width:1;"/></g><!--reverse link AbstractStatisticalModel to Exponential--><g class="link" data-entity-1="AbstractStatisticalModel" data-entity-2="Exponential" data-source-line="75" data-uid="lnk16" id="link_AbstractStatisticalModel_Exponential"><path codeLine="75" d="M344.0402,551.1332 C317.0702,588.6332 289.6,626.82 268.72,655.84" fill="none" id="AbstractStatisticalModel-backto-Exponential" style="stroke:#181818;stroke-width:1;"/><polygon fill="none" points="354.55,536.52,339.1692,547.6299,348.9113,554.6364,354.55,536.52" style="stroke:#181818;stroke-width:1;"/></g><!--reverse link AbstractStatisticalModel to Poisson--><g class="link" data-entity-1="AbstractStatisticalModel" data-entity-2="Poisson" data-source-line="76" data-uid="lnk18" id="link_AbstractStatisticalModel_Poisson"><path codeLine="76" d="M378.5294,554.4028 C374.2294,591.9028 370.24,626.82 366.92,655.84" fill="none" id="AbstractStatisticalModel-backto-Poisson" style="stroke:#181818;stroke-width:1;"/><polygon fill="none" points="380.58,536.52,372.5685,553.7193,384.4904,555.0863,380.58,536.52" style="stroke:#181818;stroke-width:1;"/></g><!--reverse link AbstractStatisticalModel to Geometric--><g class="link" data-entity-1="AbstractStatisticalModel" data-entity-2="Geometric" data-source-line="77" data-uid="lnk20" id="link_AbstractStatisticalModel_Geometric"><path codeLine="77" d="M413.6115,552.7845 C431.3915,590.2845 448.71,626.82 462.47,655.84" fill="none" id="AbstractStatisticalModel-backto-Geometric" style="stroke:#181818;stroke-width:1;"/><polygon fill="none" points="405.9,536.52,408.19,555.355,419.033,550.2139,405.9,536.52" style="stroke:#181818;stroke-width:1;"/></g><!--reverse link AbstractStatisticalModel to ChiSquared--><g class="link" data-entity-1="AbstractStatisticalModel" data-entity-2="ChiSquared" data-source-line="78" data-uid="lnk22" id="link_AbstractStatisticalModel_ChiSquared"><path codeLine="78" d="M446.9727,548.5242 C488.8727,586.0242 534.44,626.82 566.86,655.84" fill="none" id="AbstractStatisticalModel-backto-ChiSquared" style="stroke:#181818;stroke-width:1;"/><polygon fill="none" points="433.56,536.52,442.9713,552.9951,450.9741,544.0533,433.56,536.52" style="stroke:#181818;stroke-width:1;"/></g><!--reverse link AbstractDicetribution to GeoDice--><g class="link" data-entity-1="AbstractDicetribution" data-entity-2="GeoDice" data-source-line="80" data-uid="lnk24" id="link_AbstractDicetribution_GeoDice"><path codeLine="80" d="M704.5,576.71 C704.5,610.71 704.5,632.02 704.5,655.67" fill="none" id="AbstractDicetribution-backto-GeoDice" style="stroke:#181818;stroke-width:1;"/><polygon fill="none" points="704.5,558.71,698.5,576.71,710.5,576.71,704.5,558.71" style="stroke:#181818;stroke-width:1;"/></g><!--reverse link AbstractDicetribution to BinDice--><g class="link" data-entity-1="AbstractDicetribution" data-entity-2="BinDice" data-source-line="81" data-uid="lnk26" id="link_AbstractDicetribution_BinDice"><path codeLine="81" d="M750.3354,574.3697 C769.6054,608.3697 783.01,632.02 796.41,655.67" fill="none" id="AbstractDicetribution-backto-BinDice" style="stroke:#181818;stroke-width:1;"/><polygon fill="none" points="741.46,558.71,745.1155,577.3282,755.5553,571.4113,741.46,558.71" style="stroke:#181818;stroke-width:1;"/></g><!--reverse link AbstractDicetribution to NormDice--><g class="link" data-entity-1="AbstractDicetribution" data-entity-2="NormDice" data-source-line="82" data-uid="lnk28" id="link_AbstractDicetribution_NormDice"><path codeLine="82" d="M781.8224,571.0783 C794.7024,583.4483 795.34,583.61 808.5,595 C833.8,616.91 864.22,639.92 886.15,655.98" fill="none" id="AbstractDicetribution-backto-NormDice" style="stroke:#181818;stroke-width:1;"/><polygon fill="none" points="768.84,558.61,777.6663,575.4058,785.9785,566.7508,768.84,558.61" style="stroke:#181818;stroke-width:1;"/></g><!--SRC=[dLLDRnCn4BtdL_YuMnA9NbS8gRI0E80gLUA2aENOayIgOo-sjvj2-U_CsFlPDed48Pjuvda-tipRX7jjQ-75daaZGhYAqUjr4-6BTFPE_mRsTX46Y8ADQ4pyv6nClilBnI9TOzTeyiuOyEpFWh4tx453Mx7l-4p7lLDGiH1zEjKQ9BGw08-FzSGUTgxb7eIfsDevqzc40gwqZ1MZ9nfNZEk0k8s7iDDsEq5J7hnzjSQGGiQxAA8EKKjXlfA7FGsk6oqXzwgTHVjjNnCbMALWd6kh8-S5DRF4AeMFc8vJaZ8XoA-5eKu8KunTPt-0cD35qFzeLrXOdx-WmqX6EUby3R45iCLp7ZAc8w48ZPGG0dyG9bGC2ue_j8q_byyf7TFFPr2yCfAChHq6mYOUG1NEA7wesCOu4PUCJe_3oK8xyT6fz-KuEs6L0IwKuYbaaPuLYqrjO0RnGDawrCnZdTydjj7yjryzOhjREkghgVdQ27kV1pBswseYEXJTzsGEi4bZn2aO4U4mUl13ymvfUajs8VmsuDV5VKk_HjpMYtft2jJK2YDpxDug7977H6im2CDnDJ07vM2dmk3qWJlFSQdbDEji8xBt-9Oc0aMdXQpzuwh9xCAX1aakPAhiPfkrBhmMLiBSkgKbCmu95b6GAqtwHDgv8hk9lhxNkPw1pc79Xoml2pYEINpsHLAAvA55JHxlsi9MI6Ato7J5ZguokSPr7DuZNGVufXhMLatUL4bmOPAG1jRG1cPfXi9e2y9FTPiw8bc4MQdTNcJ198rsuknKsScn7FgQ2B1VcXUIcshjFwOlrQOu31PaP_8FiLgzpwgjg6aJs1xYpgd0d9t2t6frV2Mh_AfdnGsQosFNvYirkIFXnPrnS0CkcSh5ucWLxvxmuhV4r1dG1stTNf-5VJpKpeADvv6tJeU0X9r6VGQt9mRa6TprJj_zQeG7DNOx9wyFHzPJ46pq78G8IvX_]--></g></svg>