<svg xmlns="http://www.w3.org/2000/svg" xmlns:xlink="http://www.w3.org/1999/xlink" contentStyleType="text/css" data-diagram-type="ACTIVITY" height="912px" preserveAspectRatio="none" style="width:788px;height:912px;background:#FFFFFF;" version="1.1" viewBox="0 0 788 912" width="788px" zoomAndPan="magnify"><defs/><g><rect fill="none" height="890.418" style="stroke:#000000;stroke-width:1.5;" width="766.8706" x="11" y="11"/><path d="M147.5698,11 L147.5698,18.6309 L137.5698,28.6309 L11,28.6309" fill="none" style="stroke:#000000;stroke-width:1.5;"/><text fill="#000000" font-family="sans-serif" font-size="11" lengthAdjust="spacing" textLength="126.5698" x="14" y="23.8701">dealwithnegatives(pieces)</text><ellipse cx="471.8231" cy="48.6309" fill="#222222" rx="10" ry="10" style="stroke:#222222;stroke-width:1;"/><rect fill="#F1F1F1" height="34.6309" rx="12.5" ry="12.5" style="stroke:#181818;stroke-width:0.5;" width="185.0752" x="379.2855" y="78.6309"/><text fill="#000000" font-family="sans-serif" font-size="11" lengthAdjust="spacing" textLength="165.0752" x="389.2855" y="100.501">Initialise new_pieces as empty list</text><rect fill="#F1F1F1" height="34.6309" rx="12.5" ry="12.5" style="stroke:#181818;stroke-width:0.5;" width="188.1475" x="377.7494" y="190.6318"/><text fill="#000000" font-family="sans-serif" font-size="11" lengthAdjust="spacing" textLength="168.1475" x="387.7494" y="212.502">Unpack piece into x1, x2, a, b, c, d</text><rect fill="#F1F1F1" height="34.6309" rx="12.5" ry="12.5" style="stroke:#181818;stroke-width:0.5;" width="199.7705" x="371.9379" y="245.2627"/><text fill="#000000" font-family="sans-serif" font-size="11" lengthAdjust="spacing" textLength="179.7705" x="381.9379" y="267.1328">Evaluate y over 100 points in [x1, x2]</text><polygon fill="#F1F1F1" points="444.162,299.8936,499.4843,299.8936,511.4843,311.8936,499.4843,323.8936,444.162,323.8936,432.162,311.8936,444.162,299.8936" style="stroke:#181818;stroke-width:0.5;"/><text fill="#000000" font-family="sans-serif" font-size="11" lengthAdjust="spacing" textLength="55.3223" x="444.162" y="316.4482">min(y) &lt; 0?</text><text fill="#000000" font-family="sans-serif" font-size="11" lengthAdjust="spacing" textLength="17.1177" x="415.0443" y="309.1328">yes</text><text fill="#000000" font-family="sans-serif" font-size="11" lengthAdjust="spacing" textLength="12.2354" x="511.4843" y="309.1328">no</text><rect fill="#F1F1F1" height="34.6309" rx="12.5" ry="12.5" style="stroke:#181818;stroke-width:0.5;" width="181.4067" x="196.7209" y="333.8936"/><text fill="#000000" font-family="sans-serif" font-size="11" lengthAdjust="spacing" textLength="161.4067" x="206.7209" y="355.7637">Find real roots of cubic in [x1, x2]</text><rect fill="#F1F1F1" height="34.6309" rx="12.5" ry="12.5" style="stroke:#181818;stroke-width:0.5;" width="193.3467" x="190.751" y="388.5244"/><text fill="#000000" font-family="sans-serif" font-size="11" lengthAdjust="spacing" textLength="173.3467" x="200.751" y="410.3945">Build partition p = [x1] + roots + [x2]</text><rect fill="#F1F1F1" height="34.6309" rx="12.5" ry="12.5" style="stroke:#181818;stroke-width:0.5;" width="166.7329" x="204.0579" y="500.5254"/><text fill="#000000" font-family="sans-serif" font-size="11" lengthAdjust="spacing" textLength="146.7329" x="214.0579" y="522.3955">Take next sub-interval [x1, x2]</text><rect fill="#F1F1F1" height="34.6309" rx="12.5" ry="12.5" style="stroke:#181818;stroke-width:0.5;" width="128.2275" x="223.3105" y="555.1563"/><text fill="#000000" font-family="sans-serif" font-size="11" lengthAdjust="spacing" textLength="108.2275" x="233.3105" y="577.0264">Evaluate y at midpoint</text><polygon fill="#F1F1F1" points="243.8567,620.1563,330.9919,620.1563,342.9919,632.1563,330.9919,644.1563,243.8567,644.1563,231.8567,632.1563,243.8567,620.1563" style="stroke:#181818;stroke-width:0.5;"/><text fill="#000000" font-family="sans-serif" font-size="11" lengthAdjust="spacing" textLength="87.1353" x="243.8567" y="636.7109">y at midpoint &lt; 0?</text><text fill="#000000" font-family="sans-serif" font-size="11" lengthAdjust="spacing" textLength="17.1177" x="214.739" y="629.3955">yes</text><text fill="#000000" font-family="sans-serif" font-size="11" lengthAdjust="spacing" textLength="12.2354" x="342.9919" y="629.3955">no</text><rect fill="#F1F1F1" height="34.6309" rx="12.5" ry="12.5" style="stroke:#181818;stroke-width:0.5;" width="215.062" x="59" y="654.1563"/><text fill="#000000" font-family="sans-serif" font-size="11" lengthAdjust="spacing" textLength="195.062" x="69" y="676.0264">Append zero segment [x1, x2, 0, 0, 0, 0]</text><rect fill="#F1F1F1" height="34.6309" rx="12.5" ry="12.5" style="stroke:#181818;stroke-width:0.5;" width="228.5112" x="294.062" y="654.1563"/><text fill="#000000" font-family="sans-serif" font-size="11" lengthAdjust="spacing" textLength="208.5112" x="304.062" y="676.0264">Append original segment [x1, x2, a, b, c, d]</text><polygon fill="#F1F1F1" points="287.4243,694.7871,299.4243,706.7871,287.4243,718.7871,275.4243,706.7871,287.4243,694.7871" style="stroke:#181818;stroke-width:0.5;"/><polygon fill="#F1F1F1" points="228.7317,443.1553,346.1169,443.1553,358.1169,455.1553,346.1169,467.1553,228.7317,467.1553,216.7317,455.1553,228.7317,443.1553" style="stroke:#181818;stroke-width:0.5;"/><text fill="#000000" font-family="sans-serif" font-size="11" lengthAdjust="spacing" textLength="17.1177" x="291.4243" y="479.0254">yes</text><text fill="#000000" font-family="sans-serif" font-size="11" lengthAdjust="spacing" textLength="117.3853" x="228.7317" y="459.71">more sub-intervals in p?</text><text fill="#000000" font-family="sans-serif" font-size="11" lengthAdjust="spacing" textLength="12.2354" x="204.4963" y="452.3945">no</text><rect fill="#F1F1F1" height="34.6309" rx="12.5" ry="12.5" style="stroke:#181818;stroke-width:0.5;" width="183.2974" x="564.5732" y="333.8936"/><text fill="#000000" font-family="sans-serif" font-size="11" lengthAdjust="spacing" textLength="163.2974" x="574.5732" y="355.7637">Append original piece unchanged</text><polygon fill="#F1F1F1" points="471.8231,746.7871,483.8231,758.7871,471.8231,770.7871,459.8231,758.7871,471.8231,746.7871" style="stroke:#181818;stroke-width:0.5;"/><polygon fill="#F1F1F1" points="411.9059,133.2617,531.7404,133.2617,543.7404,145.2617,531.7404,157.2617,411.9059,157.2617,399.9059,145.2617,411.9059,133.2617" style="stroke:#181818;stroke-width:0.5;"/><text fill="#000000" font-family="sans-serif" font-size="11" lengthAdjust="spacing" textLength="17.1177" x="475.8231" y="169.1318">yes</text><text fill="#000000" font-family="sans-serif" font-size="11" lengthAdjust="spacing" textLength="119.8345" x="411.9059" y="149.8164">more pieces to process?</text><text fill="#000000" font-family="sans-serif" font-size="11" lengthAdjust="spacing" textLength="12.2354" x="387.6705" y="142.501">no</text><rect fill="#F1F1F1" height="34.6309" rx="12.5" ry="12.5" style="stroke:#181818;stroke-width:0.5;" width="114.166" x="414.7401" y="812.7871"/><text fill="#000000" font-family="sans-serif" font-size="11" lengthAdjust="spacing" textLength="94.166" x="424.7401" y="834.6572">Return new_pieces</text><ellipse cx="471.8231" cy="878.418" fill="none" rx="11" ry="11" style="stroke:#222222;stroke-width:1;"/><ellipse cx="471.8231" cy="878.418" fill="#222222" rx="6" ry="6" style="stroke:#222222;stroke-width:1;"/><line style="stroke:#181818;stroke-width:1;" x1="471.8231" x2="471.8231" y1="58.6309" y2="78.6309"/><polygon fill="#181818" points="467.8231,68.6309,471.8231,78.6309,475.8231,68.6309,471.8231,72.6309" style="stroke:#181818;stroke-width:1;"/><line style="stroke:#181818;stroke-width:1;" x1="471.8231" x2="471.8231" y1="225.2627" y2="245.2627"/><polygon fill="#181818" points="467.8231,235.2627,471.8231,245.2627,475.8231,235.2627,471.8231,239.2627" style="stroke:#181818;stroke-width:1;"/><line style="stroke:#181818;stroke-width:1;" x1="287.4243" x2="287.4243" y1="368.5244" y2="388.5244"/><polygon fill="#181818" points="283.4243,378.5244,287.4243,388.5244,291.4243,378.5244,287.4243,382.5244" style="stroke:#181818;stroke-width:1;"/><line style="stroke:#181818;stroke-width:1;" x1="287.4243" x2="287.4243" y1="535.1563" y2="555.1563"/><polygon fill="#181818" points="283.4243,545.1563,287.4243,555.1563,291.4243,545.1563,287.4243,549.1563" style="stroke:#181818;stroke-width:1;"/><line style="stroke:#181818;stroke-width:1;" x1="231.8567" x2="166.531" y1="632.1563" y2="632.1563"/><line style="stroke:#181818;stroke-width:1;" x1="166.531" x2="166.531" y1="632.1563" y2="654.1563"/><polygon fill="#181818" points="162.531,644.1563,166.531,654.1563,170.531,644.1563,166.531,648.1563" style="stroke:#181818;stroke-width:1;"/><line style="stroke:#181818;stroke-width:1;" x1="342.9919" x2="408.3176" y1="632.1563" y2="632.1563"/><line style="stroke:#181818;stroke-width:1;" x1="408.3176" x2="408.3176" y1="632.1563" y2="654.1563"/><polygon fill="#181818" points="404.3176,644.1563,408.3176,654.1563,412.3176,644.1563,408.3176,648.1563" style="stroke:#181818;stroke-width:1;"/><line style="stroke:#181818;stroke-width:1;" x1="166.531" x2="166.531" y1="688.7871" y2="706.7871"/><line style="stroke:#181818;stroke-width:1;" x1="166.531" x2="275.4243" y1="706.7871" y2="706.7871"/><polygon fill="#181818" points="265.4243,702.7871,275.4243,706.7871,265.4243,710.7871,269.4243,706.7871" style="stroke:#181818;stroke-width:1;"/><line style="stroke:#181818;stroke-width:1;" x1="408.3176" x2="408.3176" y1="688.7871" y2="706.7871"/><line style="stroke:#181818;stroke-width:1;" x1="408.3176" x2="299.4243" y1="706.7871" y2="706.7871"/><polygon fill="#181818" points="309.4243,702.7871,299.4243,706.7871,309.4243,710.7871,305.4243,706.7871" style="stroke:#181818;stroke-width:1;"/><line style="stroke:#181818;stroke-width:1;" x1="287.4243" x2="287.4243" y1="589.7871" y2="620.1563"/><polygon fill="#181818" points="283.4243,610.1563,287.4243,620.1563,291.4243,610.1563,287.4243,614.1563" style="stroke:#181818;stroke-width:1;"/><line style="stroke:#181818;stroke-width:1;" x1="287.4243" x2="287.4243" y1="467.1553" y2="500.5254"/><polygon fill="#181818" points="283.4243,490.5254,287.4243,500.5254,291.4243,490.5254,287.4243,494.5254" style="stroke:#181818;stroke-width:1;"/><line style="stroke:#181818;stroke-width:1;" x1="287.4243" x2="287.4243" y1="718.7871" y2="728.7871"/><line style="stroke:#181818;stroke-width:1;" x1="287.4243" x2="544.5732" y1="728.7871" y2="728.7871"/><polygon fill="#181818" points="540.5732,595.1563,544.5732,585.1563,548.5732,595.1563,544.5732,591.1563" style="stroke:#181818;stroke-width:1;"/><line style="stroke:#181818;stroke-width:1;" x1="544.5732" x2="544.5732" y1="455.1553" y2="728.7871"/><line style="stroke:#181818;stroke-width:1;" x1="544.5732" x2="358.1169" y1="455.1553" y2="455.1553"/><polygon fill="#181818" points="368.1169,451.1553,358.1169,455.1553,368.1169,459.1553,364.1169,455.1553" style="stroke:#181818;stroke-width:1;"/><line style="stroke:#181818;stroke-width:1;" x1="216.7317" x2="45" y1="455.1553" y2="455.1553"/><polygon fill="#181818" points="41,590.1563,45,600.1563,49,590.1563,45,594.1563" style="stroke:#181818;stroke-width:1;"/><line style="stroke:#181818;stroke-width:1;" x1="45" x2="45" y1="455.1553" y2="758.7871"/><line style="stroke:#181818;stroke-width:1;" x1="45" x2="459.8231" y1="758.7871" y2="758.7871"/><polygon fill="#181818" points="449.8231,754.7871,459.8231,758.7871,449.8231,762.7871,453.8231,758.7871" style="stroke:#181818;stroke-width:1;"/><line style="stroke:#181818;stroke-width:1;" x1="287.4243" x2="287.4243" y1="423.1553" y2="443.1553"/><polygon fill="#181818" points="283.4243,433.1553,287.4243,443.1553,291.4243,433.1553,287.4243,437.1553" style="stroke:#181818;stroke-width:1;"/><line style="stroke:#181818;stroke-width:1;" x1="432.162" x2="287.4243" y1="311.8936" y2="311.8936"/><line style="stroke:#181818;stroke-width:1;" x1="287.4243" x2="287.4243" y1="311.8936" y2="333.8936"/><polygon fill="#181818" points="283.4243,323.8936,287.4243,333.8936,291.4243,323.8936,287.4243,327.8936" style="stroke:#181818;stroke-width:1;"/><line style="stroke:#181818;stroke-width:1;" x1="511.4843" x2="656.2219" y1="311.8936" y2="311.8936"/><line style="stroke:#181818;stroke-width:1;" x1="656.2219" x2="656.2219" y1="311.8936" y2="333.8936"/><polygon fill="#181818" points="652.2219,323.8936,656.2219,333.8936,660.2219,323.8936,656.2219,327.8936" style="stroke:#181818;stroke-width:1;"/><line style="stroke:#181818;stroke-width:1;" x1="656.2219" x2="656.2219" y1="368.5244" y2="758.7871"/><line style="stroke:#181818;stroke-width:1;" x1="656.2219" x2="483.8231" y1="758.7871" y2="758.7871"/><polygon fill="#181818" points="493.8231,754.7871,483.8231,758.7871,493.8231,762.7871,489.8231,758.7871" style="stroke:#181818;stroke-width:1;"/><line style="stroke:#181818;stroke-width:1;" x1="471.8231" x2="471.8231" y1="279.8936" y2="299.8936"/><polygon fill="#181818" points="467.8231,289.8936,471.8231,299.8936,475.8231,289.8936,471.8231,293.8936" style="stroke:#181818;stroke-width:1;"/><line style="stroke:#181818;stroke-width:1;" x1="471.8231" x2="471.8231" y1="157.2617" y2="190.6318"/><polygon fill="#181818" points="467.8231,180.6318,471.8231,190.6318,475.8231,180.6318,471.8231,184.6318" style="stroke:#181818;stroke-width:1;"/><line style="stroke:#181818;stroke-width:1;" x1="471.8231" x2="471.8231" y1="770.7871" y2="780.7871"/><line style="stroke:#181818;stroke-width:1;" x1="471.8231" x2="761.8706" y1="780.7871" y2="780.7871"/><polygon fill="#181818" points="757.8706,454.8398,761.8706,444.8398,765.8706,454.8398,761.8706,450.8398" style="stroke:#181818;stroke-width:1;"/><line style="stroke:#181818;stroke-width:1;" x1="761.8706" x2="761.8706" y1="145.2617" y2="780.7871"/><line style="stroke:#181818;stroke-width:1;" x1="761.8706" x2="543.7404" y1="145.2617" y2="145.2617"/><polygon fill="#181818" points="553.7404,141.2617,543.7404,145.2617,553.7404,149.2617,549.7404,145.2617" style="stroke:#181818;stroke-width:1;"/><line style="stroke:#181818;stroke-width:1;" x1="399.9059" x2="27" y1="145.2617" y2="145.2617"/><polygon fill="#181818" points="23,440.8398,27,450.8398,31,440.8398,27,444.8398" style="stroke:#181818;stroke-width:1;"/><line style="stroke:#181818;stroke-width:1;" x1="27" x2="27" y1="145.2617" y2="792.7871"/><line style="stroke:#181818;stroke-width:1;" x1="27" x2="471.8231" y1="792.7871" y2="792.7871"/><line style="stroke:#181818;stroke-width:1;" x1="471.8231" x2="471.8231" y1="792.7871" y2="812.7871"/><polygon fill="#181818" points="467.8231,802.7871,471.8231,812.7871,475.8231,802.7871,471.8231,806.7871" style="stroke:#181818;stroke-width:1;"/><line style="stroke:#181818;stroke-width:1;" x1="471.8231" x2="471.8231" y1="113.2617" y2="133.2617"/><polygon fill="#181818" points="467.8231,123.2617,471.8231,133.2617,475.8231,123.2617,471.8231,127.2617" style="stroke:#181818;stroke-width:1;"/><line style="stroke:#181818;stroke-width:1;" x1="471.8231" x2="471.8231" y1="847.418" y2="867.418"/><polygon fill="#181818" points="467.8231,857.418,471.8231,867.418,475.8231,857.418,471.8231,861.418" style="stroke:#181818;stroke-width:1;"/><!--SRC=[RP9BRy8m48Jl_XLp32ALe4TeLRLIaNhjuuHGPP85LYIsPJkyVdqtZq83bN9mjBFVxAmTjcoSzhf4JYjT5N5cJVpW4s4yLaegaIDR8rLTx3bk3Arrv1s5n35b50OgH14fDNapejG51uAX_NTRXWwWqiKZf12dIkqtN12Iqdf29uaMpbivXQS1E20vrbXWyYMJPTjM1ZQYEunJ7EvJw1JB55cAV5eBNtUwg7Ga765tv34UZU2iT0HfmxpjMeWxm2inPvCS1tZ0I0pZXipPKbWpDZcyf8MtLW1sXQnQSjOdDTANYeiSbnqvFDQI1OPTxr1-Er_WR_9GBUzaFF8oU3EZwqTly9zwMw_o47logo7wwNL4oNaJlNDj4_Sg_mTlKC_EaSG_aRS8j2v9rFFVfO_EtzcR2hdjnDXRXFMyPYFZtc0kTtV1c9nNgZjrUwgXwjhXXjw-ZSfa6stMrBo65gQkI9DtYfKtVvwcB2X4wtu0]--></g></svg>