<svg xmlns="http://www.w3.org/2000/svg" xmlns:xlink="http://www.w3.org/1999/xlink" contentStyleType="text/css" data-diagram-type="CLASS" height="430px" preserveAspectRatio="none" style="width:621px;height:430px;background:#FFFFFF;" version="1.1" viewBox="0 0 621 430" width="621px" zoomAndPan="magnify"><defs/><g><!--class DicetributionGraph--><g class="entity" data-entity="DicetributionGraph" data-source-line="4" data-uid="ent0002" id="entity_DicetributionGraph"><rect fill="#F1F1F1" height="117.1543" rx="2.5" ry="2.5" style="stroke:#181818;stroke-width:0.5;" width="520.9702" x="7" y="306"/><ellipse cx="217.8794" cy="320" fill="#ADD1B2" rx="9" ry="9" style="stroke:#181818;stroke-width:1;"/><path d="M219.4106,317.2656 Q219.5044,317.125 219.6294,317.0625 Q219.7544,316.9844 219.895,316.9844 Q220.1294,316.9844 220.2856,317.1563 Q220.4419,317.3281 220.4419,317.7188 L220.4419,318.6563 Q220.4419,319.0469 220.2856,319.2188 Q220.1294,319.3906 219.895,319.3906 Q219.6763,319.3906 219.5356,319.2656 Q219.395,319.1406 219.3325,318.8125 Q219.3013,318.5781 219.1919,318.4531 Q218.9731,318.2188 218.5669,318.0781 Q218.1763,317.9219 217.7856,317.9219 Q217.2856,317.9219 216.8638,318.1406 Q216.4575,318.3594 216.1294,318.8438 Q215.8169,319.3281 215.8169,319.9844 L215.8169,320.7031 Q215.8169,321.5 216.395,322.0313 Q216.9731,322.5625 218.0044,322.5625 Q218.6138,322.5625 219.0356,322.3906 Q219.2856,322.2969 219.5669,322.0156 Q219.7388,321.8438 219.8325,321.7969 Q219.9263,321.7344 220.0513,321.7344 Q220.27,321.7344 220.4419,321.9063 Q220.6138,322.0781 220.6138,322.2969 Q220.6138,322.5156 220.3794,322.7813 Q220.0513,323.1563 219.5356,323.375 Q218.8481,323.6563 218.0044,323.6563 Q217.0356,323.6563 216.2544,323.2656 Q215.6138,322.9375 215.1606,322.25 Q214.7231,321.5469 214.7231,320.7188 L214.7231,319.9688 Q214.7231,319.1094 215.1138,318.375 Q215.52,317.625 216.2231,317.2344 Q216.9419,316.8281 217.7388,316.8281 Q218.2075,316.8281 218.6294,316.9375 Q219.0513,317.0469 219.4106,317.2656 Z " fill="#000000"/><text fill="#000000" font-family="sans-serif" font-size="11" lengthAdjust="spacing" textLength="91.7114" x="235.3794" y="324.5547">DicetributionGraph</text><line style="stroke:#181818;stroke-width:0.5;" x1="8" x2="526.9702" y1="334" y2="334"/><text fill="#000000" font-family="sans-serif" font-size="11" lengthAdjust="spacing" textLength="55.333" x="13" y="349.8701">+fig: Figure</text><text fill="#000000" font-family="sans-serif" font-size="11" lengthAdjust="spacing" textLength="48.6084" x="13" y="364.501">+ax: Axes</text><text fill="#000000" font-family="sans-serif" font-size="11" lengthAdjust="spacing" textLength="147.6567" x="13" y="379.1318">+canvas: FigureCanvasTkAgg</text><line style="stroke:#181818;stroke-width:1;" x1="8" x2="526.9702" y1="385.8926" y2="385.8926"/><text fill="#000000" font-family="sans-serif" font-size="11" lengthAdjust="spacing" textLength="137.8599" x="13" y="401.7627">+__init__(master: tk.Widget)</text><text fill="#000000" font-family="sans-serif" font-size="11" lengthAdjust="spacing" textLength="508.9702" x="13" y="416.3936">+update_plot(x_vals: list[float], y_vals: list[float], r_x_vals: list[float], r_y_vals: list[float], r_graph_type: str)</text></g><!--class View--><g class="entity" data-entity="View" data-source-line="13" data-uid="ent0003" id="entity_View"><rect fill="#F1F1F1" height="87.8926" rx="2.5" ry="2.5" style="stroke:#181818;stroke-width:0.5;" width="201.8306" x="49.5" y="142"/><ellipse cx="134.7441" cy="156" fill="#ADD1B2" rx="9" ry="9" style="stroke:#181818;stroke-width:1;"/><path d="M136.2754,153.2656 Q136.3691,153.125 136.4941,153.0625 Q136.6191,152.9844 136.7598,152.9844 Q136.9941,152.9844 137.1504,153.1563 Q137.3066,153.3281 137.3066,153.7188 L137.3066,154.6563 Q137.3066,155.0469 137.1504,155.2188 Q136.9941,155.3906 136.7598,155.3906 Q136.541,155.3906 136.4004,155.2656 Q136.2598,155.1406 136.1973,154.8125 Q136.166,154.5781 136.0566,154.4531 Q135.8379,154.2188 135.4316,154.0781 Q135.041,153.9219 134.6504,153.9219 Q134.1504,153.9219 133.7285,154.1406 Q133.3223,154.3594 132.9941,154.8438 Q132.6816,155.3281 132.6816,155.9844 L132.6816,156.7031 Q132.6816,157.5 133.2598,158.0313 Q133.8379,158.5625 134.8691,158.5625 Q135.4785,158.5625 135.9004,158.3906 Q136.1504,158.2969 136.4316,158.0156 Q136.6035,157.8438 136.6973,157.7969 Q136.791,157.7344 136.916,157.7344 Q137.1348,157.7344 137.3066,157.9063 Q137.4785,158.0781 137.4785,158.2969 Q137.4785,158.5156 137.2441,158.7813 Q136.916,159.1563 136.4004,159.375 Q135.7129,159.6563 134.8691,159.6563 Q133.9004,159.6563 133.1191,159.2656 Q132.4785,158.9375 132.0254,158.25 Q131.5879,157.5469 131.5879,156.7188 L131.5879,155.9688 Q131.5879,155.1094 131.9785,154.375 Q132.3848,153.625 133.0879,153.2344 Q133.8066,152.8281 134.6035,152.8281 Q135.0723,152.8281 135.4941,152.9375 Q135.916,153.0469 136.2754,153.2656 Z " fill="#000000"/><text fill="#000000" font-family="sans-serif" font-size="11" lengthAdjust="spacing" textLength="23.8423" x="152.2441" y="160.5547">View</text><line style="stroke:#181818;stroke-width:0.5;" x1="50.5" x2="250.3306" y1="170" y2="170"/><text fill="#000000" font-family="sans-serif" font-size="11" lengthAdjust="spacing" textLength="84.063" x="55.5" y="185.8701">+graph: tk.Frame</text><line style="stroke:#181818;stroke-width:1;" x1="50.5" x2="250.3306" y1="192.6309" y2="192.6309"/><text fill="#000000" font-family="sans-serif" font-size="11" lengthAdjust="spacing" textLength="189.8306" x="55.5" y="208.501">+set_graph(mode: str, *args, **kwargs)</text><text fill="#000000" font-family="sans-serif" font-size="11" lengthAdjust="spacing" textLength="156.8413" x="55.5" y="223.1318">+update_graph(*args, **kwargs)</text></g><!--class Controller--><g class="entity" data-entity="Controller" data-source-line="20" data-uid="ent0004" id="entity_Controller"><rect fill="#F1F1F1" height="58.6309" rx="2.5" ry="2.5" style="stroke:#181818;stroke-width:0.5;" width="75.6846" x="230.5" y="7"/><ellipse cx="243.5" cy="21" fill="#ADD1B2" rx="9" ry="9" style="stroke:#181818;stroke-width:1;"/><path d="M245.0313,18.2656 Q245.125,18.125 245.25,18.0625 Q245.375,17.9844 245.5156,17.9844 Q245.75,17.9844 245.9063,18.1563 Q246.0625,18.3281 246.0625,18.7188 L246.0625,19.6563 Q246.0625,20.0469 245.9063,20.2188 Q245.75,20.3906 245.5156,20.3906 Q245.2969,20.3906 245.1563,20.2656 Q245.0156,20.1406 244.9531,19.8125 Q244.9219,19.5781 244.8125,19.4531 Q244.5938,19.2188 244.1875,19.0781 Q243.7969,18.9219 243.4063,18.9219 Q242.9063,18.9219 242.4844,19.1406 Q242.0781,19.3594 241.75,19.8438 Q241.4375,20.3281 241.4375,20.9844 L241.4375,21.7031 Q241.4375,22.5 242.0156,23.0313 Q242.5938,23.5625 243.625,23.5625 Q244.2344,23.5625 244.6563,23.3906 Q244.9063,23.2969 245.1875,23.0156 Q245.3594,22.8438 245.4531,22.7969 Q245.5469,22.7344 245.6719,22.7344 Q245.8906,22.7344 246.0625,22.9063 Q246.2344,23.0781 246.2344,23.2969 Q246.2344,23.5156 246,23.7813 Q245.6719,24.1563 245.1563,24.375 Q244.4688,24.6563 243.625,24.6563 Q242.6563,24.6563 241.875,24.2656 Q241.2344,23.9375 240.7813,23.25 Q240.3438,22.5469 240.3438,21.7188 L240.3438,20.9688 Q240.3438,20.1094 240.7344,19.375 Q241.1406,18.625 241.8438,18.2344 Q242.5625,17.8281 243.3594,17.8281 Q243.8281,17.8281 244.25,17.9375 Q244.6719,18.0469 245.0313,18.2656 Z " fill="#000000"/><text fill="#000000" font-family="sans-serif" font-size="11" lengthAdjust="spacing" textLength="47.6846" x="255.5" y="25.5547">Controller</text><line style="stroke:#181818;stroke-width:0.5;" x1="231.5" x2="305.1846" y1="35" y2="35"/><line style="stroke:#181818;stroke-width:1;" x1="231.5" x2="305.1846" y1="43" y2="43"/><text fill="#000000" font-family="sans-serif" font-size="11" lengthAdjust="spacing" textLength="47.9854" x="236.5" y="58.8701">+refresh()</text></g><!--class AbstractDicetribution--><g class="entity" data-entity="AbstractDicetribution" data-source-line="25" data-uid="ent0005" id="entity_AbstractDicetribution"><rect fill="#F1F1F1" height="58.6309" rx="2.5" ry="2.5" style="stroke:#181818;stroke-width:0.5;" width="199.4351" x="287" y="156.5"/><ellipse cx="332.2241" cy="170.5" fill="#ADD1B2" rx="9" ry="9" style="stroke:#181818;stroke-width:1;"/><path d="M333.7554,167.7656 Q333.8491,167.625 333.9741,167.5625 Q334.0991,167.4844 334.2397,167.4844 Q334.4741,167.4844 334.6304,167.6563 Q334.7866,167.8281 334.7866,168.2188 L334.7866,169.1563 Q334.7866,169.5469 334.6304,169.7188 Q334.4741,169.8906 334.2397,169.8906 Q334.021,169.8906 333.8804,169.7656 Q333.7397,169.6406 333.6772,169.3125 Q333.646,169.0781 333.5366,168.9531 Q333.3179,168.7188 332.9116,168.5781 Q332.521,168.4219 332.1304,168.4219 Q331.6304,168.4219 331.2085,168.6406 Q330.8022,168.8594 330.4741,169.3438 Q330.1616,169.8281 330.1616,170.4844 L330.1616,171.2031 Q330.1616,172 330.7397,172.5313 Q331.3179,173.0625 332.3491,173.0625 Q332.9585,173.0625 333.3804,172.8906 Q333.6304,172.7969 333.9116,172.5156 Q334.0835,172.3438 334.1772,172.2969 Q334.271,172.2344 334.396,172.2344 Q334.6147,172.2344 334.7866,172.4063 Q334.9585,172.5781 334.9585,172.7969 Q334.9585,173.0156 334.7241,173.2813 Q334.396,173.6563 333.8804,173.875 Q333.1929,174.1563 332.3491,174.1563 Q331.3804,174.1563 330.5991,173.7656 Q329.9585,173.4375 329.5054,172.75 Q329.0679,172.0469 329.0679,171.2188 L329.0679,170.4688 Q329.0679,169.6094 329.4585,168.875 Q329.8647,168.125 330.5679,167.7344 Q331.2866,167.3281 332.0835,167.3281 Q332.5522,167.3281 332.9741,167.4375 Q333.396,167.5469 333.7554,167.7656 Z " fill="#000000"/><text fill="#000000" font-family="sans-serif" font-size="11" lengthAdjust="spacing" textLength="101.4868" x="349.7241" y="175.0547">AbstractDicetribution</text><line style="stroke:#181818;stroke-width:0.5;" x1="288" x2="485.4351" y1="184.5" y2="184.5"/><line style="stroke:#181818;stroke-width:1;" x1="288" x2="485.4351" y1="192.5" y2="192.5"/><text fill="#000000" font-family="sans-serif" font-size="11" lengthAdjust="spacing" textLength="187.4351" x="293" y="208.3701">+get_plot_data(show_real: bool): tuple</text></g><!--reverse link View to DicetributionGraph--><g class="link" data-entity-1="View" data-entity-2="DicetributionGraph" data-source-line="30" data-uid="lnk6" id="link_View_DicetributionGraph"><path codeLine="30" d="M185.751,240.1815 C200.841,262.9415 212.92,281.16 229.23,305.77" fill="none" id="View-backto-DicetributionGraph" style="stroke:#181818;stroke-width:1;"/><polygon fill="#181818" points="179.12,230.18,179.1017,237.3911,185.751,240.1815,185.7693,232.9704,179.12,230.18" style="stroke:#181818;stroke-width:1;"/><text fill="#000000" font-family="sans-serif" font-size="11" lengthAdjust="spacing" textLength="91.0938" x="210.5" y="272.8701">graph (Dice mode)</text></g><!--link Controller to View--><g class="link" data-entity-1="Controller" data-entity-2="View" data-source-line="31" data-uid="lnk7" id="link_Controller_View"><path codeLine="31" d="M242.92,66.01 C234.66,75.44 225.56,86.06 217.5,96 C205.57,110.72 196.5432,122.4149 185.5132,137.1649" fill="none" id="Controller-to-View" style="stroke:#181818;stroke-width:1;"/><polygon fill="#181818" points="181.92,141.97,190.5132,137.1579,184.9144,137.9658,184.1064,132.3669,181.92,141.97" style="stroke:#181818;stroke-width:1;"/><text fill="#000000" font-family="sans-serif" font-size="11" lengthAdjust="spacing" textLength="100.2837" x="218.5" y="108.8701">calls update_graph()</text></g><!--link Controller to AbstractDicetribution--><g class="link" data-entity-1="Controller" data-entity-2="AbstractDicetribution" data-source-line="32" data-uid="lnk8" id="link_Controller_AbstractDicetribution"><path codeLine="32" d="M297.02,66.24 C305.79,75.5 315.3,85.96 323.5,96 C339.32,115.35 352.2071,133.441 364.2471,151.231" fill="none" id="Controller-to-AbstractDicetribution" style="stroke:#181818;stroke-width:1;"/><polygon fill="#181818" points="367.61,156.2,365.8783,146.5046,364.8076,152.0592,359.253,150.9885,367.61,156.2" style="stroke:#181818;stroke-width:1;"/><text fill="#000000" font-family="sans-serif" font-size="11" lengthAdjust="spacing" textLength="91.1045" x="336.5" y="108.8701">gets plot data from</text></g><!--link AbstractDicetribution to DicetributionGraph--><g class="link" data-entity-1="AbstractDicetribution" data-entity-2="DicetributionGraph" data-source-line="33" data-uid="lnk9" id="link_AbstractDicetribution_DicetributionGraph"><path codeLine="33" d="M367.12,215.75 C350.72,240.07 330.064,270.705 309.724,300.875" fill="none" id="AbstractDicetribution-to-DicetributionGraph" style="stroke:#181818;stroke-width:1;"/><polygon fill="#181818" points="306.37,305.85,314.7177,300.6235,309.165,301.7042,308.0844,296.1515,306.37,305.85" style="stroke:#181818;stroke-width:1;"/><text fill="#000000" font-family="sans-serif" font-size="11" lengthAdjust="spacing" textLength="278.1851" x="335.5" y="272.8701">provides x_vals, y_vals, r_x_vals, r_y_vals, r_graph_type</text></g><!--SRC=[TL9DRuCm3BtpAto4haphDOT9g5EddJTjXscAKZ0q8X2Kc7visdzV4lg5oaxW-Db-py-sbcqdZ6WWLyBQZCZ8TK_uaklsLNuZF4Js32cm5BsYbMufv1QBA0fby2Hp72gbRf-Dw3Rm4m7SGIah1YjPzGP3BFOCiZtQ4EIYtGfxoYz3z5PdLUMoQHeWdCjM4kTn8ooXOK3r_OSiAgGavFkk48IyKvhYFTyAvTefQUcpL5hGrnmEKu-6xwUV_q5NNX6dGuSCB9aa-Zq9VvUuEqeDe41mvPQ55mqMQUWGDxeOEinX9anbtMTMx_pVICq0la6SXowT0KOhXIQCFeunM1gqc_WAcAtTB97Jo9xh6hV7i3lkvehORlIE6nIAmLfhbJWnVQVGzmiwPsawvJGRf4FiS-0r9j4LnJHz7DR4dE5AsR7A6-WqP-QfMl1SmNE5qkWcciRwBfCqEwEtia0BW_kduxZSm-K4ngv7Vm00]--></g></svg>