<svg xmlns="http://www.w3.org/2000/svg" xmlns:xlink="http://www.w3.org/1999/xlink" contentStyleType="text/css" data-diagram-type="CLASS" height="637px" preserveAspectRatio="none" style="width:370px;height:637px;background:#FFFFFF;" version="1.1" viewBox="0 0 370 637" width="370px" zoomAndPan="magnify"><defs/><g><!--class DiceCanvas--><g class="entity" data-entity="DiceCanvas" data-source-line="4" data-uid="ent0002" id="entity_DiceCanvas"><rect fill="#F1F1F1" height="146.416" rx="2.5" ry="2.5" style="stroke:#181818;stroke-width:0.5;" width="324.1089" x="10.5" y="291"/><ellipse cx="139.1533" cy="305" fill="#ADD1B2" rx="9" ry="9" style="stroke:#181818;stroke-width:1;"/><path d="M140.6846,302.2656 Q140.7783,302.125 140.9033,302.0625 Q141.0283,301.9844 141.1689,301.9844 Q141.4033,301.9844 141.5596,302.1563 Q141.7158,302.3281 141.7158,302.7188 L141.7158,303.6563 Q141.7158,304.0469 141.5596,304.2188 Q141.4033,304.3906 141.1689,304.3906 Q140.9502,304.3906 140.8096,304.2656 Q140.6689,304.1406 140.6064,303.8125 Q140.5752,303.5781 140.4658,303.4531 Q140.2471,303.2188 139.8408,303.0781 Q139.4502,302.9219 139.0596,302.9219 Q138.5596,302.9219 138.1377,303.1406 Q137.7314,303.3594 137.4033,303.8438 Q137.0908,304.3281 137.0908,304.9844 L137.0908,305.7031 Q137.0908,306.5 137.6689,307.0313 Q138.2471,307.5625 139.2783,307.5625 Q139.8877,307.5625 140.3096,307.3906 Q140.5596,307.2969 140.8408,307.0156 Q141.0127,306.8438 141.1064,306.7969 Q141.2002,306.7344 141.3252,306.7344 Q141.5439,306.7344 141.7158,306.9063 Q141.8877,307.0781 141.8877,307.2969 Q141.8877,307.5156 141.6533,307.7813 Q141.3252,308.1563 140.8096,308.375 Q140.1221,308.6563 139.2783,308.6563 Q138.3096,308.6563 137.5283,308.2656 Q136.8877,307.9375 136.4346,307.25 Q135.9971,306.5469 135.9971,305.7188 L135.9971,304.9688 Q135.9971,304.1094 136.3877,303.375 Q136.7939,302.625 137.4971,302.2344 Q138.2158,301.8281 139.0127,301.8281 Q139.4814,301.8281 139.9033,301.9375 Q140.3252,302.0469 140.6846,302.2656 Z " fill="#000000"/><text fill="#000000" font-family="sans-serif" font-size="11" lengthAdjust="spacing" textLength="59.3022" x="156.6533" y="309.5547">DiceCanvas</text><line style="stroke:#181818;stroke-width:0.5;" x1="11.5" x2="333.6089" y1="319" y2="319"/><text fill="#000000" font-family="sans-serif" font-size="11" lengthAdjust="spacing" textLength="230.6025" x="16.5" y="334.8701">+dice_vals_rows: list[tuple[list[int], float | None]]</text><text fill="#000000" font-family="sans-serif" font-size="11" lengthAdjust="spacing" textLength="96.2983" x="16.5" y="349.501">+canvas: tk.Canvas</text><text fill="#000000" font-family="sans-serif" font-size="11" lengthAdjust="spacing" textLength="123.793" x="16.5" y="364.1318">+y_scrollbar: ttk.Scrollbar</text><text fill="#000000" font-family="sans-serif" font-size="11" lengthAdjust="spacing" textLength="123.793" x="16.5" y="378.7627">+x_scrollbar: ttk.Scrollbar</text><text fill="#000000" font-family="sans-serif" font-size="11" lengthAdjust="spacing" textLength="139.686" x="16.5" y="393.3936">+scrollable_frame: ttk.Frame</text><line style="stroke:#181818;stroke-width:1;" x1="11.5" x2="333.6089" y1="400.1543" y2="400.1543"/><text fill="#000000" font-family="sans-serif" font-size="11" lengthAdjust="spacing" textLength="312.1089" x="16.5" y="416.0244">+__init__(container_frame: tk.Frame, dice_vals_rows: list[tuple])</text><text fill="#000000" font-family="sans-serif" font-size="11" lengthAdjust="spacing" textLength="83.4614" x="16.5" y="430.6553">+place_widgets()</text></g><!--class DiceRow--><g class="entity" data-entity="DiceRow" data-source-line="15" data-uid="ent0003" id="entity_DiceRow"><rect fill="#F1F1F1" height="117.1543" rx="2.5" ry="2.5" style="stroke:#181818;stroke-width:0.5;" width="330.624" x="7" y="513"/><ellipse cx="146.5566" cy="527" fill="#ADD1B2" rx="9" ry="9" style="stroke:#181818;stroke-width:1;"/><path d="M148.0879,524.2656 Q148.1816,524.125 148.3066,524.0625 Q148.4316,523.9844 148.5723,523.9844 Q148.8066,523.9844 148.9629,524.1563 Q149.1191,524.3281 149.1191,524.7188 L149.1191,525.6563 Q149.1191,526.0469 148.9629,526.2188 Q148.8066,526.3906 148.5723,526.3906 Q148.3535,526.3906 148.2129,526.2656 Q148.0723,526.1406 148.0098,525.8125 Q147.9785,525.5781 147.8691,525.4531 Q147.6504,525.2188 147.2441,525.0781 Q146.8535,524.9219 146.4629,524.9219 Q145.9629,524.9219 145.541,525.1406 Q145.1348,525.3594 144.8066,525.8438 Q144.4941,526.3281 144.4941,526.9844 L144.4941,527.7031 Q144.4941,528.5 145.0723,529.0313 Q145.6504,529.5625 146.6816,529.5625 Q147.291,529.5625 147.7129,529.3906 Q147.9629,529.2969 148.2441,529.0156 Q148.416,528.8438 148.5098,528.7969 Q148.6035,528.7344 148.7285,528.7344 Q148.9473,528.7344 149.1191,528.9063 Q149.291,529.0781 149.291,529.2969 Q149.291,529.5156 149.0566,529.7813 Q148.7285,530.1563 148.2129,530.375 Q147.5254,530.6563 146.6816,530.6563 Q145.7129,530.6563 144.9316,530.2656 Q144.291,529.9375 143.8379,529.25 Q143.4004,528.5469 143.4004,527.7188 L143.4004,526.9688 Q143.4004,526.1094 143.791,525.375 Q144.1973,524.625 144.9004,524.2344 Q145.6191,523.8281 146.416,523.8281 Q146.8848,523.8281 147.3066,523.9375 Q147.7285,524.0469 148.0879,524.2656 Z " fill="#000000"/><text fill="#000000" font-family="sans-serif" font-size="11" lengthAdjust="spacing" textLength="44.0107" x="164.0566" y="531.5547">DiceRow</text><line style="stroke:#181818;stroke-width:0.5;" x1="8" x2="336.624" y1="541" y2="541"/><text fill="#000000" font-family="sans-serif" font-size="11" lengthAdjust="spacing" textLength="89.5684" x="13" y="556.8701">+dice_vals: list[int]</text><text fill="#000000" font-family="sans-serif" font-size="11" lengthAdjust="spacing" textLength="127.0854" x="13" y="571.501">+row_val: float | int | None</text><line style="stroke:#181818;stroke-width:1;" x1="8" x2="336.624" y1="578.2617" y2="578.2617"/><text fill="#000000" font-family="sans-serif" font-size="11" lengthAdjust="spacing" textLength="318.624" x="13" y="594.1318">+__init__(master: tk.Widget, dice_vals: list[int], row_val: float | int)</text><text fill="#000000" font-family="sans-serif" font-size="11" lengthAdjust="spacing" textLength="68.1646" x="13" y="608.7627">+create_row()</text><text fill="#000000" font-family="sans-serif" font-size="11" lengthAdjust="spacing" textLength="170.8921" x="13" y="623.3936">+dice_row_image(): tk.PhotoImage</text></g><!--class View--><g class="entity" data-entity="View" data-source-line="24" data-uid="ent0004" id="entity_View"><rect fill="#F1F1F1" height="73.2617" rx="2.5" ry="2.5" style="stroke:#181818;stroke-width:0.5;" width="204.9082" x="70" y="142"/><ellipse cx="156.783" cy="156" fill="#ADD1B2" rx="9" ry="9" style="stroke:#181818;stroke-width:1;"/><path d="M158.3142,153.2656 Q158.408,153.125 158.533,153.0625 Q158.658,152.9844 158.7986,152.9844 Q159.033,152.9844 159.1892,153.1563 Q159.3455,153.3281 159.3455,153.7188 L159.3455,154.6563 Q159.3455,155.0469 159.1892,155.2188 Q159.033,155.3906 158.7986,155.3906 Q158.5798,155.3906 158.4392,155.2656 Q158.2986,155.1406 158.2361,154.8125 Q158.2048,154.5781 158.0955,154.4531 Q157.8767,154.2188 157.4705,154.0781 Q157.0798,153.9219 156.6892,153.9219 Q156.1892,153.9219 155.7673,154.1406 Q155.3611,154.3594 155.033,154.8438 Q154.7205,155.3281 154.7205,155.9844 L154.7205,156.7031 Q154.7205,157.5 155.2986,158.0313 Q155.8767,158.5625 156.908,158.5625 Q157.5173,158.5625 157.9392,158.3906 Q158.1892,158.2969 158.4705,158.0156 Q158.6423,157.8438 158.7361,157.7969 Q158.8298,157.7344 158.9548,157.7344 Q159.1736,157.7344 159.3455,157.9063 Q159.5173,158.0781 159.5173,158.2969 Q159.5173,158.5156 159.283,158.7813 Q158.9548,159.1563 158.4392,159.375 Q157.7517,159.6563 156.908,159.6563 Q155.9392,159.6563 155.158,159.2656 Q154.5173,158.9375 154.0642,158.25 Q153.6267,157.5469 153.6267,156.7188 L153.6267,155.9688 Q153.6267,155.1094 154.0173,154.375 Q154.4236,153.625 155.1267,153.2344 Q155.8455,152.8281 156.6423,152.8281 Q157.1111,152.8281 157.533,152.9375 Q157.9548,153.0469 158.3142,153.2656 Z " fill="#000000"/><text fill="#000000" font-family="sans-serif" font-size="11" lengthAdjust="spacing" textLength="23.8423" x="174.283" y="160.5547">View</text><line style="stroke:#181818;stroke-width:0.5;" x1="71" x2="273.9082" y1="170" y2="170"/><text fill="#000000" font-family="sans-serif" font-size="11" lengthAdjust="spacing" textLength="117.686" x="76" y="185.8701">+dice_or_calc: tk.Frame</text><line style="stroke:#181818;stroke-width:1;" x1="71" x2="273.9082" y1="192.6309" y2="192.6309"/><text fill="#000000" font-family="sans-serif" font-size="11" lengthAdjust="spacing" textLength="192.9082" x="76" y="208.501">+update_dice_or_calc(mode: str, *args)</text></g><!--class Controller--><g class="entity" data-entity="Controller" data-source-line="30" data-uid="ent0005" id="entity_Controller"><rect fill="#F1F1F1" height="58.6309" rx="2.5" ry="2.5" style="stroke:#181818;stroke-width:0.5;" width="75.6846" x="134.5" y="7"/><ellipse cx="147.5" cy="21" fill="#ADD1B2" rx="9" ry="9" style="stroke:#181818;stroke-width:1;"/><path d="M149.0313,18.2656 Q149.125,18.125 149.25,18.0625 Q149.375,17.9844 149.5156,17.9844 Q149.75,17.9844 149.9063,18.1563 Q150.0625,18.3281 150.0625,18.7188 L150.0625,19.6563 Q150.0625,20.0469 149.9063,20.2188 Q149.75,20.3906 149.5156,20.3906 Q149.2969,20.3906 149.1563,20.2656 Q149.0156,20.1406 148.9531,19.8125 Q148.9219,19.5781 148.8125,19.4531 Q148.5938,19.2188 148.1875,19.0781 Q147.7969,18.9219 147.4063,18.9219 Q146.9063,18.9219 146.4844,19.1406 Q146.0781,19.3594 145.75,19.8438 Q145.4375,20.3281 145.4375,20.9844 L145.4375,21.7031 Q145.4375,22.5 146.0156,23.0313 Q146.5938,23.5625 147.625,23.5625 Q148.2344,23.5625 148.6563,23.3906 Q148.9063,23.2969 149.1875,23.0156 Q149.3594,22.8438 149.4531,22.7969 Q149.5469,22.7344 149.6719,22.7344 Q149.8906,22.7344 150.0625,22.9063 Q150.2344,23.0781 150.2344,23.2969 Q150.2344,23.5156 150,23.7813 Q149.6719,24.1563 149.1563,24.375 Q148.4688,24.6563 147.625,24.6563 Q146.6563,24.6563 145.875,24.2656 Q145.2344,23.9375 144.7813,23.25 Q144.3438,22.5469 144.3438,21.7188 L144.3438,20.9688 Q144.3438,20.1094 144.7344,19.375 Q145.1406,18.625 145.8438,18.2344 Q146.5625,17.8281 147.3594,17.8281 Q147.8281,17.8281 148.25,17.9375 Q148.6719,18.0469 149.0313,18.2656 Z " fill="#000000"/><text fill="#000000" font-family="sans-serif" font-size="11" lengthAdjust="spacing" textLength="47.6846" x="159.5" y="25.5547">Controller</text><line style="stroke:#181818;stroke-width:0.5;" x1="135.5" x2="209.1846" y1="35" y2="35"/><line style="stroke:#181818;stroke-width:1;" x1="135.5" x2="209.1846" y1="43" y2="43"/><text fill="#000000" font-family="sans-serif" font-size="11" lengthAdjust="spacing" textLength="47.9854" x="140.5" y="58.8701">+refresh()</text></g><!--reverse link View to DiceCanvas--><g class="link" data-entity-1="View" data-entity-2="DiceCanvas" data-source-line="35" data-uid="lnk6" id="link_View_DiceCanvas"><path codeLine="35" d="M172.5,227.32 C172.5,248.8 172.5,264.91 172.5,290.82" fill="none" id="View-backto-DiceCanvas" style="stroke:#181818;stroke-width:1;"/><polygon fill="#181818" points="172.5,215.32,168.5,221.32,172.5,227.32,176.5,221.32,172.5,215.32" style="stroke:#181818;stroke-width:1;"/><text fill="#000000" font-family="sans-serif" font-size="11" lengthAdjust="spacing" textLength="122.8906" x="173.5" y="257.8701">dice_or_calc (dice mode)</text></g><!--reverse link DiceCanvas to DiceRow--><g class="link" data-entity-1="DiceCanvas" data-entity-2="DiceRow" data-source-line="36" data-uid="lnk7" id="link_DiceCanvas_DiceRow"><path codeLine="36" d="M172.5,449.16 C172.5,473.91 172.5,489.27 172.5,512.72" fill="none" id="DiceCanvas-backto-DiceRow" style="stroke:#181818;stroke-width:1;"/><polygon fill="#181818" points="172.5,437.16,168.5,443.16,172.5,449.16,176.5,443.16,172.5,437.16" style="stroke:#181818;stroke-width:1;"/><text fill="#000000" font-family="sans-serif" font-size="11" lengthAdjust="spacing" textLength="188.9282" x="173.5" y="479.8701">creates one per row in place_widgets()</text></g><!--link Controller to View--><g class="link" data-entity-1="Controller" data-entity-2="View" data-source-line="37" data-uid="lnk8" id="link_Controller_View"><path codeLine="37" d="M172.5,66.17 C172.5,88.09 172.5,112.43 172.5,135.9" fill="none" id="Controller-to-View" style="stroke:#181818;stroke-width:1;"/><polygon fill="#181818" points="172.5,141.9,176.5,132.9,172.5,136.9,168.5,132.9,172.5,141.9" style="stroke:#181818;stroke-width:1;"/><text fill="#000000" font-family="sans-serif" font-size="11" lengthAdjust="spacing" textLength="177.1763" x="173.5" y="108.8701">calls update_dice_or_calc("dice", ...)</text></g><!--SRC=[VL9DRy8m3BttLrWxjQn5uzh3f8a9YSiq3Max81IPra14QAh4m3x_-vAqGDaGjyRl-TdlkNOjgneDRg1GQEq3iv7pBTEuqDL4VXBSHVP8AMc1MyKZNN701eCe2ctmA0iQOhL32ryHm2sKhY1sgAmmUczpKDBobBUrecdub1NFKbWeZGpVyAGhcir2On5KSk1rln4CrGzX2wELcgDnaCCcXsU0tw_33OXpHMBXV5336VbFXsTP80aXAyb2nCuvewp87CajDxtYQfO4aLgXO-nbkIIsSHBzT0DwqVk_wRGIFeq0E5bVpu_9EAJDvyAc6xHC9Ypu5aQc5vNJYxBDmeKXPF9sukIqckVB3IufJeBwyqgp7ll2oT6hf3CxseW2LN6AwxJmjYxza2ujtkZIHMlPfD13ixITh8Rk0FvWP89-As9eOSYkcb33y5wMTN-y_6mFYFqB_9Wawh0EJVuOUMlVWiiNQZVF6NVP_3jZPwCiks-iksPKobuqT-DVDodq-_qa-WK0]--></g></svg>