<svg xmlns="http://www.w3.org/2000/svg" xmlns:xlink="http://www.w3.org/1999/xlink" contentStyleType="text/css" data-diagram-type="CLASS" height="426px" preserveAspectRatio="none" style="width:370px;height:426px;background:#FFFFFF;" version="1.1" viewBox="0 0 370 426" width="370px" zoomAndPan="magnify"><defs/><g><!--class DiceRow--><g class="entity" data-entity="DiceRow" data-source-line="4" data-uid="ent0002" id="entity_DiceRow"><rect fill="#F1F1F1" height="131.7852" rx="2.5" ry="2.5" style="stroke:#181818;stroke-width:0.5;" width="330.624" x="7" y="156"/><ellipse cx="146.5566" cy="170" fill="#ADD1B2" rx="9" ry="9" style="stroke:#181818;stroke-width:1;"/><path d="M148.0879,167.2656 Q148.1816,167.125 148.3066,167.0625 Q148.4316,166.9844 148.5723,166.9844 Q148.8066,166.9844 148.9629,167.1563 Q149.1191,167.3281 149.1191,167.7188 L149.1191,168.6563 Q149.1191,169.0469 148.9629,169.2188 Q148.8066,169.3906 148.5723,169.3906 Q148.3535,169.3906 148.2129,169.2656 Q148.0723,169.1406 148.0098,168.8125 Q147.9785,168.5781 147.8691,168.4531 Q147.6504,168.2188 147.2441,168.0781 Q146.8535,167.9219 146.4629,167.9219 Q145.9629,167.9219 145.541,168.1406 Q145.1348,168.3594 144.8066,168.8438 Q144.4941,169.3281 144.4941,169.9844 L144.4941,170.7031 Q144.4941,171.5 145.0723,172.0313 Q145.6504,172.5625 146.6816,172.5625 Q147.291,172.5625 147.7129,172.3906 Q147.9629,172.2969 148.2441,172.0156 Q148.416,171.8438 148.5098,171.7969 Q148.6035,171.7344 148.7285,171.7344 Q148.9473,171.7344 149.1191,171.9063 Q149.291,172.0781 149.291,172.2969 Q149.291,172.5156 149.0566,172.7813 Q148.7285,173.1563 148.2129,173.375 Q147.5254,173.6563 146.6816,173.6563 Q145.7129,173.6563 144.9316,173.2656 Q144.291,172.9375 143.8379,172.25 Q143.4004,171.5469 143.4004,170.7188 L143.4004,169.9688 Q143.4004,169.1094 143.791,168.375 Q144.1973,167.625 144.9004,167.2344 Q145.6191,166.8281 146.416,166.8281 Q146.8848,166.8281 147.3066,166.9375 Q147.7285,167.0469 148.0879,167.2656 Z " fill="#000000"/><text fill="#000000" font-family="sans-serif" font-size="11" lengthAdjust="spacing" textLength="44.0107" x="164.0566" y="174.5547">DiceRow</text><line style="stroke:#181818;stroke-width:0.5;" x1="8" x2="336.624" y1="184" y2="184"/><text fill="#000000" font-family="sans-serif" font-size="11" lengthAdjust="spacing" textLength="89.5684" x="13" y="199.8701">+dice_vals: list[int]</text><text fill="#000000" font-family="sans-serif" font-size="11" lengthAdjust="spacing" textLength="127.0854" x="13" y="214.501">+row_val: float | int | None</text><text fill="#000000" font-family="sans-serif" font-size="11" lengthAdjust="spacing" textLength="172.5356" x="13" y="229.1318">+row_image: tk.PhotoImage | None</text><line style="stroke:#181818;stroke-width:1;" x1="8" x2="336.624" y1="235.8926" y2="235.8926"/><text fill="#000000" font-family="sans-serif" font-size="11" lengthAdjust="spacing" textLength="318.624" x="13" y="251.7627">+__init__(master: tk.Widget, dice_vals: list[int], row_val: float | int)</text><text fill="#000000" font-family="sans-serif" font-size="11" lengthAdjust="spacing" textLength="68.1646" x="13" y="266.3936">+create_row()</text><text fill="#000000" font-family="sans-serif" font-size="11" lengthAdjust="spacing" textLength="170.8921" x="13" y="281.0244">+dice_row_image(): tk.PhotoImage</text></g><!--class DiceCanvas--><g class="entity" data-entity="DiceCanvas" data-source-line="14" data-uid="ent0003" id="entity_DiceCanvas"><rect fill="#F1F1F1" height="73.2617" rx="2.5" ry="2.5" style="stroke:#181818;stroke-width:0.5;" width="151.686" x="96.5" y="7"/><ellipse cx="138.9419" cy="21" fill="#ADD1B2" rx="9" ry="9" style="stroke:#181818;stroke-width:1;"/><path d="M140.4731,18.2656 Q140.5669,18.125 140.6919,18.0625 Q140.8169,17.9844 140.9575,17.9844 Q141.1919,17.9844 141.3481,18.1563 Q141.5044,18.3281 141.5044,18.7188 L141.5044,19.6563 Q141.5044,20.0469 141.3481,20.2188 Q141.1919,20.3906 140.9575,20.3906 Q140.7388,20.3906 140.5981,20.2656 Q140.4575,20.1406 140.395,19.8125 Q140.3638,19.5781 140.2544,19.4531 Q140.0356,19.2188 139.6294,19.0781 Q139.2388,18.9219 138.8481,18.9219 Q138.3481,18.9219 137.9263,19.1406 Q137.52,19.3594 137.1919,19.8438 Q136.8794,20.3281 136.8794,20.9844 L136.8794,21.7031 Q136.8794,22.5 137.4575,23.0313 Q138.0356,23.5625 139.0669,23.5625 Q139.6763,23.5625 140.0981,23.3906 Q140.3481,23.2969 140.6294,23.0156 Q140.8013,22.8438 140.895,22.7969 Q140.9888,22.7344 141.1138,22.7344 Q141.3325,22.7344 141.5044,22.9063 Q141.6763,23.0781 141.6763,23.2969 Q141.6763,23.5156 141.4419,23.7813 Q141.1138,24.1563 140.5981,24.375 Q139.9106,24.6563 139.0669,24.6563 Q138.0981,24.6563 137.3169,24.2656 Q136.6763,23.9375 136.2231,23.25 Q135.7856,22.5469 135.7856,21.7188 L135.7856,20.9688 Q135.7856,20.1094 136.1763,19.375 Q136.5825,18.625 137.2856,18.2344 Q138.0044,17.8281 138.8013,17.8281 Q139.27,17.8281 139.6919,17.9375 Q140.1138,18.0469 140.4731,18.2656 Z " fill="#000000"/><text fill="#000000" font-family="sans-serif" font-size="11" lengthAdjust="spacing" textLength="59.3022" x="156.4419" y="25.5547">DiceCanvas</text><line style="stroke:#181818;stroke-width:0.5;" x1="97.5" x2="247.186" y1="35" y2="35"/><text fill="#000000" font-family="sans-serif" font-size="11" lengthAdjust="spacing" textLength="139.686" x="102.5" y="50.8701">+scrollable_frame: ttk.Frame</text><line style="stroke:#181818;stroke-width:1;" x1="97.5" x2="247.186" y1="57.6309" y2="57.6309"/><text fill="#000000" font-family="sans-serif" font-size="11" lengthAdjust="spacing" textLength="83.4614" x="102.5" y="73.501">+place_widgets()</text></g><g class="entity" data-entity="get_dice_image" data-source-line="20" data-uid="ent0004" id="entity_get_dice_image"><rect fill="#F1F1F1" height="55.8926" rx="2.5" ry="2.5" style="stroke:#181818;stroke-width:0.5;" width="228.7559" x="58" y="364"/><text fill="#000000" font-family="sans-serif" font-size="11" font-style="italic" lengthAdjust="spacing" textLength="50.7622" x="146.9968" y="375.8701">&#171;function&#187;</text><text fill="#000000" font-family="sans-serif" font-size="11" lengthAdjust="spacing" textLength="77.666" x="133.5449" y="392.501">get_dice_image</text><line style="stroke:#181818;stroke-width:0.5;" x1="59" x2="285.7559" y1="397.2617" y2="397.2617"/><text fill="#000000" font-family="sans-serif" font-size="11" lengthAdjust="spacing" textLength="216.7559" x="64" y="413.1318">+get_dice_image(number: int): Image.Image</text></g><!--reverse link DiceCanvas to DiceRow--><g class="link" data-entity-1="DiceCanvas" data-entity-2="DiceRow" data-source-line="24" data-uid="lnk5" id="link_DiceCanvas_DiceRow"><path codeLine="24" d="M172.5,92.22 C172.5,113.87 172.5,130.17 172.5,155.7" fill="none" id="DiceCanvas-backto-DiceRow" style="stroke:#181818;stroke-width:1;"/><polygon fill="#181818" points="172.5,80.22,168.5,86.22,172.5,92.22,176.5,86.22,172.5,80.22" style="stroke:#181818;stroke-width:1;"/><text fill="#000000" font-family="sans-serif" font-size="11" lengthAdjust="spacing" textLength="188.9282" x="173.5" y="122.8701">creates one per row in place_widgets()</text></g><!--link DiceRow to get_dice_image--><g class="link" data-entity-1="DiceRow" data-entity-2="get_dice_image" data-source-line="25" data-uid="lnk6" id="link_DiceRow_get_dice_image"><path codeLine="25" d="M172.5,288.43 C172.5,314.6 172.5,337.3 172.5,357.66" fill="none" id="DiceRow-to-get_dice_image" style="stroke:#181818;stroke-width:1;stroke-dasharray:7,7;"/><polygon fill="#181818" points="172.5,363.66,176.5,354.66,172.5,358.66,168.5,354.66,172.5,363.66" style="stroke:#181818;stroke-width:1;"/><text fill="#000000" font-family="sans-serif" font-size="11" lengthAdjust="spacing" textLength="125.3345" x="173.5" y="330.8701">uses in dice_row_image()</text></g><!--SRC=[RP5FJyCm3CNl_HG-Th1Mx5fDan1eqYu8mO43Gf6RfICiJQR4NIN-V7USQ7IZswLAucU_ttF3LjiTUcn16WpXbiZhkYEraiu-wqy5DraO96lLO6TewIobscoMPQaDxhLKJww7hmpW6jPy4tiqeGAZ0xrgIs-fu5qVtojeZ4E2R-0AVn-SLKDTjxXH5T2sV7ntv5RnUjGKHH8AeQqc8V8M0ocVv2zwlL4qlUW-lMWzIREaLqXAi22V7F47b7moWib-JbFVeTrZE0GFqZjZi3PADBom68DRb_5uPDyPvFbzeWrioUDS_Q4a0J-8P9wCOJvlEYj9ExjO70p-AtBRjNLC7xDKaEZAWV64xgeeXbzK7G87u8t2Jlcu6fvmnlNNK9QBCLa5NU01t3JULVOB]--></g></svg>