<svg xmlns="http://www.w3.org/2000/svg" xmlns:xlink="http://www.w3.org/1999/xlink" contentStyleType="text/css" data-diagram-type="CLASS" height="458px" preserveAspectRatio="none" style="width:778px;height:458px;background:#FFFFFF;" version="1.1" viewBox="0 0 778 458" width="778px" zoomAndPan="magnify"><defs/><g><!--class DicetributionSettingsFrame--><g class="entity" data-entity="DicetributionSettingsFrame" data-source-line="4" data-uid="ent0002" id="entity_DicetributionSettingsFrame"><rect fill="#F1F1F1" height="117.1543" rx="2.5" ry="2.5" style="stroke:#181818;stroke-width:0.5;" width="559.5132" x="104.5" y="156"/><ellipse cx="314.1736" cy="170" fill="#ADD1B2" rx="9" ry="9" style="stroke:#181818;stroke-width:1;"/><path d="M315.7048,167.2656 Q315.7986,167.125 315.9236,167.0625 Q316.0486,166.9844 316.1892,166.9844 Q316.4236,166.9844 316.5798,167.1563 Q316.7361,167.3281 316.7361,167.7188 L316.7361,168.6563 Q316.7361,169.0469 316.5798,169.2188 Q316.4236,169.3906 316.1892,169.3906 Q315.9705,169.3906 315.8298,169.2656 Q315.6892,169.1406 315.6267,168.8125 Q315.5955,168.5781 315.4861,168.4531 Q315.2673,168.2188 314.8611,168.0781 Q314.4705,167.9219 314.0798,167.9219 Q313.5798,167.9219 313.158,168.1406 Q312.7517,168.3594 312.4236,168.8438 Q312.1111,169.3281 312.1111,169.9844 L312.1111,170.7031 Q312.1111,171.5 312.6892,172.0313 Q313.2673,172.5625 314.2986,172.5625 Q314.908,172.5625 315.3298,172.3906 Q315.5798,172.2969 315.8611,172.0156 Q316.033,171.8438 316.1267,171.7969 Q316.2205,171.7344 316.3455,171.7344 Q316.5642,171.7344 316.7361,171.9063 Q316.908,172.0781 316.908,172.2969 Q316.908,172.5156 316.6736,172.7813 Q316.3455,173.1563 315.8298,173.375 Q315.1423,173.6563 314.2986,173.6563 Q313.3298,173.6563 312.5486,173.2656 Q311.908,172.9375 311.4548,172.25 Q311.0173,171.5469 311.0173,170.7188 L311.0173,169.9688 Q311.0173,169.1094 311.408,168.375 Q311.8142,167.625 312.5173,167.2344 Q313.2361,166.8281 314.033,166.8281 Q314.5017,166.8281 314.9236,166.9375 Q315.3455,167.0469 315.7048,167.2656 Z " fill="#000000"/><text fill="#000000" font-family="sans-serif" font-size="11" lengthAdjust="spacing" textLength="132.666" x="331.6736" y="174.5547">DicetributionSettingsFrame</text><line style="stroke:#181818;stroke-width:0.5;" x1="105.5" x2="663.0132" y1="184" y2="184"/><text fill="#000000" font-family="sans-serif" font-size="11" lengthAdjust="spacing" textLength="104.2798" x="110.5" y="199.8701">+on_change: callable</text><text fill="#000000" font-family="sans-serif" font-size="11" lengthAdjust="spacing" textLength="96.916" x="110.5" y="214.501">+var: tk.BooleanVar</text><text fill="#000000" font-family="sans-serif" font-size="11" lengthAdjust="spacing" textLength="117.7021" x="110.5" y="229.1318">+check: ttk.Checkbutton</text><line style="stroke:#181818;stroke-width:1;" x1="105.5" x2="663.0132" y1="235.8926" y2="235.8926"/><text fill="#000000" font-family="sans-serif" font-size="11" lengthAdjust="spacing" textLength="547.5132" x="110.5" y="251.7627">+__init__(master: tk.Widget, parameters: dict[str, Parameter], on_change: callable, success_vals_required: bool)</text><text fill="#000000" font-family="sans-serif" font-size="11" lengthAdjust="spacing" textLength="104.8921" x="110.5" y="266.3936">+on_button_change()</text></g><!--class DiceChoices--><g class="entity" data-entity="DiceChoices" data-source-line="13" data-uid="ent0003" id="entity_DiceChoices"><rect fill="#F1F1F1" height="102.5234" rx="2.5" ry="2.5" style="stroke:#181818;stroke-width:0.5;" width="172.5098" x="7" y="349"/><ellipse cx="58.6318" cy="363" fill="#ADD1B2" rx="9" ry="9" style="stroke:#181818;stroke-width:1;"/><path d="M60.1631,360.2656 Q60.2568,360.125 60.3818,360.0625 Q60.5068,359.9844 60.6475,359.9844 Q60.8818,359.9844 61.0381,360.1563 Q61.1943,360.3281 61.1943,360.7188 L61.1943,361.6563 Q61.1943,362.0469 61.0381,362.2188 Q60.8818,362.3906 60.6475,362.3906 Q60.4287,362.3906 60.2881,362.2656 Q60.1475,362.1406 60.085,361.8125 Q60.0537,361.5781 59.9443,361.4531 Q59.7256,361.2188 59.3193,361.0781 Q58.9287,360.9219 58.5381,360.9219 Q58.0381,360.9219 57.6162,361.1406 Q57.21,361.3594 56.8818,361.8438 Q56.5693,362.3281 56.5693,362.9844 L56.5693,363.7031 Q56.5693,364.5 57.1475,365.0313 Q57.7256,365.5625 58.7568,365.5625 Q59.3662,365.5625 59.7881,365.3906 Q60.0381,365.2969 60.3193,365.0156 Q60.4912,364.8438 60.585,364.7969 Q60.6787,364.7344 60.8037,364.7344 Q61.0225,364.7344 61.1943,364.9063 Q61.3662,365.0781 61.3662,365.2969 Q61.3662,365.5156 61.1318,365.7813 Q60.8037,366.1563 60.2881,366.375 Q59.6006,366.6563 58.7568,366.6563 Q57.7881,366.6563 57.0068,366.2656 Q56.3662,365.9375 55.9131,365.25 Q55.4756,364.5469 55.4756,363.7188 L55.4756,362.9688 Q55.4756,362.1094 55.8662,361.375 Q56.2725,360.625 56.9756,360.2344 Q57.6943,359.8281 58.4912,359.8281 Q58.96,359.8281 59.3818,359.9375 Q59.8037,360.0469 60.1631,360.2656 Z " fill="#000000"/><text fill="#000000" font-family="sans-serif" font-size="11" lengthAdjust="spacing" textLength="61.7461" x="76.1318" y="367.5547">DiceChoices</text><line style="stroke:#181818;stroke-width:0.5;" x1="8" x2="178.5098" y1="377" y2="377"/><text fill="#000000" font-family="sans-serif" font-size="11" lengthAdjust="spacing" textLength="82.2368" x="13" y="392.8701">+states: list[bool]</text><text fill="#000000" font-family="sans-serif" font-size="11" lengthAdjust="spacing" textLength="99.3599" x="13" y="407.501">+labels: list[tk.Label]</text><line style="stroke:#181818;stroke-width:1;" x1="8" x2="178.5098" y1="414.2617" y2="414.2617"/><text fill="#000000" font-family="sans-serif" font-size="11" lengthAdjust="spacing" textLength="160.5098" x="13" y="430.1318">+toggle(index: int, callback: bool)</text><text fill="#000000" font-family="sans-serif" font-size="11" lengthAdjust="spacing" textLength="113.416" x="13" y="444.7627">+get_selected(): list[int]</text></g><!--class DistributionSettingsFrame--><g class="entity" data-entity="DistributionSettingsFrame" data-source-line="21" data-uid="ent0004" id="entity_DistributionSettingsFrame"><rect fill="#F1F1F1" height="73.2617" rx="2.5" ry="2.5" style="stroke:#181818;stroke-width:0.5;" width="338.8042" x="215" y="364"/><ellipse cx="317.3779" cy="378" fill="#ADD1B2" rx="9" ry="9" style="stroke:#181818;stroke-width:1;"/><path d="M318.9092,375.2656 Q319.0029,375.125 319.1279,375.0625 Q319.2529,374.9844 319.3936,374.9844 Q319.6279,374.9844 319.7842,375.1563 Q319.9404,375.3281 319.9404,375.7188 L319.9404,376.6563 Q319.9404,377.0469 319.7842,377.2188 Q319.6279,377.3906 319.3936,377.3906 Q319.1748,377.3906 319.0342,377.2656 Q318.8936,377.1406 318.8311,376.8125 Q318.7998,376.5781 318.6904,376.4531 Q318.4717,376.2188 318.0654,376.0781 Q317.6748,375.9219 317.2842,375.9219 Q316.7842,375.9219 316.3623,376.1406 Q315.9561,376.3594 315.6279,376.8438 Q315.3154,377.3281 315.3154,377.9844 L315.3154,378.7031 Q315.3154,379.5 315.8936,380.0313 Q316.4717,380.5625 317.5029,380.5625 Q318.1123,380.5625 318.5342,380.3906 Q318.7842,380.2969 319.0654,380.0156 Q319.2373,379.8438 319.3311,379.7969 Q319.4248,379.7344 319.5498,379.7344 Q319.7686,379.7344 319.9404,379.9063 Q320.1123,380.0781 320.1123,380.2969 Q320.1123,380.5156 319.8779,380.7813 Q319.5498,381.1563 319.0342,381.375 Q318.3467,381.6563 317.5029,381.6563 Q316.5342,381.6563 315.7529,381.2656 Q315.1123,380.9375 314.6592,380.25 Q314.2217,379.5469 314.2217,378.7188 L314.2217,377.9688 Q314.2217,377.1094 314.6123,376.375 Q315.0186,375.625 315.7217,375.2344 Q316.4404,374.8281 317.2373,374.8281 Q317.7061,374.8281 318.1279,374.9375 Q318.5498,375.0469 318.9092,375.2656 Z " fill="#000000"/><text fill="#000000" font-family="sans-serif" font-size="11" lengthAdjust="spacing" textLength="126.5483" x="334.8779" y="382.5547">DistributionSettingsFrame</text><line style="stroke:#181818;stroke-width:0.5;" x1="216" x2="552.8042" y1="392" y2="392"/><text fill="#000000" font-family="sans-serif" font-size="11" lengthAdjust="spacing" textLength="104.2798" x="221" y="407.8701">+on_change: callable</text><line style="stroke:#181818;stroke-width:1;" x1="216" x2="552.8042" y1="414.6309" y2="414.6309"/><text fill="#000000" font-family="sans-serif" font-size="11" lengthAdjust="spacing" textLength="326.8042" x="221" y="430.501">+__init__(master: tk.Widget, parameters: dict, on_change: callable)</text></g><!--class View--><g class="entity" data-entity="View" data-source-line="27" data-uid="ent0005" id="entity_View"><rect fill="#F1F1F1" height="73.2617" rx="2.5" ry="2.5" style="stroke:#181818;stroke-width:0.5;" width="211.606" x="278.5" y="7"/><ellipse cx="368.6318" cy="21" fill="#ADD1B2" rx="9" ry="9" style="stroke:#181818;stroke-width:1;"/><path d="M370.1631,18.2656 Q370.2568,18.125 370.3818,18.0625 Q370.5068,17.9844 370.6475,17.9844 Q370.8818,17.9844 371.0381,18.1563 Q371.1943,18.3281 371.1943,18.7188 L371.1943,19.6563 Q371.1943,20.0469 371.0381,20.2188 Q370.8818,20.3906 370.6475,20.3906 Q370.4287,20.3906 370.2881,20.2656 Q370.1475,20.1406 370.085,19.8125 Q370.0537,19.5781 369.9443,19.4531 Q369.7256,19.2188 369.3193,19.0781 Q368.9287,18.9219 368.5381,18.9219 Q368.0381,18.9219 367.6162,19.1406 Q367.21,19.3594 366.8818,19.8438 Q366.5693,20.3281 366.5693,20.9844 L366.5693,21.7031 Q366.5693,22.5 367.1475,23.0313 Q367.7256,23.5625 368.7568,23.5625 Q369.3662,23.5625 369.7881,23.3906 Q370.0381,23.2969 370.3193,23.0156 Q370.4912,22.8438 370.585,22.7969 Q370.6787,22.7344 370.8037,22.7344 Q371.0225,22.7344 371.1943,22.9063 Q371.3662,23.0781 371.3662,23.2969 Q371.3662,23.5156 371.1318,23.7813 Q370.8037,24.1563 370.2881,24.375 Q369.6006,24.6563 368.7568,24.6563 Q367.7881,24.6563 367.0068,24.2656 Q366.3662,23.9375 365.9131,23.25 Q365.4756,22.5469 365.4756,21.7188 L365.4756,20.9688 Q365.4756,20.1094 365.8662,19.375 Q366.2725,18.625 366.9756,18.2344 Q367.6943,17.8281 368.4912,17.8281 Q368.96,17.8281 369.3818,17.9375 Q369.8037,18.0469 370.1631,18.2656 Z " fill="#000000"/><text fill="#000000" font-family="sans-serif" font-size="11" lengthAdjust="spacing" textLength="23.8423" x="386.1318" y="25.5547">View</text><line style="stroke:#181818;stroke-width:0.5;" x1="279.5" x2="489.106" y1="35" y2="35"/><text fill="#000000" font-family="sans-serif" font-size="11" lengthAdjust="spacing" textLength="93.8384" x="284.5" y="50.8701">+settings: tk.Frame</text><line style="stroke:#181818;stroke-width:1;" x1="279.5" x2="489.106" y1="57.6309" y2="57.6309"/><text fill="#000000" font-family="sans-serif" font-size="11" lengthAdjust="spacing" textLength="199.606" x="284.5" y="73.501">+set_settings(mode: str, *args, **kwargs)</text></g><!--class Controller--><g class="entity" data-entity="Controller" data-source-line="33" data-uid="ent0006" id="entity_Controller"><rect fill="#F1F1F1" height="58.6309" rx="2.5" ry="2.5" style="stroke:#181818;stroke-width:0.5;" width="181.6514" x="589.5" y="371"/><ellipse cx="652.7334" cy="385" fill="#ADD1B2" rx="9" ry="9" style="stroke:#181818;stroke-width:1;"/><path d="M654.2646,382.2656 Q654.3584,382.125 654.4834,382.0625 Q654.6084,381.9844 654.749,381.9844 Q654.9834,381.9844 655.1396,382.1563 Q655.2959,382.3281 655.2959,382.7188 L655.2959,383.6563 Q655.2959,384.0469 655.1396,384.2188 Q654.9834,384.3906 654.749,384.3906 Q654.5303,384.3906 654.3896,384.2656 Q654.249,384.1406 654.1865,383.8125 Q654.1553,383.5781 654.0459,383.4531 Q653.8271,383.2188 653.4209,383.0781 Q653.0303,382.9219 652.6396,382.9219 Q652.1396,382.9219 651.7178,383.1406 Q651.3115,383.3594 650.9834,383.8438 Q650.6709,384.3281 650.6709,384.9844 L650.6709,385.7031 Q650.6709,386.5 651.249,387.0313 Q651.8271,387.5625 652.8584,387.5625 Q653.4678,387.5625 653.8896,387.3906 Q654.1396,387.2969 654.4209,387.0156 Q654.5928,386.8438 654.6865,386.7969 Q654.7803,386.7344 654.9053,386.7344 Q655.124,386.7344 655.2959,386.9063 Q655.4678,387.0781 655.4678,387.2969 Q655.4678,387.5156 655.2334,387.7813 Q654.9053,388.1563 654.3896,388.375 Q653.7021,388.6563 652.8584,388.6563 Q651.8896,388.6563 651.1084,388.2656 Q650.4678,387.9375 650.0146,387.25 Q649.5771,386.5469 649.5771,385.7188 L649.5771,384.9688 Q649.5771,384.1094 649.9678,383.375 Q650.374,382.625 651.0771,382.2344 Q651.7959,381.8281 652.5928,381.8281 Q653.0615,381.8281 653.4834,381.9375 Q653.9053,382.0469 654.2646,382.2656 Z " fill="#000000"/><text fill="#000000" font-family="sans-serif" font-size="11" lengthAdjust="spacing" textLength="47.6846" x="670.2334" y="389.5547">Controller</text><line style="stroke:#181818;stroke-width:0.5;" x1="590.5" x2="770.1514" y1="399" y2="399"/><line style="stroke:#181818;stroke-width:1;" x1="590.5" x2="770.1514" y1="407" y2="407"/><text fill="#000000" font-family="sans-serif" font-size="11" lengthAdjust="spacing" textLength="169.6514" x="595.5" y="422.8701">+refresh(success_vals, show_real)</text></g><!--reverse link View to DicetributionSettingsFrame--><g class="link" data-entity-1="View" data-entity-2="DicetributionSettingsFrame" data-source-line="38" data-uid="lnk7" id="link_View_DicetributionSettingsFrame"><path codeLine="38" d="M384.5,92.34 C384.5,114.24 384.5,130.75 384.5,155.77" fill="none" id="View-backto-DicetributionSettingsFrame" style="stroke:#181818;stroke-width:1;"/><polygon fill="#181818" points="384.5,80.34,380.5,86.34,384.5,92.34,388.5,86.34,384.5,80.34" style="stroke:#181818;stroke-width:1;"/><text fill="#000000" font-family="sans-serif" font-size="11" lengthAdjust="spacing" textLength="100.8691" x="385.5" y="122.8701">settings (Dice mode)</text></g><!--reverse link DicetributionSettingsFrame to DiceChoices--><g class="link" data-entity-1="DicetributionSettingsFrame" data-entity-2="DiceChoices" data-source-line="39" data-uid="lnk8" id="link_DicetributionSettingsFrame_DiceChoices"><path codeLine="39" d="M249.5524,278.9056 C232.1924,288.2456 225.42,292.6 209.5,303 C188.78,316.54 167.55,333.23 149.01,348.91" fill="none" id="DicetributionSettingsFrame-backto-DiceChoices" style="stroke:#181818;stroke-width:1;"/><polygon fill="#181818" points="260.12,273.22,252.941,272.5402,249.5524,278.9056,256.7314,279.5853,260.12,273.22" style="stroke:#181818;stroke-width:1;"/><text fill="#000000" font-family="sans-serif" font-size="11" lengthAdjust="spacing" textLength="165.0913" x="210.5" y="315.8701">optional, if success_vals_required</text></g><!--reverse link DicetributionSettingsFrame to DistributionSettingsFrame--><g class="link" data-entity-1="DicetributionSettingsFrame" data-entity-2="DistributionSettingsFrame" data-source-line="40" data-uid="lnk9" id="link_DicetributionSettingsFrame_DistributionSettingsFrame"><path codeLine="40" d="M384.5,285.21 C384.5,314.93 384.5,338.23 384.5,363.94" fill="none" id="DicetributionSettingsFrame-backto-DistributionSettingsFrame" style="stroke:#181818;stroke-width:1;"/><polygon fill="#181818" points="384.5,273.21,380.5,279.21,384.5,285.21,388.5,279.21,384.5,273.21" style="stroke:#181818;stroke-width:1;"/><text fill="#000000" font-family="sans-serif" font-size="11" lengthAdjust="spacing" textLength="73.3691" x="385.5" y="315.8701">always created</text></g><!--link DicetributionSettingsFrame to Controller--><g class="link" data-entity-1="DicetributionSettingsFrame" data-entity-2="Controller" data-source-line="41" data-uid="lnk10" id="link_DicetributionSettingsFrame_Controller"><path codeLine="41" d="M477.34,273.21 C529.56,305.67 587.374,341.6128 629.224,367.6228" fill="none" id="DicetributionSettingsFrame-to-Controller" style="stroke:#181818;stroke-width:1;"/><polygon fill="#181818" points="634.32,370.79,628.7875,362.6419,630.0734,368.1507,624.5646,369.4366,634.32,370.79" style="stroke:#181818;stroke-width:1;"/><text fill="#000000" font-family="sans-serif" font-size="11" lengthAdjust="spacing" textLength="181.5913" x="551.5" y="315.8701">on_change callback triggers refresh()</text></g><!--SRC=[dL9DRzim3BtxL_1ef_QmNdqeq6OeC6270GEwGn4OZCpOGXIf4vbc7zX_7wtOYGzf1lHYIoJVqtiaUMlz2qRSWN78V2yIxNelzDa4_yt-9lYOyQcafGtkdJm6BobtUvjb2GQVhA4ZqYgEHApl-54n17yoW1i8lZ4z-evgCEWShXsb-2l66cJxuI44H-YVCAQmwSbiDQ6PvN1KOWbUKrMLyarZlPMcoNV8GaUAxxRjI4f8MacZN4DhZJopn1A-Jj5LUKbC2RmtXfYRLtJSHFgnjv7Q6jOgh9Wi76MCuBp8_ixzB_kWNnuDiw2GAd2MvNaWMQMmFaPk2gleByDzTJOceUiSvTQtzBC6wzNF876DGplEMjHem-J82BLvCT9fzMekYTynaNVqzs8_PxrvidIOcZBgI7n9pFb9JfQE-NmNMYLBWrjWx5X_Y-rXECs8bxg7CJX7CT6FF94saRZFv_FKwVRXe5D5b_19qgAghkrjVL8B-L06WwOYkuAO2AT5g26y35NeIh2RomlsVpv-Kn-w0_vYC6fBhZDLrTsyM_LvOgVj0eLsdGxrrC0Y-mS0]--></g></svg>