<svg xmlns="http://www.w3.org/2000/svg" xmlns:xlink="http://www.w3.org/1999/xlink" contentStyleType="text/css" data-diagram-type="CLASS" height="398px" preserveAspectRatio="none" style="width:195px;height:398px;background:#FFFFFF;" version="1.1" viewBox="0 0 195 398" width="195px" zoomAndPan="magnify"><defs/><g><!--class Die--><g class="entity" data-entity="Die" data-source-line="4" data-uid="ent0002" id="entity_Die"><rect fill="#F1F1F1" height="87.8926" rx="2.5" ry="2.5" style="stroke:#181818;stroke-width:0.5;" width="64.2822" x="41.5" y="186"/><ellipse cx="63.3996" cy="200" fill="#ADD1B2" rx="9" ry="9" style="stroke:#181818;stroke-width:1;"/><path d="M64.9308,197.2656 Q65.0246,197.125 65.1496,197.0625 Q65.2746,196.9844 65.4152,196.9844 Q65.6496,196.9844 65.8058,197.1563 Q65.9621,197.3281 65.9621,197.7188 L65.9621,198.6563 Q65.9621,199.0469 65.8058,199.2188 Q65.6496,199.3906 65.4152,199.3906 Q65.1965,199.3906 65.0558,199.2656 Q64.9152,199.1406 64.8527,198.8125 Q64.8215,198.5781 64.7121,198.4531 Q64.4933,198.2188 64.0871,198.0781 Q63.6965,197.9219 63.3058,197.9219 Q62.8058,197.9219 62.384,198.1406 Q61.9777,198.3594 61.6496,198.8438 Q61.3371,199.3281 61.3371,199.9844 L61.3371,200.7031 Q61.3371,201.5 61.9152,202.0313 Q62.4933,202.5625 63.5246,202.5625 Q64.134,202.5625 64.5558,202.3906 Q64.8058,202.2969 65.0871,202.0156 Q65.259,201.8438 65.3527,201.7969 Q65.4465,201.7344 65.5715,201.7344 Q65.7902,201.7344 65.9621,201.9063 Q66.134,202.0781 66.134,202.2969 Q66.134,202.5156 65.8996,202.7813 Q65.5715,203.1563 65.0558,203.375 Q64.3683,203.6563 63.5246,203.6563 Q62.5558,203.6563 61.7746,203.2656 Q61.134,202.9375 60.6808,202.25 Q60.2433,201.5469 60.2433,200.7188 L60.2433,199.9688 Q60.2433,199.1094 60.634,198.375 Q61.0402,197.625 61.7433,197.2344 Q62.4621,196.8281 63.259,196.8281 Q63.7277,196.8281 64.1496,196.9375 Q64.5715,197.0469 64.9308,197.2656 Z " fill="#000000"/><text fill="#000000" font-family="sans-serif" font-size="11" lengthAdjust="spacing" textLength="16.5054" x="77.3773" y="204.5547">Die</text><line style="stroke:#181818;stroke-width:0.5;" x1="42.5" x2="104.7822" y1="214" y2="214"/><text fill="#000000" font-family="sans-serif" font-size="11" lengthAdjust="spacing" textLength="45.5522" x="47.5" y="229.8701">+num: int</text><line style="stroke:#181818;stroke-width:1;" x1="42.5" x2="104.7822" y1="236.6309" y2="236.6309"/><text fill="#000000" font-family="sans-serif" font-size="11" lengthAdjust="spacing" textLength="52.2822" x="47.5" y="252.501">+__init__()</text><text fill="#000000" font-family="sans-serif" font-size="11" lengthAdjust="spacing" textLength="46.1484" x="47.5" y="267.1318">+roll(): int</text></g><!--class AbstractDicetribution--><g class="entity" data-entity="AbstractDicetribution" data-source-line="11" data-uid="ent0003" id="entity_AbstractDicetribution"><rect fill="#F1F1F1" height="102.5234" rx="2.5" ry="2.5" style="stroke:#181818;stroke-width:0.5;" width="133.3545" x="7" y="7"/><ellipse cx="21.7405" cy="21" fill="#A9DCDF" rx="9" ry="9" style="stroke:#181818;stroke-width:1;"/><path d="M22.8811,22.7344 L20.2092,22.7344 L19.9436,23.4063 L20.2092,23.4063 Q20.6155,23.4063 20.7717,23.5625 Q20.9436,23.7031 20.9436,23.9531 Q20.9436,24.1875 20.7717,24.3438 Q20.6155,24.5 20.2092,24.5 L18.7248,24.5 Q18.3342,24.5 18.1623,24.3438 Q17.9905,24.1875 17.9905,23.9531 Q17.9905,23.7031 18.178,23.5469 Q18.3498,23.3906 18.7561,23.4063 L20.4905,19.0938 L19.7717,19.0938 Q19.3655,19.0938 19.1936,18.9375 Q19.0373,18.7813 19.0373,18.5313 Q19.0373,18.2969 19.1936,18.1406 Q19.3655,17.9844 19.7717,17.9844 L22.1467,17.9844 L24.3342,23.4063 Q24.7248,23.4063 24.8498,23.4844 Q25.0998,23.6563 25.0998,23.9531 Q25.0998,24.1875 24.928,24.3438 Q24.7561,24.5 24.3655,24.5 L22.8811,24.5 Q22.4905,24.5 22.3186,24.3438 Q22.1467,24.1875 22.1467,23.9531 Q22.1467,23.7031 22.3186,23.5625 Q22.4905,23.4063 22.8811,23.4063 L23.1467,23.4063 L22.8811,22.7344 Z M22.428,21.625 L21.5373,19.4531 L20.6467,21.625 L22.428,21.625 Z " fill="#000000"/><text fill="#000000" font-family="sans-serif" font-size="11" font-style="italic" lengthAdjust="spacing" textLength="101.4868" x="34.1272" y="25.5547">AbstractDicetribution</text><line style="stroke:#181818;stroke-width:0.5;" x1="8" x2="139.3545" y1="35" y2="35"/><text fill="#000000" font-family="sans-serif" font-size="11" lengthAdjust="spacing" textLength="115.8599" x="13" y="50.8701">+dice_data: list[list[Die]]</text><line style="stroke:#181818;stroke-width:1;" x1="8" x2="139.3545" y1="57.6309" y2="57.6309"/><text fill="#000000" font-family="sans-serif" font-size="11" lengthAdjust="spacing" textLength="121.3545" x="13" y="73.501">+get_dice_row(): list[Die]</text><text fill="#000000" font-family="sans-serif" font-size="11" lengthAdjust="spacing" textLength="106.0898" x="13" y="88.1318">+add_dice_row(n: int)</text><text fill="#000000" font-family="sans-serif" font-size="11" lengthAdjust="spacing" textLength="114.646" x="13" y="102.7627">+set_n_dice_row(n: int)</text></g><g class="entity" data-entity="randint" data-source-line="19" data-uid="ent0004" id="entity_randint"><rect fill="#F1F1F1" height="41.2617" rx="2.5" ry="2.5" style="stroke:#181818;stroke-width:0.5;" width="111.6606" x="17.5" y="350"/><text fill="#000000" font-family="sans-serif" font-size="11" lengthAdjust="spacing" textLength="33.6338" x="56.5134" y="363.8701">randint</text><line style="stroke:#181818;stroke-width:0.5;" x1="18.5" x2="128.1606" y1="368.6309" y2="368.6309"/><text fill="#000000" font-family="sans-serif" font-size="11" lengthAdjust="spacing" textLength="99.6606" x="23.5" y="384.501">random.randint(1, 6)</text></g><!--reverse link AbstractDicetribution to Die--><g class="link" data-entity-1="AbstractDicetribution" data-entity-2="Die" data-source-line="23" data-uid="lnk5" id="link_AbstractDicetribution_Die"><path codeLine="23" d="M73.5,122.36 C73.5,146.44 73.5,162.9 73.5,185.91" fill="none" id="AbstractDicetribution-backto-Die" style="stroke:#181818;stroke-width:1;"/><polygon fill="#181818" points="73.5,110.36,69.5,116.36,73.5,122.36,77.5,116.36,73.5,110.36" style="stroke:#181818;stroke-width:1;"/><text fill="#000000" font-family="sans-serif" font-size="11" lengthAdjust="spacing" textLength="112.5137" x="74.5" y="152.8701">dice_data rows contain</text></g><!--link Die to randint--><g class="link" data-entity-1="Die" data-entity-2="randint" data-source-line="24" data-uid="lnk6" id="link_Die_randint"><path codeLine="24" d="M73.5,274.06 C73.5,299.31 73.5,324.01 73.5,343.65" fill="none" id="Die-to-randint" style="stroke:#181818;stroke-width:1;stroke-dasharray:7,7;"/><polygon fill="#181818" points="73.5,349.65,77.5,340.65,73.5,344.65,69.5,340.65,73.5,349.65" style="stroke:#181818;stroke-width:1;"/><text fill="#000000" font-family="sans-serif" font-size="11" lengthAdjust="spacing" textLength="21.9946" x="74.5" y="316.8701">roll()</text></g><!--SRC=[RP11IyGm48Nl-HLpxAejzkAX1s5X4Jnxb2LCcoZZfXD9fYme_dVJQMaFUWcPzrxoFYPVY3ynuGX3m9oF8edwIVpp4Fc5lZpScxn5d7_3ASXJP56lROtHPt0Y3zy6u1Pu6ZiWbZBKjIhM4fDOMnrqJ364wh1aVep1Fal2GPP-EAxZYGQ_e53azMjNDEjGi8D0MLxrACtdyrxsxiLgBiNhtB9br4NdTfULOO7AvHd_jGfVx3zyeKl8haXACj_ZsAnIrTx1WqR_Px-fQrrFj_EN7Lmpb0qB4flPR9h7hQ9RLsH-0G00]--></g></svg>