<svg xmlns="http://www.w3.org/2000/svg" xmlns:xlink="http://www.w3.org/1999/xlink" contentStyleType="text/css" data-diagram-type="CLASS" height="643.5px" preserveAspectRatio="none" style="width:784px;height:643px;background:#FFFFFF;" version="1.1" viewBox="0 0 784 643" width="784.5px" zoomAndPan="magnify"><defs/><g><!--class DiceChoices--><g class="entity" data-entity="DiceChoices" data-source-line="4" data-uid="ent0002" id="entity_DiceChoices"><rect fill="#F1F1F1" height="219.624" rx="3.75" ry="3.75" style="stroke:#181818;stroke-width:0.75;" width="380.7422" x="174.75" y="213"/><ellipse cx="313.1865" cy="234" fill="#ADD1B2" rx="13.5" ry="13.5" style="stroke:#181818;stroke-width:1.5;"/><path d="M315.4834,229.8984 Q315.624,229.6875 315.8115,229.5938 Q315.999,229.4766 316.21,229.4766 Q316.5615,229.4766 316.7959,229.7344 Q317.0303,229.9922 317.0303,230.5781 L317.0303,231.9844 Q317.0303,232.5703 316.7959,232.8281 Q316.5615,233.0859 316.21,233.0859 Q315.8818,233.0859 315.6709,232.8984 Q315.46,232.7109 315.3662,232.2188 Q315.3193,231.8672 315.1553,231.6797 Q314.8271,231.3281 314.2178,231.1172 Q313.6318,230.8828 313.0459,230.8828 Q312.2959,230.8828 311.6631,231.2109 Q311.0537,231.5391 310.5615,232.2656 Q310.0928,232.9922 310.0928,233.9766 L310.0928,235.0547 Q310.0928,236.25 310.96,237.0469 Q311.8271,237.8438 313.374,237.8438 Q314.2881,237.8438 314.9209,237.5859 Q315.2959,237.4453 315.7178,237.0234 Q315.9756,236.7656 316.1162,236.6953 Q316.2568,236.6016 316.4443,236.6016 Q316.7725,236.6016 317.0303,236.8594 Q317.2881,237.1172 317.2881,237.4453 Q317.2881,237.7734 316.9365,238.1719 Q316.4443,238.7344 315.6709,239.0625 Q314.6396,239.4844 313.374,239.4844 Q311.9209,239.4844 310.749,238.8984 Q309.7881,238.4063 309.1084,237.375 Q308.4521,236.3203 308.4521,235.0781 L308.4521,233.9531 Q308.4521,232.6641 309.0381,231.5625 Q309.6475,230.4375 310.7021,229.8516 Q311.7803,229.2422 312.9756,229.2422 Q313.6787,229.2422 314.3115,229.4063 Q314.9443,229.5703 315.4834,229.8984 Z " fill="#000000"/><text fill="#000000" font-family="sans-serif" font-size="16.5" lengthAdjust="spacing" textLength="92.6191" x="339.4365" y="240.832">DiceChoices</text><line style="stroke:#181818;stroke-width:0.75;" x1="176.25" x2="553.9922" y1="255" y2="255"/><text fill="#000000" font-family="sans-serif" font-size="16.5" lengthAdjust="spacing" textLength="123.3552" x="183.75" y="278.8052">+states: list[bool]</text><text fill="#000000" font-family="sans-serif" font-size="16.5" lengthAdjust="spacing" textLength="149.0398" x="183.75" y="300.7515">+labels: list[tk.Label]</text><text fill="#000000" font-family="sans-serif" font-size="16.5" lengthAdjust="spacing" textLength="156.4197" x="183.75" y="322.6978">+on_change: callable</text><line style="stroke:#181818;stroke-width:1.5;" x1="176.25" x2="553.9922" y1="332.8389" y2="332.8389"/><text fill="#000000" font-family="sans-serif" font-size="16.5" lengthAdjust="spacing" textLength="362.7422" x="183.75" y="356.644">+__init__(master: tk.Widget, on_change: callable)</text><text fill="#000000" font-family="sans-serif" font-size="16.5" lengthAdjust="spacing" textLength="240.7646" x="183.75" y="378.5903">+toggle(index: int, callback: bool)</text><text fill="#000000" font-family="sans-serif" font-size="16.5" lengthAdjust="spacing" textLength="156.4197" x="183.75" y="400.5366">+on_option_change()</text><text fill="#000000" font-family="sans-serif" font-size="16.5" lengthAdjust="spacing" textLength="170.124" x="183.75" y="422.4829">+get_selected(): list[int]</text></g><!--class DicetributionSettingsFrame--><g class="entity" data-entity="DicetributionSettingsFrame" data-source-line="15" data-uid="ent0003" id="entity_DicetributionSettingsFrame"><rect fill="#F1F1F1" height="87.9463" rx="3.75" ry="3.75" style="stroke:#181818;stroke-width:0.75;" width="507.304" x="111.75" y="10.5"/><ellipse cx="260.2775" cy="31.5" fill="#ADD1B2" rx="13.5" ry="13.5" style="stroke:#181818;stroke-width:1.5;"/><path d="M262.5743,27.3984 Q262.715,27.1875 262.9025,27.0938 Q263.09,26.9766 263.3009,26.9766 Q263.6525,26.9766 263.8868,27.2344 Q264.1212,27.4922 264.1212,28.0781 L264.1212,29.4844 Q264.1212,30.0703 263.8868,30.3281 Q263.6525,30.5859 263.3009,30.5859 Q262.9728,30.5859 262.7618,30.3984 Q262.5509,30.2109 262.4572,29.7188 Q262.4103,29.3672 262.2462,29.1797 Q261.9181,28.8281 261.3087,28.6172 Q260.7228,28.3828 260.1368,28.3828 Q259.3868,28.3828 258.754,28.7109 Q258.1447,29.0391 257.6525,29.7656 Q257.1837,30.4922 257.1837,31.4766 L257.1837,32.5547 Q257.1837,33.75 258.0509,34.5469 Q258.9181,35.3438 260.465,35.3438 Q261.379,35.3438 262.0118,35.0859 Q262.3868,34.9453 262.8087,34.5234 Q263.0665,34.2656 263.2072,34.1953 Q263.3478,34.1016 263.5353,34.1016 Q263.8634,34.1016 264.1212,34.3594 Q264.379,34.6172 264.379,34.9453 Q264.379,35.2734 264.0275,35.6719 Q263.5353,36.2344 262.7618,36.5625 Q261.7306,36.9844 260.465,36.9844 Q259.0118,36.9844 257.84,36.3984 Q256.879,35.9063 256.1993,34.875 Q255.5431,33.8203 255.5431,32.5781 L255.5431,31.4531 Q255.5431,30.1641 256.129,29.0625 Q256.7384,27.9375 257.7931,27.3516 Q258.8712,26.7422 260.0665,26.7422 Q260.7697,26.7422 261.4025,26.9063 Q262.0353,27.0703 262.5743,27.3984 Z " fill="#000000"/><text fill="#000000" font-family="sans-serif" font-size="16.5" lengthAdjust="spacing" textLength="198.999" x="286.5275" y="38.332">DicetributionSettingsFrame</text><line style="stroke:#181818;stroke-width:0.75;" x1="113.25" x2="617.554" y1="52.5" y2="52.5"/><line style="stroke:#181818;stroke-width:1.5;" x1="113.25" x2="617.554" y1="64.5" y2="64.5"/><text fill="#000000" font-family="sans-serif" font-size="16.5" lengthAdjust="spacing" textLength="489.304" x="120.75" y="88.3052">+__init__(master, parameters, on_change, success_vals_required)</text></g><!--class Controller--><g class="entity" data-entity="Controller" data-source-line="20" data-uid="ent0004" id="entity_Controller"><rect fill="#F1F1F1" height="87.9463" rx="3.75" ry="3.75" style="stroke:#181818;stroke-width:0.75;" width="244.0291" x="10.5" y="546"/><ellipse cx="91.1261" cy="567" fill="#ADD1B2" rx="13.5" ry="13.5" style="stroke:#181818;stroke-width:1.5;"/><path d="M93.423,562.8984 Q93.5636,562.6875 93.7511,562.5938 Q93.9386,562.4766 94.1495,562.4766 Q94.5011,562.4766 94.7355,562.7344 Q94.9698,562.9922 94.9698,563.5781 L94.9698,564.9844 Q94.9698,565.5703 94.7355,565.8281 Q94.5011,566.0859 94.1495,566.0859 Q93.8214,566.0859 93.6105,565.8984 Q93.3995,565.7109 93.3058,565.2188 Q93.2589,564.8672 93.0948,564.6797 Q92.7667,564.3281 92.1573,564.1172 Q91.5714,563.8828 90.9855,563.8828 Q90.2355,563.8828 89.6027,564.2109 Q88.9933,564.5391 88.5011,565.2656 Q88.0323,565.9922 88.0323,566.9766 L88.0323,568.0547 Q88.0323,569.25 88.8995,570.0469 Q89.7667,570.8438 91.3136,570.8438 Q92.2277,570.8438 92.8605,570.5859 Q93.2355,570.4453 93.6573,570.0234 Q93.9152,569.7656 94.0558,569.6953 Q94.1964,569.6016 94.3839,569.6016 Q94.712,569.6016 94.9698,569.8594 Q95.2277,570.1172 95.2277,570.4453 Q95.2277,570.7734 94.8761,571.1719 Q94.3839,571.7344 93.6105,572.0625 Q92.5792,572.4844 91.3136,572.4844 Q89.8605,572.4844 88.6886,571.8984 Q87.7277,571.4063 87.048,570.375 Q86.3917,569.3203 86.3917,568.0781 L86.3917,566.9531 Q86.3917,565.6641 86.9777,564.5625 Q87.587,563.4375 88.6417,562.8516 Q89.7198,562.2422 90.9152,562.2422 Q91.6183,562.2422 92.2511,562.4063 Q92.8839,562.5703 93.423,562.8984 Z " fill="#000000"/><text fill="#000000" font-family="sans-serif" font-size="16.5" lengthAdjust="spacing" textLength="71.5269" x="117.3761" y="573.832">Controller</text><line style="stroke:#181818;stroke-width:0.75;" x1="12" x2="253.0291" y1="588" y2="588"/><line style="stroke:#181818;stroke-width:1.5;" x1="12" x2="253.0291" y1="600" y2="600"/><text fill="#000000" font-family="sans-serif" font-size="16.5" lengthAdjust="spacing" textLength="226.0291" x="19.5" y="623.8052">+refresh(success_vals: list[int])</text></g><g class="entity" data-entity="get_dice_image" data-source-line="25" data-uid="ent0005" id="entity_get_dice_image"><rect fill="#F1F1F1" height="83.8389" rx="3.75" ry="3.75" style="stroke:#181818;stroke-width:0.75;" width="353.2288" x="421.5" y="548.25"/><text fill="#000000" font-family="sans-serif" font-size="16.5" font-style="italic" lengthAdjust="spacing" textLength="76.1433" x="560.0427" y="566.0552">&#171;function&#187;</text><text fill="#000000" font-family="sans-serif" font-size="16.5" lengthAdjust="spacing" textLength="116.499" x="539.8649" y="591.0015">get_dice_image</text><line style="stroke:#181818;stroke-width:0.75;" x1="423" x2="773.2288" y1="598.1426" y2="598.1426"/><text fill="#000000" font-family="sans-serif" font-size="16.5" lengthAdjust="spacing" textLength="335.2288" x="430.5" y="621.9478">+get_dice_image(number: int): tk.PhotoImage</text></g><!--reverse link DicetributionSettingsFrame to DiceChoices--><g class="link" data-entity-1="DicetributionSettingsFrame" data-entity-2="DiceChoices" data-source-line="29" data-uid="lnk6" id="link_DicetributionSettingsFrame_DiceChoices"><path codeLine="29" d="M365.25,117.375 C365.25,148.14 365.25,172.965 365.25,212.76" fill="none" id="DicetributionSettingsFrame-backto-DiceChoices" style="stroke:#181818;stroke-width:1.5;"/><polygon fill="#181818" points="365.25,99.375,359.25,108.375,365.25,117.375,371.25,108.375,365.25,99.375" style="stroke:#181818;stroke-width:1.5;"/><text fill="#000000" font-family="sans-serif" font-size="16.5" lengthAdjust="spacing" textLength="247.637" x="366.75" y="163.3052">optional, if success_vals_required</text></g><!--link DiceChoices to Controller--><g class="link" data-entity-1="DiceChoices" data-entity-2="Controller" data-source-line="30" data-uid="lnk7" id="link_DiceChoices_Controller"><path codeLine="30" d="M174.6,420 C156.135,436.56 139.965,455.49 128.25,477 C117.015,497.625 115.9611,514.8416 119.5011,536.6216" fill="none" id="DiceChoices-to-Controller" style="stroke:#181818;stroke-width:1.5;"/><polygon fill="#181818" points="120.945,545.505,124.7015,531.2173,119.7418,538.1021,112.8569,533.1424,120.945,545.505" style="stroke:#181818;stroke-width:1.5;"/><text fill="#000000" font-family="sans-serif" font-size="16.5" lengthAdjust="spacing" textLength="403.1221" x="129.75" y="496.3052">on_option_change() calls on_change(success_vals=...)</text></g><!--link DiceChoices to get_dice_image--><g class="link" data-entity-1="DiceChoices" data-entity-2="get_dice_image" data-source-line="31" data-uid="lnk8" id="link_DiceChoices_get_dice_image"><path codeLine="31" d="M499.125,432.375 C513.465,446.64 527.205,461.655 539.25,477 C556.155,498.525 566.7304,517.5071 576.9754,539.6471" fill="none" id="DiceChoices-to-get_dice_image" style="stroke:#181818;stroke-width:1.5;stroke-dasharray:10.5,10.5;"/><polygon fill="#181818" points="580.755,547.815,580.5309,533.0434,577.6053,541.0084,569.6403,538.0829,580.755,547.815" style="stroke:#181818;stroke-width:1.5;"/><text fill="#000000" font-family="sans-serif" font-size="16.5" lengthAdjust="spacing" textLength="125.6514" x="555.75" y="496.3052">uses in __init__()</text></g><!--SRC=[VLBBQiCm4BpxA_Pejx5fhYODb9H0e8T23ZsK86HvxQXHf5IxBgMb_rvPUJabz6BatPtHpAnee-rEUha5PIJH0xFNLSUuKCukzHV2NKAdaHeRsHcUEyknDnudIOJ1erOuMxlm9VXE06w1M39I2KOJlrREcLKi6rcXEPPvKppr__kMiqAjfMsn12LD63GOwdaUcq9egrc8T2k9qPSGi2-wRf57ru1P1B5hMuEfjZL-bg1jcEq7Agas9VIQikF5RiVwH9Fkou5R41fKZ7MQ7IG7abNoCxIz3ooWbyYiRKlp41N65Avh7q5C4yEH1k97G9qA-P7ua8Q4n_TEUwopysspaBjtng0VidjiFD8w7Q87OYFULM_1HdHK1yb2RsMBC9aqdLMzzEdqiBNBYTHssweFEn1bCVBdjMEtw7izxJ_sR_Byub6Ki8zOcX7evhhLP0Z8y-dGS7bbIt6PT4xm8eBxeYYo2yQYcFvDe8IEGaVRyuwov1S0]--></g></svg>