<svg xmlns="http://www.w3.org/2000/svg" xmlns:xlink="http://www.w3.org/1999/xlink" contentStyleType="text/css" data-diagram-type="CLASS" height="301px" preserveAspectRatio="none" style="width:494px;height:300px;background:#FFFFFF;" version="1.1" viewBox="0 0 494 300" width="494.2px" zoomAndPan="magnify"><defs/><g><!--class DistributionGraph--><g class="entity" data-entity="DistributionGraph" data-source-line="4" data-uid="ent0002" id="entity_DistributionGraph"><rect fill="#F1F1F1" height="82.008" rx="1.75" ry="1.75" style="stroke:#181818;stroke-width:0.35;" width="484.9804" x="4.9" y="214.2"/><ellipse cx="214.8074" cy="224" fill="#ADD1B2" rx="6.3" ry="6.3" style="stroke:#181818;stroke-width:0.7;"/><path d="M215.8792,222.0859 Q215.9449,221.9875 216.0324,221.9437 Q216.1199,221.8891 216.2183,221.8891 Q216.3824,221.8891 216.4917,222.0094 Q216.6011,222.1297 216.6011,222.4031 L216.6011,223.0594 Q216.6011,223.3328 216.4917,223.4531 Q216.3824,223.5734 216.2183,223.5734 Q216.0652,223.5734 215.9667,223.4859 Q215.8683,223.3984 215.8246,223.1687 Q215.8027,223.0047 215.7261,222.9172 Q215.573,222.7531 215.2886,222.6547 Q215.0152,222.5453 214.7417,222.5453 Q214.3917,222.5453 214.0964,222.6984 Q213.8121,222.8516 213.5824,223.1906 Q213.3636,223.5297 213.3636,223.9891 L213.3636,224.4922 Q213.3636,225.05 213.7683,225.4219 Q214.173,225.7937 214.8949,225.7937 Q215.3214,225.7937 215.6167,225.6734 Q215.7917,225.6078 215.9886,225.4109 Q216.1089,225.2906 216.1746,225.2578 Q216.2402,225.2141 216.3277,225.2141 Q216.4808,225.2141 216.6011,225.3344 Q216.7214,225.4547 216.7214,225.6078 Q216.7214,225.7609 216.5574,225.9469 Q216.3277,226.2094 215.9667,226.3625 Q215.4855,226.5594 214.8949,226.5594 Q214.2167,226.5594 213.6699,226.2859 Q213.2214,226.0562 212.9042,225.575 Q212.598,225.0828 212.598,224.5031 L212.598,223.9781 Q212.598,223.3766 212.8714,222.8625 Q213.1558,222.3375 213.648,222.0641 Q214.1511,221.7797 214.7089,221.7797 Q215.0371,221.7797 215.3324,221.8562 Q215.6277,221.9328 215.8792,222.0859 Z " fill="#000000"/><text fill="#000000" font-family="sans-serif" font-size="7.7" lengthAdjust="spacing" textLength="59.9156" x="227.0574" y="227.1883">DistributionGraph</text><line style="stroke:#181818;stroke-width:0.35;" x1="5.6" x2="489.1804" y1="233.8" y2="233.8"/><text fill="#000000" font-family="sans-serif" font-size="7.7" lengthAdjust="spacing" textLength="38.7331" x="9.1" y="244.9091">+fig: Figure</text><text fill="#000000" font-family="sans-serif" font-size="7.7" lengthAdjust="spacing" textLength="34.0259" x="9.1" y="255.1507">+ax: Axes</text><text fill="#000000" font-family="sans-serif" font-size="7.7" lengthAdjust="spacing" textLength="103.3597" x="9.1" y="265.3923">+canvas: FigureCanvasTkAgg</text><line style="stroke:#181818;stroke-width:0.7;" x1="5.6" x2="489.1804" y1="270.1248" y2="270.1248"/><text fill="#000000" font-family="sans-serif" font-size="7.7" lengthAdjust="spacing" textLength="96.5019" x="9.1" y="281.2339">+__init__(master: tk.Widget)</text><text fill="#000000" font-family="sans-serif" font-size="7.7" lengthAdjust="spacing" textLength="476.5804" x="9.1" y="291.4755">+update_plot(x_vals: list[float], y_vals: list[float], graph_type: str, cdf_func: callable, shade_min: float, shade_max: float, show_cursors: bool)</text></g><!--class View--><g class="entity" data-entity="View" data-source-line="13" data-uid="ent0003" id="entity_View"><rect fill="#F1F1F1" height="61.5248" rx="1.75" ry="1.75" style="stroke:#181818;stroke-width:0.35;" width="141.2814" x="81.55" y="99.4"/><ellipse cx="141.2209" cy="109.2" fill="#ADD1B2" rx="6.3" ry="6.3" style="stroke:#181818;stroke-width:0.7;"/><path d="M142.2928,107.2859 Q142.3584,107.1875 142.4459,107.1437 Q142.5334,107.0891 142.6318,107.0891 Q142.7959,107.0891 142.9053,107.2094 Q143.0146,107.3297 143.0146,107.6031 L143.0146,108.2594 Q143.0146,108.5328 142.9053,108.6531 Q142.7959,108.7734 142.6318,108.7734 Q142.4787,108.7734 142.3803,108.6859 Q142.2818,108.5984 142.2381,108.3687 Q142.2162,108.2047 142.1396,108.1172 Q141.9865,107.9531 141.7021,107.8547 Q141.4287,107.7453 141.1553,107.7453 Q140.8053,107.7453 140.51,107.8984 Q140.2256,108.0516 139.9959,108.3906 Q139.7771,108.7297 139.7771,109.1891 L139.7771,109.6922 Q139.7771,110.25 140.1818,110.6219 Q140.5865,110.9937 141.3084,110.9937 Q141.735,110.9937 142.0303,110.8734 Q142.2053,110.8078 142.4021,110.6109 Q142.5225,110.4906 142.5881,110.4578 Q142.6537,110.4141 142.7412,110.4141 Q142.8943,110.4141 143.0146,110.5344 Q143.135,110.6547 143.135,110.8078 Q143.135,110.9609 142.9709,111.1469 Q142.7412,111.4094 142.3803,111.5625 Q141.899,111.7594 141.3084,111.7594 Q140.6303,111.7594 140.0834,111.4859 Q139.635,111.2562 139.3178,110.775 Q139.0115,110.2828 139.0115,109.7031 L139.0115,109.1781 Q139.0115,108.5766 139.285,108.0625 Q139.5693,107.5375 140.0615,107.2641 Q140.5646,106.9797 141.1225,106.9797 Q141.4506,106.9797 141.7459,107.0562 Q142.0412,107.1328 142.2928,107.2859 Z " fill="#000000"/><text fill="#000000" font-family="sans-serif" font-size="7.7" lengthAdjust="spacing" textLength="16.6896" x="153.4709" y="112.3883">View</text><line style="stroke:#181818;stroke-width:0.35;" x1="82.25" x2="222.1314" y1="119" y2="119"/><text fill="#000000" font-family="sans-serif" font-size="7.7" lengthAdjust="spacing" textLength="58.8441" x="85.75" y="130.1091">+graph: tk.Frame</text><line style="stroke:#181818;stroke-width:0.7;" x1="82.25" x2="222.1314" y1="134.8416" y2="134.8416"/><text fill="#000000" font-family="sans-serif" font-size="7.7" lengthAdjust="spacing" textLength="132.8814" x="85.75" y="145.9507">+set_graph(mode: str, *args, **kwargs)</text><text fill="#000000" font-family="sans-serif" font-size="7.7" lengthAdjust="spacing" textLength="109.7889" x="85.75" y="156.1923">+update_graph(*args, **kwargs)</text></g><!--class Controller--><g class="entity" data-entity="Controller" data-source-line="20" data-uid="ent0004" id="entity_Controller"><rect fill="#F1F1F1" height="41.0416" rx="1.75" ry="1.75" style="stroke:#181818;stroke-width:0.35;" width="52.9792" x="220.85" y="4.9"/><ellipse cx="229.95" cy="14.7" fill="#ADD1B2" rx="6.3" ry="6.3" style="stroke:#181818;stroke-width:0.7;"/><path d="M231.0219,12.7859 Q231.0875,12.6875 231.175,12.6437 Q231.2625,12.5891 231.3609,12.5891 Q231.525,12.5891 231.6344,12.7094 Q231.7437,12.8297 231.7437,13.1031 L231.7437,13.7594 Q231.7437,14.0328 231.6344,14.1531 Q231.525,14.2734 231.3609,14.2734 Q231.2078,14.2734 231.1094,14.1859 Q231.0109,14.0984 230.9672,13.8687 Q230.9453,13.7047 230.8687,13.6172 Q230.7156,13.4531 230.4312,13.3547 Q230.1578,13.2453 229.8844,13.2453 Q229.5344,13.2453 229.2391,13.3984 Q228.9547,13.5516 228.725,13.8906 Q228.5062,14.2297 228.5062,14.6891 L228.5062,15.1922 Q228.5062,15.75 228.9109,16.1219 Q229.3156,16.4937 230.0375,16.4937 Q230.4641,16.4937 230.7594,16.3734 Q230.9344,16.3078 231.1312,16.1109 Q231.2516,15.9906 231.3172,15.9578 Q231.3828,15.9141 231.4703,15.9141 Q231.6234,15.9141 231.7437,16.0344 Q231.8641,16.1547 231.8641,16.3078 Q231.8641,16.4609 231.7,16.6469 Q231.4703,16.9094 231.1094,17.0625 Q230.6281,17.2594 230.0375,17.2594 Q229.3594,17.2594 228.8125,16.9859 Q228.3641,16.7562 228.0469,16.275 Q227.7406,15.7828 227.7406,15.2031 L227.7406,14.6781 Q227.7406,14.0766 228.0141,13.5625 Q228.2984,13.0375 228.7906,12.7641 Q229.2937,12.4797 229.8516,12.4797 Q230.1797,12.4797 230.475,12.5562 Q230.7703,12.6328 231.0219,12.7859 Z " fill="#000000"/><text fill="#000000" font-family="sans-serif" font-size="7.7" lengthAdjust="spacing" textLength="33.3792" x="238.35" y="17.8883">Controller</text><line style="stroke:#181818;stroke-width:0.35;" x1="221.55" x2="273.1292" y1="24.5" y2="24.5"/><line style="stroke:#181818;stroke-width:0.7;" x1="221.55" x2="273.1292" y1="30.1" y2="30.1"/><text fill="#000000" font-family="sans-serif" font-size="7.7" lengthAdjust="spacing" textLength="33.5897" x="225.05" y="41.2091">+refresh()</text></g><!--class AbstractStatisticalModel--><g class="entity" data-entity="AbstractStatisticalModel" data-source-line="25" data-uid="ent0005" id="entity_AbstractStatisticalModel"><rect fill="#F1F1F1" height="51.2832" rx="1.75" ry="1.75" style="stroke:#181818;stroke-width:0.35;" width="189.6658" x="247.8" y="104.65"/><ellipse cx="298.925" cy="114.45" fill="#ADD1B2" rx="6.3" ry="6.3" style="stroke:#181818;stroke-width:0.7;"/><path d="M299.9968,112.5359 Q300.0625,112.4375 300.15,112.3937 Q300.2375,112.3391 300.3359,112.3391 Q300.5,112.3391 300.6093,112.4594 Q300.7187,112.5797 300.7187,112.8531 L300.7187,113.5094 Q300.7187,113.7828 300.6093,113.9031 Q300.5,114.0234 300.3359,114.0234 Q300.1828,114.0234 300.0843,113.9359 Q299.9859,113.8484 299.9421,113.6187 Q299.9203,113.4547 299.8437,113.3672 Q299.6906,113.2031 299.4062,113.1047 Q299.1328,112.9953 298.8593,112.9953 Q298.5093,112.9953 298.214,113.1484 Q297.9296,113.3016 297.7,113.6406 Q297.4812,113.9797 297.4812,114.4391 L297.4812,114.9422 Q297.4812,115.5 297.8859,115.8719 Q298.2906,116.2437 299.0125,116.2437 Q299.439,116.2437 299.7343,116.1234 Q299.9093,116.0578 300.1062,115.8609 Q300.2265,115.7406 300.2921,115.7078 Q300.3578,115.6641 300.4453,115.6641 Q300.5984,115.6641 300.7187,115.7844 Q300.839,115.9047 300.839,116.0578 Q300.839,116.2109 300.675,116.3969 Q300.4453,116.6594 300.0843,116.8125 Q299.6031,117.0094 299.0125,117.0094 Q298.3343,117.0094 297.7875,116.7359 Q297.339,116.5062 297.0218,116.025 Q296.7156,115.5328 296.7156,114.9531 L296.7156,114.4281 Q296.7156,113.8266 296.989,113.3125 Q297.2734,112.7875 297.7656,112.5141 Q298.2687,112.2297 298.8265,112.2297 Q299.1546,112.2297 299.45,112.3062 Q299.7453,112.3828 299.9968,112.5359 Z " fill="#000000"/><text fill="#000000" font-family="sans-serif" font-size="7.7" lengthAdjust="spacing" textLength="82.1659" x="311.175" y="117.6383">AbstractStatisticalModel</text><line style="stroke:#181818;stroke-width:0.35;" x1="248.5" x2="436.7658" y1="124.25" y2="124.25"/><line style="stroke:#181818;stroke-width:0.7;" x1="248.5" x2="436.7658" y1="129.85" y2="129.85"/><text fill="#000000" font-family="sans-serif" font-size="7.7" lengthAdjust="spacing" textLength="181.2658" x="252" y="140.9591">+get_plot_data(): tuple[ndarray, ndarray, str, callable]</text><text fill="#000000" font-family="sans-serif" font-size="7.7" lengthAdjust="spacing" textLength="42.5793" x="252" y="151.2007">+cdf(x): float</text></g><!--reverse link View to DistributionGraph--><g class="link" data-entity-1="View" data-entity-2="DistributionGraph" data-source-line="31" data-uid="lnk6" id="link_View_DistributionGraph"><path codeLine="31" d="M180.6665,167.7795 C192.9445,183.7115 203.035,196.812 216.314,214.039" fill="none" id="View-backto-DistributionGraph" style="stroke:#181818;stroke-width:0.7;"/><polygon fill="#181818" points="175.539,161.126,175.8849,166.1619,180.6665,167.7795,180.3206,162.7436,175.539,161.126" style="stroke:#181818;stroke-width:0.7;"/><text fill="#000000" font-family="sans-serif" font-size="7.7" lengthAdjust="spacing" textLength="61.6226" x="200.55" y="191.0091">graph (Dist mode)</text></g><!--link Controller to View--><g class="link" data-entity-1="Controller" data-entity-2="View" data-source-line="32" data-uid="lnk7" id="link_Controller_View"><path codeLine="32" d="M228.865,46.403 C215.019,61.425 198.7067,79.1129 183.0197,96.1299" fill="none" id="Controller-to-View" style="stroke:#181818;stroke-width:0.7;"/><polygon fill="#181818" points="180.173,99.218,186.5018,96.4837,182.5453,96.6446,182.3844,92.6881,180.173,99.218" style="stroke:#181818;stroke-width:0.7;"/><text fill="#000000" font-family="sans-serif" font-size="7.7" lengthAdjust="spacing" textLength="70.1986" x="209.65" y="76.2091">calls update_graph()</text></g><!--link Controller to AbstractStatisticalModel--><g class="link" data-entity-1="Controller" data-entity-2="AbstractStatisticalModel" data-source-line="33" data-uid="lnk8" id="link_Controller_AbstractStatisticalModel"><path codeLine="33" d="M266.511,46.396 C272.727,53.004 279.657,60.396 285.95,67.2 C297.269,79.436 306.9275,90.0248 317.2945,101.4488" fill="none" id="Controller-to-AbstractStatisticalModel" style="stroke:#181818;stroke-width:0.7;"/><polygon fill="#181818" points="320.117,104.559,317.9568,98.012,317.7649,101.9671,313.8098,101.7753,320.117,104.559" style="stroke:#181818;stroke-width:0.7;"/><text fill="#000000" font-family="sans-serif" font-size="7.7" lengthAdjust="spacing" textLength="63.7731" x="296.45" y="76.2091">gets plot data from</text></g><!--link AbstractStatisticalModel to DistributionGraph--><g class="link" data-entity-1="AbstractStatisticalModel" data-entity-2="DistributionGraph" data-source-line="34" data-uid="lnk9" id="link_AbstractStatisticalModel_DistributionGraph"><path codeLine="34" d="M323.386,155.904 C310.506,172.613 295.8419,191.6436 281.0579,210.8376" fill="none" id="AbstractStatisticalModel-to-DistributionGraph" style="stroke:#181818;stroke-width:0.7;"/><polygon fill="#181818" points="278.495,214.165,284.5576,210.8825,280.6307,211.3922,280.1211,207.4653,278.495,214.165" style="stroke:#181818;stroke-width:0.7;"/><text fill="#000000" font-family="sans-serif" font-size="7.7" lengthAdjust="spacing" textLength="155.3686" x="302.05" y="191.0091">provides x_vals, y_vals, graph_type, cdf_func</text></g><!--SRC=[TLBBJkim4DtdAsQPb0PTjbaWLQ1UtGKhhc21a3MD9wbLnuxiIHyW_XtRQKCHPUN7dF5vUFn6cHuTTb1hz7x1xDHgOFfNM_EetWZ-P7w2I6fmqBoqXbFjvYRBKXlSApysAcl-EkpNy9u1N46ZsWgMgXqSfJFkArZioQT3ZMQB_bI_IwV_cqNRXcfP9eWGoYWM8k_GCxaAU7Fzh6HBNAJwq4ja4hssdE_55dLuJWSjBussoAzpE5owRAD2mOUUAWYwvr3BHZI3gQkWIMjSQPg3NwCaqIbJGUgRRgA7wSRkH3quRrtWM5chY-pZbCcJejqnXaIOn2z3ZlJbpnEBLCmxAqzgPkXQ7vRPPXTttvoEu1-8YVGk_8spMfDBr4SQHuqZlyxFW8jLuCAQ7navPAE2yOSWGP-tXPXJj29GOru40qElwSL8T0uFSvWsOuZ7w5x7pvLDlY-EIKNQ5CUiB2_CIZK617aiGKoYoCwCbENj6ERuFVvx5Z-WlpgheY4FqH54Hz0ussM_mkDRbxJspcwL90_Zm9rcx7oilYOg-mG0]--></g></svg>