<svg xmlns="http://www.w3.org/2000/svg" xmlns:xlink="http://www.w3.org/1999/xlink" contentStyleType="text/css" data-diagram-type="CLASS" height="607px" preserveAspectRatio="none" style="width:504px;height:607px;background:#FFFFFF;" version="1.1" viewBox="0 0 504 607" width="504px" zoomAndPan="magnify"><defs/><g><!--class DistributionSettingsFrame--><g class="entity" data-entity="DistributionSettingsFrame" data-source-line="4" data-uid="ent0002" id="entity_DistributionSettingsFrame"><rect fill="#F1F1F1" height="73.2617" rx="2.5" ry="2.5" style="stroke:#181818;stroke-width:0.5;" width="414.6011" x="7" y="156"/><ellipse cx="147.2764" cy="170" fill="#ADD1B2" rx="9" ry="9" style="stroke:#181818;stroke-width:1;"/><path d="M148.8076,167.2656 Q148.9014,167.125 149.0264,167.0625 Q149.1514,166.9844 149.292,166.9844 Q149.5264,166.9844 149.6826,167.1563 Q149.8389,167.3281 149.8389,167.7188 L149.8389,168.6563 Q149.8389,169.0469 149.6826,169.2188 Q149.5264,169.3906 149.292,169.3906 Q149.0732,169.3906 148.9326,169.2656 Q148.792,169.1406 148.7295,168.8125 Q148.6982,168.5781 148.5889,168.4531 Q148.3701,168.2188 147.9639,168.0781 Q147.5732,167.9219 147.1826,167.9219 Q146.6826,167.9219 146.2607,168.1406 Q145.8545,168.3594 145.5264,168.8438 Q145.2139,169.3281 145.2139,169.9844 L145.2139,170.7031 Q145.2139,171.5 145.792,172.0313 Q146.3701,172.5625 147.4014,172.5625 Q148.0107,172.5625 148.4326,172.3906 Q148.6826,172.2969 148.9639,172.0156 Q149.1357,171.8438 149.2295,171.7969 Q149.3232,171.7344 149.4482,171.7344 Q149.667,171.7344 149.8389,171.9063 Q150.0107,172.0781 150.0107,172.2969 Q150.0107,172.5156 149.7764,172.7813 Q149.4482,173.1563 148.9326,173.375 Q148.2451,173.6563 147.4014,173.6563 Q146.4326,173.6563 145.6514,173.2656 Q145.0107,172.9375 144.5576,172.25 Q144.1201,171.5469 144.1201,170.7188 L144.1201,169.9688 Q144.1201,169.1094 144.5107,168.375 Q144.917,167.625 145.6201,167.2344 Q146.3389,166.8281 147.1357,166.8281 Q147.6045,166.8281 148.0264,166.9375 Q148.4482,167.0469 148.8076,167.2656 Z " fill="#000000"/><text fill="#000000" font-family="sans-serif" font-size="11" lengthAdjust="spacing" textLength="126.5483" x="164.7764" y="174.5547">DistributionSettingsFrame</text><line style="stroke:#181818;stroke-width:0.5;" x1="8" x2="420.6011" y1="184" y2="184"/><text fill="#000000" font-family="sans-serif" font-size="11" lengthAdjust="spacing" textLength="104.2798" x="13" y="199.8701">+on_change: callable</text><line style="stroke:#181818;stroke-width:1;" x1="8" x2="420.6011" y1="206.6309" y2="206.6309"/><text fill="#000000" font-family="sans-serif" font-size="11" lengthAdjust="spacing" textLength="402.6011" x="13" y="222.501">+__init__(master: tk.Widget, parameters: dict[str, Parameter], on_change: callable)</text></g><!--class LabelSpinbox--><g class="entity" data-entity="LabelSpinbox" data-source-line="10" data-uid="ent0003" id="entity_LabelSpinbox"><rect fill="#F1F1F1" height="87.8926" rx="2.5" ry="2.5" style="stroke:#181818;stroke-width:0.5;" width="367.5396" x="30.5" y="305"/><ellipse cx="177.1868" cy="319" fill="#ADD1B2" rx="9" ry="9" style="stroke:#181818;stroke-width:1;"/><path d="M178.718,316.2656 Q178.8118,316.125 178.9368,316.0625 Q179.0618,315.9844 179.2024,315.9844 Q179.4368,315.9844 179.593,316.1563 Q179.7493,316.3281 179.7493,316.7188 L179.7493,317.6563 Q179.7493,318.0469 179.593,318.2188 Q179.4368,318.3906 179.2024,318.3906 Q178.9836,318.3906 178.843,318.2656 Q178.7024,318.1406 178.6399,317.8125 Q178.6086,317.5781 178.4993,317.4531 Q178.2805,317.2188 177.8743,317.0781 Q177.4836,316.9219 177.093,316.9219 Q176.593,316.9219 176.1711,317.1406 Q175.7649,317.3594 175.4368,317.8438 Q175.1243,318.3281 175.1243,318.9844 L175.1243,319.7031 Q175.1243,320.5 175.7024,321.0313 Q176.2805,321.5625 177.3118,321.5625 Q177.9211,321.5625 178.343,321.3906 Q178.593,321.2969 178.8743,321.0156 Q179.0461,320.8438 179.1399,320.7969 Q179.2336,320.7344 179.3586,320.7344 Q179.5774,320.7344 179.7493,320.9063 Q179.9211,321.0781 179.9211,321.2969 Q179.9211,321.5156 179.6868,321.7813 Q179.3586,322.1563 178.843,322.375 Q178.1555,322.6563 177.3118,322.6563 Q176.343,322.6563 175.5618,322.2656 Q174.9211,321.9375 174.468,321.25 Q174.0305,320.5469 174.0305,319.7188 L174.0305,318.9688 Q174.0305,318.1094 174.4211,317.375 Q174.8274,316.625 175.5305,316.2344 Q176.2493,315.8281 177.0461,315.8281 Q177.5149,315.8281 177.9368,315.9375 Q178.3586,316.0469 178.718,316.2656 Z " fill="#000000"/><text fill="#000000" font-family="sans-serif" font-size="11" lengthAdjust="spacing" textLength="66.666" x="194.6868" y="323.5547">LabelSpinbox</text><line style="stroke:#181818;stroke-width:0.5;" x1="31.5" x2="397.0396" y1="333" y2="333"/><text fill="#000000" font-family="sans-serif" font-size="11" lengthAdjust="spacing" textLength="114.0229" x="36.5" y="348.8701">+parameter: Parameter</text><text fill="#000000" font-family="sans-serif" font-size="11" lengthAdjust="spacing" textLength="104.2798" x="36.5" y="363.501">+on_change: callable</text><line style="stroke:#181818;stroke-width:1;" x1="31.5" x2="397.0396" y1="370.2617" y2="370.2617"/><text fill="#000000" font-family="sans-serif" font-size="11" lengthAdjust="spacing" textLength="355.5396" x="36.5" y="386.1318">+__init__(master: tk.Widget, parameter: Parameter, on_change: callable)</text></g><!--class Parameter--><g class="entity" data-entity="Parameter" data-source-line="17" data-uid="ent0004" id="entity_Parameter"><rect fill="#F1F1F1" height="131.7852" rx="2.5" ry="2.5" style="stroke:#181818;stroke-width:0.5;" width="209.7637" x="109.5" y="469"/><ellipse cx="184.9553" cy="483" fill="#ADD1B2" rx="9" ry="9" style="stroke:#181818;stroke-width:1;"/><path d="M186.4866,480.2656 Q186.5803,480.125 186.7053,480.0625 Q186.8303,479.9844 186.9709,479.9844 Q187.2053,479.9844 187.3616,480.1563 Q187.5178,480.3281 187.5178,480.7188 L187.5178,481.6563 Q187.5178,482.0469 187.3616,482.2188 Q187.2053,482.3906 186.9709,482.3906 Q186.7522,482.3906 186.6116,482.2656 Q186.4709,482.1406 186.4084,481.8125 Q186.3772,481.5781 186.2678,481.4531 Q186.0491,481.2188 185.6428,481.0781 Q185.2522,480.9219 184.8616,480.9219 Q184.3616,480.9219 183.9397,481.1406 Q183.5334,481.3594 183.2053,481.8438 Q182.8928,482.3281 182.8928,482.9844 L182.8928,483.7031 Q182.8928,484.5 183.4709,485.0313 Q184.0491,485.5625 185.0803,485.5625 Q185.6897,485.5625 186.1116,485.3906 Q186.3616,485.2969 186.6428,485.0156 Q186.8147,484.8438 186.9084,484.7969 Q187.0022,484.7344 187.1272,484.7344 Q187.3459,484.7344 187.5178,484.9063 Q187.6897,485.0781 187.6897,485.2969 Q187.6897,485.5156 187.4553,485.7813 Q187.1272,486.1563 186.6116,486.375 Q185.9241,486.6563 185.0803,486.6563 Q184.1116,486.6563 183.3303,486.2656 Q182.6897,485.9375 182.2366,485.25 Q181.7991,484.5469 181.7991,483.7188 L181.7991,482.9688 Q181.7991,482.1094 182.1897,481.375 Q182.5959,480.625 183.2991,480.2344 Q184.0178,479.8281 184.8147,479.8281 Q185.2834,479.8281 185.7053,479.9375 Q186.1272,480.0469 186.4866,480.2656 Z " fill="#000000"/><text fill="#000000" font-family="sans-serif" font-size="11" lengthAdjust="spacing" textLength="51.353" x="202.4553" y="487.5547">Parameter</text><line style="stroke:#181818;stroke-width:0.5;" x1="110.5" x2="318.2637" y1="497" y2="497"/><text fill="#000000" font-family="sans-serif" font-size="11" lengthAdjust="spacing" textLength="47.9961" x="115.5" y="512.8701">+label: str</text><text fill="#000000" font-family="sans-serif" font-size="11" lengthAdjust="spacing" textLength="197.7637" x="115.5" y="527.501">+minimum, maximum, step, default: float</text><text fill="#000000" font-family="sans-serif" font-size="11" lengthAdjust="spacing" textLength="62.9814" x="115.5" y="542.1318">-_value: float</text><line style="stroke:#181818;stroke-width:1;" x1="110.5" x2="318.2637" y1="548.8926" y2="548.8926"/><text fill="#000000" font-family="sans-serif" font-size="11" lengthAdjust="spacing" textLength="59.6245" x="115.5" y="564.7627">+value: float</text><text fill="#000000" font-family="sans-serif" font-size="11" lengthAdjust="spacing" textLength="104.8706" x="115.5" y="579.3936">+validate(value): bool</text><text fill="#000000" font-family="sans-serif" font-size="11" lengthAdjust="spacing" textLength="123.8198" x="115.5" y="594.0244">+get_spinbox_args(): dict</text></g><!--class View--><g class="entity" data-entity="View" data-source-line="27" data-uid="ent0005" id="entity_View"><rect fill="#F1F1F1" height="73.2617" rx="2.5" ry="2.5" style="stroke:#181818;stroke-width:0.5;" width="211.606" x="19.5" y="7"/><ellipse cx="109.6318" cy="21" fill="#ADD1B2" rx="9" ry="9" style="stroke:#181818;stroke-width:1;"/><path d="M111.1631,18.2656 Q111.2568,18.125 111.3818,18.0625 Q111.5068,17.9844 111.6475,17.9844 Q111.8818,17.9844 112.0381,18.1563 Q112.1943,18.3281 112.1943,18.7188 L112.1943,19.6563 Q112.1943,20.0469 112.0381,20.2188 Q111.8818,20.3906 111.6475,20.3906 Q111.4287,20.3906 111.2881,20.2656 Q111.1475,20.1406 111.085,19.8125 Q111.0537,19.5781 110.9443,19.4531 Q110.7256,19.2188 110.3193,19.0781 Q109.9287,18.9219 109.5381,18.9219 Q109.0381,18.9219 108.6162,19.1406 Q108.21,19.3594 107.8818,19.8438 Q107.5693,20.3281 107.5693,20.9844 L107.5693,21.7031 Q107.5693,22.5 108.1475,23.0313 Q108.7256,23.5625 109.7568,23.5625 Q110.3662,23.5625 110.7881,23.3906 Q111.0381,23.2969 111.3193,23.0156 Q111.4912,22.8438 111.585,22.7969 Q111.6787,22.7344 111.8037,22.7344 Q112.0225,22.7344 112.1943,22.9063 Q112.3662,23.0781 112.3662,23.2969 Q112.3662,23.5156 112.1318,23.7813 Q111.8037,24.1563 111.2881,24.375 Q110.6006,24.6563 109.7568,24.6563 Q108.7881,24.6563 108.0068,24.2656 Q107.3662,23.9375 106.9131,23.25 Q106.4756,22.5469 106.4756,21.7188 L106.4756,20.9688 Q106.4756,20.1094 106.8662,19.375 Q107.2725,18.625 107.9756,18.2344 Q108.6943,17.8281 109.4912,17.8281 Q109.96,17.8281 110.3818,17.9375 Q110.8037,18.0469 111.1631,18.2656 Z " fill="#000000"/><text fill="#000000" font-family="sans-serif" font-size="11" lengthAdjust="spacing" textLength="23.8423" x="127.1318" y="25.5547">View</text><line style="stroke:#181818;stroke-width:0.5;" x1="20.5" x2="230.106" y1="35" y2="35"/><text fill="#000000" font-family="sans-serif" font-size="11" lengthAdjust="spacing" textLength="93.8384" x="25.5" y="50.8701">+settings: tk.Frame</text><line style="stroke:#181818;stroke-width:1;" x1="20.5" x2="230.106" y1="57.6309" y2="57.6309"/><text fill="#000000" font-family="sans-serif" font-size="11" lengthAdjust="spacing" textLength="199.606" x="25.5" y="73.501">+set_settings(mode: str, *args, **kwargs)</text></g><!--class Controller--><g class="entity" data-entity="Controller" data-source-line="33" data-uid="ent0006" id="entity_Controller"><rect fill="#F1F1F1" height="58.6309" rx="2.5" ry="2.5" style="stroke:#181818;stroke-width:0.5;" width="75.6846" x="266.5" y="14"/><ellipse cx="279.5" cy="28" fill="#ADD1B2" rx="9" ry="9" style="stroke:#181818;stroke-width:1;"/><path d="M281.0313,25.2656 Q281.125,25.125 281.25,25.0625 Q281.375,24.9844 281.5156,24.9844 Q281.75,24.9844 281.9063,25.1563 Q282.0625,25.3281 282.0625,25.7188 L282.0625,26.6563 Q282.0625,27.0469 281.9063,27.2188 Q281.75,27.3906 281.5156,27.3906 Q281.2969,27.3906 281.1563,27.2656 Q281.0156,27.1406 280.9531,26.8125 Q280.9219,26.5781 280.8125,26.4531 Q280.5938,26.2188 280.1875,26.0781 Q279.7969,25.9219 279.4063,25.9219 Q278.9063,25.9219 278.4844,26.1406 Q278.0781,26.3594 277.75,26.8438 Q277.4375,27.3281 277.4375,27.9844 L277.4375,28.7031 Q277.4375,29.5 278.0156,30.0313 Q278.5938,30.5625 279.625,30.5625 Q280.2344,30.5625 280.6563,30.3906 Q280.9063,30.2969 281.1875,30.0156 Q281.3594,29.8438 281.4531,29.7969 Q281.5469,29.7344 281.6719,29.7344 Q281.8906,29.7344 282.0625,29.9063 Q282.2344,30.0781 282.2344,30.2969 Q282.2344,30.5156 282,30.7813 Q281.6719,31.1563 281.1563,31.375 Q280.4688,31.6563 279.625,31.6563 Q278.6563,31.6563 277.875,31.2656 Q277.2344,30.9375 276.7813,30.25 Q276.3438,29.5469 276.3438,28.7188 L276.3438,27.9688 Q276.3438,27.1094 276.7344,26.375 Q277.1406,25.625 277.8438,25.2344 Q278.5625,24.8281 279.3594,24.8281 Q279.8281,24.8281 280.25,24.9375 Q280.6719,25.0469 281.0313,25.2656 Z " fill="#000000"/><text fill="#000000" font-family="sans-serif" font-size="11" lengthAdjust="spacing" textLength="47.6846" x="291.5" y="32.5547">Controller</text><line style="stroke:#181818;stroke-width:0.5;" x1="267.5" x2="341.1846" y1="42" y2="42"/><line style="stroke:#181818;stroke-width:1;" x1="267.5" x2="341.1846" y1="50" y2="50"/><text fill="#000000" font-family="sans-serif" font-size="11" lengthAdjust="spacing" textLength="47.9854" x="272.5" y="65.8701">+refresh()</text></g><!--reverse link View to DistributionSettingsFrame--><g class="link" data-entity-1="View" data-entity-2="DistributionSettingsFrame" data-source-line="38" data-uid="lnk7" id="link_View_DistributionSettingsFrame"><path codeLine="38" d="M144.2707,91.3839 C150.5407,105.9639 153.75,111.68 162.5,126 C168.71,136.16 176.28,146.53 183.69,155.94" fill="none" id="View-backto-DistributionSettingsFrame" style="stroke:#181818;stroke-width:1;"/><polygon fill="#181818" points="139.53,80.36,138.2257,87.4522,144.2707,91.3839,145.575,84.2917,139.53,80.36" style="stroke:#181818;stroke-width:1;"/><text fill="#000000" font-family="sans-serif" font-size="11" lengthAdjust="spacing" textLength="97.8076" x="163.5" y="122.8701">settings (Dist mode)</text></g><!--reverse link DistributionSettingsFrame to LabelSpinbox--><g class="link" data-entity-1="DistributionSettingsFrame" data-entity-2="LabelSpinbox" data-source-line="39" data-uid="lnk8" id="link_DistributionSettingsFrame_LabelSpinbox"><path codeLine="39" d="M214.5,241.33 C214.5,263.89 214.5,281.13 214.5,304.94" fill="none" id="DistributionSettingsFrame-backto-LabelSpinbox" style="stroke:#181818;stroke-width:1;"/><polygon fill="#181818" points="214.5,229.33,210.5,235.33,214.5,241.33,218.5,235.33,214.5,229.33" style="stroke:#181818;stroke-width:1;"/><text fill="#000000" font-family="sans-serif" font-size="11" lengthAdjust="spacing" textLength="129.626" x="215.5" y="271.8701">creates one per parameter</text></g><!--reverse link LabelSpinbox to Parameter--><g class="link" data-entity-1="LabelSpinbox" data-entity-2="Parameter" data-source-line="40" data-uid="lnk9" id="link_LabelSpinbox_Parameter"><path codeLine="40" d="M214.5,405.14 C214.5,427.66 214.5,443.68 214.5,468.78" fill="none" id="LabelSpinbox-backto-Parameter" style="stroke:#181818;stroke-width:1;"/><polygon fill="#181818" points="214.5,393.14,210.5,399.14,214.5,405.14,218.5,399.14,214.5,393.14" style="stroke:#181818;stroke-width:1;"/><text fill="#000000" font-family="sans-serif" font-size="11" lengthAdjust="spacing" textLength="29.3423" x="215.5" y="435.8701">wraps</text></g><!--link Controller to DistributionSettingsFrame--><g class="link" data-entity-1="Controller" data-entity-2="DistributionSettingsFrame" data-source-line="41" data-uid="lnk10" id="link_Controller_DistributionSettingsFrame"><path codeLine="41" d="M292.59,73.2 C285.51,89.19 275.9,109.19 265.5,126 C259.28,136.05 255.4914,141.6344 248.2114,151.0444" fill="none" id="Controller-to-DistributionSettingsFrame" style="stroke:#181818;stroke-width:1;"/><polygon fill="#181818" points="244.54,155.79,253.2109,151.1192,247.5995,151.8353,246.8834,146.224,244.54,155.79" style="stroke:#181818;stroke-width:1;"/><text fill="#000000" font-family="sans-serif" font-size="11" lengthAdjust="spacing" textLength="221.9712" x="274.5" y="122.8701">provides parameters and on_change callback</text></g><!--SRC=[hL8zJyCm4DtzAsvCIuBewW49WIeXCI1LWW6Xw99SKwkE7TbEMu7uxzXEcXG4PM6ASn_llRjtTYjKYmORA2LQU-ES4KNdwBxKQYNU2AwO7KigMcCdtL8h5tEB1MEn3Uw4xHk5RoFdXAhjqhSGl3E02z0gBpUeQk9GefHOIFBnB8l9F1TAk3nF6hIE30UtlNmMLKqkXKXCFcevLA9qBvudXSTZz3Nz2Nh6Fex27h0WkMg5AlHXq392yWdddqIU8FubR2mSLCaWb8CVB_usdgtfcXGQFFGFpzgcHmiuhAL65-H1laFPqKca5_mj6WEYGaT9pCmu55hBcF53vBRVKOwcjiciN_QazadGVX1g1tlZ1gB74wSDG4C-QNH5SQ0KvW7LV-RRVNYThE7MtvBHKWvx670ChGtPJH8B8_SyoyuS6HzLGHAg873FsEyD0UxBQNYF3FdbM6yRGUlbZAQoBuMXS_AEmzvWQzd965bsVLPfQ_HEL9veEcr0LKtd4g-bm7BBFW40]--></g></svg>