<svg xmlns="http://www.w3.org/2000/svg" xmlns:xlink="http://www.w3.org/1999/xlink" contentStyleType="text/css" data-diagram-type="CLASS" height="491.4px" preserveAspectRatio="none" style="width:434px;height:491px;background:#FFFFFF;" version="1.1" viewBox="0 0 434 491" width="434.7px" zoomAndPan="magnify"><defs/><g><!--class DraggablePoint--><g class="entity" data-entity="DraggablePoint" data-source-line="4" data-uid="ent0002" id="entity_DraggablePoint"><rect fill="#F1F1F1" height="223.9488" rx="2.25" ry="2.25" style="stroke:#181818;stroke-width:0.45;" width="236.1507" x="99.45" y="140.4"/><ellipse cx="180.0272" cy="153" fill="#ADD1B2" rx="8.1" ry="8.1" style="stroke:#181818;stroke-width:0.9;"/><path d="M181.4054,150.5391 Q181.4897,150.4125 181.6022,150.3563 Q181.7147,150.2859 181.8413,150.2859 Q182.0522,150.2859 182.1929,150.4406 Q182.3335,150.5953 182.3335,150.9469 L182.3335,151.7906 Q182.3335,152.1422 182.1929,152.2969 Q182.0522,152.4516 181.8413,152.4516 Q181.6444,152.4516 181.5179,152.3391 Q181.3913,152.2266 181.3351,151.9313 Q181.3069,151.7203 181.2085,151.6078 Q181.0116,151.3969 180.646,151.2703 Q180.2944,151.1297 179.9429,151.1297 Q179.4929,151.1297 179.1132,151.3266 Q178.7476,151.5234 178.4522,151.9594 Q178.171,152.3953 178.171,152.9859 L178.171,153.6328 Q178.171,154.35 178.6913,154.8281 Q179.2116,155.3063 180.1397,155.3063 Q180.6882,155.3063 181.0679,155.1516 Q181.2929,155.0672 181.546,154.8141 Q181.7007,154.6594 181.7851,154.6172 Q181.8694,154.5609 181.9819,154.5609 Q182.1788,154.5609 182.3335,154.7156 Q182.4882,154.8703 182.4882,155.0672 Q182.4882,155.2641 182.2772,155.5031 Q181.9819,155.8406 181.5179,156.0375 Q180.8991,156.2906 180.1397,156.2906 Q179.2679,156.2906 178.5647,155.9391 Q177.9882,155.6438 177.5804,155.025 Q177.1866,154.3922 177.1866,153.6469 L177.1866,152.9719 Q177.1866,152.1984 177.5382,151.5375 Q177.9038,150.8625 178.5366,150.5109 Q179.1835,150.1453 179.9007,150.1453 Q180.3226,150.1453 180.7022,150.2438 Q181.0819,150.3422 181.4054,150.5391 Z " fill="#000000"/><text fill="#000000" font-family="sans-serif" font-size="9.9" lengthAdjust="spacing" textLength="68.2462" x="195.7772" y="157.0992">DraggablePoint</text><line style="stroke:#181818;stroke-width:0.45;" x1="100.35" x2="334.7007" y1="165.6" y2="165.6"/><text fill="#000000" font-family="sans-serif" font-size="9.9" lengthAdjust="spacing" textLength="34.9449" x="104.85" y="179.8831">+x: float</text><text fill="#000000" font-family="sans-serif" font-size="9.9" lengthAdjust="spacing" textLength="34.9449" x="104.85" y="193.0509">+y: float</text><text fill="#000000" font-family="sans-serif" font-size="9.9" lengthAdjust="spacing" textLength="78.4169" x="104.85" y="206.2187">+controller: object</text><text fill="#000000" font-family="sans-serif" font-size="9.9" lengthAdjust="spacing" textLength="124.6104" x="104.85" y="219.3864">+artist: matplotlib.artist.Artist</text><text fill="#000000" font-family="sans-serif" font-size="9.9" lengthAdjust="spacing" textLength="88.6988" x="104.85" y="232.5542">+press: tuple | None</text><text fill="#000000" font-family="sans-serif" font-size="9.9" lengthAdjust="spacing" textLength="63.011" x="104.85" y="245.722">+initial_x: float</text><text fill="#000000" font-family="sans-serif" font-size="9.9" lengthAdjust="spacing" textLength="63.011" x="104.85" y="258.8897">+initial_y: float</text><line style="stroke:#181818;stroke-width:0.9;" x1="100.35" x2="334.7007" y1="264.9744" y2="264.9744"/><text fill="#000000" font-family="sans-serif" font-size="9.9" lengthAdjust="spacing" textLength="225.3507" x="104.85" y="279.2575">+__init__(coord: tuple[float, float], controller: object)</text><text fill="#000000" font-family="sans-serif" font-size="9.9" lengthAdjust="spacing" textLength="146.0927" x="104.85" y="292.4253">+attach(ax: matplotlib.axes.Axes)</text><text fill="#000000" font-family="sans-serif" font-size="9.9" lengthAdjust="spacing" textLength="47.0492" x="104.85" y="305.5931">+connect()</text><text fill="#000000" font-family="sans-serif" font-size="9.9" lengthAdjust="spacing" textLength="137.8507" x="104.85" y="318.7608">+on_press(event: MouseEvent)</text><text fill="#000000" font-family="sans-serif" font-size="9.9" lengthAdjust="spacing" textLength="143.3566" x="104.85" y="331.9286">+on_motion(event: MouseEvent)</text><text fill="#000000" font-family="sans-serif" font-size="9.9" lengthAdjust="spacing" textLength="146.112" x="104.85" y="345.0964">+on_release(event: MouseEvent)</text><text fill="#000000" font-family="sans-serif" font-size="9.9" lengthAdjust="spacing" textLength="136.7534" x="104.85" y="358.2642">+get_coords(): tuple[float, float]</text></g><!--class Controller--><g class="entity" data-entity="Controller" data-source-line="22" data-uid="ent0003" id="entity_Controller"><rect fill="#F1F1F1" height="52.7678" rx="2.25" ry="2.25" style="stroke:#181818;stroke-width:0.45;" width="297.7888" x="68.4" y="432.9"/><ellipse cx="192.4614" cy="445.5" fill="#ADD1B2" rx="8.1" ry="8.1" style="stroke:#181818;stroke-width:0.9;"/><path d="M193.8395,443.0391 Q193.9239,442.9125 194.0364,442.8563 Q194.1489,442.7859 194.2754,442.7859 Q194.4864,442.7859 194.627,442.9406 Q194.7676,443.0953 194.7676,443.4469 L194.7676,444.2906 Q194.7676,444.6422 194.627,444.7969 Q194.4864,444.9516 194.2754,444.9516 Q194.0785,444.9516 193.952,444.8391 Q193.8254,444.7266 193.7692,444.4313 Q193.741,444.2203 193.6426,444.1078 Q193.4457,443.8969 193.0801,443.7703 Q192.7285,443.6297 192.377,443.6297 Q191.927,443.6297 191.5473,443.8266 Q191.1817,444.0234 190.8864,444.4594 Q190.6051,444.8953 190.6051,445.4859 L190.6051,446.1328 Q190.6051,446.85 191.1254,447.3281 Q191.6457,447.8063 192.5739,447.8063 Q193.1223,447.8063 193.502,447.6516 Q193.727,447.5672 193.9801,447.3141 Q194.1348,447.1594 194.2192,447.1172 Q194.3035,447.0609 194.416,447.0609 Q194.6129,447.0609 194.7676,447.2156 Q194.9223,447.3703 194.9223,447.5672 Q194.9223,447.7641 194.7114,448.0031 Q194.416,448.3406 193.952,448.5375 Q193.3332,448.7906 192.5739,448.7906 Q191.702,448.7906 190.9989,448.4391 Q190.4223,448.1438 190.0145,447.525 Q189.6207,446.8922 189.6207,446.1469 L189.6207,445.4719 Q189.6207,444.6984 189.9723,444.0375 Q190.3379,443.3625 190.9707,443.0109 Q191.6176,442.6453 192.3348,442.6453 Q192.7567,442.6453 193.1364,442.7438 Q193.516,442.8422 193.8395,443.0391 Z " fill="#000000"/><text fill="#000000" font-family="sans-serif" font-size="9.9" lengthAdjust="spacing" textLength="42.9161" x="208.2114" y="449.5992">Controller</text><line style="stroke:#181818;stroke-width:0.45;" x1="69.3" x2="365.2888" y1="458.1" y2="458.1"/><line style="stroke:#181818;stroke-width:0.45;" x1="69.3" x2="365.2888" y1="465.3" y2="465.3"/><text fill="#000000" font-family="sans-serif" font-size="9.9" lengthAdjust="spacing" textLength="286.9888" x="73.8" y="479.5831">+point_moved(old_x: float, old_y: float, new_x: float, new_y: float)</text></g><!--class PiecewiseGraph--><g class="entity" data-entity="PiecewiseGraph" data-source-line="26" data-uid="ent0004" id="entity_PiecewiseGraph"><rect fill="#F1F1F1" height="65.9355" rx="2.25" ry="2.25" style="stroke:#181818;stroke-width:0.45;" width="422.1527" x="6.3" y="6.3"/><ellipse cx="177.9592" cy="18.9" fill="#ADD1B2" rx="8.1" ry="8.1" style="stroke:#181818;stroke-width:0.9;"/><path d="M179.3373,16.4391 Q179.4217,16.3125 179.5342,16.2563 Q179.6467,16.1859 179.7732,16.1859 Q179.9842,16.1859 180.1248,16.3406 Q180.2654,16.4953 180.2654,16.8469 L180.2654,17.6906 Q180.2654,18.0422 180.1248,18.1969 Q179.9842,18.3516 179.7732,18.3516 Q179.5764,18.3516 179.4498,18.2391 Q179.3232,18.1266 179.267,17.8313 Q179.2389,17.6203 179.1404,17.5078 Q178.9436,17.2969 178.5779,17.1703 Q178.2264,17.0297 177.8748,17.0297 Q177.4248,17.0297 177.0451,17.2266 Q176.6795,17.4234 176.3842,17.8594 Q176.1029,18.2953 176.1029,18.8859 L176.1029,19.5328 Q176.1029,20.25 176.6232,20.7281 Q177.1436,21.2063 178.0717,21.2063 Q178.6201,21.2063 178.9998,21.0516 Q179.2248,20.9672 179.4779,20.7141 Q179.6326,20.5594 179.717,20.5172 Q179.8014,20.4609 179.9139,20.4609 Q180.1107,20.4609 180.2654,20.6156 Q180.4201,20.7703 180.4201,20.9672 Q180.4201,21.1641 180.2092,21.4031 Q179.9139,21.7406 179.4498,21.9375 Q178.8311,22.1906 178.0717,22.1906 Q177.1998,22.1906 176.4967,21.8391 Q175.9201,21.5438 175.5123,20.925 Q175.1186,20.2922 175.1186,19.5469 L175.1186,18.8719 Q175.1186,18.0984 175.4701,17.4375 Q175.8357,16.7625 176.4686,16.4109 Q177.1154,16.0453 177.8326,16.0453 Q178.2545,16.0453 178.6342,16.1438 Q179.0139,16.2422 179.3373,16.4391 Z " fill="#000000"/><text fill="#000000" font-family="sans-serif" font-size="9.9" lengthAdjust="spacing" textLength="72.0844" x="193.7092" y="22.9992">PiecewiseGraph</text><line style="stroke:#181818;stroke-width:0.45;" x1="7.2" x2="427.5527" y1="31.5" y2="31.5"/><text fill="#000000" font-family="sans-serif" font-size="9.9" lengthAdjust="spacing" textLength="173.0905" x="11.7" y="45.7831">+draggable_points: list[DraggablePoint]</text><line style="stroke:#181818;stroke-width:0.45;" x1="7.2" x2="427.5527" y1="51.8678" y2="51.8678"/><text fill="#000000" font-family="sans-serif" font-size="9.9" lengthAdjust="spacing" textLength="411.3527" x="11.7" y="66.1509">+update_plot(points, pieces, is_normalised, cdf_func, shade_min, shade_max, show_cursors)</text></g><!--link DraggablePoint to Controller--><g class="link" data-entity-1="DraggablePoint" data-entity-2="Controller" data-source-line="31" data-uid="lnk5" id="link_DraggablePoint_Controller"><path codeLine="31" d="M217.35,364.662 C217.35,390.285 217.35,409.779 217.35,427.491" fill="none" id="DraggablePoint-to-Controller" style="stroke:#181818;stroke-width:0.9;"/><polygon fill="#181818" points="217.35,432.891,220.95,424.791,217.35,428.391,213.75,424.791,217.35,432.891" style="stroke:#181818;stroke-width:0.9;"/><text fill="#000000" font-family="sans-serif" font-size="9.9" lengthAdjust="spacing" textLength="144.1688" x="218.25" y="403.0831">on_release() calls point_moved()</text></g><!--reverse link PiecewiseGraph to DraggablePoint--><g class="link" data-entity-1="PiecewiseGraph" data-entity-2="DraggablePoint" data-source-line="32" data-uid="lnk6" id="link_PiecewiseGraph_DraggablePoint"><path codeLine="32" d="M217.35,82.971 C217.35,101.52 217.35,115.263 217.35,140.229" fill="none" id="PiecewiseGraph-backto-DraggablePoint" style="stroke:#181818;stroke-width:0.9;"/><polygon fill="#181818" points="217.35,72.171,213.75,77.571,217.35,82.971,220.95,77.571,217.35,72.171" style="stroke:#181818;stroke-width:0.9;"/><text fill="#000000" font-family="sans-serif" font-size="9.9" lengthAdjust="spacing" textLength="125.4757" x="218.25" y="110.5831">creates one per control point</text></g><!--SRC=[VL9DRzim3BtxL_1eRtQmNdqO46njiSE60ZiMXS18JA9MbWI9Rj9z_FV9SkmwGTUB999FZtmauvEs7WDs80t6k6OEUjCpVPFE_jI_23uLSOOesc9l-CPPph6hgwB8t-1hmDqEDuRkdBOClmk0Zt1iOMiSSZPUbaOYv-2CeT22spoI7DqOM4TkeKFsnh7HczNeMgtpbK4-K8mjSEyDmH_uuInblxQQDHfnbdLoBh8tJOu8CSI4AALpGPtuxZEe7h4FzHjrLcEXp2Zt9HxFQprINAtJKKqYRVfHZfQp8bTUqZFPfF6xwoDT3-yvtZdMphu326G88_qFiICMMKqigpS55N-dUNsPXPrcvOUvfGgUIPNEgBcBDGpMosnPEYnYWpN5gbVsEqsI3ZhIRK2_FsLGqug8d2kDqAIHtfzlpaE6zbuX9rpgQpc2Q_03Pxfr5DQ53jDdKcb2QYkslPKrn3qg4fssynEFmzCTXEn3T27c2YysjMa-BvlHBjjSWKHZubblgk92t8UckTp-5cIW920cCWAVQ4zxD38L_m00]--></g></svg>