<svg xmlns="http://www.w3.org/2000/svg" xmlns:xlink="http://www.w3.org/1999/xlink" contentStyleType="text/css" data-diagram-type="CLASS" height="488px" preserveAspectRatio="none" style="width:248px;height:488px;background:#FFFFFF;" version="1.1" viewBox="0 0 248 488" width="248px" zoomAndPan="magnify"><defs/><g><!--class AbstractStatisticalModel--><g class="entity" data-entity="AbstractStatisticalModel" data-source-line="4" data-uid="ent0002" id="entity_AbstractStatisticalModel"><rect fill="#F1F1F1" height="87.8926" rx="2.5" ry="2.5" style="stroke:#181818;stroke-width:0.5;" width="145.3799" x="51.5" y="7"/><ellipse cx="64.5" cy="21" fill="#A9DCDF" rx="9" ry="9" style="stroke:#181818;stroke-width:1;"/><path d="M65.6406,22.7344 L62.9688,22.7344 L62.7031,23.4063 L62.9688,23.4063 Q63.375,23.4063 63.5313,23.5625 Q63.7031,23.7031 63.7031,23.9531 Q63.7031,24.1875 63.5313,24.3438 Q63.375,24.5 62.9688,24.5 L61.4844,24.5 Q61.0938,24.5 60.9219,24.3438 Q60.75,24.1875 60.75,23.9531 Q60.75,23.7031 60.9375,23.5469 Q61.1094,23.3906 61.5156,23.4063 L63.25,19.0938 L62.5313,19.0938 Q62.125,19.0938 61.9531,18.9375 Q61.7969,18.7813 61.7969,18.5313 Q61.7969,18.2969 61.9531,18.1406 Q62.125,17.9844 62.5313,17.9844 L64.9063,17.9844 L67.0938,23.4063 Q67.4844,23.4063 67.6094,23.4844 Q67.8594,23.6563 67.8594,23.9531 Q67.8594,24.1875 67.6875,24.3438 Q67.5156,24.5 67.125,24.5 L65.6406,24.5 Q65.25,24.5 65.0781,24.3438 Q64.9063,24.1875 64.9063,23.9531 Q64.9063,23.7031 65.0781,23.5625 Q65.25,23.4063 65.6406,23.4063 L65.9063,23.4063 L65.6406,22.7344 Z M65.1875,21.625 L64.2969,19.4531 L63.4063,21.625 L65.1875,21.625 Z " fill="#000000"/><text fill="#000000" font-family="sans-serif" font-size="11" font-style="italic" lengthAdjust="spacing" textLength="117.3799" x="76.5" y="25.5547">AbstractStatisticalModel</text><line style="stroke:#181818;stroke-width:0.5;" x1="52.5" x2="195.8799" y1="35" y2="35"/><text fill="#000000" font-family="sans-serif" font-size="11" lengthAdjust="spacing" textLength="85.2876" x="57.5" y="50.8701">+parameters: dict</text><text fill="#000000" font-family="sans-serif" font-size="11" lengthAdjust="spacing" textLength="85.9106" x="57.5" y="65.501">+is_discrete: bool</text><line style="stroke:#181818;stroke-width:1;" x1="52.5" x2="195.8799" y1="72.2617" y2="72.2617"/><text fill="#000000" font-family="sans-serif" font-size="11" lengthAdjust="spacing" textLength="107.0942" x="57.5" y="88.1318">+cdf(x): float | ndarray</text></g><!--class Exponential--><g class="entity" data-entity="Exponential" data-source-line="11" data-uid="ent0003" id="entity_Exponential"><rect fill="#F1F1F1" height="175.6777" rx="2.5" ry="2.5" style="stroke:#181818;stroke-width:0.5;" width="234.3042" x="7" y="156"/><ellipse cx="91.6587" cy="170" fill="#ADD1B2" rx="9" ry="9" style="stroke:#181818;stroke-width:1;"/><path d="M93.1899,167.2656 Q93.2837,167.125 93.4087,167.0625 Q93.5337,166.9844 93.6743,166.9844 Q93.9087,166.9844 94.0649,167.1563 Q94.2212,167.3281 94.2212,167.7188 L94.2212,168.6563 Q94.2212,169.0469 94.0649,169.2188 Q93.9087,169.3906 93.6743,169.3906 Q93.4556,169.3906 93.3149,169.2656 Q93.1743,169.1406 93.1118,168.8125 Q93.0806,168.5781 92.9712,168.4531 Q92.7524,168.2188 92.3462,168.0781 Q91.9556,167.9219 91.5649,167.9219 Q91.0649,167.9219 90.6431,168.1406 Q90.2368,168.3594 89.9087,168.8438 Q89.5962,169.3281 89.5962,169.9844 L89.5962,170.7031 Q89.5962,171.5 90.1743,172.0313 Q90.7524,172.5625 91.7837,172.5625 Q92.3931,172.5625 92.8149,172.3906 Q93.0649,172.2969 93.3462,172.0156 Q93.5181,171.8438 93.6118,171.7969 Q93.7056,171.7344 93.8306,171.7344 Q94.0493,171.7344 94.2212,171.9063 Q94.3931,172.0781 94.3931,172.2969 Q94.3931,172.5156 94.1587,172.7813 Q93.8306,173.1563 93.3149,173.375 Q92.6274,173.6563 91.7837,173.6563 Q90.8149,173.6563 90.0337,173.2656 Q89.3931,172.9375 88.9399,172.25 Q88.5024,171.5469 88.5024,170.7188 L88.5024,169.9688 Q88.5024,169.1094 88.8931,168.375 Q89.2993,167.625 90.0024,167.2344 Q90.7212,166.8281 91.5181,166.8281 Q91.9868,166.8281 92.4087,166.9375 Q92.8306,167.0469 93.1899,167.2656 Z " fill="#000000"/><text fill="#000000" font-family="sans-serif" font-size="11" lengthAdjust="spacing" textLength="57.4868" x="109.1587" y="174.5547">Exponential</text><line style="stroke:#181818;stroke-width:0.5;" x1="8" x2="240.3042" y1="184" y2="184"/><text fill="#000000" font-family="sans-serif" font-size="11" lengthAdjust="spacing" textLength="169.0605" x="13" y="199.8701">+parameters: {lambda: Parameter}</text><text fill="#000000" font-family="sans-serif" font-size="11" lengthAdjust="spacing" textLength="125.3452" x="13" y="214.501">+is_discrete: bool = False</text><line style="stroke:#181818;stroke-width:1;" x1="8" x2="240.3042" y1="221.2617" y2="221.2617"/><text fill="#000000" font-family="sans-serif" font-size="11" lengthAdjust="spacing" textLength="131.146" x="13" y="237.1318">+__init__(parameters: dict)</text><text fill="#000000" font-family="sans-serif" font-size="11" lengthAdjust="spacing" textLength="70.0176" x="13" y="251.7627">+mini: float {0}</text><text fill="#000000" font-family="sans-serif" font-size="11" lengthAdjust="spacing" textLength="108.8398" x="13" y="266.3936">+maxi: float {1/&#955; + 5/&#955;}</text><text fill="#000000" font-family="sans-serif" font-size="11" lengthAdjust="spacing" textLength="160.5474" x="13" y="281.0244">+pdf(x): float | ndarray {&#955;&#183;e^(-&#955;x)}</text><text fill="#000000" font-family="sans-serif" font-size="11" lengthAdjust="spacing" textLength="222.3042" x="13" y="295.6553">+cdf(x): float | ndarray {1 - e^(-&#955;x) {overrides}}</text><text fill="#000000" font-family="sans-serif" font-size="11" lengthAdjust="spacing" textLength="121.9937" x="13" y="310.2861">+expectation(): float {1/&#955;}</text><text fill="#000000" font-family="sans-serif" font-size="11" lengthAdjust="spacing" textLength="110.9722" x="13" y="324.917">+variance(): float {1/&#955;&#178;}</text></g><!--class Parameter--><g class="entity" data-entity="Parameter" data-source-line="24" data-uid="ent0004" id="entity_Parameter"><rect fill="#F1F1F1" height="73.2617" rx="2.5" ry="2.5" style="stroke:#181818;stroke-width:0.5;" width="122.3813" x="63" y="408"/><ellipse cx="95.3627" cy="422" fill="#ADD1B2" rx="9" ry="9" style="stroke:#181818;stroke-width:1;"/><path d="M96.894,419.2656 Q96.9877,419.125 97.1127,419.0625 Q97.2377,418.9844 97.3784,418.9844 Q97.6127,418.9844 97.769,419.1563 Q97.9252,419.3281 97.9252,419.7188 L97.9252,420.6563 Q97.9252,421.0469 97.769,421.2188 Q97.6127,421.3906 97.3784,421.3906 Q97.1596,421.3906 97.019,421.2656 Q96.8784,421.1406 96.8159,420.8125 Q96.7846,420.5781 96.6752,420.4531 Q96.4565,420.2188 96.0502,420.0781 Q95.6596,419.9219 95.269,419.9219 Q94.769,419.9219 94.3471,420.1406 Q93.9409,420.3594 93.6127,420.8438 Q93.3002,421.3281 93.3002,421.9844 L93.3002,422.7031 Q93.3002,423.5 93.8784,424.0313 Q94.4565,424.5625 95.4877,424.5625 Q96.0971,424.5625 96.519,424.3906 Q96.769,424.2969 97.0502,424.0156 Q97.2221,423.8438 97.3159,423.7969 Q97.4096,423.7344 97.5346,423.7344 Q97.7534,423.7344 97.9252,423.9063 Q98.0971,424.0781 98.0971,424.2969 Q98.0971,424.5156 97.8627,424.7813 Q97.5346,425.1563 97.019,425.375 Q96.3315,425.6563 95.4877,425.6563 Q94.519,425.6563 93.7377,425.2656 Q93.0971,424.9375 92.644,424.25 Q92.2065,423.5469 92.2065,422.7188 L92.2065,421.9688 Q92.2065,421.1094 92.5971,420.375 Q93.0034,419.625 93.7065,419.2344 Q94.4252,418.8281 95.2221,418.8281 Q95.6909,418.8281 96.1127,418.9375 Q96.5346,419.0469 96.894,419.2656 Z " fill="#000000"/><text fill="#000000" font-family="sans-serif" font-size="11" lengthAdjust="spacing" textLength="51.353" x="111.6656" y="426.5547">Parameter</text><line style="stroke:#181818;stroke-width:0.5;" x1="64" x2="184.3813" y1="436" y2="436"/><text fill="#000000" font-family="sans-serif" font-size="11" lengthAdjust="spacing" textLength="62.9814" x="69" y="451.8701">-_value: float</text><line style="stroke:#181818;stroke-width:1;" x1="64" x2="184.3813" y1="458.6309" y2="458.6309"/><text fill="#000000" font-family="sans-serif" font-size="11" lengthAdjust="spacing" textLength="110.3813" x="69" y="474.501">+value: float {property}</text></g><!--reverse link AbstractStatisticalModel to Exponential--><g class="link" data-entity-1="AbstractStatisticalModel" data-entity-2="Exponential" data-source-line="30" data-uid="lnk5" id="link_AbstractStatisticalModel_Exponential"><path codeLine="30" d="M124,113.34 C124,131.28 124,134.76 124,155.72" fill="none" id="AbstractStatisticalModel-backto-Exponential" style="stroke:#181818;stroke-width:1;"/><polygon fill="none" points="124,95.34,118,113.34,130,113.34,124,95.34" style="stroke:#181818;stroke-width:1;"/></g><!--reverse link Exponential to Parameter--><g class="link" data-entity-1="Exponential" data-entity-2="Parameter" data-source-line="31" data-uid="lnk6" id="link_Exponential_Parameter"><path codeLine="31" d="M124,344.06 C124,370.73 124,386.59 124,407.78" fill="none" id="Exponential-backto-Parameter" style="stroke:#181818;stroke-width:1;"/><polygon fill="#181818" points="124,332.06,120,338.06,124,344.06,128,338.06,124,332.06" style="stroke:#181818;stroke-width:1;"/><text fill="#000000" font-family="sans-serif" font-size="11" lengthAdjust="spacing" textLength="36.0776" x="125" y="374.8701">lambda</text></g><!--SRC=[VLAnJiCm4Dtz5JSce8XsO8bWw40b1YIaxaGN-ofPE7PaNwgKD3_5mj2j7z1l8YHjKwh2PFczytjtxnpUjItHOm7IO0WpPg_pYkbPEhlG7mGJ4KubYfPO6PuxopqtdGg1UM2FaeVtC3jS5uoi0sk9viKfCj08W5leTOZ9XnIKbjo3EcHA1-axF8NSETEXIT9JKYsZEavXQHmoRC0gz1xNeXLYy7kgIsV9iiPh5et18bUOmkiHRAyxmYFCqGGQdRDCMyrP5bss7FTqqR77jfh9e5fWFMBJk_ssm-wxOs3BwwD0iz_klkWjIlRREcx_cxeJXGIEfT2u5Ncl5OLsU4PrIV8dTsUZ-5SZ0xz2hz5AkY1td-sOvoceFiq4iXMQYWxrOphdA3IbToLvNlSwV_w0XqsIdEzBdE_kfkD6xnI6nObl]--></g></svg>