<svg xmlns="http://www.w3.org/2000/svg" xmlns:xlink="http://www.w3.org/1999/xlink" contentStyleType="text/css" data-diagram-type="SALT" height="394px" preserveAspectRatio="none" style="width:185px;height:394px;background:#FFFFFF;" version="1.1" viewBox="0 0 185 394" width="185px" zoomAndPan="magnify"><defs/><g><text fill="#000000" font-family="sans-serif" font-size="12" lengthAdjust="spacing" textLength="36.0176" x="16" y="18.9492">project</text><text fill="#000000" font-family="sans-serif" font-size="12" lengthAdjust="spacing" textLength="34.6816" x="26" y="34.9102">assets</text><text fill="#000000" font-family="sans-serif" font-size="12" lengthAdjust="spacing" textLength="22.0137" x="36" y="50.8711">dice</text><text fill="#000000" font-family="sans-serif" font-size="12" lengthAdjust="spacing" textLength="56.0391" x="46" y="66.832">dice-1.png</text><text fill="#000000" font-family="sans-serif" font-size="12" lengthAdjust="spacing" textLength="10.002" x="46" y="82.793">...</text><text fill="#000000" font-family="sans-serif" font-size="12" lengthAdjust="spacing" textLength="56.0391" x="46" y="98.7539">dice-6.png</text><text fill="#000000" font-family="sans-serif" font-size="12" lengthAdjust="spacing" textLength="22.6875" x="36" y="114.7148">help</text><text fill="#000000" font-family="sans-serif" font-size="12" lengthAdjust="spacing" textLength="119.2969" x="46" y="130.6758">help_Dice_'Normal'.txt</text><text fill="#000000" font-family="sans-serif" font-size="12" lengthAdjust="spacing" textLength="10.002" x="46" y="146.6367">...</text><text fill="#000000" font-family="sans-serif" font-size="12" lengthAdjust="spacing" textLength="132.7383" x="46" y="162.5977">help_Piece.Piecewise.txt</text><text fill="#000000" font-family="sans-serif" font-size="12" lengthAdjust="spacing" textLength="51.3457" x="26" y="178.5586">Diagrams</text><text fill="#000000" font-family="sans-serif" font-size="12" lengthAdjust="spacing" textLength="54.6797" x="36" y="194.5195">Files.puml</text><text fill="#000000" font-family="sans-serif" font-size="12" lengthAdjust="spacing" textLength="10.002" x="36" y="210.4805">...</text><text fill="#000000" font-family="sans-serif" font-size="12" lengthAdjust="spacing" textLength="47.3438" x="36" y="226.4414">Files.svg</text><text fill="#000000" font-family="sans-serif" font-size="12" lengthAdjust="spacing" textLength="10.002" x="36" y="242.4023">...</text><text fill="#000000" font-family="sans-serif" font-size="12" lengthAdjust="spacing" textLength="98.7305" x="26" y="258.3633">DraggablePoint.py</text><text fill="#000000" font-family="sans-serif" font-size="12" lengthAdjust="spacing" textLength="88.7344" x="26" y="274.3242">LabelSpinbox.py</text><text fill="#000000" font-family="sans-serif" font-size="12" lengthAdjust="spacing" textLength="124.0605" x="26" y="290.2852">LaTeXformulaimage.py</text><text fill="#000000" font-family="sans-serif" font-size="12" lengthAdjust="spacing" textLength="65.3613" x="26" y="306.2461">controller.py</text><text fill="#000000" font-family="sans-serif" font-size="12" lengthAdjust="spacing" textLength="70.0313" x="26" y="322.207">Piecewise.py</text><text fill="#000000" font-family="sans-serif" font-size="12" lengthAdjust="spacing" textLength="134.0684" x="26" y="338.168">piecewisecubicsplines.py</text><text fill="#000000" font-family="sans-serif" font-size="12" lengthAdjust="spacing" textLength="103.3828" x="26" y="354.1289">PiecewiseGraph.py</text><text fill="#000000" font-family="sans-serif" font-size="12" lengthAdjust="spacing" textLength="71.3438" x="26" y="370.0898">README.md</text><text fill="#000000" font-family="sans-serif" font-size="12" lengthAdjust="spacing" textLength="86.0332" x="26" y="386.0508">requirements.txt</text><rect fill="none" height="2" style="stroke:#888888;stroke-width:1;" width="2" x="9" y="12.9805"/><rect fill="none" height="2" style="stroke:#888888;stroke-width:1;" width="2" x="19" y="28.9414"/><line style="stroke:#888888;stroke-width:1;" x1="10" x2="10" y1="15.9805" y2="29.9414"/><line style="stroke:#888888;stroke-width:1;" x1="10" x2="18" y1="29.9414" y2="29.9414"/><rect fill="none" height="2" style="stroke:#888888;stroke-width:1;" width="2" x="29" y="44.9023"/><line style="stroke:#888888;stroke-width:1;" x1="20" x2="20" y1="31.9414" y2="45.9023"/><line style="stroke:#888888;stroke-width:1;" x1="20" x2="28" y1="45.9023" y2="45.9023"/><line style="stroke:#888888;stroke-width:1;" x1="30" x2="30" y1="47.9023" y2="61.8633"/><line style="stroke:#888888;stroke-width:1;" x1="30" x2="38" y1="61.8633" y2="61.8633"/><line style="stroke:#888888;stroke-width:1;" x1="30" x2="30" y1="47.9023" y2="77.8242"/><line style="stroke:#888888;stroke-width:1;" x1="30" x2="38" y1="77.8242" y2="77.8242"/><line style="stroke:#888888;stroke-width:1;" x1="30" x2="30" y1="47.9023" y2="93.7852"/><line style="stroke:#888888;stroke-width:1;" x1="30" x2="38" y1="93.7852" y2="93.7852"/><rect fill="none" height="2" style="stroke:#888888;stroke-width:1;" width="2" x="29" y="108.7461"/><line style="stroke:#888888;stroke-width:1;" x1="20" x2="20" y1="31.9414" y2="109.7461"/><line style="stroke:#888888;stroke-width:1;" x1="20" x2="28" y1="109.7461" y2="109.7461"/><line style="stroke:#888888;stroke-width:1;" x1="30" x2="30" y1="111.7461" y2="125.707"/><line style="stroke:#888888;stroke-width:1;" x1="30" x2="38" y1="125.707" y2="125.707"/><line style="stroke:#888888;stroke-width:1;" x1="30" x2="30" y1="111.7461" y2="141.668"/><line style="stroke:#888888;stroke-width:1;" x1="30" x2="38" y1="141.668" y2="141.668"/><line style="stroke:#888888;stroke-width:1;" x1="30" x2="30" y1="111.7461" y2="157.6289"/><line style="stroke:#888888;stroke-width:1;" x1="30" x2="38" y1="157.6289" y2="157.6289"/><rect fill="none" height="2" style="stroke:#888888;stroke-width:1;" width="2" x="19" y="172.5898"/><line style="stroke:#888888;stroke-width:1;" x1="10" x2="10" y1="15.9805" y2="173.5898"/><line style="stroke:#888888;stroke-width:1;" x1="10" x2="18" y1="173.5898" y2="173.5898"/><line style="stroke:#888888;stroke-width:1;" x1="20" x2="20" y1="175.5898" y2="189.5508"/><line style="stroke:#888888;stroke-width:1;" x1="20" x2="28" y1="189.5508" y2="189.5508"/><line style="stroke:#888888;stroke-width:1;" x1="20" x2="20" y1="175.5898" y2="205.5117"/><line style="stroke:#888888;stroke-width:1;" x1="20" x2="28" y1="205.5117" y2="205.5117"/><line style="stroke:#888888;stroke-width:1;" x1="20" x2="20" y1="175.5898" y2="221.4727"/><line style="stroke:#888888;stroke-width:1;" x1="20" x2="28" y1="221.4727" y2="221.4727"/><line style="stroke:#888888;stroke-width:1;" x1="20" x2="20" y1="175.5898" y2="237.4336"/><line style="stroke:#888888;stroke-width:1;" x1="20" x2="28" y1="237.4336" y2="237.4336"/><line style="stroke:#888888;stroke-width:1;" x1="10" x2="10" y1="15.9805" y2="253.3945"/><line style="stroke:#888888;stroke-width:1;" x1="10" x2="18" y1="253.3945" y2="253.3945"/><line style="stroke:#888888;stroke-width:1;" x1="10" x2="10" y1="15.9805" y2="269.3555"/><line style="stroke:#888888;stroke-width:1;" x1="10" x2="18" y1="269.3555" y2="269.3555"/><line style="stroke:#888888;stroke-width:1;" x1="10" x2="10" y1="15.9805" y2="285.3164"/><line style="stroke:#888888;stroke-width:1;" x1="10" x2="18" y1="285.3164" y2="285.3164"/><line style="stroke:#888888;stroke-width:1;" x1="10" x2="10" y1="15.9805" y2="301.2773"/><line style="stroke:#888888;stroke-width:1;" x1="10" x2="18" y1="301.2773" y2="301.2773"/><line style="stroke:#888888;stroke-width:1;" x1="10" x2="10" y1="15.9805" y2="317.2383"/><line style="stroke:#888888;stroke-width:1;" x1="10" x2="18" y1="317.2383" y2="317.2383"/><line style="stroke:#888888;stroke-width:1;" x1="10" x2="10" y1="15.9805" y2="333.1992"/><line style="stroke:#888888;stroke-width:1;" x1="10" x2="18" y1="333.1992" y2="333.1992"/><line style="stroke:#888888;stroke-width:1;" x1="10" x2="10" y1="15.9805" y2="349.1602"/><line style="stroke:#888888;stroke-width:1;" x1="10" x2="18" y1="349.1602" y2="349.1602"/><line style="stroke:#888888;stroke-width:1;" x1="10" x2="10" y1="15.9805" y2="365.1211"/><line style="stroke:#888888;stroke-width:1;" x1="10" x2="18" y1="365.1211" y2="365.1211"/><line style="stroke:#888888;stroke-width:1;" x1="10" x2="10" y1="15.9805" y2="381.082"/><line style="stroke:#888888;stroke-width:1;" x1="10" x2="18" y1="381.082" y2="381.082"/><!--SRC=[LL7RJkCm47ttLymRHLKj6W5YyrHA2jfk0nKDQD_G91s2LuxjzQM04F- -pgNGbINhN6RiOy_CURJUeVJiWtqKR0p6wZzKUJOU0pf7taKqXgseg0KzcaovKNNFEUS7nldUW1UIfZTQz9H5z-deLji6vH7tRxxplfgxchMWYdYtlmf7GnLa0ckBJH_aMaXot8H6ieFR1zdjwWCLCejrZQMajHRAS_FUYYiiIMwCKAL- -v8A-lqSemM9ei6Q1htIobij9Tb1-8xMSxFdLIX5vOmKgWttV-sDHVCoYFUBoonVy6RR4aj_Wx3KaFAkU-jdN3DIssuSR2rH-OTy1JkoJcW5KvwS96VyTBH13ykW8Bc0QPAU_4YJCvXl2cZjOpRAVnRWTB0LnPauRqKPVEm_PalS8Tm7vKL3ATmPKilirrw0XTe9grKRXoqVy- -2yzF9N7ZOa8r9u35d6JrZa3vsL7ehL9t2Gt4zkM0hL7M8tvS2ANQbuxdsFOMR-Jy0]--></g></svg>