<svg xmlns="http://www.w3.org/2000/svg" xmlns:xlink="http://www.w3.org/1999/xlink" contentStyleType="text/css" data-diagram-type="CLASS" height="473px" preserveAspectRatio="none" style="width:404px;height:473px;background:#FFFFFF;" version="1.1" viewBox="0 0 404 473" width="404px" zoomAndPan="magnify"><defs/><g><!--class AbstractDicetribution--><g class="entity" data-entity="AbstractDicetribution" data-source-line="4" data-uid="ent0002" id="entity_AbstractDicetribution"><rect fill="#F1F1F1" height="102.5234" rx="2.5" ry="2.5" style="stroke:#181818;stroke-width:0.5;" width="129.4868" x="124.5" y="7"/><ellipse cx="137.5" cy="21" fill="#A9DCDF" rx="9" ry="9" style="stroke:#181818;stroke-width:1;"/><path d="M138.6406,22.7344 L135.9688,22.7344 L135.7031,23.4063 L135.9688,23.4063 Q136.375,23.4063 136.5313,23.5625 Q136.7031,23.7031 136.7031,23.9531 Q136.7031,24.1875 136.5313,24.3438 Q136.375,24.5 135.9688,24.5 L134.4844,24.5 Q134.0938,24.5 133.9219,24.3438 Q133.75,24.1875 133.75,23.9531 Q133.75,23.7031 133.9375,23.5469 Q134.1094,23.3906 134.5156,23.4063 L136.25,19.0938 L135.5313,19.0938 Q135.125,19.0938 134.9531,18.9375 Q134.7969,18.7813 134.7969,18.5313 Q134.7969,18.2969 134.9531,18.1406 Q135.125,17.9844 135.5313,17.9844 L137.9063,17.9844 L140.0938,23.4063 Q140.4844,23.4063 140.6094,23.4844 Q140.8594,23.6563 140.8594,23.9531 Q140.8594,24.1875 140.6875,24.3438 Q140.5156,24.5 140.125,24.5 L138.6406,24.5 Q138.25,24.5 138.0781,24.3438 Q137.9063,24.1875 137.9063,23.9531 Q137.9063,23.7031 138.0781,23.5625 Q138.25,23.4063 138.6406,23.4063 L138.9063,23.4063 L138.6406,22.7344 Z M138.1875,21.625 L137.2969,19.4531 L136.4063,21.625 L138.1875,21.625 Z " fill="#000000"/><text fill="#000000" font-family="sans-serif" font-size="11" font-style="italic" lengthAdjust="spacing" textLength="101.4868" x="149.5" y="25.5547">AbstractDicetribution</text><line style="stroke:#181818;stroke-width:0.5;" x1="125.5" x2="252.9868" y1="35" y2="35"/><text fill="#000000" font-family="sans-serif" font-size="11" lengthAdjust="spacing" textLength="115.8599" x="130.5" y="50.8701">+dice_data: list[list[Die]]</text><text fill="#000000" font-family="sans-serif" font-size="11" lengthAdjust="spacing" textLength="85.2876" x="130.5" y="65.501">+parameters: dict</text><line style="stroke:#181818;stroke-width:1;" x1="125.5" x2="252.9868" y1="72.2617" y2="72.2617"/><text fill="#000000" font-family="sans-serif" font-size="11" lengthAdjust="spacing" textLength="114.646" x="130.5" y="88.1318">+set_n_dice_row(n: int)</text><text fill="#000000" font-family="sans-serif" font-size="11" lengthAdjust="spacing" textLength="109.146" x="130.5" y="102.7627">+get_n_dice_row(): int</text></g><!--class GeoDice--><g class="entity" data-entity="GeoDice" data-source-line="12" data-uid="ent0003" id="entity_GeoDice"><rect fill="#F1F1F1" height="146.416" rx="2.5" ry="2.5" style="stroke:#181818;stroke-width:0.5;" width="220.1729" x="79" y="171"/><ellipse cx="163.938" cy="185" fill="#ADD1B2" rx="9" ry="9" style="stroke:#181818;stroke-width:1;"/><path d="M165.4692,182.2656 Q165.563,182.125 165.688,182.0625 Q165.813,181.9844 165.9536,181.9844 Q166.188,181.9844 166.3442,182.1563 Q166.5005,182.3281 166.5005,182.7188 L166.5005,183.6563 Q166.5005,184.0469 166.3442,184.2188 Q166.188,184.3906 165.9536,184.3906 Q165.7349,184.3906 165.5942,184.2656 Q165.4536,184.1406 165.3911,183.8125 Q165.3599,183.5781 165.2505,183.4531 Q165.0317,183.2188 164.6255,183.0781 Q164.2349,182.9219 163.8442,182.9219 Q163.3442,182.9219 162.9224,183.1406 Q162.5161,183.3594 162.188,183.8438 Q161.8755,184.3281 161.8755,184.9844 L161.8755,185.7031 Q161.8755,186.5 162.4536,187.0313 Q163.0317,187.5625 164.063,187.5625 Q164.6724,187.5625 165.0942,187.3906 Q165.3442,187.2969 165.6255,187.0156 Q165.7974,186.8438 165.8911,186.7969 Q165.9849,186.7344 166.1099,186.7344 Q166.3286,186.7344 166.5005,186.9063 Q166.6724,187.0781 166.6724,187.2969 Q166.6724,187.5156 166.438,187.7813 Q166.1099,188.1563 165.5942,188.375 Q164.9067,188.6563 164.063,188.6563 Q163.0942,188.6563 162.313,188.2656 Q161.6724,187.9375 161.2192,187.25 Q160.7817,186.5469 160.7817,185.7188 L160.7817,184.9688 Q160.7817,184.1094 161.1724,183.375 Q161.5786,182.625 162.2817,182.2344 Q163.0005,181.8281 163.7974,181.8281 Q164.2661,181.8281 164.688,181.9375 Q165.1099,182.0469 165.4692,182.2656 Z " fill="#000000"/><text fill="#000000" font-family="sans-serif" font-size="11" lengthAdjust="spacing" textLength="42.7969" x="181.438" y="189.5547">GeoDice</text><line style="stroke:#181818;stroke-width:0.5;" x1="80" x2="298.1729" y1="199" y2="199"/><text fill="#000000" font-family="sans-serif" font-size="11" lengthAdjust="spacing" textLength="137.2476" x="85" y="214.8701">-_success_vals: list[int] = [6]</text><line style="stroke:#181818;stroke-width:1;" x1="80" x2="298.1729" y1="221.6309" y2="221.6309"/><text fill="#000000" font-family="sans-serif" font-size="11" lengthAdjust="spacing" textLength="131.146" x="85" y="237.501">+__init__(parameters: dict)</text><text fill="#000000" font-family="sans-serif" font-size="11" lengthAdjust="spacing" textLength="195.959" x="85" y="252.1318">+success_vals: list[int] {property get/set}</text><text fill="#000000" font-family="sans-serif" font-size="11" lengthAdjust="spacing" textLength="121.3545" x="85" y="266.7627">+get_dice_row(): list[Die]</text><text fill="#000000" font-family="sans-serif" font-size="11" lengthAdjust="spacing" textLength="208.1729" x="85" y="281.3936">+get_row_data(row: list[Die]): int {len(row)}</text><text fill="#000000" font-family="sans-serif" font-size="11" lengthAdjust="spacing" textLength="187.4351" x="85" y="296.0244">+get_plot_data(show_real: bool): tuple</text><text fill="#000000" font-family="sans-serif" font-size="11" lengthAdjust="spacing" textLength="172.7505" x="85" y="310.6553">+e_and_var(show_real: bool): tuple</text></g><!--class Die--><g class="entity" data-entity="Die" data-source-line="25" data-uid="ent0004" id="entity_Die"><rect fill="#F1F1F1" height="73.2617" rx="2.5" ry="2.5" style="stroke:#181818;stroke-width:0.5;" width="58.1484" x="7" y="393"/><ellipse cx="26.1394" cy="407" fill="#ADD1B2" rx="9" ry="9" style="stroke:#181818;stroke-width:1;"/><path d="M27.6706,404.2656 Q27.7644,404.125 27.8894,404.0625 Q28.0144,403.9844 28.155,403.9844 Q28.3894,403.9844 28.5456,404.1563 Q28.7019,404.3281 28.7019,404.7188 L28.7019,405.6563 Q28.7019,406.0469 28.5456,406.2188 Q28.3894,406.3906 28.155,406.3906 Q27.9363,406.3906 27.7956,406.2656 Q27.655,406.1406 27.5925,405.8125 Q27.5613,405.5781 27.4519,405.4531 Q27.2331,405.2188 26.8269,405.0781 Q26.4363,404.9219 26.0456,404.9219 Q25.5456,404.9219 25.1238,405.1406 Q24.7175,405.3594 24.3894,405.8438 Q24.0769,406.3281 24.0769,406.9844 L24.0769,407.7031 Q24.0769,408.5 24.655,409.0313 Q25.2331,409.5625 26.2644,409.5625 Q26.8738,409.5625 27.2956,409.3906 Q27.5456,409.2969 27.8269,409.0156 Q27.9988,408.8438 28.0925,408.7969 Q28.1863,408.7344 28.3113,408.7344 Q28.53,408.7344 28.7019,408.9063 Q28.8738,409.0781 28.8738,409.2969 Q28.8738,409.5156 28.6394,409.7813 Q28.3113,410.1563 27.7956,410.375 Q27.1081,410.6563 26.2644,410.6563 Q25.2956,410.6563 24.5144,410.2656 Q23.8738,409.9375 23.4206,409.25 Q22.9831,408.5469 22.9831,407.7188 L22.9831,406.9688 Q22.9831,406.1094 23.3738,405.375 Q23.78,404.625 24.4831,404.2344 Q25.2019,403.8281 25.9988,403.8281 Q26.4675,403.8281 26.8894,403.9375 Q27.3113,404.0469 27.6706,404.2656 Z " fill="#000000"/><text fill="#000000" font-family="sans-serif" font-size="11" lengthAdjust="spacing" textLength="16.5054" x="39.5037" y="411.5547">Die</text><line style="stroke:#181818;stroke-width:0.5;" x1="8" x2="64.1484" y1="421" y2="421"/><text fill="#000000" font-family="sans-serif" font-size="11" lengthAdjust="spacing" textLength="45.5522" x="13" y="436.8701">+num: int</text><line style="stroke:#181818;stroke-width:1;" x1="8" x2="64.1484" y1="443.6309" y2="443.6309"/><text fill="#000000" font-family="sans-serif" font-size="11" lengthAdjust="spacing" textLength="46.1484" x="13" y="459.501">+roll(): int</text></g><g class="entity" data-entity="mean" data-source-line="31" data-uid="ent0005" id="entity_mean"><rect fill="#F1F1F1" height="41.2617" rx="2.5" ry="2.5" style="stroke:#181818;stroke-width:0.5;" width="95.7461" x="141" y="409"/><text fill="#000000" font-family="sans-serif" font-size="11" lengthAdjust="spacing" textLength="27.5161" x="175.115" y="422.8701">mean</text><line style="stroke:#181818;stroke-width:0.5;" x1="142" x2="235.7461" y1="427.6309" y2="427.6309"/><text fill="#000000" font-family="sans-serif" font-size="11" lengthAdjust="spacing" textLength="83.7461" x="147" y="443.501">mean(l: list): float</text></g><g class="entity" data-entity="sample_var" data-source-line="35" data-uid="ent0006" id="entity_sample_var"><rect fill="#F1F1F1" height="41.2617" rx="2.5" ry="2.5" style="stroke:#181818;stroke-width:0.5;" width="125.0884" x="272.5" y="409"/><text fill="#000000" font-family="sans-serif" font-size="11" lengthAdjust="spacing" textLength="56.8584" x="306.615" y="422.8701">sample_var</text><line style="stroke:#181818;stroke-width:0.5;" x1="273.5" x2="396.5884" y1="427.6309" y2="427.6309"/><text fill="#000000" font-family="sans-serif" font-size="11" lengthAdjust="spacing" textLength="113.0884" x="278.5" y="443.501">sample_var(l: list): float</text></g><!--reverse link AbstractDicetribution to GeoDice--><g class="link" data-entity-1="AbstractDicetribution" data-entity-2="GeoDice" data-source-line="39" data-uid="lnk7" id="link_AbstractDicetribution_GeoDice"><path codeLine="39" d="M189,128.13 C189,146.9 189,150.58 189,170.9" fill="none" id="AbstractDicetribution-backto-GeoDice" style="stroke:#181818;stroke-width:1;"/><polygon fill="none" points="189,110.13,183,128.13,195,128.13,189,110.13" style="stroke:#181818;stroke-width:1;"/></g><!--reverse link GeoDice to Die--><g class="link" data-entity-1="GeoDice" data-entity-2="Die" data-source-line="40" data-uid="lnk8" id="link_GeoDice_Die"><path codeLine="40" d="M85.032,325.7825 C75.722,335.1525 75.45,336.62 68,347 C58.17,360.71 50.84,377.85 45.7,392.88" fill="none" id="GeoDice-backto-Die" style="stroke:#181818;stroke-width:1;"/><polygon fill="#181818" points="93.49,317.27,86.4235,318.7069,85.032,325.7825,92.0985,324.3456,93.49,317.27" style="stroke:#181818;stroke-width:1;"/><text fill="#000000" font-family="sans-serif" font-size="11" lengthAdjust="spacing" textLength="111.8853" x="69" y="359.8701">get_dice_row() creates</text></g><!--link GeoDice to mean--><g class="link" data-entity-1="GeoDice" data-entity-2="mean" data-source-line="41" data-uid="lnk9" id="link_GeoDice_mean"><path codeLine="41" d="M189,317.26 C189,350.36 189,381 189,402.87" fill="none" id="GeoDice-to-mean" style="stroke:#181818;stroke-width:1;stroke-dasharray:7,7;"/><polygon fill="#181818" points="189,408.87,193,399.87,189,403.87,185,399.87,189,408.87" style="stroke:#181818;stroke-width:1;"/><text fill="#000000" font-family="sans-serif" font-size="11" lengthAdjust="spacing" textLength="59.313" x="190" y="359.8701">e_and_var()</text></g><!--link GeoDice to sample_var--><g class="link" data-entity-1="GeoDice" data-entity-2="sample_var" data-source-line="42" data-uid="lnk10" id="link_GeoDice_sample_var"><path codeLine="42" d="M246.49,317.26 C272.83,350.36 298.2444,382.3048 315.6444,404.1748" fill="none" id="GeoDice-to-sample_var" style="stroke:#181818;stroke-width:1;stroke-dasharray:7,7;"/><polygon fill="#181818" points="319.38,408.87,316.9068,399.3367,316.267,404.9573,310.6464,404.3175,319.38,408.87" style="stroke:#181818;stroke-width:1;"/><text fill="#000000" font-family="sans-serif" font-size="11" lengthAdjust="spacing" textLength="59.313" x="280" y="359.8701">e_and_var()</text></g><!--SRC=[VPB1JW8n48Rl-nHpSrTTa0k7ZPYGeCQpYHT2ch8xQBMqJJkhKU2bV0IVp6uBoqBGIzFE_q_xpNJScr26Mxw4KdBdnaHMp6l2XrAhH_65S9MurbBXWjUIxhIYe0q6ISBdZYmlAUR3U7kSY1BZLK8hM2K05r3v6AiuyGAaS3GDoqJWR1Ray0OIMbSqLlB1F0-AGsAAXNIhFr9LW52K1UdvKCg2b6oI9EBSesv80a0EpDLbYSwnToxT5iBRPp22wN2sVuyneGGnbXuZnJV_kcLbh3PewREXwdleJOlO1MpBRbKlXBwaVjFHOp6magWQ9TjVPwIccE5UVAv5BWkOQorz2jL6Od0YuwhobFOVrnd4yEreq3UNyCJjA1ta9kkRd-yW6z-STRVYDVHXkE-m1zr-hwgNiVjj7wsMilCbUlwAVb2MoED4D9jKneAzQo4rx_eSNth6XZ-uzyTJEQVdxdgTvxiPI7QpSEvZ3NLnz3DG-bOGkjROwzr4sABJokn0xZ0Ucdu1]--></g></svg>