<svg xmlns="http://www.w3.org/2000/svg" xmlns:xlink="http://www.w3.org/1999/xlink" contentStyleType="text/css" data-diagram-type="CLASS" height="595.4px" preserveAspectRatio="none" style="width:265px;height:595px;background:#FFFFFF;" version="1.1" viewBox="0 0 265 595" width="265.2px" zoomAndPan="magnify"><defs/><g><!--class AbstractStatisticalModel--><g class="entity" data-entity="AbstractStatisticalModel" data-source-line="4" data-uid="ent0002" id="entity_AbstractStatisticalModel"><rect fill="#F1F1F1" height="95.2402" rx="3.25" ry="3.25" style="stroke:#181818;stroke-width:0.65;" width="188.9938" x="39" y="9.1"/><ellipse cx="55.9" cy="27.3" fill="#A9DCDF" rx="11.7" ry="11.7" style="stroke:#181818;stroke-width:1.3;"/><path d="M57.3828,29.5547 L53.9094,29.5547 L53.5641,30.4281 L53.9094,30.4281 Q54.4375,30.4281 54.6406,30.6313 Q54.8641,30.8141 54.8641,31.1391 Q54.8641,31.4438 54.6406,31.6469 Q54.4375,31.85 53.9094,31.85 L51.9797,31.85 Q51.4719,31.85 51.2484,31.6469 Q51.025,31.4438 51.025,31.1391 Q51.025,30.8141 51.2688,30.6109 Q51.4922,30.4078 52.0203,30.4281 L54.275,24.8219 L53.3406,24.8219 Q52.8125,24.8219 52.5891,24.6188 Q52.3859,24.4156 52.3859,24.0906 Q52.3859,23.7859 52.5891,23.5828 Q52.8125,23.3797 53.3406,23.3797 L56.4281,23.3797 L59.2719,30.4281 Q59.7797,30.4281 59.9422,30.5297 Q60.2672,30.7531 60.2672,31.1391 Q60.2672,31.4438 60.0438,31.6469 Q59.8203,31.85 59.3125,31.85 L57.3828,31.85 Q56.875,31.85 56.6516,31.6469 Q56.4281,31.4438 56.4281,31.1391 Q56.4281,30.8141 56.6516,30.6313 Q56.875,30.4281 57.3828,30.4281 L57.7281,30.4281 L57.3828,29.5547 Z M56.7938,28.1125 L55.6359,25.2891 L54.4781,28.1125 L56.7938,28.1125 Z " fill="#000000"/><text fill="#000000" font-family="sans-serif" font-size="14.3" font-style="italic" lengthAdjust="spacing" textLength="152.5938" x="71.5" y="33.2211">AbstractStatisticalModel</text><line style="stroke:#181818;stroke-width:0.65;" x1="40.3" x2="226.6938" y1="45.5" y2="45.5"/><text fill="#000000" font-family="sans-serif" font-size="14.3" lengthAdjust="spacing" textLength="110.8739" x="46.8" y="66.1312">+parameters: dict</text><text fill="#000000" font-family="sans-serif" font-size="14.3" lengthAdjust="spacing" textLength="111.6838" x="46.8" y="85.1513">+is_discrete: bool</text><line style="stroke:#181818;stroke-width:0.65;" x1="40.3" x2="226.6938" y1="93.9402" y2="93.9402"/></g><!--class Geometric--><g class="entity" data-entity="Geometric" data-source-line="9" data-uid="ent0003" id="entity_Geometric"><rect fill="#F1F1F1" height="209.3609" rx="3.25" ry="3.25" style="stroke:#181818;stroke-width:0.65;" width="248.1565" x="9.1" y="183.3"/><ellipse cx="95.3253" cy="201.5" fill="#ADD1B2" rx="11.7" ry="11.7" style="stroke:#181818;stroke-width:1.3;"/><path d="M97.3159,197.9453 Q97.4378,197.7625 97.6003,197.6813 Q97.7628,197.5797 97.9456,197.5797 Q98.2503,197.5797 98.4534,197.8031 Q98.6565,198.0266 98.6565,198.5344 L98.6565,199.7531 Q98.6565,200.2609 98.4534,200.4844 Q98.2503,200.7078 97.9456,200.7078 Q97.6612,200.7078 97.4784,200.5453 Q97.2956,200.3828 97.2144,199.9563 Q97.1737,199.6516 97.0315,199.4891 Q96.7472,199.1844 96.219,199.0016 Q95.7112,198.7984 95.2034,198.7984 Q94.5534,198.7984 94.005,199.0828 Q93.4769,199.3672 93.0503,199.9969 Q92.644,200.6266 92.644,201.4797 L92.644,202.4141 Q92.644,203.45 93.3956,204.1406 Q94.1472,204.8313 95.4878,204.8313 Q96.28,204.8313 96.8284,204.6078 Q97.1534,204.4859 97.519,204.1203 Q97.7425,203.8969 97.8644,203.8359 Q97.9862,203.7547 98.1487,203.7547 Q98.4331,203.7547 98.6565,203.9781 Q98.88,204.2016 98.88,204.4859 Q98.88,204.7703 98.5753,205.1156 Q98.1487,205.6031 97.4784,205.8875 Q96.5847,206.2531 95.4878,206.2531 Q94.2284,206.2531 93.2128,205.7453 Q92.38,205.3188 91.7909,204.425 Q91.2222,203.5109 91.2222,202.4344 L91.2222,201.4594 Q91.2222,200.3422 91.73,199.3875 Q92.2581,198.4125 93.1722,197.9047 Q94.1065,197.3766 95.1425,197.3766 Q95.7519,197.3766 96.3003,197.5188 Q96.8487,197.6609 97.3159,197.9453 Z " fill="#000000"/><text fill="#000000" font-family="sans-serif" font-size="14.3" lengthAdjust="spacing" textLength="65.956" x="118.0753" y="207.4211">Geometric</text><line style="stroke:#181818;stroke-width:0.65;" x1="10.4" x2="255.9565" y1="219.7" y2="219.7"/><text fill="#000000" font-family="sans-serif" font-size="14.3" lengthAdjust="spacing" textLength="180.8308" x="16.9" y="240.3312">+parameters: {p: Parameter}</text><text fill="#000000" font-family="sans-serif" font-size="14.3" lengthAdjust="spacing" textLength="157.3838" x="16.9" y="259.3513">+is_discrete: bool = True</text><line style="stroke:#181818;stroke-width:1.3;" x1="10.4" x2="255.9565" y1="268.1402" y2="268.1402"/><text fill="#000000" font-family="sans-serif" font-size="14.3" lengthAdjust="spacing" textLength="170.4898" x="16.9" y="288.7714">+__init__(parameters: dict)</text><text fill="#000000" font-family="sans-serif" font-size="14.3" lengthAdjust="spacing" textLength="79.0969" x="16.9" y="307.7915">+mini: int {1}</text><text fill="#000000" font-family="sans-serif" font-size="14.3" lengthAdjust="spacing" textLength="184.8736" x="16.9" y="326.8116">+maxi: int {1/p + 5&#8730;((1-p)/p&#178;)}</text><text fill="#000000" font-family="sans-serif" font-size="14.3" lengthAdjust="spacing" textLength="232.5565" x="16.9" y="345.8317">+pdf(x): float | ndarray {(1-p)^(x-1)&#183;p}</text><text fill="#000000" font-family="sans-serif" font-size="14.3" lengthAdjust="spacing" textLength="159.3947" x="16.9" y="364.8519">+expectation(): float {1/p}</text><text fill="#000000" font-family="sans-serif" font-size="14.3" lengthAdjust="spacing" textLength="167.3058" x="16.9" y="383.872">+variance(): float {(1-p)/p&#178;}</text></g><!--class Parameter--><g class="entity" data-entity="Parameter" data-source-line="21" data-uid="ent0004" id="entity_Parameter"><rect fill="#F1F1F1" height="95.2402" rx="3.25" ry="3.25" style="stroke:#181818;stroke-width:0.65;" width="159.0958" x="53.95" y="491.4"/><ellipse cx="96.0216" cy="509.6" fill="#ADD1B2" rx="11.7" ry="11.7" style="stroke:#181818;stroke-width:1.3;"/><path d="M98.0122,506.0453 Q98.1341,505.8625 98.2966,505.7813 Q98.4591,505.6797 98.6419,505.6797 Q98.9466,505.6797 99.1497,505.9031 Q99.3528,506.1266 99.3528,506.6344 L99.3528,507.8531 Q99.3528,508.3609 99.1497,508.5844 Q98.9466,508.8078 98.6419,508.8078 Q98.3575,508.8078 98.1747,508.6453 Q97.9919,508.4828 97.9106,508.0563 Q97.87,507.7516 97.7278,507.5891 Q97.4434,507.2844 96.9153,507.1016 Q96.4075,506.8984 95.8997,506.8984 Q95.2497,506.8984 94.7013,507.1828 Q94.1731,507.4672 93.7466,508.0969 Q93.3403,508.7266 93.3403,509.5797 L93.3403,510.5141 Q93.3403,511.55 94.0919,512.2406 Q94.8434,512.9313 96.1841,512.9313 Q96.9763,512.9313 97.5247,512.7078 Q97.8497,512.5859 98.2153,512.2203 Q98.4388,511.9969 98.5606,511.9359 Q98.6825,511.8547 98.845,511.8547 Q99.1294,511.8547 99.3528,512.0781 Q99.5763,512.3016 99.5763,512.5859 Q99.5763,512.8703 99.2716,513.2156 Q98.845,513.7031 98.1747,513.9875 Q97.2809,514.3531 96.1841,514.3531 Q94.9247,514.3531 93.9091,513.8453 Q93.0763,513.4188 92.4872,512.525 Q91.9184,511.6109 91.9184,510.5344 L91.9184,509.5594 Q91.9184,508.4422 92.4263,507.4875 Q92.9544,506.5125 93.8684,506.0047 Q94.8028,505.4766 95.8388,505.4766 Q96.4481,505.4766 96.9966,505.6188 Q97.545,505.7609 98.0122,506.0453 Z " fill="#000000"/><text fill="#000000" font-family="sans-serif" font-size="14.3" lengthAdjust="spacing" textLength="66.7589" x="117.2152" y="515.5211">Parameter</text><line style="stroke:#181818;stroke-width:0.65;" x1="55.25" x2="211.7458" y1="527.8" y2="527.8"/><text fill="#000000" font-family="sans-serif" font-size="14.3" lengthAdjust="spacing" textLength="81.8759" x="61.75" y="548.4312">-_value: float</text><line style="stroke:#181818;stroke-width:1.3;" x1="55.25" x2="211.7458" y1="557.2201" y2="557.2201"/><text fill="#000000" font-family="sans-serif" font-size="14.3" lengthAdjust="spacing" textLength="143.4958" x="61.75" y="577.8513">+value: float {property}</text></g><!--reverse link AbstractStatisticalModel to Geometric--><g class="link" data-entity-1="AbstractStatisticalModel" data-entity-2="Geometric" data-source-line="27" data-uid="lnk5" id="link_AbstractStatisticalModel_Geometric"><path codeLine="27" d="M133.25,127.556 C133.25,150.397 133.25,155.558 133.25,183.235" fill="none" id="AbstractStatisticalModel-backto-Geometric" style="stroke:#181818;stroke-width:1.3;"/><polygon fill="none" points="133.25,104.156,125.45,127.556,141.05,127.556,133.25,104.156" style="stroke:#181818;stroke-width:1.3;"/></g><!--reverse link Geometric to Parameter--><g class="link" data-entity-1="Geometric" data-entity-2="Parameter" data-source-line="28" data-uid="lnk6" id="link_Geometric_Parameter"><path codeLine="28" d="M133.25,408.356 C133.25,442.689 133.25,463.58 133.25,491.348" fill="none" id="Geometric-backto-Parameter" style="stroke:#181818;stroke-width:1.3;"/><polygon fill="#181818" points="133.25,392.756,128.05,400.556,133.25,408.356,138.45,400.556,133.25,392.756" style="stroke:#181818;stroke-width:1.3;"/><text fill="#000000" font-family="sans-serif" font-size="14.3" lengthAdjust="spacing" textLength="7.953" x="134.55" y="448.3312">p</text></g><!--SRC=[TL6zJiCm4Dxz53Sc8AjaO8bWw09YG48gCz7LSIKBnxRiIvMITkSPU0mMzZuAJuBhbAH2PRplpxxlmgio3Zqs83I6C2VoQjcIV13MBDIRX2iMHaajLzXgkhE64bSKZE4oa4T1Wn_cnt51I2gG4gWVRIqrz0pW4bAE9Eb32RKIb40Lgbe5uIDUmj9QpNQC3N7tqaQvL-ACltSbFFtEk_D9S0lFlfMHv3mfgaePHLML_Vr9dkWciYKeGz0NGsI3tOZCN0Iklzy_igpWBf-v_MS-g5ozohgyX9MsIB05KwFtk84-2L-oZXVv_iiDOjavAGxzM9EDdaFwGA_HApH2dd3ZSxkfcd7rL0s7QeswbKVBjF0f6YlprabFcvJpxwrkjfnFrRFf21SHdzujmR4V]--></g></svg>