<svg xmlns="http://www.w3.org/2000/svg" xmlns:xlink="http://www.w3.org/1999/xlink" contentStyleType="text/css" data-diagram-type="CLASS" height="324px" preserveAspectRatio="none" style="width:235px;height:324px;background:#FFFFFF;" version="1.1" viewBox="0 0 235 324" width="235px" zoomAndPan="magnify"><defs/><g><!--class HelpWindow--><g class="entity" data-entity="HelpWindow" data-source-line="4" data-uid="ent0002" id="entity_HelpWindow"><rect fill="#F1F1F1" height="175.6777" rx="2.5" ry="2.5" style="stroke:#181818;stroke-width:0.5;" width="212.2344" x="7" y="142"/><ellipse cx="78.4941" cy="156" fill="#ADD1B2" rx="9" ry="9" style="stroke:#181818;stroke-width:1;"/><path d="M80.0254,153.2656 Q80.1191,153.125 80.2441,153.0625 Q80.3691,152.9844 80.5098,152.9844 Q80.7441,152.9844 80.9004,153.1563 Q81.0566,153.3281 81.0566,153.7188 L81.0566,154.6563 Q81.0566,155.0469 80.9004,155.2188 Q80.7441,155.3906 80.5098,155.3906 Q80.291,155.3906 80.1504,155.2656 Q80.0098,155.1406 79.9473,154.8125 Q79.916,154.5781 79.8066,154.4531 Q79.5879,154.2188 79.1816,154.0781 Q78.791,153.9219 78.4004,153.9219 Q77.9004,153.9219 77.4785,154.1406 Q77.0723,154.3594 76.7441,154.8438 Q76.4316,155.3281 76.4316,155.9844 L76.4316,156.7031 Q76.4316,157.5 77.0098,158.0313 Q77.5879,158.5625 78.6191,158.5625 Q79.2285,158.5625 79.6504,158.3906 Q79.9004,158.2969 80.1816,158.0156 Q80.3535,157.8438 80.4473,157.7969 Q80.541,157.7344 80.666,157.7344 Q80.8848,157.7344 81.0566,157.9063 Q81.2285,158.0781 81.2285,158.2969 Q81.2285,158.5156 80.9941,158.7813 Q80.666,159.1563 80.1504,159.375 Q79.4629,159.6563 78.6191,159.6563 Q77.6504,159.6563 76.8691,159.2656 Q76.2285,158.9375 75.7754,158.25 Q75.3379,157.5469 75.3379,156.7188 L75.3379,155.9688 Q75.3379,155.1094 75.7285,154.375 Q76.1348,153.625 76.8379,153.2344 Q77.5566,152.8281 78.3535,152.8281 Q78.8223,152.8281 79.2441,152.9375 Q79.666,153.0469 80.0254,153.2656 Z " fill="#000000"/><text fill="#000000" font-family="sans-serif" font-size="11" lengthAdjust="spacing" textLength="61.7461" x="95.9941" y="160.5547">HelpWindow</text><line style="stroke:#181818;stroke-width:0.5;" x1="8" x2="218.2344" y1="170" y2="170"/><text fill="#000000" font-family="sans-serif" font-size="11" lengthAdjust="spacing" textLength="96.2983" x="13" y="185.8701">+canvas: tk.Canvas</text><text fill="#000000" font-family="sans-serif" font-size="11" lengthAdjust="spacing" textLength="123.793" x="13" y="200.501">+y_scrollbar: ttk.Scrollbar</text><text fill="#000000" font-family="sans-serif" font-size="11" lengthAdjust="spacing" textLength="123.793" x="13" y="215.1318">+x_scrollbar: ttk.Scrollbar</text><text fill="#000000" font-family="sans-serif" font-size="11" lengthAdjust="spacing" textLength="139.686" x="13" y="229.7627">+scrollable_frame: ttk.Frame</text><text fill="#000000" font-family="sans-serif" font-size="11" lengthAdjust="spacing" textLength="74.3037" x="13" y="244.3936">+label: tk.Label</text><text fill="#000000" font-family="sans-serif" font-size="11" lengthAdjust="spacing" textLength="96.6045" x="13" y="259.0244">-help_file_name: str</text><line style="stroke:#181818;stroke-width:1;" x1="8" x2="218.2344" y1="265.7852" y2="265.7852"/><text fill="#000000" font-family="sans-serif" font-size="11" lengthAdjust="spacing" textLength="200.2344" x="13" y="281.6553">+__init__(root: tk.Tk, help_file_name: str)</text><text fill="#000000" font-family="sans-serif" font-size="11" lengthAdjust="spacing" textLength="83.4614" x="13" y="296.2861">+place_widgets()</text><text fill="#000000" font-family="sans-serif" font-size="11" lengthAdjust="spacing" textLength="98.1353" x="13" y="310.917">+get_help_text(): str</text></g><!--class ModeMenu--><g class="entity" data-entity="ModeMenu" data-source-line="17" data-uid="ent0003" id="entity_ModeMenu"><rect fill="#F1F1F1" height="58.6309" rx="2.5" ry="2.5" style="stroke:#181818;stroke-width:0.5;" width="206.7236" x="9.5" y="7"/><ellipse cx="81.5957" cy="21" fill="#ADD1B2" rx="9" ry="9" style="stroke:#181818;stroke-width:1;"/><path d="M83.127,18.2656 Q83.2207,18.125 83.3457,18.0625 Q83.4707,17.9844 83.6113,17.9844 Q83.8457,17.9844 84.002,18.1563 Q84.1582,18.3281 84.1582,18.7188 L84.1582,19.6563 Q84.1582,20.0469 84.002,20.2188 Q83.8457,20.3906 83.6113,20.3906 Q83.3926,20.3906 83.252,20.2656 Q83.1113,20.1406 83.0488,19.8125 Q83.0176,19.5781 82.9082,19.4531 Q82.6895,19.2188 82.2832,19.0781 Q81.8926,18.9219 81.502,18.9219 Q81.002,18.9219 80.5801,19.1406 Q80.1738,19.3594 79.8457,19.8438 Q79.5332,20.3281 79.5332,20.9844 L79.5332,21.7031 Q79.5332,22.5 80.1113,23.0313 Q80.6895,23.5625 81.7207,23.5625 Q82.3301,23.5625 82.752,23.3906 Q83.002,23.2969 83.2832,23.0156 Q83.4551,22.8438 83.5488,22.7969 Q83.6426,22.7344 83.7676,22.7344 Q83.9863,22.7344 84.1582,22.9063 Q84.3301,23.0781 84.3301,23.2969 Q84.3301,23.5156 84.0957,23.7813 Q83.7676,24.1563 83.252,24.375 Q82.5645,24.6563 81.7207,24.6563 Q80.752,24.6563 79.9707,24.2656 Q79.3301,23.9375 78.877,23.25 Q78.4395,22.5469 78.4395,21.7188 L78.4395,20.9688 Q78.4395,20.1094 78.8301,19.375 Q79.2363,18.625 79.9395,18.2344 Q80.6582,17.8281 81.4551,17.8281 Q81.9238,17.8281 82.3457,17.9375 Q82.7676,18.0469 83.127,18.2656 Z " fill="#000000"/><text fill="#000000" font-family="sans-serif" font-size="11" lengthAdjust="spacing" textLength="55.0322" x="99.0957" y="25.5547">ModeMenu</text><line style="stroke:#181818;stroke-width:0.5;" x1="10.5" x2="215.2236" y1="35" y2="35"/><line style="stroke:#181818;stroke-width:1;" x1="10.5" x2="215.2236" y1="43" y2="43"/><text fill="#000000" font-family="sans-serif" font-size="11" lengthAdjust="spacing" textLength="194.7236" x="15.5" y="58.8701">+help_callback(mode: str, dist_type: str)</text></g><!--link ModeMenu to HelpWindow--><g class="link" data-entity-1="ModeMenu" data-entity-2="HelpWindow" data-source-line="22" data-uid="lnk4" id="link_ModeMenu_HelpWindow"><path codeLine="22" d="M113,66.17 C113,86.31 113,108.4 113,135.59" fill="none" id="ModeMenu-to-HelpWindow" style="stroke:#181818;stroke-width:1;"/><polygon fill="#181818" points="113,141.59,117,132.59,113,136.59,109,132.59,113,141.59" style="stroke:#181818;stroke-width:1;"/><text fill="#000000" font-family="sans-serif" font-size="11" lengthAdjust="spacing" textLength="113.1099" x="114" y="108.8701">help_callback() creates</text></g><!--SRC=[VP1FJyCm3CNl_HG-jc95xBe34aAQXiHEcyGnSXCNecP9bRZx0-AxaxfqGWXnS_pUpyznwgplCU81jCEK7fYZRGQc9ntyphuJt1NfQZ7Kuk1u7JoBjbmMXM2m8TU_M6_22JuAW1lGw8-OLi3TxQEKqhsef6Dmhi6OfQpjvgV8v__bISJ6aMhpEZHvrcCfUfR8IUJpMELU3MzvCTNQZ7WX4e-pwbe0fQoth5GPGs01zztYBwGIU-zGapfPyqgSogcNIoK0qvdBQWhudC-o3OQsv0SvodUek3MEtz9TUSWEWHPWR6B5btwEp5EkV5tV_xpnwjUK2dGaP4h55m00]--></g></svg>