<svg xmlns="http://www.w3.org/2000/svg" xmlns:xlink="http://www.w3.org/1999/xlink" contentStyleType="text/css" data-diagram-type="ACTIVITY" height="255px" preserveAspectRatio="none" style="width:400px;height:255px;background:#FFFFFF;" version="1.1" viewBox="0 0 400 255" width="400px" zoomAndPan="magnify"><defs/><g><rect fill="none" height="233.5039" style="stroke:#000000;stroke-width:1.5;" width="378.584" x="11" y="11"/><path d="M232.668,11 L232.668,22.6211 L222.668,32.6211 L11,32.6211" fill="none" style="stroke:#000000;stroke-width:1.5;"/><text fill="#000000" font-family="sans-serif" font-size="14" lengthAdjust="spacing" textLength="211.668" x="14" y="27.1074">integrate_nbic(x1, x2, a, b, c, d, n)</text><ellipse cx="200.292" cy="52.6211" fill="#222222" rx="10" ry="10" style="stroke:#222222;stroke-width:1;"/><rect fill="#F1F1F1" height="51.9219" rx="12.5" ry="12.5" style="stroke:#181818;stroke-width:0.5;" width="358.584" x="21" y="82.6211"/><text fill="#000000" font-family="sans-serif" font-size="12" lengthAdjust="spacing" textLength="334.6582" x="31" y="105.5703">compute a * (x2^(n+1) - x1^(n+1)) / (n+1) + b * (x2^n - x1^n) / n</text><text fill="#000000" font-family="sans-serif" font-size="12" lengthAdjust="spacing" textLength="338.584" x="31" y="121.5313">+ c * (x2^(n-1) - x1^(n-1)) / (n-1)+ d * (x2^(n-2) - x1^(n-2)) / (n-2)</text><rect fill="#F1F1F1" height="35.9609" rx="12.5" ry="12.5" style="stroke:#181818;stroke-width:0.5;" width="84.0254" x="158.2793" y="154.543"/><text fill="#000000" font-family="sans-serif" font-size="12" lengthAdjust="spacing" textLength="64.0254" x="168.2793" y="177.4922">return result</text><ellipse cx="200.292" cy="221.5039" fill="none" rx="11" ry="11" style="stroke:#222222;stroke-width:1;"/><ellipse cx="200.292" cy="221.5039" fill="#222222" rx="6" ry="6" style="stroke:#222222;stroke-width:1;"/><line style="stroke:#181818;stroke-width:1;" x1="200.292" x2="200.292" y1="62.6211" y2="82.6211"/><polygon fill="#181818" points="196.292,72.6211,200.292,82.6211,204.292,72.6211,200.292,76.6211" style="stroke:#181818;stroke-width:1;"/><line style="stroke:#181818;stroke-width:1;" x1="200.292" x2="200.292" y1="134.543" y2="154.543"/><polygon fill="#181818" points="196.292,144.543,200.292,154.543,204.292,144.543,200.292,148.543" style="stroke:#181818;stroke-width:1;"/><line style="stroke:#181818;stroke-width:1;" x1="200.292" x2="200.292" y1="190.5039" y2="210.5039"/><polygon fill="#181818" points="196.292,200.5039,200.292,210.5039,204.292,200.5039,200.292,204.5039" style="stroke:#181818;stroke-width:1;"/><!--SRC=[HOv12eCm54JtESNWoZG9nIprBfKOGmcqNua_42YzUotMPZVCl0UpkiIHuq9e8d6u9yTXf2dwjdGQnMeuZKd3QymQ91kynCQx97g_FDVC0GuNjCNUMbATX47fZYXnnT4fJ3-6Zfs-6ma5_tTDTStfxa5XheYjY3qHAmVHfy0v4LBOyeE7_U2oYhVu0000]--></g></svg>