<svg xmlns="http://www.w3.org/2000/svg" xmlns:xlink="http://www.w3.org/1999/xlink" contentStyleType="text/css" data-diagram-type="ACTIVITY" height="577.6px" preserveAspectRatio="none" style="width:464px;height:577px;background:#FFFFFF;" version="1.1" viewBox="0 0 464 577" width="464px" zoomAndPan="magnify"><defs/><g><rect fill="none" height="543.2063" style="stroke:#000000;stroke-width:2.4;" width="429.3156" x="17.6" y="17.6"/><path d="M373.5047,17.6 L373.5047,36.1938 L357.5047,52.1938 L17.6,52.1938" fill="none" style="stroke:#000000;stroke-width:2.4;"/><text fill="#000000" font-family="sans-serif" font-size="22.4" lengthAdjust="spacing" textLength="339.9047" x="22.4" y="43.3719">integrate_nbic(coefficients, x1, x2)</text><ellipse cx="232.2578" cy="84.1938" fill="#222222" rx="16" ry="16" style="stroke:#222222;stroke-width:1.6;"/><rect fill="#F1F1F1" height="57.5375" rx="20" ry="20" style="stroke:#181818;stroke-width:0.8;" width="136.5969" x="163.9594" y="132.1938"/><text fill="#000000" font-family="sans-serif" font-size="19.2" lengthAdjust="spacing" textLength="104.5969" x="179.9594" y="168.9125">set total to 0</text><rect fill="#F1F1F1" height="57.5375" rx="20" ry="20" style="stroke:#181818;stroke-width:0.8;" width="339.7156" x="62.4" y="292.1313"/><text fill="#000000" font-family="sans-serif" font-size="19.2" lengthAdjust="spacing" textLength="307.7156" x="78.4" y="328.85">total += c/(i+1) * (x2^(i+1) - x1^(i+1))</text><polygon fill="#F1F1F1" points="104.6063,221.7313,359.9094,221.7313,379.1094,240.9313,359.9094,260.1313,104.6063,260.1313,85.4063,240.9313,104.6063,221.7313" style="stroke:#181818;stroke-width:0.8;"/><text fill="#000000" font-family="sans-serif" font-size="17.6" lengthAdjust="spacing" textLength="255.3031" x="104.6063" y="248.2188">for i, c in enumerate(coefficients)</text><text fill="#000000" font-family="sans-serif" font-size="17.6" lengthAdjust="spacing" textLength="34.2547" x="51.1516" y="236.5141">then</text><rect fill="#F1F1F1" height="57.5375" rx="20" ry="20" style="stroke:#181818;stroke-width:0.8;" width="123.7813" x="170.3672" y="416.8688"/><text fill="#000000" font-family="sans-serif" font-size="19.2" lengthAdjust="spacing" textLength="91.7813" x="186.3672" y="453.5875">return total</text><ellipse cx="232.2578" cy="524.0063" fill="none" rx="17.6" ry="17.6" style="stroke:#222222;stroke-width:1.6;"/><ellipse cx="232.2578" cy="524.0063" fill="#222222" rx="9.6" ry="9.6" style="stroke:#222222;stroke-width:1.6;"/><line style="stroke:#181818;stroke-width:1.6;" x1="232.2578" x2="232.2578" y1="100.1938" y2="132.1938"/><polygon fill="#181818" points="225.8578,116.1938,232.2578,132.1938,238.6578,116.1938,232.2578,122.5938" style="stroke:#181818;stroke-width:1.6;"/><line style="stroke:#181818;stroke-width:1.6;" x1="232.2578" x2="232.2578" y1="260.1313" y2="292.1313"/><polygon fill="#181818" points="225.8578,276.1313,232.2578,292.1313,238.6578,276.1313,232.2578,282.5313" style="stroke:#181818;stroke-width:1.6;"/><line style="stroke:#181818;stroke-width:1.6;" x1="232.2578" x2="232.2578" y1="349.6688" y2="365.6688"/><line style="stroke:#181818;stroke-width:1.6;" x1="232.2578" x2="421.3156" y1="365.6688" y2="365.6688"/><polygon fill="#181818" points="414.9156,317.7,421.3156,301.7,427.7156,317.7,421.3156,311.3" style="stroke:#181818;stroke-width:1.6;"/><line style="stroke:#181818;stroke-width:1.6;" x1="421.3156" x2="421.3156" y1="240.9313" y2="365.6688"/><line style="stroke:#181818;stroke-width:1.6;" x1="421.3156" x2="379.1094" y1="240.9313" y2="240.9313"/><polygon fill="#181818" points="395.1094,234.5313,379.1094,240.9313,395.1094,247.3313,388.7094,240.9313" style="stroke:#181818;stroke-width:1.6;"/><line style="stroke:#181818;stroke-width:1.6;" x1="85.4063" x2="43.2" y1="240.9313" y2="240.9313"/><polygon fill="#181818" points="36.8,295.3,43.2,311.3,49.6,295.3,43.2,301.7" style="stroke:#181818;stroke-width:1.6;"/><line style="stroke:#181818;stroke-width:1.6;" x1="43.2" x2="43.2" y1="240.9313" y2="384.8688"/><line style="stroke:#181818;stroke-width:1.6;" x1="43.2" x2="232.2578" y1="384.8688" y2="384.8688"/><line style="stroke:#181818;stroke-width:1.6;" x1="232.2578" x2="232.2578" y1="384.8688" y2="416.8688"/><polygon fill="#181818" points="225.8578,400.8688,232.2578,416.8688,238.6578,400.8688,232.2578,407.2688" style="stroke:#181818;stroke-width:1.6;"/><line style="stroke:#181818;stroke-width:1.6;" x1="232.2578" x2="232.2578" y1="189.7313" y2="221.7313"/><polygon fill="#181818" points="225.8578,205.7313,232.2578,221.7313,238.6578,205.7313,232.2578,212.1313" style="stroke:#181818;stroke-width:1.6;"/><line style="stroke:#181818;stroke-width:1.6;" x1="232.2578" x2="232.2578" y1="474.4063" y2="506.4063"/><polygon fill="#181818" points="225.8578,490.4063,232.2578,506.4063,238.6578,490.4063,232.2578,496.8063" style="stroke:#181818;stroke-width:1.6;"/><!--SRC=[LOx12i8m44Jl-nLBJucjQ7jCyLUK6ZTseMvAkiM2-Ez6uiM17UOoRtOUah9o5AnObEvfKBh8bRtnaK9WpoIwDBYr-JfRuGiMpHrm2obgr67AZiSUdYDFX2R4XDoWHnOaMH_q9Vx1h0NCSgLSdz0V3DUjnHsQhJkNlC-B9TeUI6u_keua5bmYNPEK-Ju_56TummS0]--></g></svg>