<svg xmlns="http://www.w3.org/2000/svg" xmlns:xlink="http://www.w3.org/1999/xlink" contentStyleType="text/css" data-diagram-type="CLASS" height="575px" preserveAspectRatio="none" style="width:449px;height:575px;background:#FFFFFF;" version="1.1" viewBox="0 0 449 575" width="449px" zoomAndPan="magnify"><defs/><g><!--class LabelSpinbox--><g class="entity" data-entity="LabelSpinbox" data-source-line="4" data-uid="ent0002" id="entity_LabelSpinbox"><rect fill="#F1F1F1" height="190.3086" rx="2.5" ry="2.5" style="stroke:#181818;stroke-width:0.5;" width="367.5396" x="17" y="156"/><ellipse cx="163.6868" cy="170" fill="#ADD1B2" rx="9" ry="9" style="stroke:#181818;stroke-width:1;"/><path d="M165.218,167.2656 Q165.3118,167.125 165.4368,167.0625 Q165.5618,166.9844 165.7024,166.9844 Q165.9368,166.9844 166.093,167.1563 Q166.2493,167.3281 166.2493,167.7188 L166.2493,168.6563 Q166.2493,169.0469 166.093,169.2188 Q165.9368,169.3906 165.7024,169.3906 Q165.4836,169.3906 165.343,169.2656 Q165.2024,169.1406 165.1399,168.8125 Q165.1086,168.5781 164.9993,168.4531 Q164.7805,168.2188 164.3743,168.0781 Q163.9836,167.9219 163.593,167.9219 Q163.093,167.9219 162.6711,168.1406 Q162.2649,168.3594 161.9368,168.8438 Q161.6243,169.3281 161.6243,169.9844 L161.6243,170.7031 Q161.6243,171.5 162.2024,172.0313 Q162.7805,172.5625 163.8118,172.5625 Q164.4211,172.5625 164.843,172.3906 Q165.093,172.2969 165.3743,172.0156 Q165.5461,171.8438 165.6399,171.7969 Q165.7336,171.7344 165.8586,171.7344 Q166.0774,171.7344 166.2493,171.9063 Q166.4211,172.0781 166.4211,172.2969 Q166.4211,172.5156 166.1868,172.7813 Q165.8586,173.1563 165.343,173.375 Q164.6555,173.6563 163.8118,173.6563 Q162.843,173.6563 162.0618,173.2656 Q161.4211,172.9375 160.968,172.25 Q160.5305,171.5469 160.5305,170.7188 L160.5305,169.9688 Q160.5305,169.1094 160.9211,168.375 Q161.3274,167.625 162.0305,167.2344 Q162.7493,166.8281 163.5461,166.8281 Q164.0149,166.8281 164.4368,166.9375 Q164.8586,167.0469 165.218,167.2656 Z " fill="#000000"/><text fill="#000000" font-family="sans-serif" font-size="11" lengthAdjust="spacing" textLength="66.666" x="181.1868" y="174.5547">LabelSpinbox</text><line style="stroke:#181818;stroke-width:0.5;" x1="18" x2="383.5396" y1="184" y2="184"/><text fill="#000000" font-family="sans-serif" font-size="11" lengthAdjust="spacing" textLength="114.0229" x="23" y="199.8701">+parameter: Parameter</text><text fill="#000000" font-family="sans-serif" font-size="11" lengthAdjust="spacing" textLength="104.2798" x="23" y="214.501">+on_change: callable</text><text fill="#000000" font-family="sans-serif" font-size="11" lengthAdjust="spacing" textLength="96.2983" x="23" y="229.1318">+value: tk.StringVar</text><text fill="#000000" font-family="sans-serif" font-size="11" lengthAdjust="spacing" textLength="87.7314" x="23" y="243.7627">+text: tk.StringVar</text><text fill="#000000" font-family="sans-serif" font-size="11" lengthAdjust="spacing" textLength="74.3037" x="23" y="258.3936">+label: tk.Label</text><text fill="#000000" font-family="sans-serif" font-size="11" lengthAdjust="spacing" textLength="110.9883" x="23" y="273.0244">+spin_box: ttk.Spinbox</text><line style="stroke:#181818;stroke-width:1;" x1="18" x2="383.5396" y1="279.7852" y2="279.7852"/><text fill="#000000" font-family="sans-serif" font-size="11" lengthAdjust="spacing" textLength="355.5396" x="23" y="295.6553">+__init__(master: tk.Widget, parameter: Parameter, on_change: callable)</text><text fill="#000000" font-family="sans-serif" font-size="11" lengthAdjust="spacing" textLength="149.499" x="23" y="310.2861">+validate(new_value: str): bool</text><text fill="#000000" font-family="sans-serif" font-size="11" lengthAdjust="spacing" textLength="83.4614" x="23" y="324.917">+place_widgets()</text><text fill="#000000" font-family="sans-serif" font-size="11" lengthAdjust="spacing" textLength="129.6421" x="23" y="339.5479">-_on_value_change(*args)</text></g><!--class Parameter--><g class="entity" data-entity="Parameter" data-source-line="18" data-uid="ent0003" id="entity_Parameter"><rect fill="#F1F1F1" height="146.416" rx="2.5" ry="2.5" style="stroke:#181818;stroke-width:0.5;" width="209.7637" x="7" y="422"/><ellipse cx="82.4553" cy="436" fill="#ADD1B2" rx="9" ry="9" style="stroke:#181818;stroke-width:1;"/><path d="M83.9866,433.2656 Q84.0803,433.125 84.2053,433.0625 Q84.3303,432.9844 84.4709,432.9844 Q84.7053,432.9844 84.8616,433.1563 Q85.0178,433.3281 85.0178,433.7188 L85.0178,434.6563 Q85.0178,435.0469 84.8616,435.2188 Q84.7053,435.3906 84.4709,435.3906 Q84.2522,435.3906 84.1116,435.2656 Q83.9709,435.1406 83.9084,434.8125 Q83.8772,434.5781 83.7678,434.4531 Q83.5491,434.2188 83.1428,434.0781 Q82.7522,433.9219 82.3616,433.9219 Q81.8616,433.9219 81.4397,434.1406 Q81.0334,434.3594 80.7053,434.8438 Q80.3928,435.3281 80.3928,435.9844 L80.3928,436.7031 Q80.3928,437.5 80.9709,438.0313 Q81.5491,438.5625 82.5803,438.5625 Q83.1897,438.5625 83.6116,438.3906 Q83.8616,438.2969 84.1428,438.0156 Q84.3147,437.8438 84.4084,437.7969 Q84.5022,437.7344 84.6272,437.7344 Q84.8459,437.7344 85.0178,437.9063 Q85.1897,438.0781 85.1897,438.2969 Q85.1897,438.5156 84.9553,438.7813 Q84.6272,439.1563 84.1116,439.375 Q83.4241,439.6563 82.5803,439.6563 Q81.6116,439.6563 80.8303,439.2656 Q80.1897,438.9375 79.7366,438.25 Q79.2991,437.5469 79.2991,436.7188 L79.2991,435.9688 Q79.2991,435.1094 79.6897,434.375 Q80.0959,433.625 80.7991,433.2344 Q81.5178,432.8281 82.3147,432.8281 Q82.7834,432.8281 83.2053,432.9375 Q83.6272,433.0469 83.9866,433.2656 Z " fill="#000000"/><text fill="#000000" font-family="sans-serif" font-size="11" lengthAdjust="spacing" textLength="51.353" x="99.9553" y="440.5547">Parameter</text><line style="stroke:#181818;stroke-width:0.5;" x1="8" x2="215.7637" y1="450" y2="450"/><text fill="#000000" font-family="sans-serif" font-size="11" lengthAdjust="spacing" textLength="47.9961" x="13" y="465.8701">+label: str</text><text fill="#000000" font-family="sans-serif" font-size="11" lengthAdjust="spacing" textLength="197.7637" x="13" y="480.501">+minimum, maximum, step, default: float</text><text fill="#000000" font-family="sans-serif" font-size="11" lengthAdjust="spacing" textLength="62.9814" x="13" y="495.1318">-_value: float</text><line style="stroke:#181818;stroke-width:1;" x1="8" x2="215.7637" y1="501.8926" y2="501.8926"/><text fill="#000000" font-family="sans-serif" font-size="11" lengthAdjust="spacing" textLength="110.3813" x="13" y="517.7627">+value: float {property}</text><text fill="#000000" font-family="sans-serif" font-size="11" lengthAdjust="spacing" textLength="76.7314" x="13" y="532.3936">+get_label(): str</text><text fill="#000000" font-family="sans-serif" font-size="11" lengthAdjust="spacing" textLength="104.8706" x="13" y="547.0244">+validate(value): bool</text><text fill="#000000" font-family="sans-serif" font-size="11" lengthAdjust="spacing" textLength="123.8198" x="13" y="561.6553">+get_spinbox_args(): dict</text></g><!--class DistributionSettingsFrame--><g class="entity" data-entity="DistributionSettingsFrame" data-source-line="29" data-uid="ent0004" id="entity_DistributionSettingsFrame"><rect fill="#F1F1F1" height="73.2617" rx="2.5" ry="2.5" style="stroke:#181818;stroke-width:0.5;" width="220.1997" x="91" y="7"/><ellipse cx="134.0757" cy="21" fill="#ADD1B2" rx="9" ry="9" style="stroke:#181818;stroke-width:1;"/><path d="M135.6069,18.2656 Q135.7007,18.125 135.8257,18.0625 Q135.9507,17.9844 136.0913,17.9844 Q136.3257,17.9844 136.4819,18.1563 Q136.6382,18.3281 136.6382,18.7188 L136.6382,19.6563 Q136.6382,20.0469 136.4819,20.2188 Q136.3257,20.3906 136.0913,20.3906 Q135.8726,20.3906 135.7319,20.2656 Q135.5913,20.1406 135.5288,19.8125 Q135.4976,19.5781 135.3882,19.4531 Q135.1694,19.2188 134.7632,19.0781 Q134.3726,18.9219 133.9819,18.9219 Q133.4819,18.9219 133.0601,19.1406 Q132.6538,19.3594 132.3257,19.8438 Q132.0132,20.3281 132.0132,20.9844 L132.0132,21.7031 Q132.0132,22.5 132.5913,23.0313 Q133.1694,23.5625 134.2007,23.5625 Q134.8101,23.5625 135.2319,23.3906 Q135.4819,23.2969 135.7632,23.0156 Q135.9351,22.8438 136.0288,22.7969 Q136.1226,22.7344 136.2476,22.7344 Q136.4663,22.7344 136.6382,22.9063 Q136.8101,23.0781 136.8101,23.2969 Q136.8101,23.5156 136.5757,23.7813 Q136.2476,24.1563 135.7319,24.375 Q135.0444,24.6563 134.2007,24.6563 Q133.2319,24.6563 132.4507,24.2656 Q131.8101,23.9375 131.3569,23.25 Q130.9194,22.5469 130.9194,21.7188 L130.9194,20.9688 Q130.9194,20.1094 131.3101,19.375 Q131.7163,18.625 132.4194,18.2344 Q133.1382,17.8281 133.9351,17.8281 Q134.4038,17.8281 134.8257,17.9375 Q135.2476,18.0469 135.6069,18.2656 Z " fill="#000000"/><text fill="#000000" font-family="sans-serif" font-size="11" lengthAdjust="spacing" textLength="126.5483" x="151.5757" y="25.5547">DistributionSettingsFrame</text><line style="stroke:#181818;stroke-width:0.5;" x1="92" x2="310.1997" y1="35" y2="35"/><text fill="#000000" font-family="sans-serif" font-size="11" lengthAdjust="spacing" textLength="104.2798" x="97" y="50.8701">+on_change: callable</text><line style="stroke:#181818;stroke-width:1;" x1="92" x2="310.1997" y1="57.6309" y2="57.6309"/><text fill="#000000" font-family="sans-serif" font-size="11" lengthAdjust="spacing" textLength="208.1997" x="97" y="73.501">+__init__(master, parameters, on_change)</text></g><!--class Controller--><g class="entity" data-entity="Controller" data-source-line="35" data-uid="ent0005" id="entity_Controller"><rect fill="#F1F1F1" height="58.6309" rx="2.5" ry="2.5" style="stroke:#181818;stroke-width:0.5;" width="75.6846" x="252" y="465.5"/><ellipse cx="265" cy="479.5" fill="#ADD1B2" rx="9" ry="9" style="stroke:#181818;stroke-width:1;"/><path d="M266.5313,476.7656 Q266.625,476.625 266.75,476.5625 Q266.875,476.4844 267.0156,476.4844 Q267.25,476.4844 267.4063,476.6563 Q267.5625,476.8281 267.5625,477.2188 L267.5625,478.1563 Q267.5625,478.5469 267.4063,478.7188 Q267.25,478.8906 267.0156,478.8906 Q266.7969,478.8906 266.6563,478.7656 Q266.5156,478.6406 266.4531,478.3125 Q266.4219,478.0781 266.3125,477.9531 Q266.0938,477.7188 265.6875,477.5781 Q265.2969,477.4219 264.9063,477.4219 Q264.4063,477.4219 263.9844,477.6406 Q263.5781,477.8594 263.25,478.3438 Q262.9375,478.8281 262.9375,479.4844 L262.9375,480.2031 Q262.9375,481 263.5156,481.5313 Q264.0938,482.0625 265.125,482.0625 Q265.7344,482.0625 266.1563,481.8906 Q266.4063,481.7969 266.6875,481.5156 Q266.8594,481.3438 266.9531,481.2969 Q267.0469,481.2344 267.1719,481.2344 Q267.3906,481.2344 267.5625,481.4063 Q267.7344,481.5781 267.7344,481.7969 Q267.7344,482.0156 267.5,482.2813 Q267.1719,482.6563 266.6563,482.875 Q265.9688,483.1563 265.125,483.1563 Q264.1563,483.1563 263.375,482.7656 Q262.7344,482.4375 262.2813,481.75 Q261.8438,481.0469 261.8438,480.2188 L261.8438,479.4688 Q261.8438,478.6094 262.2344,477.875 Q262.6406,477.125 263.3438,476.7344 Q264.0625,476.3281 264.8594,476.3281 Q265.3281,476.3281 265.75,476.4375 Q266.1719,476.5469 266.5313,476.7656 Z " fill="#000000"/><text fill="#000000" font-family="sans-serif" font-size="11" lengthAdjust="spacing" textLength="47.6846" x="277" y="484.0547">Controller</text><line style="stroke:#181818;stroke-width:0.5;" x1="253" x2="326.6846" y1="493.5" y2="493.5"/><line style="stroke:#181818;stroke-width:1;" x1="253" x2="326.6846" y1="501.5" y2="501.5"/><text fill="#000000" font-family="sans-serif" font-size="11" lengthAdjust="spacing" textLength="47.9854" x="258" y="517.3701">+refresh()</text></g><!--reverse link DistributionSettingsFrame to LabelSpinbox--><g class="link" data-entity-1="DistributionSettingsFrame" data-entity-2="LabelSpinbox" data-source-line="40" data-uid="lnk6" id="link_DistributionSettingsFrame_LabelSpinbox"><path codeLine="40" d="M201,92.3 C201,113.34 201,129.02 201,155.9" fill="none" id="DistributionSettingsFrame-backto-LabelSpinbox" style="stroke:#181818;stroke-width:1;"/><polygon fill="#181818" points="201,80.3,197,86.3,201,92.3,205,86.3,201,80.3" style="stroke:#181818;stroke-width:1;"/><text fill="#000000" font-family="sans-serif" font-size="11" lengthAdjust="spacing" textLength="129.626" x="202" y="122.8701">creates one per parameter</text></g><!--reverse link LabelSpinbox to Parameter--><g class="link" data-entity-1="LabelSpinbox" data-entity-2="Parameter" data-source-line="41" data-uid="lnk7" id="link_LabelSpinbox_Parameter"><path codeLine="41" d="M162.1955,357.5216 C152.9655,382.6016 147.29,398.04 138.58,421.74" fill="none" id="LabelSpinbox-backto-Parameter" style="stroke:#181818;stroke-width:1;"/><polygon fill="#181818" points="166.34,346.26,160.5139,350.5093,162.1955,357.5216,168.0216,353.2723,166.34,346.26" style="stroke:#181818;stroke-width:1;"/><text fill="#000000" font-family="sans-serif" font-size="11" lengthAdjust="spacing" textLength="29.3423" x="155" y="388.8701">wraps</text></g><!--link LabelSpinbox to Controller--><g class="link" data-entity-1="LabelSpinbox" data-entity-2="Controller" data-source-line="42" data-uid="lnk8" id="link_LabelSpinbox_Controller"><path codeLine="42" d="M235.66,346.26 C251.33,388.86 266.6384,430.479 277.4284,459.809" fill="none" id="LabelSpinbox-to-Controller" style="stroke:#181818;stroke-width:1;"/><polygon fill="#181818" points="279.5,465.44,280.1467,455.6124,277.7737,460.7475,272.6386,458.3745,279.5,465.44" style="stroke:#181818;stroke-width:1;"/><text fill="#000000" font-family="sans-serif" font-size="11" lengthAdjust="spacing" textLength="190.1851" x="251" y="388.8701">_on_value_change() calls on_change()</text></g><!--SRC=[TLB1QkD03BtxA-Pej_7INdrOA5iA2tjO2BJ7GNQKPEXuneoK9ctflwyiEx73khSPwKdlFKdqwa872LhJU21wO4wkFZ3-Rc9OkmyqTnbT81lSmi7pKmoikVlxBDCoymTgzElEXJgUp6TcpAtH4cHCbVbxVceY1jli8UomCWru3xL7ZR-1FqYCNt-iHKJOFSE0PppnGjZtb1fNSesHAB0YGS8zVj0ZcRBKjBKkEBOsRu5Kc81Ut6Q7l5gKkrhIMfp5kWqmvW6FTbHEd8hAr34EOZeF3TgZzgUyBokDbOQA7jlcDv1sL6HVvq5UkCSfZYwbjNvRCT0UsfLfuJGyn4YtEc-cCbiVWGUgKTKbKiwdh57psQNOOUBtBys9KAk4UJ5HNfngvTnW3wTXnhQtqLTjNCEJcqT7mpqvkIPablNHKszmTBTy2ilRcgs8PekPpUwNt6MAte_36ziat2QaVQx0xmNTbENr5OkaXEARX0kDJ6dYpww0VUMqjieS4tHq3IdBdtDrrVztKEW0QF8bUly1]--></g></svg>