<svg xmlns="http://www.w3.org/2000/svg" xmlns:xlink="http://www.w3.org/1999/xlink" contentStyleType="text/css" data-diagram-type="ACTIVITY" height="836.5px" preserveAspectRatio="none" style="width:391px;height:836px;background:#FFFFFF;" version="1.1" viewBox="0 0 391 836" width="392px" zoomAndPan="magnify"><defs/><g><rect fill="none" height="492.0043" style="stroke:#000000;stroke-width:1.05;" width="278.823" x="7.7" y="7.7"/><path d="M107.2832,7.7 L107.2832,15.8348 L100.2832,22.8348 L7.7,22.8348" fill="none" style="stroke:#000000;stroke-width:1.05;"/><text fill="#000000" font-family="sans-serif" font-size="9.8" lengthAdjust="spacing" textLength="92.5832" x="9.8" y="18.9752">merge(left, right, key)</text><ellipse cx="146.2149" cy="36.8348" fill="#222222" rx="7" ry="7" style="stroke:#222222;stroke-width:0.7;"/><rect fill="#F1F1F1" height="25.1727" rx="8.75" ry="8.75" style="stroke:#181818;stroke-width:0.35;" width="110.6492" x="90.8903" y="57.8348"/><text fill="#000000" font-family="sans-serif" font-size="8.4" lengthAdjust="spacing" textLength="96.6492" x="97.8903" y="73.8992">Receive left, right and key</text><rect fill="#F1F1F1" height="25.1727" rx="8.75" ry="8.75" style="stroke:#181818;stroke-width:0.35;" width="116.2355" x="88.0971" y="97.0074"/><text fill="#000000" font-family="sans-serif" font-size="8.4" lengthAdjust="spacing" textLength="102.2355" x="95.0971" y="113.0719">Initialise result as empty list</text><rect fill="#F1F1F1" height="25.1727" rx="8.75" ry="8.75" style="stroke:#181818;stroke-width:0.35;" width="120.4561" x="85.9869" y="136.1801"/><text fill="#000000" font-family="sans-serif" font-size="8.4" lengthAdjust="spacing" textLength="106.4561" x="92.9869" y="152.2445">Initialise l and r pointers as 0</text><polygon fill="#F1F1F1" points="105.6752,215.5118,186.7546,215.5118,195.1546,223.9118,186.7546,232.3118,105.6752,232.3118,97.2752,223.9118,105.6752,215.5118" style="stroke:#181818;stroke-width:0.35;"/><text fill="#000000" font-family="sans-serif" font-size="7.7" lengthAdjust="spacing" textLength="81.0793" x="105.6752" y="227.1001">key(left[l]) &lt; key(right[r])</text><text fill="#000000" font-family="sans-serif" font-size="7.7" lengthAdjust="spacing" textLength="11.9824" x="85.2928" y="221.9793">yes</text><text fill="#000000" font-family="sans-serif" font-size="7.7" lengthAdjust="spacing" textLength="8.5647" x="195.1546" y="221.9793">no</text><rect fill="#F1F1F1" height="25.1727" rx="8.75" ry="8.75" style="stroke:#181818;stroke-width:0.35;" width="95.2479" x="42.4505" y="239.3118"/><text fill="#000000" font-family="sans-serif" font-size="8.4" lengthAdjust="spacing" textLength="81.2479" x="49.4505" y="255.3763">Append left[l] to result</text><rect fill="#F1F1F1" height="25.1727" rx="8.75" ry="8.75" style="stroke:#181818;stroke-width:0.35;" width="30.3488" x="74.9" y="282.8137"/><text fill="#000000" font-family="sans-serif" font-size="8.4" lengthAdjust="spacing" textLength="16.3488" x="81.9" y="298.8781">l+=1</text><rect fill="#F1F1F1" height="25.1727" rx="8.75" ry="8.75" style="stroke:#181818;stroke-width:0.35;" width="101.3141" x="151.6983" y="239.3118"/><text fill="#000000" font-family="sans-serif" font-size="8.4" lengthAdjust="spacing" textLength="87.3141" x="158.6983" y="255.3763">Append right[r] to result</text><rect fill="#F1F1F1" height="25.1727" rx="8.75" ry="8.75" style="stroke:#181818;stroke-width:0.35;" width="31.2799" x="186.7154" y="282.8137"/><text fill="#000000" font-family="sans-serif" font-size="8.4" lengthAdjust="spacing" textLength="17.2799" x="193.7154" y="298.8781">r+=1</text><polygon fill="#F1F1F1" points="146.2149,312.1863,154.6149,320.5863,146.2149,328.9863,137.8149,320.5863,146.2149,312.1863" style="stroke:#181818;stroke-width:0.35;"/><polygon fill="#F1F1F1" points="36.0068,175.3527,256.423,175.3527,264.823,183.7527,256.423,192.1527,36.0068,192.1527,27.6068,183.7527,36.0068,175.3527" style="stroke:#181818;stroke-width:0.35;"/><text fill="#000000" font-family="sans-serif" font-size="7.7" lengthAdjust="spacing" textLength="11.9824" x="149.0149" y="200.4618">yes</text><text fill="#000000" font-family="sans-serif" font-size="7.7" lengthAdjust="spacing" textLength="220.4163" x="36.0068" y="186.941">l&lt;Number of elements in Left and r&lt;Number of elements in Right</text><text fill="#000000" font-family="sans-serif" font-size="7.7" lengthAdjust="spacing" textLength="8.5647" x="19.042" y="181.8202">no</text><rect fill="#F1F1F1" height="25.1727" rx="8.75" ry="8.75" style="stroke:#181818;stroke-width:0.35;" width="173.682" x="59.3739" y="358.3863"/><text fill="#000000" font-family="sans-serif" font-size="8.4" lengthAdjust="spacing" textLength="159.682" x="66.3739" y="374.4508">Copy remaining elements of Left into result</text><rect fill="#F1F1F1" height="25.1727" rx="8.75" ry="8.75" style="stroke:#181818;stroke-width:0.35;" width="179.2807" x="56.5746" y="397.559"/><text fill="#000000" font-family="sans-serif" font-size="8.4" lengthAdjust="spacing" textLength="165.2807" x="63.5746" y="413.6234">Copy remaining elements of Right into result</text><rect fill="#F1F1F1" height="25.1727" rx="8.75" ry="8.75" style="stroke:#181818;stroke-width:0.35;" width="62.0908" x="115.1695" y="436.7316"/><text fill="#000000" font-family="sans-serif" font-size="8.4" lengthAdjust="spacing" textLength="48.0908" x="122.1695" y="452.7961">Output result</text><ellipse cx="146.2149" cy="483.6043" fill="none" rx="7.7" ry="7.7" style="stroke:#222222;stroke-width:0.7;"/><ellipse cx="146.2149" cy="483.6043" fill="#222222" rx="4.2" ry="4.2" style="stroke:#222222;stroke-width:0.7;"/><rect fill="none" height="322.648" style="stroke:#000000;stroke-width:1.05;" width="368.7619" x="16.1" y="506.7043"/><path d="M102.6102,506.7043 L102.6102,514.8391 L95.6102,521.8391 L16.1,521.8391" fill="none" style="stroke:#000000;stroke-width:1.05;"/><text fill="#000000" font-family="sans-serif" font-size="9.8" lengthAdjust="spacing" textLength="79.5102" x="18.2" y="517.9795">mergeSort(A, key)</text><ellipse cx="146.2149" cy="535.8391" fill="#222222" rx="7" ry="7" style="stroke:#222222;stroke-width:0.7;"/><rect fill="#F1F1F1" height="25.1727" rx="8.75" ry="8.75" style="stroke:#181818;stroke-width:0.35;" width="107.8437" x="92.293" y="556.8391"/><text fill="#000000" font-family="sans-serif" font-size="8.4" lengthAdjust="spacing" textLength="93.8437" x="99.293" y="572.9035">Receive array A, and key</text><polygon fill="#F1F1F1" points="119.889,596.0117,172.5408,596.0117,180.9408,604.4117,172.5408,612.8117,119.889,612.8117,111.489,604.4117,119.889,596.0117" style="stroke:#181818;stroke-width:0.35;"/><text fill="#000000" font-family="sans-serif" font-size="7.7" lengthAdjust="spacing" textLength="52.6518" x="119.889" y="607.6">Size of A &lt;= 1?</text><text fill="#000000" font-family="sans-serif" font-size="7.7" lengthAdjust="spacing" textLength="11.9824" x="99.5066" y="602.4792">yes</text><text fill="#000000" font-family="sans-serif" font-size="7.7" lengthAdjust="spacing" textLength="8.5647" x="180.9408" y="602.4792">no</text><rect fill="#F1F1F1" height="25.1727" rx="8.75" ry="8.75" style="stroke:#181818;stroke-width:0.35;" width="47.1488" x="30.1" y="619.8117"/><text fill="#000000" font-family="sans-serif" font-size="8.4" lengthAdjust="spacing" textLength="33.1488" x="37.1" y="635.8762">Return A</text><ellipse cx="53.6744" cy="666.6844" fill="none" rx="7.7" ry="7.7" style="stroke:#222222;stroke-width:0.7;"/><ellipse cx="53.6744" cy="666.6844" fill="#222222" rx="4.2" ry="4.2" style="stroke:#222222;stroke-width:0.7;"/><rect fill="#F1F1F1" height="25.1727" rx="8.75" ry="8.75" style="stroke:#181818;stroke-width:0.35;" width="108.7912" x="184.3598" y="619.8117"/><text fill="#000000" font-family="sans-serif" font-size="8.4" lengthAdjust="spacing" textLength="94.7912" x="191.3598" y="635.8762">Split A into Left and Right</text><line style="stroke:#181818;stroke-width:1.05;" x1="163.6024" x2="311.109" y1="658.9844" y2="658.9844"/><rect fill="#F1F1F1" height="25.1727" rx="8.75" ry="8.75" style="stroke:#181818;stroke-width:0.35;" width="125.1072" x="101.0488" y="674.0344"/><text fill="#000000" font-family="sans-serif" font-size="8.4" lengthAdjust="spacing" textLength="111.1072" x="108.0488" y="690.0988">Recursively sort Left subarray</text><rect fill="#F1F1F1" height="25.1727" rx="8.75" ry="8.75" style="stroke:#181818;stroke-width:0.35;" width="130.7059" x="245.7561" y="674.0344"/><text fill="#000000" font-family="sans-serif" font-size="8.4" lengthAdjust="spacing" textLength="116.7059" x="252.7561" y="690.0988">Recursively sort Right subarray</text><line style="stroke:#181818;stroke-width:1.05;" x1="163.6024" x2="311.109" y1="713.207" y2="713.207"/><rect fill="#F1F1F1" height="25.1727" rx="8.75" ry="8.75" style="stroke:#181818;stroke-width:0.35;" width="155.4752" x="161.0178" y="727.207"/><text fill="#000000" font-family="sans-serif" font-size="8.4" lengthAdjust="spacing" textLength="141.4752" x="168.0178" y="743.2715">Merge Left and Right into SortedArray</text><rect fill="#F1F1F1" height="25.1727" rx="8.75" ry="8.75" style="stroke:#181818;stroke-width:0.35;" width="86.368" x="195.5714" y="766.3797"/><text fill="#000000" font-family="sans-serif" font-size="8.4" lengthAdjust="spacing" textLength="72.368" x="202.5714" y="782.4441">Output SortedArray</text><ellipse cx="146.2149" cy="813.2523" fill="none" rx="7.7" ry="7.7" style="stroke:#222222;stroke-width:0.7;"/><ellipse cx="146.2149" cy="813.2523" fill="#222222" rx="4.2" ry="4.2" style="stroke:#222222;stroke-width:0.7;"/><line style="stroke:#181818;stroke-width:0.7;" x1="146.2149" x2="146.2149" y1="43.8348" y2="57.8348"/><polygon fill="#181818" points="143.4149,50.8348,146.2149,57.8348,149.0149,50.8348,146.2149,53.6348" style="stroke:#181818;stroke-width:0.7;"/><line style="stroke:#181818;stroke-width:0.7;" x1="146.2149" x2="146.2149" y1="83.0074" y2="97.0074"/><polygon fill="#181818" points="143.4149,90.0074,146.2149,97.0074,149.0149,90.0074,146.2149,92.8074" style="stroke:#181818;stroke-width:0.7;"/><line style="stroke:#181818;stroke-width:0.7;" x1="146.2149" x2="146.2149" y1="122.1801" y2="136.1801"/><polygon fill="#181818" points="143.4149,129.1801,146.2149,136.1801,149.0149,129.1801,146.2149,131.9801" style="stroke:#181818;stroke-width:0.7;"/><line style="stroke:#181818;stroke-width:0.7;" x1="90.0744" x2="90.0744" y1="264.4845" y2="282.8137"/><polygon fill="#181818" points="87.2744,275.8137,90.0744,282.8137,92.8744,275.8137,90.0744,278.6137" style="stroke:#181818;stroke-width:0.7;"/><line style="stroke:#181818;stroke-width:0.7;" x1="202.3554" x2="202.3554" y1="264.4845" y2="282.8137"/><polygon fill="#181818" points="199.5554,275.8137,202.3554,282.8137,205.1554,275.8137,202.3554,278.6137" style="stroke:#181818;stroke-width:0.7;"/><line style="stroke:#181818;stroke-width:0.7;" x1="97.2752" x2="90.0744" y1="223.9118" y2="223.9118"/><line style="stroke:#181818;stroke-width:0.7;" x1="90.0744" x2="90.0744" y1="223.9118" y2="239.3118"/><polygon fill="#181818" points="87.2744,232.3118,90.0744,239.3118,92.8744,232.3118,90.0744,235.1118" style="stroke:#181818;stroke-width:0.7;"/><line style="stroke:#181818;stroke-width:0.7;" x1="195.1546" x2="202.3554" y1="223.9118" y2="223.9118"/><line style="stroke:#181818;stroke-width:0.7;" x1="202.3554" x2="202.3554" y1="223.9118" y2="239.3118"/><polygon fill="#181818" points="199.5554,232.3118,202.3554,239.3118,205.1554,232.3118,202.3554,235.1118" style="stroke:#181818;stroke-width:0.7;"/><line style="stroke:#181818;stroke-width:0.7;" x1="90.0744" x2="90.0744" y1="307.9863" y2="320.5863"/><line style="stroke:#181818;stroke-width:0.7;" x1="90.0744" x2="137.8149" y1="320.5863" y2="320.5863"/><polygon fill="#181818" points="130.8149,317.7863,137.8149,320.5863,130.8149,323.3863,133.6149,320.5863" style="stroke:#181818;stroke-width:0.7;"/><line style="stroke:#181818;stroke-width:0.7;" x1="202.3554" x2="202.3554" y1="307.9863" y2="320.5863"/><line style="stroke:#181818;stroke-width:0.7;" x1="202.3554" x2="154.6149" y1="320.5863" y2="320.5863"/><polygon fill="#181818" points="161.6149,317.7863,154.6149,320.5863,161.6149,323.3863,158.8149,320.5863" style="stroke:#181818;stroke-width:0.7;"/><line style="stroke:#181818;stroke-width:0.7;" x1="146.2149" x2="146.2149" y1="192.1527" y2="215.5118"/><polygon fill="#181818" points="143.4149,208.5118,146.2149,215.5118,149.0149,208.5118,146.2149,211.3118" style="stroke:#181818;stroke-width:0.7;"/><line style="stroke:#181818;stroke-width:0.7;" x1="146.2149" x2="146.2149" y1="328.9863" y2="335.9863"/><line style="stroke:#181818;stroke-width:0.7;" x1="146.2149" x2="273.223" y1="335.9863" y2="335.9863"/><polygon fill="#181818" points="270.423,268.8137,273.223,261.8137,276.023,268.8137,273.223,266.0137" style="stroke:#181818;stroke-width:0.7;"/><line style="stroke:#181818;stroke-width:0.7;" x1="273.223" x2="273.223" y1="183.7527" y2="335.9863"/><line style="stroke:#181818;stroke-width:0.7;" x1="273.223" x2="264.823" y1="183.7527" y2="183.7527"/><polygon fill="#181818" points="271.823,180.9527,264.823,183.7527,271.823,186.5527,269.023,183.7527" style="stroke:#181818;stroke-width:0.7;"/><line style="stroke:#181818;stroke-width:0.7;" x1="27.6068" x2="19.2068" y1="183.7527" y2="183.7527"/><polygon fill="#181818" points="16.4068,259.0137,19.2068,266.0137,22.0068,259.0137,19.2068,261.8137" style="stroke:#181818;stroke-width:0.7;"/><line style="stroke:#181818;stroke-width:0.7;" x1="19.2068" x2="19.2068" y1="183.7527" y2="344.3863"/><line style="stroke:#181818;stroke-width:0.7;" x1="19.2068" x2="146.2149" y1="344.3863" y2="344.3863"/><line style="stroke:#181818;stroke-width:0.7;" x1="146.2149" x2="146.2149" y1="344.3863" y2="358.3863"/><polygon fill="#181818" points="143.4149,351.3863,146.2149,358.3863,149.0149,351.3863,146.2149,354.1863" style="stroke:#181818;stroke-width:0.7;"/><line style="stroke:#181818;stroke-width:0.7;" x1="146.2149" x2="146.2149" y1="161.3527" y2="175.3527"/><polygon fill="#181818" points="143.4149,168.3527,146.2149,175.3527,149.0149,168.3527,146.2149,171.1527" style="stroke:#181818;stroke-width:0.7;"/><line style="stroke:#181818;stroke-width:0.7;" x1="146.2149" x2="146.2149" y1="383.559" y2="397.559"/><polygon fill="#181818" points="143.4149,390.559,146.2149,397.559,149.0149,390.559,146.2149,393.359" style="stroke:#181818;stroke-width:0.7;"/><line style="stroke:#181818;stroke-width:0.7;" x1="146.2149" x2="146.2149" y1="422.7316" y2="436.7316"/><polygon fill="#181818" points="143.4149,429.7316,146.2149,436.7316,149.0149,429.7316,146.2149,432.5316" style="stroke:#181818;stroke-width:0.7;"/><line style="stroke:#181818;stroke-width:0.7;" x1="146.2149" x2="146.2149" y1="461.9043" y2="475.9043"/><polygon fill="#181818" points="143.4149,468.9043,146.2149,475.9043,149.0149,468.9043,146.2149,471.7043" style="stroke:#181818;stroke-width:0.7;"/><line style="stroke:#181818;stroke-width:0.7;" x1="146.2149" x2="146.2149" y1="542.8391" y2="556.8391"/><polygon fill="#181818" points="143.4149,549.8391,146.2149,556.8391,149.0149,549.8391,146.2149,552.6391" style="stroke:#181818;stroke-width:0.7;"/><line style="stroke:#181818;stroke-width:0.7;" x1="53.6744" x2="53.6744" y1="644.9844" y2="658.9844"/><polygon fill="#181818" points="50.8744,651.9844,53.6744,658.9844,56.4744,651.9844,53.6744,654.7844" style="stroke:#181818;stroke-width:0.7;"/><line style="stroke:#181818;stroke-width:0.7;" x1="163.6024" x2="163.6024" y1="660.0344" y2="674.0344"/><polygon fill="#181818" points="160.8024,667.0344,163.6024,674.0344,166.4024,667.0344,163.6024,669.8344" style="stroke:#181818;stroke-width:0.7;"/><line style="stroke:#181818;stroke-width:0.7;" x1="311.109" x2="311.109" y1="660.0344" y2="674.0344"/><polygon fill="#181818" points="308.309,667.0344,311.109,674.0344,313.909,667.0344,311.109,669.8344" style="stroke:#181818;stroke-width:0.7;"/><line style="stroke:#181818;stroke-width:0.7;" x1="163.6024" x2="163.6024" y1="699.207" y2="713.207"/><polygon fill="#181818" points="160.8024,706.207,163.6024,713.207,166.4024,706.207,163.6024,709.007" style="stroke:#181818;stroke-width:0.7;"/><line style="stroke:#181818;stroke-width:0.7;" x1="311.109" x2="311.109" y1="699.207" y2="713.207"/><polygon fill="#181818" points="308.309,706.207,311.109,713.207,313.909,706.207,311.109,709.007" style="stroke:#181818;stroke-width:0.7;"/><line style="stroke:#181818;stroke-width:0.7;" x1="238.7554" x2="238.7554" y1="644.9844" y2="658.9844"/><polygon fill="#181818" points="235.9554,651.9844,238.7554,658.9844,241.5554,651.9844,238.7554,654.7844" style="stroke:#181818;stroke-width:0.7;"/><line style="stroke:#181818;stroke-width:0.7;" x1="238.7554" x2="238.7554" y1="714.257" y2="727.207"/><polygon fill="#181818" points="235.9554,720.207,238.7554,727.207,241.5554,720.207,238.7554,723.007" style="stroke:#181818;stroke-width:0.7;"/><line style="stroke:#181818;stroke-width:0.7;" x1="238.7554" x2="238.7554" y1="752.3797" y2="766.3797"/><polygon fill="#181818" points="235.9554,759.3797,238.7554,766.3797,241.5554,759.3797,238.7554,762.1797" style="stroke:#181818;stroke-width:0.7;"/><line style="stroke:#181818;stroke-width:0.7;" x1="111.489" x2="53.6744" y1="604.4117" y2="604.4117"/><line style="stroke:#181818;stroke-width:0.7;" x1="53.6744" x2="53.6744" y1="604.4117" y2="619.8117"/><polygon fill="#181818" points="50.8744,612.8117,53.6744,619.8117,56.4744,612.8117,53.6744,615.6117" style="stroke:#181818;stroke-width:0.7;"/><line style="stroke:#181818;stroke-width:0.7;" x1="180.9408" x2="238.7554" y1="604.4117" y2="604.4117"/><line style="stroke:#181818;stroke-width:0.7;" x1="238.7554" x2="238.7554" y1="604.4117" y2="619.8117"/><polygon fill="#181818" points="235.9554,612.8117,238.7554,619.8117,241.5554,612.8117,238.7554,615.6117" style="stroke:#181818;stroke-width:0.7;"/><line style="stroke:#181818;stroke-width:0.7;" x1="238.7554" x2="238.7554" y1="791.5523" y2="795.0523"/><line style="stroke:#181818;stroke-width:0.7;" x1="238.7554" x2="146.2149" y1="795.0523" y2="795.0523"/><line style="stroke:#181818;stroke-width:0.7;" x1="146.2149" x2="146.2149" y1="795.0523" y2="805.5523"/><polygon fill="#181818" points="143.4149,798.5523,146.2149,805.5523,149.0149,798.5523,146.2149,801.3523" style="stroke:#181818;stroke-width:0.7;"/><line style="stroke:#181818;stroke-width:0.7;" x1="146.2149" x2="146.2149" y1="582.0117" y2="596.0117"/><polygon fill="#181818" points="143.4149,589.0117,146.2149,596.0117,149.0149,589.0117,146.2149,591.8117" style="stroke:#181818;stroke-width:0.7;"/><!--SRC=[VP7BJiCm44Nt_eeHgqImeDi-X29MI3oaTbbraT99Qk7ObZq11SI_CxRJfec0JQpOPsRklMDBHvAaqN3LeAinKrZH3JXP7_bumow_WYyXF34dvcjyHVcES051gG-1MuZvW-PEfP8UmQ5l5RzvmCPI1tn9OqB5GWVMI4teV61l5-BZA1L2ffRFRRD71wO2LDYW9WzImoCFJeL_0EkWAGVf8UlGvq9MaB6wQ6khTZaiWzWiIj-wNPu37L7tyBom5hbv3mEPtWXBLzUhsKAWOkcPDWDxwZI2NOBrGLRXsvkAPVV6TWmsfTHIruDszX7DSHeNZVwXezC9_jAIRUdyxybOyIs4dInvOnnbnR3UoNPBvyeE-Fsysf3YHdvYc5l0SWMpkt5mQwJMQIZwcHSnRQoIn4LHw7bzKJp3uJ4ERftdqQe3pzeIvzjzLD9ZKDQSmYzm2cAWmrRwna_1xMHgKX8Ym4EHAawvZIxJzbA4Fm00]--></g></svg>