<svg xmlns="http://www.w3.org/2000/svg" xmlns:xlink="http://www.w3.org/1999/xlink" contentStyleType="text/css" data-diagram-type="CLASS" height="473px" preserveAspectRatio="none" style="width:457px;height:473px;background:#FFFFFF;" version="1.1" viewBox="0 0 457 473" width="457px" zoomAndPan="magnify"><defs/><g><!--class ModeMenu--><g class="entity" data-entity="ModeMenu" data-source-line="4" data-uid="ent0002" id="entity_ModeMenu"><rect fill="#F1F1F1" height="190.3086" rx="2.5" ry="2.5" style="stroke:#181818;stroke-width:0.5;" width="254.4082" x="86" y="142"/><ellipse cx="181.938" cy="156" fill="#ADD1B2" rx="9" ry="9" style="stroke:#181818;stroke-width:1;"/><path d="M183.4692,153.2656 Q183.563,153.125 183.688,153.0625 Q183.813,152.9844 183.9536,152.9844 Q184.188,152.9844 184.3442,153.1563 Q184.5005,153.3281 184.5005,153.7188 L184.5005,154.6563 Q184.5005,155.0469 184.3442,155.2188 Q184.188,155.3906 183.9536,155.3906 Q183.7349,155.3906 183.5942,155.2656 Q183.4536,155.1406 183.3911,154.8125 Q183.3599,154.5781 183.2505,154.4531 Q183.0317,154.2188 182.6255,154.0781 Q182.2349,153.9219 181.8442,153.9219 Q181.3442,153.9219 180.9224,154.1406 Q180.5161,154.3594 180.188,154.8438 Q179.8755,155.3281 179.8755,155.9844 L179.8755,156.7031 Q179.8755,157.5 180.4536,158.0313 Q181.0317,158.5625 182.063,158.5625 Q182.6724,158.5625 183.0942,158.3906 Q183.3442,158.2969 183.6255,158.0156 Q183.7974,157.8438 183.8911,157.7969 Q183.9849,157.7344 184.1099,157.7344 Q184.3286,157.7344 184.5005,157.9063 Q184.6724,158.0781 184.6724,158.2969 Q184.6724,158.5156 184.438,158.7813 Q184.1099,159.1563 183.5942,159.375 Q182.9067,159.6563 182.063,159.6563 Q181.0942,159.6563 180.313,159.2656 Q179.6724,158.9375 179.2192,158.25 Q178.7817,157.5469 178.7817,156.7188 L178.7817,155.9688 Q178.7817,155.1094 179.1724,154.375 Q179.5786,153.625 180.2817,153.2344 Q181.0005,152.8281 181.7974,152.8281 Q182.2661,152.8281 182.688,152.9375 Q183.1099,153.0469 183.4692,153.2656 Z " fill="#000000"/><text fill="#000000" font-family="sans-serif" font-size="11" lengthAdjust="spacing" textLength="55.0322" x="199.438" y="160.5547">ModeMenu</text><line style="stroke:#181818;stroke-width:0.5;" x1="87" x2="339.4082" y1="170" y2="170"/><text fill="#000000" font-family="sans-serif" font-size="11" lengthAdjust="spacing" textLength="92.6245" x="92" y="185.8701">+current_mode: str</text><text fill="#000000" font-family="sans-serif" font-size="11" lengthAdjust="spacing" textLength="70.0068" x="92" y="200.501">+title_dict: dict</text><text fill="#000000" font-family="sans-serif" font-size="11" lengthAdjust="spacing" textLength="55.3223" x="92" y="215.1318">+root: tk.Tk</text><text fill="#000000" font-family="sans-serif" font-size="11" lengthAdjust="spacing" textLength="89.5791" x="92" y="229.7627">+callback: callable</text><text fill="#000000" font-family="sans-serif" font-size="11" lengthAdjust="spacing" textLength="95.0791" x="92" y="244.3936">+menubar: tk.Menu</text><line style="stroke:#181818;stroke-width:1;" x1="87" x2="339.4082" y1="251.1543" y2="251.1543"/><text fill="#000000" font-family="sans-serif" font-size="11" lengthAdjust="spacing" textLength="242.4082" x="92" y="267.0244">+__init__(root: tk.Tk, mode: str, callback: callable)</text><text fill="#000000" font-family="sans-serif" font-size="11" lengthAdjust="spacing" textLength="111.5898" x="92" y="281.6553">+create_mode_menu()</text><text fill="#000000" font-family="sans-serif" font-size="11" lengthAdjust="spacing" textLength="104.8706" x="92" y="296.2861">+create_help_menu()</text><text fill="#000000" font-family="sans-serif" font-size="11" lengthAdjust="spacing" textLength="194.7236" x="92" y="310.917">+help_callback(mode: str, dist_type: str)</text><text fill="#000000" font-family="sans-serif" font-size="11" lengthAdjust="spacing" textLength="132.9722" x="92" y="325.5479">+mode_callback(mode: str)</text></g><!--class HelpWindow--><g class="entity" data-entity="HelpWindow" data-source-line="18" data-uid="ent0003" id="entity_HelpWindow"><rect fill="#F1F1F1" height="58.6309" rx="2.5" ry="2.5" style="stroke:#181818;stroke-width:0.5;" width="212.2344" x="7" y="408"/><ellipse cx="78.4941" cy="422" fill="#ADD1B2" rx="9" ry="9" style="stroke:#181818;stroke-width:1;"/><path d="M80.0254,419.2656 Q80.1191,419.125 80.2441,419.0625 Q80.3691,418.9844 80.5098,418.9844 Q80.7441,418.9844 80.9004,419.1563 Q81.0566,419.3281 81.0566,419.7188 L81.0566,420.6563 Q81.0566,421.0469 80.9004,421.2188 Q80.7441,421.3906 80.5098,421.3906 Q80.291,421.3906 80.1504,421.2656 Q80.0098,421.1406 79.9473,420.8125 Q79.916,420.5781 79.8066,420.4531 Q79.5879,420.2188 79.1816,420.0781 Q78.791,419.9219 78.4004,419.9219 Q77.9004,419.9219 77.4785,420.1406 Q77.0723,420.3594 76.7441,420.8438 Q76.4316,421.3281 76.4316,421.9844 L76.4316,422.7031 Q76.4316,423.5 77.0098,424.0313 Q77.5879,424.5625 78.6191,424.5625 Q79.2285,424.5625 79.6504,424.3906 Q79.9004,424.2969 80.1816,424.0156 Q80.3535,423.8438 80.4473,423.7969 Q80.541,423.7344 80.666,423.7344 Q80.8848,423.7344 81.0566,423.9063 Q81.2285,424.0781 81.2285,424.2969 Q81.2285,424.5156 80.9941,424.7813 Q80.666,425.1563 80.1504,425.375 Q79.4629,425.6563 78.6191,425.6563 Q77.6504,425.6563 76.8691,425.2656 Q76.2285,424.9375 75.7754,424.25 Q75.3379,423.5469 75.3379,422.7188 L75.3379,421.9688 Q75.3379,421.1094 75.7285,420.375 Q76.1348,419.625 76.8379,419.2344 Q77.5566,418.8281 78.3535,418.8281 Q78.8223,418.8281 79.2441,418.9375 Q79.666,419.0469 80.0254,419.2656 Z " fill="#000000"/><text fill="#000000" font-family="sans-serif" font-size="11" lengthAdjust="spacing" textLength="61.7461" x="95.9941" y="426.5547">HelpWindow</text><line style="stroke:#181818;stroke-width:0.5;" x1="8" x2="218.2344" y1="436" y2="436"/><line style="stroke:#181818;stroke-width:1;" x1="8" x2="218.2344" y1="444" y2="444"/><text fill="#000000" font-family="sans-serif" font-size="11" lengthAdjust="spacing" textLength="200.2344" x="13" y="459.8701">+__init__(root: tk.Tk, help_file_name: str)</text></g><!--class View--><g class="entity" data-entity="View" data-source-line="23" data-uid="ent0004" id="entity_View"><rect fill="#F1F1F1" height="58.6309" rx="2.5" ry="2.5" style="stroke:#181818;stroke-width:0.5;" width="153.5176" x="136" y="7"/><ellipse cx="197.0876" cy="21" fill="#ADD1B2" rx="9" ry="9" style="stroke:#181818;stroke-width:1;"/><path d="M198.6189,18.2656 Q198.7126,18.125 198.8376,18.0625 Q198.9626,17.9844 199.1033,17.9844 Q199.3376,17.9844 199.4939,18.1563 Q199.6501,18.3281 199.6501,18.7188 L199.6501,19.6563 Q199.6501,20.0469 199.4939,20.2188 Q199.3376,20.3906 199.1033,20.3906 Q198.8845,20.3906 198.7439,20.2656 Q198.6033,20.1406 198.5408,19.8125 Q198.5095,19.5781 198.4001,19.4531 Q198.1814,19.2188 197.7751,19.0781 Q197.3845,18.9219 196.9939,18.9219 Q196.4939,18.9219 196.072,19.1406 Q195.6658,19.3594 195.3376,19.8438 Q195.0251,20.3281 195.0251,20.9844 L195.0251,21.7031 Q195.0251,22.5 195.6033,23.0313 Q196.1814,23.5625 197.2126,23.5625 Q197.822,23.5625 198.2439,23.3906 Q198.4939,23.2969 198.7751,23.0156 Q198.947,22.8438 199.0408,22.7969 Q199.1345,22.7344 199.2595,22.7344 Q199.4783,22.7344 199.6501,22.9063 Q199.822,23.0781 199.822,23.2969 Q199.822,23.5156 199.5876,23.7813 Q199.2595,24.1563 198.7439,24.375 Q198.0564,24.6563 197.2126,24.6563 Q196.2439,24.6563 195.4626,24.2656 Q194.822,23.9375 194.3689,23.25 Q193.9314,22.5469 193.9314,21.7188 L193.9314,20.9688 Q193.9314,20.1094 194.322,19.375 Q194.7283,18.625 195.4314,18.2344 Q196.1501,17.8281 196.947,17.8281 Q197.4158,17.8281 197.8376,17.9375 Q198.2595,18.0469 198.6189,18.2656 Z " fill="#000000"/><text fill="#000000" font-family="sans-serif" font-size="11" lengthAdjust="spacing" textLength="23.8423" x="214.5876" y="25.5547">View</text><line style="stroke:#181818;stroke-width:0.5;" x1="137" x2="288.5176" y1="35" y2="35"/><line style="stroke:#181818;stroke-width:1;" x1="137" x2="288.5176" y1="43" y2="43"/><text fill="#000000" font-family="sans-serif" font-size="11" lengthAdjust="spacing" textLength="141.5176" x="142" y="58.8701">+create_menu(master: tk.Tk)</text></g><!--class Controller--><g class="entity" data-entity="Controller" data-source-line="28" data-uid="ent0005" id="entity_Controller"><rect fill="#F1F1F1" height="58.6309" rx="2.5" ry="2.5" style="stroke:#181818;stroke-width:0.5;" width="119.9053" x="254" y="408"/><ellipse cx="286.8993" cy="422" fill="#ADD1B2" rx="9" ry="9" style="stroke:#181818;stroke-width:1;"/><path d="M288.4306,419.2656 Q288.5243,419.125 288.6493,419.0625 Q288.7743,418.9844 288.9149,418.9844 Q289.1493,418.9844 289.3056,419.1563 Q289.4618,419.3281 289.4618,419.7188 L289.4618,420.6563 Q289.4618,421.0469 289.3056,421.2188 Q289.1493,421.3906 288.9149,421.3906 Q288.6962,421.3906 288.5556,421.2656 Q288.4149,421.1406 288.3524,420.8125 Q288.3212,420.5781 288.2118,420.4531 Q287.9931,420.2188 287.5868,420.0781 Q287.1962,419.9219 286.8056,419.9219 Q286.3056,419.9219 285.8837,420.1406 Q285.4774,420.3594 285.1493,420.8438 Q284.8368,421.3281 284.8368,421.9844 L284.8368,422.7031 Q284.8368,423.5 285.4149,424.0313 Q285.9931,424.5625 287.0243,424.5625 Q287.6337,424.5625 288.0556,424.3906 Q288.3056,424.2969 288.5868,424.0156 Q288.7587,423.8438 288.8524,423.7969 Q288.9462,423.7344 289.0712,423.7344 Q289.2899,423.7344 289.4618,423.9063 Q289.6337,424.0781 289.6337,424.2969 Q289.6337,424.5156 289.3993,424.7813 Q289.0712,425.1563 288.5556,425.375 Q287.8681,425.6563 287.0243,425.6563 Q286.0556,425.6563 285.2743,425.2656 Q284.6337,424.9375 284.1806,424.25 Q283.7431,423.5469 283.7431,422.7188 L283.7431,421.9688 Q283.7431,421.1094 284.1337,420.375 Q284.5399,419.625 285.2431,419.2344 Q285.9618,418.8281 286.7587,418.8281 Q287.2274,418.8281 287.6493,418.9375 Q288.0712,419.0469 288.4306,419.2656 Z " fill="#000000"/><text fill="#000000" font-family="sans-serif" font-size="11" lengthAdjust="spacing" textLength="47.6846" x="303.3214" y="426.5547">Controller</text><line style="stroke:#181818;stroke-width:0.5;" x1="255" x2="372.9053" y1="436" y2="436"/><line style="stroke:#181818;stroke-width:1;" x1="255" x2="372.9053" y1="444" y2="444"/><text fill="#000000" font-family="sans-serif" font-size="11" lengthAdjust="spacing" textLength="107.9053" x="260" y="459.8701">+set_mode(mode: str)</text></g><!--reverse link View to ModeMenu--><g class="link" data-entity-1="View" data-entity-2="ModeMenu" data-source-line="33" data-uid="lnk6" id="link_View_ModeMenu"><path codeLine="33" d="M213,78.36 C213,98.36 213,114.22 213,141.58" fill="none" id="View-backto-ModeMenu" style="stroke:#181818;stroke-width:1;"/><polygon fill="none" points="213,66.36,209,72.36,213,78.36,217,72.36,213,66.36" style="stroke:#181818;stroke-width:1;"/><text fill="#000000" font-family="sans-serif" font-size="11" lengthAdjust="spacing" textLength="122.2783" x="214" y="108.8701">creates in create_menu()</text></g><!--link ModeMenu to Controller--><g class="link" data-entity-1="ModeMenu" data-entity-2="Controller" data-source-line="34" data-uid="lnk7" id="link_ModeMenu_Controller"><path codeLine="34" d="M260.84,332.02 C274.91,359.68 286.5385,382.5327 296.7785,402.6527" fill="none" id="ModeMenu-to-Controller" style="stroke:#181818;stroke-width:1;"/><polygon fill="#181818" points="299.5,408,298.9826,398.1647,297.2321,403.5439,291.8529,401.7934,299.5,408" style="stroke:#181818;stroke-width:1;"/><text fill="#000000" font-family="sans-serif" font-size="11" lengthAdjust="spacing" textLength="164.4521" x="285" y="374.8701">mode_callback() calls set_mode()</text></g><!--link ModeMenu to HelpWindow--><g class="link" data-entity-1="ModeMenu" data-entity-2="HelpWindow" data-source-line="35" data-uid="lnk8" id="link_ModeMenu_HelpWindow"><path codeLine="35" d="M165.64,332.02 C151.7,359.68 140.2003,382.522 130.0603,402.642" fill="none" id="ModeMenu-to-HelpWindow" style="stroke:#181818;stroke-width:1;"/><polygon fill="#181818" points="127.36,408,134.9825,401.7632,129.6103,403.535,127.8385,398.1628,127.36,408" style="stroke:#181818;stroke-width:1;"/><text fill="#000000" font-family="sans-serif" font-size="11" lengthAdjust="spacing" textLength="107.0083" x="150" y="374.8701">help_callback() opens</text></g><!--SRC=[VP51IyGm48Nl-HKvjhWHzvg388BeOK-A7aFQpc9ecfHaYgZutqsdssxQ5I-bUPdvtkHDR8thTT0ThwsEyGunc6f0UAgzUpPVm6zON4eQEEh1ueDtI7VxFMFKnW- -WGEuWNyppgzuFOG03bMNPCaZ1bBHe0NLc1eb7xya1k_J4TlhbtPgrTPMkcub_UdA0ibTWbSwKELeb4GXw4OfummgLMIa7L-STtyGoyafW4QW6TM8BrRoEzW-b-ayeueCtvY82Z_xwJmL4_Eok6G_Ss2F2VTcNEC_AB9_tqBMHvEoSxgx8BqQM37cPusZTpeYX1CewxbF6mpUMWXvPuHfOvk1oS0BSLwoF9b4RjpAhsHBZH2tkOtSP5BICkBPSzEQvICtsPVSz-0Y-mK0]--></g></svg>