<svg xmlns="http://www.w3.org/2000/svg" xmlns:xlink="http://www.w3.org/1999/xlink" contentStyleType="text/css" data-diagram-type="CLASS" height="488px" preserveAspectRatio="none" style="width:673px;height:488px;background:#FFFFFF;" version="1.1" viewBox="0 0 673 488" width="673px" zoomAndPan="magnify"><defs/><g><!--class AbstractDicetribution--><g class="entity" data-entity="AbstractDicetribution" data-source-line="4" data-uid="ent0002" id="entity_AbstractDicetribution"><rect fill="#F1F1F1" height="102.5234" rx="2.5" ry="2.5" style="stroke:#181818;stroke-width:0.5;" width="129.4868" x="241.5" y="7"/><ellipse cx="254.5" cy="21" fill="#A9DCDF" rx="9" ry="9" style="stroke:#181818;stroke-width:1;"/><path d="M255.6406,22.7344 L252.9688,22.7344 L252.7031,23.4063 L252.9688,23.4063 Q253.375,23.4063 253.5313,23.5625 Q253.7031,23.7031 253.7031,23.9531 Q253.7031,24.1875 253.5313,24.3438 Q253.375,24.5 252.9688,24.5 L251.4844,24.5 Q251.0938,24.5 250.9219,24.3438 Q250.75,24.1875 250.75,23.9531 Q250.75,23.7031 250.9375,23.5469 Q251.1094,23.3906 251.5156,23.4063 L253.25,19.0938 L252.5313,19.0938 Q252.125,19.0938 251.9531,18.9375 Q251.7969,18.7813 251.7969,18.5313 Q251.7969,18.2969 251.9531,18.1406 Q252.125,17.9844 252.5313,17.9844 L254.9063,17.9844 L257.0938,23.4063 Q257.4844,23.4063 257.6094,23.4844 Q257.8594,23.6563 257.8594,23.9531 Q257.8594,24.1875 257.6875,24.3438 Q257.5156,24.5 257.125,24.5 L255.6406,24.5 Q255.25,24.5 255.0781,24.3438 Q254.9063,24.1875 254.9063,23.9531 Q254.9063,23.7031 255.0781,23.5625 Q255.25,23.4063 255.6406,23.4063 L255.9063,23.4063 L255.6406,22.7344 Z M255.1875,21.625 L254.2969,19.4531 L253.4063,21.625 L255.1875,21.625 Z " fill="#000000"/><text fill="#000000" font-family="sans-serif" font-size="11" font-style="italic" lengthAdjust="spacing" textLength="101.4868" x="266.5" y="25.5547">AbstractDicetribution</text><line style="stroke:#181818;stroke-width:0.5;" x1="242.5" x2="369.9868" y1="35" y2="35"/><text fill="#000000" font-family="sans-serif" font-size="11" lengthAdjust="spacing" textLength="115.8599" x="247.5" y="50.8701">+dice_data: list[list[Die]]</text><text fill="#000000" font-family="sans-serif" font-size="11" lengthAdjust="spacing" textLength="85.2876" x="247.5" y="65.501">+parameters: dict</text><line style="stroke:#181818;stroke-width:1;" x1="242.5" x2="369.9868" y1="72.2617" y2="72.2617"/><text fill="#000000" font-family="sans-serif" font-size="11" lengthAdjust="spacing" textLength="114.646" x="247.5" y="88.1318">+set_n_dice_row(n: int)</text><text fill="#000000" font-family="sans-serif" font-size="11" lengthAdjust="spacing" textLength="109.146" x="247.5" y="102.7627">+get_n_dice_row(): int</text></g><!--class NormDice--><g class="entity" data-entity="NormDice" data-source-line="12" data-uid="ent0003" id="entity_NormDice"><rect fill="#F1F1F1" height="161.0469" rx="2.5" ry="2.5" style="stroke:#181818;stroke-width:0.5;" width="252.5981" x="179.5" y="171"/><ellipse cx="277.6025" cy="185" fill="#ADD1B2" rx="9" ry="9" style="stroke:#181818;stroke-width:1;"/><path d="M279.1338,182.2656 Q279.2275,182.125 279.3525,182.0625 Q279.4775,181.9844 279.6182,181.9844 Q279.8525,181.9844 280.0088,182.1563 Q280.165,182.3281 280.165,182.7188 L280.165,183.6563 Q280.165,184.0469 280.0088,184.2188 Q279.8525,184.3906 279.6182,184.3906 Q279.3994,184.3906 279.2588,184.2656 Q279.1182,184.1406 279.0557,183.8125 Q279.0244,183.5781 278.915,183.4531 Q278.6963,183.2188 278.29,183.0781 Q277.8994,182.9219 277.5088,182.9219 Q277.0088,182.9219 276.5869,183.1406 Q276.1807,183.3594 275.8525,183.8438 Q275.54,184.3281 275.54,184.9844 L275.54,185.7031 Q275.54,186.5 276.1182,187.0313 Q276.6963,187.5625 277.7275,187.5625 Q278.3369,187.5625 278.7588,187.3906 Q279.0088,187.2969 279.29,187.0156 Q279.4619,186.8438 279.5557,186.7969 Q279.6494,186.7344 279.7744,186.7344 Q279.9932,186.7344 280.165,186.9063 Q280.3369,187.0781 280.3369,187.2969 Q280.3369,187.5156 280.1025,187.7813 Q279.7744,188.1563 279.2588,188.375 Q278.5713,188.6563 277.7275,188.6563 Q276.7588,188.6563 275.9775,188.2656 Q275.3369,187.9375 274.8838,187.25 Q274.4463,186.5469 274.4463,185.7188 L274.4463,184.9688 Q274.4463,184.1094 274.8369,183.375 Q275.2432,182.625 275.9463,182.2344 Q276.665,181.8281 277.4619,181.8281 Q277.9307,181.8281 278.3525,181.9375 Q278.7744,182.0469 279.1338,182.2656 Z " fill="#000000"/><text fill="#000000" font-family="sans-serif" font-size="11" lengthAdjust="spacing" textLength="48.8931" x="295.1025" y="189.5547">NormDice</text><line style="stroke:#181818;stroke-width:0.5;" x1="180.5" x2="431.0981" y1="199" y2="199"/><text fill="#000000" font-family="sans-serif" font-size="11" lengthAdjust="spacing" textLength="104.2798" x="185.5" y="214.8701">+on_change: callable</text><text fill="#000000" font-family="sans-serif" font-size="11" lengthAdjust="spacing" textLength="75.2168" x="185.5" y="229.501">-_cached_n: int</text><line style="stroke:#181818;stroke-width:1;" x1="180.5" x2="431.0981" y1="236.2617" y2="236.2617"/><text fill="#000000" font-family="sans-serif" font-size="11" lengthAdjust="spacing" textLength="235.1143" x="185.5" y="252.1318">+__init__(parameters: dict, on_change: callable)</text><text fill="#000000" font-family="sans-serif" font-size="11" lengthAdjust="spacing" textLength="106.4014" x="185.5" y="266.7627">-_check_n_changed()</text><text fill="#000000" font-family="sans-serif" font-size="11" lengthAdjust="spacing" textLength="121.3545" x="185.5" y="281.3936">+get_dice_row(): list[Die]</text><text fill="#000000" font-family="sans-serif" font-size="11" lengthAdjust="spacing" textLength="240.5981" x="185.5" y="296.0244">+get_row_data(row: list[Die]): float {mean of dice}</text><text fill="#000000" font-family="sans-serif" font-size="11" lengthAdjust="spacing" textLength="187.4351" x="185.5" y="310.6553">+get_plot_data(show_real: bool): tuple</text><text fill="#000000" font-family="sans-serif" font-size="11" lengthAdjust="spacing" textLength="172.7505" x="185.5" y="325.2861">+e_and_var(show_real: bool): tuple</text></g><!--class Die--><g class="entity" data-entity="Die" data-source-line="27" data-uid="ent0004" id="entity_Die"><rect fill="#F1F1F1" height="73.2617" rx="2.5" ry="2.5" style="stroke:#181818;stroke-width:0.5;" width="58.1484" x="7" y="408"/><ellipse cx="26.1394" cy="422" fill="#ADD1B2" rx="9" ry="9" style="stroke:#181818;stroke-width:1;"/><path d="M27.6706,419.2656 Q27.7644,419.125 27.8894,419.0625 Q28.0144,418.9844 28.155,418.9844 Q28.3894,418.9844 28.5456,419.1563 Q28.7019,419.3281 28.7019,419.7188 L28.7019,420.6563 Q28.7019,421.0469 28.5456,421.2188 Q28.3894,421.3906 28.155,421.3906 Q27.9363,421.3906 27.7956,421.2656 Q27.655,421.1406 27.5925,420.8125 Q27.5613,420.5781 27.4519,420.4531 Q27.2331,420.2188 26.8269,420.0781 Q26.4363,419.9219 26.0456,419.9219 Q25.5456,419.9219 25.1238,420.1406 Q24.7175,420.3594 24.3894,420.8438 Q24.0769,421.3281 24.0769,421.9844 L24.0769,422.7031 Q24.0769,423.5 24.655,424.0313 Q25.2331,424.5625 26.2644,424.5625 Q26.8738,424.5625 27.2956,424.3906 Q27.5456,424.2969 27.8269,424.0156 Q27.9988,423.8438 28.0925,423.7969 Q28.1863,423.7344 28.3113,423.7344 Q28.53,423.7344 28.7019,423.9063 Q28.8738,424.0781 28.8738,424.2969 Q28.8738,424.5156 28.6394,424.7813 Q28.3113,425.1563 27.7956,425.375 Q27.1081,425.6563 26.2644,425.6563 Q25.2956,425.6563 24.5144,425.2656 Q23.8738,424.9375 23.4206,424.25 Q22.9831,423.5469 22.9831,422.7188 L22.9831,421.9688 Q22.9831,421.1094 23.3738,420.375 Q23.78,419.625 24.4831,419.2344 Q25.2019,418.8281 25.9988,418.8281 Q26.4675,418.8281 26.8894,418.9375 Q27.3113,419.0469 27.6706,419.2656 Z " fill="#000000"/><text fill="#000000" font-family="sans-serif" font-size="11" lengthAdjust="spacing" textLength="16.5054" x="39.5037" y="426.5547">Die</text><line style="stroke:#181818;stroke-width:0.5;" x1="8" x2="64.1484" y1="436" y2="436"/><text fill="#000000" font-family="sans-serif" font-size="11" lengthAdjust="spacing" textLength="45.5522" x="13" y="451.8701">+num: int</text><line style="stroke:#181818;stroke-width:1;" x1="8" x2="64.1484" y1="458.6309" y2="458.6309"/><text fill="#000000" font-family="sans-serif" font-size="11" lengthAdjust="spacing" textLength="46.1484" x="13" y="474.501">+roll(): int</text></g><!--class Controller--><g class="entity" data-entity="Controller" data-source-line="33" data-uid="ent0005" id="entity_Controller"><rect fill="#F1F1F1" height="58.6309" rx="2.5" ry="2.5" style="stroke:#181818;stroke-width:0.5;" width="75.6846" x="151" y="415"/><ellipse cx="164" cy="429" fill="#ADD1B2" rx="9" ry="9" style="stroke:#181818;stroke-width:1;"/><path d="M165.5313,426.2656 Q165.625,426.125 165.75,426.0625 Q165.875,425.9844 166.0156,425.9844 Q166.25,425.9844 166.4063,426.1563 Q166.5625,426.3281 166.5625,426.7188 L166.5625,427.6563 Q166.5625,428.0469 166.4063,428.2188 Q166.25,428.3906 166.0156,428.3906 Q165.7969,428.3906 165.6563,428.2656 Q165.5156,428.1406 165.4531,427.8125 Q165.4219,427.5781 165.3125,427.4531 Q165.0938,427.2188 164.6875,427.0781 Q164.2969,426.9219 163.9063,426.9219 Q163.4063,426.9219 162.9844,427.1406 Q162.5781,427.3594 162.25,427.8438 Q161.9375,428.3281 161.9375,428.9844 L161.9375,429.7031 Q161.9375,430.5 162.5156,431.0313 Q163.0938,431.5625 164.125,431.5625 Q164.7344,431.5625 165.1563,431.3906 Q165.4063,431.2969 165.6875,431.0156 Q165.8594,430.8438 165.9531,430.7969 Q166.0469,430.7344 166.1719,430.7344 Q166.3906,430.7344 166.5625,430.9063 Q166.7344,431.0781 166.7344,431.2969 Q166.7344,431.5156 166.5,431.7813 Q166.1719,432.1563 165.6563,432.375 Q164.9688,432.6563 164.125,432.6563 Q163.1563,432.6563 162.375,432.2656 Q161.7344,431.9375 161.2813,431.25 Q160.8438,430.5469 160.8438,429.7188 L160.8438,428.9688 Q160.8438,428.1094 161.2344,427.375 Q161.6406,426.625 162.3438,426.2344 Q163.0625,425.8281 163.8594,425.8281 Q164.3281,425.8281 164.75,425.9375 Q165.1719,426.0469 165.5313,426.2656 Z " fill="#000000"/><text fill="#000000" font-family="sans-serif" font-size="11" lengthAdjust="spacing" textLength="47.6846" x="176" y="433.5547">Controller</text><line style="stroke:#181818;stroke-width:0.5;" x1="152" x2="225.6846" y1="443" y2="443"/><line style="stroke:#181818;stroke-width:1;" x1="152" x2="225.6846" y1="451" y2="451"/><text fill="#000000" font-family="sans-serif" font-size="11" lengthAdjust="spacing" textLength="47.9854" x="157" y="466.8701">+refresh()</text></g><g class="entity" data-entity="mean" data-source-line="38" data-uid="ent0006" id="entity_mean"><rect fill="#F1F1F1" height="41.2617" rx="2.5" ry="2.5" style="stroke:#181818;stroke-width:0.5;" width="95.7461" x="375" y="424"/><text fill="#000000" font-family="sans-serif" font-size="11" lengthAdjust="spacing" textLength="27.5161" x="409.115" y="437.8701">mean</text><line style="stroke:#181818;stroke-width:0.5;" x1="376" x2="469.7461" y1="442.6309" y2="442.6309"/><text fill="#000000" font-family="sans-serif" font-size="11" lengthAdjust="spacing" textLength="83.7461" x="381" y="458.501">mean(l: list): float</text></g><g class="entity" data-entity="sample_var" data-source-line="42" data-uid="ent0007" id="entity_sample_var"><rect fill="#F1F1F1" height="41.2617" rx="2.5" ry="2.5" style="stroke:#181818;stroke-width:0.5;" width="125.0884" x="541.5" y="424"/><text fill="#000000" font-family="sans-serif" font-size="11" lengthAdjust="spacing" textLength="56.8584" x="575.615" y="437.8701">sample_var</text><line style="stroke:#181818;stroke-width:0.5;" x1="542.5" x2="665.5884" y1="442.6309" y2="442.6309"/><text fill="#000000" font-family="sans-serif" font-size="11" lengthAdjust="spacing" textLength="113.0884" x="547.5" y="458.501">sample_var(l: list): float</text></g><!--reverse link AbstractDicetribution to NormDice--><g class="link" data-entity-1="AbstractDicetribution" data-entity-2="NormDice" data-source-line="46" data-uid="lnk8" id="link_AbstractDicetribution_NormDice"><path codeLine="46" d="M306,128.18 C306,146.75 306,150.24 306,170.74" fill="none" id="AbstractDicetribution-backto-NormDice" style="stroke:#181818;stroke-width:1;"/><polygon fill="none" points="306,110.18,300,128.18,312,128.18,306,110.18" style="stroke:#181818;stroke-width:1;"/></g><!--reverse link NormDice to Die--><g class="link" data-entity-1="NormDice" data-entity-2="Die" data-source-line="47" data-uid="lnk9" id="link_NormDice_Die"><path codeLine="47" d="M168.1089,290.0525 C125.4889,306.7725 92.09,326.84 61,362 C49.82,374.64 43.64,392.18 40.23,407.76" fill="none" id="NormDice-backto-Die" style="stroke:#181818;stroke-width:1;"/><polygon fill="#181818" points="179.28,285.67,172.2336,284.1375,168.1089,290.0525,175.1553,291.5849,179.28,285.67" style="stroke:#181818;stroke-width:1;"/><text fill="#000000" font-family="sans-serif" font-size="11" lengthAdjust="spacing" textLength="111.8853" x="62" y="374.8701">get_dice_row() creates</text></g><!--link NormDice to Controller--><g class="link" data-entity-1="NormDice" data-entity-2="Controller" data-source-line="48" data-uid="lnk10" id="link_NormDice_Controller"><path codeLine="48" d="M204.13,332.09 C196.92,341.42 190.67,351.42 186,362 C178.74,378.45 178.4919,392.7122 181.0219,408.8722" fill="none" id="NormDice-to-Controller" style="stroke:#181818;stroke-width:1;"/><polygon fill="#181818" points="181.95,414.8,184.5098,405.2896,181.1766,409.8602,176.6061,406.527,181.95,414.8" style="stroke:#181818;stroke-width:1;"/><text fill="#000000" font-family="sans-serif" font-size="11" lengthAdjust="spacing" textLength="192.6235" x="187" y="374.8701">_check_n_changed() calls on_change()</text></g><!--link NormDice to mean--><g class="link" data-entity-1="NormDice" data-entity-2="mean" data-source-line="49" data-uid="lnk11" id="link_NormDice_mean"><path codeLine="49" d="M365.13,332.18 C371.75,342.06 378.19,352.15 384,362 C396.03,382.4 405.043,401.5896 412.373,418.4096" fill="none" id="NormDice-to-mean" style="stroke:#181818;stroke-width:1;stroke-dasharray:7,7;"/><polygon fill="#181818" points="414.77,423.91,414.8414,414.0614,412.7725,419.3263,407.5075,417.2574,414.77,423.91" style="stroke:#181818;stroke-width:1;"/><text fill="#000000" font-family="sans-serif" font-size="11" lengthAdjust="spacing" textLength="139.4121" x="394" y="374.8701">get_row_data(), e_and_var()</text></g><!--link NormDice to sample_var--><g class="link" data-entity-1="NormDice" data-entity-2="sample_var" data-source-line="50" data-uid="lnk12" id="link_NormDice_sample_var"><path codeLine="50" d="M432.6,297.67 C470.04,314.49 509.62,335.95 542,362 C563.61,379.38 578.7859,400.7275 589.7759,418.7475" fill="none" id="NormDice-to-sample_var" style="stroke:#181818;stroke-width:1;stroke-dasharray:7,7;"/><polygon fill="#181818" points="592.9,423.87,591.6289,414.1035,590.2966,419.6013,584.7989,418.269,592.9,423.87" style="stroke:#181818;stroke-width:1;"/><text fill="#000000" font-family="sans-serif" font-size="11" lengthAdjust="spacing" textLength="59.313" x="559" y="374.8701">e_and_var()</text></g><!--SRC=[VLBBZjCm5DtdA-wE59gMJASiB3hIY0693HiaDgFASfpRnenZLxOBY65MRFY6-GpMhFW0vX_cI_2ZJT9IiOaSdtElpxdts1kXDiom5hXarbuwPqIrTVYMQ_LUV4LudjcEKkEARQLxevMBM5bc6QkiCuoxL0-NkzyhmJ6r4bh1RGRm36f_Hslc604fhBkEdok1osM4unleq5WIgCvV5aL4B3ggQ2mt-dEk20ZbHX5Q7qAZ26LtMPRalDEc3L9s2hIYl65gZGGuav9L4iChG3dZ3TOqTUuVfbGeuIZDZxMDJxKQxNero6_e7gxpNkXGPcU-GpqGfvFxmm3tt9NKpC5jYqo1NiKvtdLb6wbTghEDxs2GIGALrj8NkkqcEdm2LhG46jzJhyCcltYVS5sENopXh8HAA1jPgJWCZKclG27y-RMOJUPZUFY-UFnndy_cq_9iDFL75GKWPQgcdvZvx-Ff-dNgz86PnMp- - -UqF3-VgdvLtkjkIshR7kt1Q2d_sUqh7yC0e8brUogk3Dh6JzqJTVKHVJJZu08d77APXhkVwu1dMUib1pkHtV-UgZcTz9VVYg9BNTR5xwc_3GR9KGw0-zauj3spA2w6piY9FCN0sJw1tcjNFfbS9BlaC5EZyM1NH_o1RNB0-Wi0]--></g></svg>