<svg xmlns="http://www.w3.org/2000/svg" xmlns:xlink="http://www.w3.org/1999/xlink" contentStyleType="text/css" data-diagram-type="CLASS" height="546px" preserveAspectRatio="none" style="width:289px;height:546px;background:#FFFFFF;" version="1.1" viewBox="0 0 289 546" width="289px" zoomAndPan="magnify"><defs/><g><!--class AbstractStatisticalModel--><g class="entity" data-entity="AbstractStatisticalModel" data-source-line="4" data-uid="ent0002" id="entity_AbstractStatisticalModel"><rect fill="#F1F1F1" height="131.7852" rx="2.5" ry="2.5" style="stroke:#181818;stroke-width:0.5;" width="275.2051" x="7" y="7"/><ellipse cx="82.1626" cy="21" fill="#A9DCDF" rx="9" ry="9" style="stroke:#181818;stroke-width:1;"/><path d="M83.3032,22.7344 L80.6313,22.7344 L80.3657,23.4063 L80.6313,23.4063 Q81.0376,23.4063 81.1938,23.5625 Q81.3657,23.7031 81.3657,23.9531 Q81.3657,24.1875 81.1938,24.3438 Q81.0376,24.5 80.6313,24.5 L79.147,24.5 Q78.7563,24.5 78.5845,24.3438 Q78.4126,24.1875 78.4126,23.9531 Q78.4126,23.7031 78.6001,23.5469 Q78.772,23.3906 79.1782,23.4063 L80.9126,19.0938 L80.1938,19.0938 Q79.7876,19.0938 79.6157,18.9375 Q79.4595,18.7813 79.4595,18.5313 Q79.4595,18.2969 79.6157,18.1406 Q79.7876,17.9844 80.1938,17.9844 L82.5688,17.9844 L84.7563,23.4063 Q85.147,23.4063 85.272,23.4844 Q85.522,23.6563 85.522,23.9531 Q85.522,24.1875 85.3501,24.3438 Q85.1782,24.5 84.7876,24.5 L83.3032,24.5 Q82.9126,24.5 82.7407,24.3438 Q82.5688,24.1875 82.5688,23.9531 Q82.5688,23.7031 82.7407,23.5625 Q82.9126,23.4063 83.3032,23.4063 L83.5688,23.4063 L83.3032,22.7344 Z M82.8501,21.625 L81.9595,19.4531 L81.0688,21.625 L82.8501,21.625 Z " fill="#000000"/><text fill="#000000" font-family="sans-serif" font-size="11" font-style="italic" lengthAdjust="spacing" textLength="117.3799" x="99.6626" y="25.5547">AbstractStatisticalModel</text><line style="stroke:#181818;stroke-width:0.5;" x1="8" x2="281.2051" y1="35" y2="35"/><text fill="#000000" font-family="sans-serif" font-size="11" lengthAdjust="spacing" textLength="85.2876" x="13" y="50.8701">+parameters: dict</text><text fill="#000000" font-family="sans-serif" font-size="11" lengthAdjust="spacing" textLength="85.9106" x="13" y="65.501">+is_discrete: bool</text><line style="stroke:#181818;stroke-width:1;" x1="8" x2="281.2051" y1="72.2617" y2="72.2617"/><text fill="#000000" font-family="sans-serif" font-size="11" lengthAdjust="spacing" textLength="60.8276" x="13" y="88.1318">+cdf(x): float</text><text fill="#000000" font-family="sans-serif" font-size="11" lengthAdjust="spacing" textLength="98.7422" x="13" y="102.7627">+pxlessthan(x): float</text><text fill="#000000" font-family="sans-serif" font-size="11" lengthAdjust="spacing" textLength="260.1489" x="13" y="117.3936">+xpinclusivein(p): tuple {raises NotImplementedError}</text><text fill="#000000" font-family="sans-serif" font-size="11" lengthAdjust="spacing" textLength="263.2051" x="13" y="132.0244">+xpexclusivein(p): tuple {raises NotImplementedError}</text></g><!--class Normal--><g class="entity" data-entity="Normal" data-source-line="14" data-uid="ent0003" id="entity_Normal"><rect fill="#F1F1F1" height="190.3086" rx="2.5" ry="2.5" style="stroke:#181818;stroke-width:0.5;" width="253.1836" x="18" y="200"/><ellipse cx="123.1172" cy="214" fill="#ADD1B2" rx="9" ry="9" style="stroke:#181818;stroke-width:1;"/><path d="M124.6484,211.2656 Q124.7422,211.125 124.8672,211.0625 Q124.9922,210.9844 125.1328,210.9844 Q125.3672,210.9844 125.5234,211.1563 Q125.6797,211.3281 125.6797,211.7188 L125.6797,212.6563 Q125.6797,213.0469 125.5234,213.2188 Q125.3672,213.3906 125.1328,213.3906 Q124.9141,213.3906 124.7734,213.2656 Q124.6328,213.1406 124.5703,212.8125 Q124.5391,212.5781 124.4297,212.4531 Q124.2109,212.2188 123.8047,212.0781 Q123.4141,211.9219 123.0234,211.9219 Q122.5234,211.9219 122.1016,212.1406 Q121.6953,212.3594 121.3672,212.8438 Q121.0547,213.3281 121.0547,213.9844 L121.0547,214.7031 Q121.0547,215.5 121.6328,216.0313 Q122.2109,216.5625 123.2422,216.5625 Q123.8516,216.5625 124.2734,216.3906 Q124.5234,216.2969 124.8047,216.0156 Q124.9766,215.8438 125.0703,215.7969 Q125.1641,215.7344 125.2891,215.7344 Q125.5078,215.7344 125.6797,215.9063 Q125.8516,216.0781 125.8516,216.2969 Q125.8516,216.5156 125.6172,216.7813 Q125.2891,217.1563 124.7734,217.375 Q124.0859,217.6563 123.2422,217.6563 Q122.2734,217.6563 121.4922,217.2656 Q120.8516,216.9375 120.3984,216.25 Q119.9609,215.5469 119.9609,214.7188 L119.9609,213.9688 Q119.9609,213.1094 120.3516,212.375 Q120.7578,211.625 121.4609,211.2344 Q122.1797,210.8281 122.9766,210.8281 Q123.4453,210.8281 123.8672,210.9375 Q124.2891,211.0469 124.6484,211.2656 Z " fill="#000000"/><text fill="#000000" font-family="sans-serif" font-size="11" lengthAdjust="spacing" textLength="35.4492" x="140.6172" y="218.5547">Normal</text><line style="stroke:#181818;stroke-width:0.5;" x1="19" x2="270.1836" y1="228" y2="228"/><text fill="#000000" font-family="sans-serif" font-size="11" lengthAdjust="spacing" textLength="241.1836" x="24" y="243.8701">+parameters: {mu: Parameter, sigma: Parameter}</text><text fill="#000000" font-family="sans-serif" font-size="11" lengthAdjust="spacing" textLength="125.3452" x="24" y="258.501">+is_discrete: bool = False</text><line style="stroke:#181818;stroke-width:1;" x1="19" x2="270.1836" y1="265.2617" y2="265.2617"/><text fill="#000000" font-family="sans-serif" font-size="11" lengthAdjust="spacing" textLength="131.146" x="24" y="281.1318">+__init__(parameters: dict)</text><text fill="#000000" font-family="sans-serif" font-size="11" lengthAdjust="spacing" textLength="96.7817" x="24" y="295.7627">+mini: float {&#956; &#8722; 5&#963;}</text><text fill="#000000" font-family="sans-serif" font-size="11" lengthAdjust="spacing" textLength="98.7368" x="24" y="310.3936">+maxi: float {&#956; + 5&#963;}</text><text fill="#000000" font-family="sans-serif" font-size="11" lengthAdjust="spacing" textLength="107.7119" x="24" y="325.0244">+pdf(x): float | ndarray</text><text fill="#000000" font-family="sans-serif" font-size="11" lengthAdjust="spacing" textLength="113.6577" x="24" y="339.6553">+expectation(): float {&#956;}</text><text fill="#000000" font-family="sans-serif" font-size="11" lengthAdjust="spacing" textLength="103.0874" x="24" y="354.2861">+variance(): float {&#963;&#178;}</text><text fill="#000000" font-family="sans-serif" font-size="11" lengthAdjust="spacing" textLength="195.9644" x="24" y="368.917">+xpexclusivein(p: float): tuple[float, float]</text><text fill="#000000" font-family="sans-serif" font-size="11" lengthAdjust="spacing" textLength="192.9082" x="24" y="383.5479">+xpinclusivein(p: float): tuple[float, float]</text></g><!--class Parameter--><g class="entity" data-entity="Parameter" data-source-line="28" data-uid="ent0004" id="entity_Parameter"><rect fill="#F1F1F1" height="73.2617" rx="2.5" ry="2.5" style="stroke:#181818;stroke-width:0.5;" width="122.3813" x="7.5" y="466"/><ellipse cx="39.8627" cy="480" fill="#ADD1B2" rx="9" ry="9" style="stroke:#181818;stroke-width:1;"/><path d="M41.394,477.2656 Q41.4877,477.125 41.6127,477.0625 Q41.7377,476.9844 41.8784,476.9844 Q42.1127,476.9844 42.269,477.1563 Q42.4252,477.3281 42.4252,477.7188 L42.4252,478.6563 Q42.4252,479.0469 42.269,479.2188 Q42.1127,479.3906 41.8784,479.3906 Q41.6596,479.3906 41.519,479.2656 Q41.3784,479.1406 41.3159,478.8125 Q41.2846,478.5781 41.1752,478.4531 Q40.9565,478.2188 40.5502,478.0781 Q40.1596,477.9219 39.769,477.9219 Q39.269,477.9219 38.8471,478.1406 Q38.4409,478.3594 38.1127,478.8438 Q37.8002,479.3281 37.8002,479.9844 L37.8002,480.7031 Q37.8002,481.5 38.3784,482.0313 Q38.9565,482.5625 39.9877,482.5625 Q40.5971,482.5625 41.019,482.3906 Q41.269,482.2969 41.5502,482.0156 Q41.7221,481.8438 41.8159,481.7969 Q41.9096,481.7344 42.0346,481.7344 Q42.2534,481.7344 42.4252,481.9063 Q42.5971,482.0781 42.5971,482.2969 Q42.5971,482.5156 42.3627,482.7813 Q42.0346,483.1563 41.519,483.375 Q40.8315,483.6563 39.9877,483.6563 Q39.019,483.6563 38.2377,483.2656 Q37.5971,482.9375 37.144,482.25 Q36.7065,481.5469 36.7065,480.7188 L36.7065,479.9688 Q36.7065,479.1094 37.0971,478.375 Q37.5034,477.625 38.2065,477.2344 Q38.9252,476.8281 39.7221,476.8281 Q40.1909,476.8281 40.6127,476.9375 Q41.0346,477.0469 41.394,477.2656 Z " fill="#000000"/><text fill="#000000" font-family="sans-serif" font-size="11" lengthAdjust="spacing" textLength="51.353" x="56.1656" y="484.5547">Parameter</text><line style="stroke:#181818;stroke-width:0.5;" x1="8.5" x2="128.8813" y1="494" y2="494"/><text fill="#000000" font-family="sans-serif" font-size="11" lengthAdjust="spacing" textLength="62.9814" x="13.5" y="509.8701">-_value: float</text><line style="stroke:#181818;stroke-width:1;" x1="8.5" x2="128.8813" y1="516.6309" y2="516.6309"/><text fill="#000000" font-family="sans-serif" font-size="11" lengthAdjust="spacing" textLength="110.3813" x="13.5" y="532.501">+value: float {property}</text></g><g class="entity" data-entity="binary_search_for_x" data-source-line="34" data-uid="ent0005" id="entity_binary_search_for_x"><rect fill="#F1F1F1" height="49.2617" rx="2.5" ry="2.5" style="stroke:#181818;stroke-width:0.5;" width="113.666" x="164.5" y="478"/><text fill="#000000" font-family="sans-serif" font-size="11" font-style="italic" lengthAdjust="spacing" textLength="50.7622" x="195.9519" y="489.8701">&#171;function&#187;</text><text fill="#000000" font-family="sans-serif" font-size="11" lengthAdjust="spacing" textLength="99.666" x="171.5" y="506.501">binary_search_for_x</text><line style="stroke:#181818;stroke-width:0.5;" x1="165.5" x2="277.166" y1="511.2617" y2="511.2617"/></g><!--reverse link AbstractStatisticalModel to Normal--><g class="link" data-entity-1="AbstractStatisticalModel" data-entity-2="Normal" data-source-line="36" data-uid="lnk6" id="link_AbstractStatisticalModel_Normal"><path codeLine="36" d="M144.5,157.11 C144.5,176.12 144.5,179.28 144.5,199.71" fill="none" id="AbstractStatisticalModel-backto-Normal" style="stroke:#181818;stroke-width:1;"/><polygon fill="none" points="144.5,139.11,138.5,157.11,150.5,157.11,144.5,139.11" style="stroke:#181818;stroke-width:1;"/></g><!--reverse link Normal to Parameter--><g class="link" data-entity-1="Normal" data-entity-2="Parameter" data-source-line="37" data-uid="lnk7" id="link_Normal_Parameter"><path codeLine="37" d="M105.5662,401.2845 C95.6362,428.1245 89.57,444.52 81.79,465.56" fill="none" id="Normal-backto-Parameter" style="stroke:#181818;stroke-width:1;"/><polygon fill="#181818" points="109.73,390.03,103.8966,394.2693,105.5662,401.2845,111.3996,397.0452,109.73,390.03" style="stroke:#181818;stroke-width:1;"/><text fill="#000000" font-family="sans-serif" font-size="11" lengthAdjust="spacing" textLength="50.7354" x="98.5" y="432.8701">mu, sigma</text></g><!--link Normal to binary_search_for_x--><g class="link" data-entity-1="Normal" data-entity-2="binary_search_for_x" data-source-line="38" data-uid="lnk8" id="link_Normal_binary_search_for_x"><path codeLine="38" d="M179.73,390.03 C191.85,422.37 202.2944,450.2516 210.4344,471.9716" fill="none" id="Normal-to-binary_search_for_x" style="stroke:#181818;stroke-width:1;stroke-dasharray:7,7;"/><polygon fill="#181818" points="212.54,477.59,213.1272,467.7587,210.7853,472.908,205.636,470.5661,212.54,477.59" style="stroke:#181818;stroke-width:1;"/><text fill="#000000" font-family="sans-serif" font-size="11" lengthAdjust="spacing" textLength="72.7461" x="197.5" y="432.8701">xpexclusivein()</text></g><!--SRC=[bPA_Rjim4CPtFiMDTXC5oT15S0raI80C2G9aB0hYH9qQjlmZ72b3hk8fI-S-IkTEVO3c7VeaKIJPLWsbG4P-ttqaxtSNlcfN8gC5PJ24ynXPPrMaA-NTdVv6S2h2hYId0YiJBxsBdNTs9WHc8JAgsEVXV3ZUHOmwHAtGNFkS33G2u0YwUoWIXnHohM8dwY1p7HItUWgPzwPLawIpL5xCwdaAXV7O5vUreH3YFRe3eowrKwOAUaNQpShMYrLf21f67IZ0ZOzNjXKikKZv1RFdpH2a-it1ZH1zmpUUBKwrrzWgXTkjS0n1VxOuKZRJlSC7k4GJQCz0Ikrqb79s26_UsRPr1mxG_Fa5Vx__WFTFZ_tr5kj_pAEzLOxHmWEu79bntNdKCb4l4_HkDX_b- -GAMQDJDBAU7d__dAGvL6oXVknEnxtuQMfk_m_iiEymTkGJa2iq5UttOM0tLg4fsPV4STsDpsTVsXuXqmvvBGCXgtjPU9OrB1P5vTHBzykb4A-kzE8XIORvYs4DthNA_cifs6eO_BRWv6Gv-MHw06ukdW40]--></g></svg>