<svg xmlns="http://www.w3.org/2000/svg" xmlns:xlink="http://www.w3.org/1999/xlink" contentStyleType="text/css" data-diagram-type="CLASS" height="429px" preserveAspectRatio="none" style="width:411px;height:429px;background:#FFFFFF;" version="1.1" viewBox="0 0 411 429" width="411px" zoomAndPan="magnify"><defs/><g><!--class PairRadioButton--><g class="entity" data-entity="PairRadioButton" data-source-line="4" data-uid="ent0002" id="entity_PairRadioButton"><rect fill="#F1F1F1" height="131.7852" rx="2.5" ry="2.5" style="stroke:#181818;stroke-width:0.5;" width="333.2988" x="7" y="156"/><ellipse cx="129.8472" cy="170" fill="#ADD1B2" rx="9" ry="9" style="stroke:#181818;stroke-width:1;"/><path d="M131.3784,167.2656 Q131.4722,167.125 131.5972,167.0625 Q131.7222,166.9844 131.8628,166.9844 Q132.0972,166.9844 132.2534,167.1563 Q132.4097,167.3281 132.4097,167.7188 L132.4097,168.6563 Q132.4097,169.0469 132.2534,169.2188 Q132.0972,169.3906 131.8628,169.3906 Q131.644,169.3906 131.5034,169.2656 Q131.3628,169.1406 131.3003,168.8125 Q131.269,168.5781 131.1597,168.4531 Q130.9409,168.2188 130.5347,168.0781 Q130.144,167.9219 129.7534,167.9219 Q129.2534,167.9219 128.8315,168.1406 Q128.4253,168.3594 128.0972,168.8438 Q127.7847,169.3281 127.7847,169.9844 L127.7847,170.7031 Q127.7847,171.5 128.3628,172.0313 Q128.9409,172.5625 129.9722,172.5625 Q130.5815,172.5625 131.0034,172.3906 Q131.2534,172.2969 131.5347,172.0156 Q131.7065,171.8438 131.8003,171.7969 Q131.894,171.7344 132.019,171.7344 Q132.2378,171.7344 132.4097,171.9063 Q132.5815,172.0781 132.5815,172.2969 Q132.5815,172.5156 132.3472,172.7813 Q132.019,173.1563 131.5034,173.375 Q130.8159,173.6563 129.9722,173.6563 Q129.0034,173.6563 128.2222,173.2656 Q127.5815,172.9375 127.1284,172.25 Q126.6909,171.5469 126.6909,170.7188 L126.6909,169.9688 Q126.6909,169.1094 127.0815,168.375 Q127.4878,167.625 128.1909,167.2344 Q128.9097,166.8281 129.7065,166.8281 Q130.1753,166.8281 130.5972,166.9375 Q131.019,167.0469 131.3784,167.2656 Z " fill="#000000"/><text fill="#000000" font-family="sans-serif" font-size="11" lengthAdjust="spacing" textLength="80.1045" x="147.3472" y="174.5547">PairRadioButton</text><line style="stroke:#181818;stroke-width:0.5;" x1="8" x2="339.2988" y1="184" y2="184"/><text fill="#000000" font-family="sans-serif" font-size="11" lengthAdjust="spacing" textLength="79.7822" x="13" y="199.8701">+options: list[str]</text><text fill="#000000" font-family="sans-serif" font-size="11" lengthAdjust="spacing" textLength="75.5015" x="13" y="214.501">+v: tk.StringVar</text><text fill="#000000" font-family="sans-serif" font-size="11" lengthAdjust="spacing" textLength="104.2798" x="13" y="229.1318">+on_change: callable</text><line style="stroke:#181818;stroke-width:1;" x1="8" x2="339.2988" y1="235.8926" y2="235.8926"/><text fill="#000000" font-family="sans-serif" font-size="11" lengthAdjust="spacing" textLength="321.2988" x="13" y="251.7627">+__init__(master: tk.Widget, options: list[str], on_change: callable)</text><text fill="#000000" font-family="sans-serif" font-size="11" lengthAdjust="spacing" textLength="104.2798" x="13" y="266.3936">+on_option_change()</text><text fill="#000000" font-family="sans-serif" font-size="11" lengthAdjust="spacing" textLength="47.373" x="13" y="281.0244">+get(): str</text></g><!--class PiecewiseSettingsFrame--><g class="entity" data-entity="PiecewiseSettingsFrame" data-source-line="14" data-uid="ent0003" id="entity_PiecewiseSettingsFrame"><rect fill="#F1F1F1" height="73.2617" rx="2.5" ry="2.5" style="stroke:#181818;stroke-width:0.5;" width="279.5073" x="33.5" y="7"/><ellipse cx="108.9795" cy="21" fill="#ADD1B2" rx="9" ry="9" style="stroke:#181818;stroke-width:1;"/><path d="M110.5107,18.2656 Q110.6045,18.125 110.7295,18.0625 Q110.8545,17.9844 110.9951,17.9844 Q111.2295,17.9844 111.3857,18.1563 Q111.542,18.3281 111.542,18.7188 L111.542,19.6563 Q111.542,20.0469 111.3857,20.2188 Q111.2295,20.3906 110.9951,20.3906 Q110.7764,20.3906 110.6357,20.2656 Q110.4951,20.1406 110.4326,19.8125 Q110.4014,19.5781 110.292,19.4531 Q110.0732,19.2188 109.667,19.0781 Q109.2764,18.9219 108.8857,18.9219 Q108.3857,18.9219 107.9639,19.1406 Q107.5576,19.3594 107.2295,19.8438 Q106.917,20.3281 106.917,20.9844 L106.917,21.7031 Q106.917,22.5 107.4951,23.0313 Q108.0732,23.5625 109.1045,23.5625 Q109.7139,23.5625 110.1357,23.3906 Q110.3857,23.2969 110.667,23.0156 Q110.8389,22.8438 110.9326,22.7969 Q111.0264,22.7344 111.1514,22.7344 Q111.3701,22.7344 111.542,22.9063 Q111.7139,23.0781 111.7139,23.2969 Q111.7139,23.5156 111.4795,23.7813 Q111.1514,24.1563 110.6357,24.375 Q109.9482,24.6563 109.1045,24.6563 Q108.1357,24.6563 107.3545,24.2656 Q106.7139,23.9375 106.2607,23.25 Q105.8232,22.5469 105.8232,21.7188 L105.8232,20.9688 Q105.8232,20.1094 106.2139,19.375 Q106.6201,18.625 107.3232,18.2344 Q108.042,17.8281 108.8389,17.8281 Q109.3076,17.8281 109.7295,17.9375 Q110.1514,18.0469 110.5107,18.2656 Z " fill="#000000"/><text fill="#000000" font-family="sans-serif" font-size="11" lengthAdjust="spacing" textLength="121.0483" x="126.4795" y="25.5547">PiecewiseSettingsFrame</text><line style="stroke:#181818;stroke-width:0.5;" x1="34.5" x2="312.0073" y1="35" y2="35"/><text fill="#000000" font-family="sans-serif" font-size="11" lengthAdjust="spacing" textLength="153.1836" x="39.5" y="50.8701">+radiobuttons: PairRadioButton</text><line style="stroke:#181818;stroke-width:1;" x1="34.5" x2="312.0073" y1="57.6309" y2="57.6309"/><text fill="#000000" font-family="sans-serif" font-size="11" lengthAdjust="spacing" textLength="267.5073" x="39.5" y="73.501">+__init__(master, on_change, add, remove, normalise)</text></g><!--class Controller--><g class="entity" data-entity="Controller" data-source-line="20" data-uid="ent0004" id="entity_Controller"><rect fill="#F1F1F1" height="58.6309" rx="2.5" ry="2.5" style="stroke:#181818;stroke-width:0.5;" width="215.2959" x="66" y="364"/><ellipse cx="146.0557" cy="378" fill="#ADD1B2" rx="9" ry="9" style="stroke:#181818;stroke-width:1;"/><path d="M147.5869,375.2656 Q147.6807,375.125 147.8057,375.0625 Q147.9307,374.9844 148.0713,374.9844 Q148.3057,374.9844 148.4619,375.1563 Q148.6182,375.3281 148.6182,375.7188 L148.6182,376.6563 Q148.6182,377.0469 148.4619,377.2188 Q148.3057,377.3906 148.0713,377.3906 Q147.8525,377.3906 147.7119,377.2656 Q147.5713,377.1406 147.5088,376.8125 Q147.4775,376.5781 147.3682,376.4531 Q147.1494,376.2188 146.7432,376.0781 Q146.3525,375.9219 145.9619,375.9219 Q145.4619,375.9219 145.04,376.1406 Q144.6338,376.3594 144.3057,376.8438 Q143.9932,377.3281 143.9932,377.9844 L143.9932,378.7031 Q143.9932,379.5 144.5713,380.0313 Q145.1494,380.5625 146.1807,380.5625 Q146.79,380.5625 147.2119,380.3906 Q147.4619,380.2969 147.7432,380.0156 Q147.915,379.8438 148.0088,379.7969 Q148.1025,379.7344 148.2275,379.7344 Q148.4463,379.7344 148.6182,379.9063 Q148.79,380.0781 148.79,380.2969 Q148.79,380.5156 148.5557,380.7813 Q148.2275,381.1563 147.7119,381.375 Q147.0244,381.6563 146.1807,381.6563 Q145.2119,381.6563 144.4307,381.2656 Q143.79,380.9375 143.3369,380.25 Q142.8994,379.5469 142.8994,378.7188 L142.8994,377.9688 Q142.8994,377.1094 143.29,376.375 Q143.6963,375.625 144.3994,375.2344 Q145.1182,374.8281 145.915,374.8281 Q146.3838,374.8281 146.8057,374.9375 Q147.2275,375.0469 147.5869,375.2656 Z " fill="#000000"/><text fill="#000000" font-family="sans-serif" font-size="11" lengthAdjust="spacing" textLength="47.6846" x="163.5557" y="382.5547">Controller</text><line style="stroke:#181818;stroke-width:0.5;" x1="67" x2="280.2959" y1="392" y2="392"/><line style="stroke:#181818;stroke-width:1;" x1="67" x2="280.2959" y1="400" y2="400"/><text fill="#000000" font-family="sans-serif" font-size="11" lengthAdjust="spacing" textLength="203.2959" x="72" y="415.8701">+set_piecewise_type(piecewise_type: str)</text></g><!--reverse link PiecewiseSettingsFrame to PairRadioButton--><g class="link" data-entity-1="PiecewiseSettingsFrame" data-entity-2="PairRadioButton" data-source-line="25" data-uid="lnk5" id="link_PiecewiseSettingsFrame_PairRadioButton"><path codeLine="25" d="M173.5,92.22 C173.5,113.87 173.5,130.17 173.5,155.7" fill="none" id="PiecewiseSettingsFrame-backto-PairRadioButton" style="stroke:#181818;stroke-width:1;"/><polygon fill="#181818" points="173.5,80.22,169.5,86.22,173.5,92.22,177.5,86.22,173.5,80.22" style="stroke:#181818;stroke-width:1;"/><text fill="#000000" font-family="sans-serif" font-size="11" lengthAdjust="spacing" textLength="60.543" x="174.5" y="122.8701">radiobuttons</text></g><!--link PairRadioButton to Controller--><g class="link" data-entity-1="PairRadioButton" data-entity-2="Controller" data-source-line="26" data-uid="lnk6" id="link_PairRadioButton_Controller"><path codeLine="26" d="M173.5,288.05 C173.5,314.19 173.5,336.98 173.5,357.7" fill="none" id="PairRadioButton-to-Controller" style="stroke:#181818;stroke-width:1;"/><polygon fill="#181818" points="173.5,363.7,177.5,354.7,173.5,358.7,169.5,354.7,173.5,363.7" style="stroke:#181818;stroke-width:1;"/><text fill="#000000" font-family="sans-serif" font-size="11" lengthAdjust="spacing" textLength="229.3027" x="174.5" y="330.8701">on_option_change() calls set_piecewise_type()</text></g><!--SRC=[TP5FIyGm4CNl-HHpRBKLzzg3eCA2Dx6W1v4mRMThs3GfoNH5nUzkJBjbT-qUC__U-xtuhJ8zEkoWrkZzBRDJrS3qK5jJgY-2Q-7daOOsE6XUMyEnjre94TVW4PLxmaRPku7P6lWM09TWUrRM-0AqylpgsRt5ygu0tbwLGScqp-Z6KIFhTpGj5L2ZrbXf2lKyZqqfbL4iPTAXPt9n_KKrBN6se94j7KltAkFyr4_6SZYKf0M4PV4p4ocgwKDvAeav6FNha01DOEuFjOgeGVa4_gpl0sCPODDauAYpk_0mrdKO08BDsS1zIDbPhSb5qUca9vRztfhapvwIusV4Y6VE45pa-R_lAew8n6axpsyExHGBESQW_PAzLFm2]--></g></svg>