<svg xmlns="http://www.w3.org/2000/svg" xmlns:xlink="http://www.w3.org/1999/xlink" contentStyleType="text/css" data-diagram-type="CLASS" height="229.2px" preserveAspectRatio="none" style="width:472px;height:229px;background:#FFFFFF;" version="1.1" viewBox="0 0 472 229" width="472.8px" zoomAndPan="magnify"><defs/><g><!--class Parameter--><g class="entity" data-entity="Parameter" data-source-line="4" data-uid="ent0002" id="entity_Parameter"><rect fill="#F1F1F1" height="122.9637" rx="1.5" ry="1.5" style="stroke:#181818;stroke-width:0.3;" width="154.8428" x="158.7" y="102.6"/><ellipse cx="218.4655" cy="111" fill="#ADD1B2" rx="5.4" ry="5.4" style="stroke:#181818;stroke-width:0.6;"/><path d="M219.3842,109.3594 Q219.4405,109.275 219.5155,109.2375 Q219.5905,109.1906 219.6749,109.1906 Q219.8155,109.1906 219.9092,109.2938 Q220.003,109.3969 220.003,109.6313 L220.003,110.1938 Q220.003,110.4281 219.9092,110.5313 Q219.8155,110.6344 219.6749,110.6344 Q219.5436,110.6344 219.4592,110.5594 Q219.3749,110.4844 219.3374,110.2875 Q219.3186,110.1469 219.253,110.0719 Q219.1217,109.9312 218.878,109.8469 Q218.6436,109.7531 218.4092,109.7531 Q218.1092,109.7531 217.8561,109.8844 Q217.6124,110.0156 217.4155,110.3062 Q217.228,110.5969 217.228,110.9906 L217.228,111.4219 Q217.228,111.9 217.5749,112.2188 Q217.9217,112.5375 218.5405,112.5375 Q218.9061,112.5375 219.1592,112.4344 Q219.3092,112.3781 219.478,112.2094 Q219.5811,112.1063 219.6374,112.0781 Q219.6936,112.0406 219.7686,112.0406 Q219.8999,112.0406 220.003,112.1438 Q220.1061,112.2469 220.1061,112.3781 Q220.1061,112.5094 219.9655,112.6688 Q219.7686,112.8938 219.4592,113.025 Q219.0467,113.1938 218.5405,113.1938 Q217.9592,113.1938 217.4905,112.9594 Q217.1061,112.7625 216.8342,112.35 Q216.5717,111.9281 216.5717,111.4312 L216.5717,110.9813 Q216.5717,110.4656 216.8061,110.025 Q217.0499,109.575 217.4717,109.3406 Q217.903,109.0969 218.3811,109.0969 Q218.6624,109.0969 218.9155,109.1625 Q219.1686,109.2281 219.3842,109.3594 Z " fill="#000000"/><text fill="#000000" font-family="sans-serif" font-size="6.6" lengthAdjust="spacing" textLength="30.8118" x="228.9655" y="113.7328">Parameter</text><line style="stroke:#181818;stroke-width:0.3;" x1="159.3" x2="312.9428" y1="119.4" y2="119.4"/><text fill="#000000" font-family="sans-serif" font-size="6.6" lengthAdjust="spacing" textLength="28.7977" x="162.3" y="128.9221">+label: str</text><text fill="#000000" font-family="sans-serif" font-size="6.6" lengthAdjust="spacing" textLength="59.1164" x="162.3" y="137.7006">+minimum: float | int</text><text fill="#000000" font-family="sans-serif" font-size="6.6" lengthAdjust="spacing" textLength="60.9501" x="162.3" y="146.4791">+maximum: float | int</text><text fill="#000000" font-family="sans-serif" font-size="6.6" lengthAdjust="spacing" textLength="44.8239" x="162.3" y="155.2576">+step: float | int</text><text fill="#000000" font-family="sans-serif" font-size="6.6" lengthAdjust="spacing" textLength="52.1651" x="162.3" y="164.0361">+default: float | int</text><text fill="#000000" font-family="sans-serif" font-size="6.6" lengthAdjust="spacing" textLength="50.1413" x="162.3" y="172.8146">-_value: float | int</text><line style="stroke:#181818;stroke-width:0.6;" x1="159.3" x2="312.9428" y1="176.8711" y2="176.8711"/><text fill="#000000" font-family="sans-serif" font-size="6.6" lengthAdjust="spacing" textLength="147.6428" x="162.3" y="186.3932">+__init__(label, minimum, maximum, step, default)</text><text fill="#000000" font-family="sans-serif" font-size="6.6" lengthAdjust="spacing" textLength="87.8754" x="162.3" y="195.1717">+value: float {property get/set}</text><text fill="#000000" font-family="sans-serif" font-size="6.6" lengthAdjust="spacing" textLength="46.0389" x="162.3" y="203.9502">+get_label(): str</text><text fill="#000000" font-family="sans-serif" font-size="6.6" lengthAdjust="spacing" textLength="91.778" x="162.3" y="212.7287">+validate(value: float | str): bool</text><text fill="#000000" font-family="sans-serif" font-size="6.6" lengthAdjust="spacing" textLength="74.2919" x="162.3" y="221.5072">+get_spinbox_args(): dict</text></g><!--class LabelSpinbox--><g class="entity" data-entity="LabelSpinbox" data-source-line="19" data-uid="ent0003" id="entity_LabelSpinbox"><rect fill="#F1F1F1" height="52.7355" rx="1.5" ry="1.5" style="stroke:#181818;stroke-width:0.3;" width="96.8994" x="4.2" y="4.2"/><ellipse cx="30.3999" cy="12.6" fill="#ADD1B2" rx="5.4" ry="5.4" style="stroke:#181818;stroke-width:0.6;"/><path d="M31.3187,10.9594 Q31.3749,10.875 31.4499,10.8375 Q31.5249,10.7906 31.6093,10.7906 Q31.7499,10.7906 31.8437,10.8937 Q31.9374,10.9969 31.9374,11.2313 L31.9374,11.7938 Q31.9374,12.0281 31.8437,12.1313 Q31.7499,12.2344 31.6093,12.2344 Q31.478,12.2344 31.3937,12.1594 Q31.3093,12.0844 31.2718,11.8875 Q31.253,11.7469 31.1874,11.6719 Q31.0562,11.5313 30.8124,11.4469 Q30.578,11.3531 30.3437,11.3531 Q30.0437,11.3531 29.7905,11.4844 Q29.5468,11.6156 29.3499,11.9063 Q29.1624,12.1969 29.1624,12.5906 L29.1624,13.0219 Q29.1624,13.5 29.5093,13.8188 Q29.8562,14.1375 30.4749,14.1375 Q30.8405,14.1375 31.0937,14.0344 Q31.2437,13.9781 31.4124,13.8094 Q31.5155,13.7062 31.5718,13.6781 Q31.628,13.6406 31.703,13.6406 Q31.8343,13.6406 31.9374,13.7438 Q32.0405,13.8469 32.0405,13.9781 Q32.0405,14.1094 31.8999,14.2687 Q31.703,14.4937 31.3937,14.625 Q30.9812,14.7938 30.4749,14.7938 Q29.8937,14.7938 29.4249,14.5594 Q29.0405,14.3625 28.7687,13.95 Q28.5062,13.5281 28.5062,13.0313 L28.5062,12.5812 Q28.5062,12.0656 28.7405,11.625 Q28.9843,11.175 29.4062,10.9406 Q29.8374,10.6969 30.3155,10.6969 Q30.5968,10.6969 30.8499,10.7625 Q31.103,10.8281 31.3187,10.9594 Z " fill="#000000"/><text fill="#000000" font-family="sans-serif" font-size="6.6" lengthAdjust="spacing" textLength="39.9996" x="40.8999" y="15.3328">LabelSpinbox</text><line style="stroke:#181818;stroke-width:0.3;" x1="4.8" x2="100.4994" y1="21" y2="21"/><text fill="#000000" font-family="sans-serif" font-size="6.6" lengthAdjust="spacing" textLength="68.4138" x="7.8" y="30.5221">+parameter: Parameter</text><line style="stroke:#181818;stroke-width:0.6;" x1="4.8" x2="100.4994" y1="34.5785" y2="34.5785"/><text fill="#000000" font-family="sans-serif" font-size="6.6" lengthAdjust="spacing" textLength="89.6994" x="7.8" y="44.1006">+validate(new_value: str): bool</text><text fill="#000000" font-family="sans-serif" font-size="6.6" lengthAdjust="spacing" textLength="62.3777" x="7.8" y="52.8791">-_on_value_change()</text></g><!--class AbstractStatisticalModel--><g class="entity" data-entity="AbstractStatisticalModel" data-source-line="26" data-uid="ent0004" id="entity_AbstractStatisticalModel"><rect fill="#F1F1F1" height="35.1785" rx="1.5" ry="1.5" style="stroke:#181818;stroke-width:0.3;" width="103.8507" x="121.8" y="12.9"/><ellipse cx="137.0802" cy="21.3" fill="#ADD1B2" rx="5.4" ry="5.4" style="stroke:#181818;stroke-width:0.6;"/><path d="M137.999,19.6594 Q138.0552,19.575 138.1302,19.5375 Q138.2052,19.4906 138.2896,19.4906 Q138.4302,19.4906 138.524,19.5938 Q138.6177,19.6969 138.6177,19.9313 L138.6177,20.4938 Q138.6177,20.7281 138.524,20.8313 Q138.4302,20.9344 138.2896,20.9344 Q138.1584,20.9344 138.074,20.8594 Q137.9896,20.7844 137.9521,20.5875 Q137.9334,20.4469 137.8677,20.3719 Q137.7365,20.2313 137.4927,20.1469 Q137.2584,20.0531 137.024,20.0531 Q136.724,20.0531 136.4709,20.1844 Q136.2271,20.3156 136.0302,20.6063 Q135.8427,20.8969 135.8427,21.2906 L135.8427,21.7219 Q135.8427,22.2 136.1896,22.5188 Q136.5365,22.8375 137.1552,22.8375 Q137.5209,22.8375 137.774,22.7344 Q137.924,22.6781 138.0927,22.5094 Q138.1959,22.4063 138.2521,22.3781 Q138.3084,22.3406 138.3834,22.3406 Q138.5146,22.3406 138.6177,22.4437 Q138.7209,22.5469 138.7209,22.6781 Q138.7209,22.8094 138.5802,22.9688 Q138.3834,23.1937 138.074,23.325 Q137.6615,23.4938 137.1552,23.4938 Q136.574,23.4938 136.1052,23.2594 Q135.7209,23.0625 135.449,22.65 Q135.1865,22.2281 135.1865,21.7313 L135.1865,21.2813 Q135.1865,20.7656 135.4209,20.325 Q135.6646,19.875 136.0865,19.6406 Q136.5177,19.3969 136.9959,19.3969 Q137.2771,19.3969 137.5302,19.4625 Q137.7834,19.5281 137.999,19.6594 Z " fill="#000000"/><text fill="#000000" font-family="sans-serif" font-size="6.6" lengthAdjust="spacing" textLength="70.4279" x="145.9425" y="24.0328">AbstractStatisticalModel</text><line style="stroke:#181818;stroke-width:0.3;" x1="122.4" x2="225.0507" y1="29.7" y2="29.7"/><text fill="#000000" font-family="sans-serif" font-size="6.6" lengthAdjust="spacing" textLength="96.6507" x="125.4" y="39.2221">+parameters: dict[str, Parameter]</text><line style="stroke:#181818;stroke-width:0.3;" x1="122.4" x2="225.0507" y1="43.2785" y2="43.2785"/></g><!--class AbstractDicetribution--><g class="entity" data-entity="AbstractDicetribution" data-source-line="30" data-uid="ent0005" id="entity_AbstractDicetribution"><rect fill="#F1F1F1" height="35.1785" rx="1.5" ry="1.5" style="stroke:#181818;stroke-width:0.3;" width="103.8507" x="246.6" y="12.9"/><ellipse cx="266.1714" cy="21.3" fill="#ADD1B2" rx="5.4" ry="5.4" style="stroke:#181818;stroke-width:0.6;"/><path d="M267.0901,19.6594 Q267.1464,19.575 267.2214,19.5375 Q267.2964,19.4906 267.3807,19.4906 Q267.5214,19.4906 267.6151,19.5938 Q267.7089,19.6969 267.7089,19.9313 L267.7089,20.4938 Q267.7089,20.7281 267.6151,20.8313 Q267.5214,20.9344 267.3807,20.9344 Q267.2495,20.9344 267.1651,20.8594 Q267.0807,20.7844 267.0432,20.5875 Q267.0245,20.4469 266.9589,20.3719 Q266.8276,20.2313 266.5839,20.1469 Q266.3495,20.0531 266.1151,20.0531 Q265.8151,20.0531 265.562,20.1844 Q265.3182,20.3156 265.1214,20.6063 Q264.9339,20.8969 264.9339,21.2906 L264.9339,21.7219 Q264.9339,22.2 265.2807,22.5188 Q265.6276,22.8375 266.2464,22.8375 Q266.612,22.8375 266.8651,22.7344 Q267.0151,22.6781 267.1839,22.5094 Q267.287,22.4063 267.3432,22.3781 Q267.3995,22.3406 267.4745,22.3406 Q267.6057,22.3406 267.7089,22.4437 Q267.812,22.5469 267.812,22.6781 Q267.812,22.8094 267.6714,22.9688 Q267.4745,23.1937 267.1651,23.325 Q266.7526,23.4938 266.2464,23.4938 Q265.6651,23.4938 265.1964,23.2594 Q264.812,23.0625 264.5401,22.65 Q264.2776,22.2281 264.2776,21.7313 L264.2776,21.2813 Q264.2776,20.7656 264.512,20.325 Q264.7557,19.875 265.1776,19.6406 Q265.6089,19.3969 266.087,19.3969 Q266.3682,19.3969 266.6214,19.4625 Q266.8745,19.5281 267.0901,19.6594 Z " fill="#000000"/><text fill="#000000" font-family="sans-serif" font-size="6.6" lengthAdjust="spacing" textLength="60.8921" x="275.9872" y="24.0328">AbstractDicetribution</text><line style="stroke:#181818;stroke-width:0.3;" x1="247.2" x2="349.8507" y1="29.7" y2="29.7"/><text fill="#000000" font-family="sans-serif" font-size="6.6" lengthAdjust="spacing" textLength="96.6507" x="250.2" y="39.2221">+parameters: dict[str, Parameter]</text><line style="stroke:#181818;stroke-width:0.3;" x1="247.2" x2="349.8507" y1="43.2785" y2="43.2785"/></g><!--class Controller--><g class="entity" data-entity="Controller" data-source-line="34" data-uid="ent0006" id="entity_Controller"><rect fill="#F1F1F1" height="35.1785" rx="1.5" ry="1.5" style="stroke:#181818;stroke-width:0.3;" width="97.2571" x="371.7" y="12.9"/><ellipse cx="403.7732" cy="21.3" fill="#ADD1B2" rx="5.4" ry="5.4" style="stroke:#181818;stroke-width:0.6;"/><path d="M404.6919,19.6594 Q404.7482,19.575 404.8232,19.5375 Q404.8982,19.4906 404.9826,19.4906 Q405.1232,19.4906 405.2169,19.5938 Q405.3107,19.6969 405.3107,19.9313 L405.3107,20.4938 Q405.3107,20.7281 405.2169,20.8313 Q405.1232,20.9344 404.9826,20.9344 Q404.8513,20.9344 404.7669,20.8594 Q404.6826,20.7844 404.6451,20.5875 Q404.6263,20.4469 404.5607,20.3719 Q404.4294,20.2313 404.1857,20.1469 Q403.9513,20.0531 403.7169,20.0531 Q403.4169,20.0531 403.1638,20.1844 Q402.9201,20.3156 402.7232,20.6063 Q402.5357,20.8969 402.5357,21.2906 L402.5357,21.7219 Q402.5357,22.2 402.8826,22.5188 Q403.2294,22.8375 403.8482,22.8375 Q404.2138,22.8375 404.4669,22.7344 Q404.6169,22.6781 404.7857,22.5094 Q404.8888,22.4063 404.9451,22.3781 Q405.0013,22.3406 405.0763,22.3406 Q405.2076,22.3406 405.3107,22.4437 Q405.4138,22.5469 405.4138,22.6781 Q405.4138,22.8094 405.2732,22.9688 Q405.0763,23.1937 404.7669,23.325 Q404.3544,23.4938 403.8482,23.4938 Q403.2669,23.4938 402.7982,23.2594 Q402.4138,23.0625 402.1419,22.65 Q401.8794,22.2281 401.8794,21.7313 L401.8794,21.2813 Q401.8794,20.7656 402.1138,20.325 Q402.3576,19.875 402.7794,19.6406 Q403.2107,19.3969 403.6888,19.3969 Q403.9701,19.3969 404.2232,19.4625 Q404.4763,19.5281 404.6919,19.6594 Z " fill="#000000"/><text fill="#000000" font-family="sans-serif" font-size="6.6" lengthAdjust="spacing" textLength="28.6107" x="414.2732" y="24.0328">Controller</text><line style="stroke:#181818;stroke-width:0.3;" x1="372.3" x2="468.3571" y1="29.7" y2="29.7"/><line style="stroke:#181818;stroke-width:0.6;" x1="372.3" x2="468.3571" y1="34.5" y2="34.5"/><text fill="#000000" font-family="sans-serif" font-size="6.6" lengthAdjust="spacing" textLength="90.0571" x="375.3" y="44.0221">+set_distribution(dist_type: str)</text></g><!--reverse link LabelSpinbox to Parameter--><g class="link" data-entity-1="LabelSpinbox" data-entity-2="Parameter" data-source-line="39" data-uid="lnk7" id="link_LabelSpinbox_Parameter"><path codeLine="39" d="M94.1795,61.2332 C114.2135,75.6692 134.16,90.042 158.568,107.634" fill="none" id="LabelSpinbox-backto-Parameter" style="stroke:#181818;stroke-width:0.6;"/><polygon fill="#181818" points="88.338,57.024,89.8557,61.0758,94.1795,61.2332,92.6618,57.1815,88.338,57.024" style="stroke:#181818;stroke-width:0.6;"/><text fill="#000000" font-family="sans-serif" font-size="6.6" lengthAdjust="spacing" textLength="17.6054" x="123.3" y="82.7221">wraps</text></g><!--reverse link AbstractStatisticalModel to Parameter--><g class="link" data-entity-1="AbstractStatisticalModel" data-entity-2="Parameter" data-source-line="40" data-uid="lnk8" id="link_AbstractStatisticalModel_Parameter"><path codeLine="40" d="M184.9314,55.01 C191.4714,68.876 197.994,82.704 207.3,102.438" fill="none" id="AbstractStatisticalModel-backto-Parameter" style="stroke:#181818;stroke-width:0.6;"/><polygon fill="#181818" points="181.86,48.498,181.225,52.7778,184.9314,55.01,185.5664,50.7302,181.86,48.498" style="stroke:#181818;stroke-width:0.6;"/></g><!--reverse link AbstractDicetribution to Parameter--><g class="link" data-entity-1="AbstractDicetribution" data-entity-2="Parameter" data-source-line="41" data-uid="lnk9" id="link_AbstractDicetribution_Parameter"><path codeLine="41" d="M287.2686,55.01 C280.7286,68.876 274.206,82.704 264.9,102.438" fill="none" id="AbstractDicetribution-backto-Parameter" style="stroke:#181818;stroke-width:0.6;"/><polygon fill="#181818" points="290.34,48.498,286.6336,50.7302,287.2686,55.01,290.975,52.7778,290.34,48.498" style="stroke:#181818;stroke-width:0.6;"/></g><!--link Controller to Parameter--><g class="link" data-entity-1="Controller" data-entity-2="Parameter" data-source-line="42" data-uid="lnk10" id="link_Controller_Parameter"><path codeLine="42" d="M396.408,48.36 C375.33,63.498 346.3399,84.3178 316.5199,105.7378" fill="none" id="Controller-to-Parameter" style="stroke:#181818;stroke-width:0.6;stroke-dasharray:4.2,4.2;"/><polygon fill="#181818" points="313.596,107.838,319.382,106.6369,316.0326,106.0878,316.5816,102.7384,313.596,107.838" style="stroke:#181818;stroke-width:0.6;"/><text fill="#000000" font-family="sans-serif" font-size="6.6" lengthAdjust="spacing" textLength="79.2354" x="355.5" y="82.7221">creates in set_distribution()</text></g><!--SRC=[bL91JiCm4Bpd5Juca1HwpG6f0Y4XWOJK8qAMusoBXMDRzeQsbFuTnqcQfYa7ZixCpinErdqAPPXb5U6IERT0jAAe4PwuLaln3UGsSaTA2IjMItpK2WCsdqTH62El3Gu8bkmZGgw9P0N8d3YquLa99QgwoibAQeRaXmY5BS2sbm67OAPVkm3dG4Re5vCrJBvdOOfIRu-KnY5LsgT9U_SqkAMzUXA6He9xOxK1Ypko1hnnW8V0yGyQDEDasDKFYf8Xn6UHFEvPXTRoEEkCK8NUKcRNhf4e1SVeq7Vwt2WlMqfNg-bhpeV6XpsFpWesVI4ZLz-JLYr2-GTJQuYJmMzHU3BZk4I6mg7WJBxe4kIvjsk3ldbsEiHudmez20xjEGcj_groxw_CQYcxc-fszDtJqgVhPUFcGN5dkbsR-L5nLrbsSfqvsLXcNFJdhYDwT7cJCUSavsnsD_BY5lplSFuQfxcJw1S0]--></g></svg>