<svg xmlns="http://www.w3.org/2000/svg" xmlns:xlink="http://www.w3.org/1999/xlink" contentStyleType="text/css" data-diagram-type="CLASS" height="473px" preserveAspectRatio="none" style="width:866px;height:473px;background:#FFFFFF;" version="1.1" viewBox="0 0 866 473" width="866px" zoomAndPan="magnify"><defs/><g><!--class PiecewiseSettingsFrame--><g class="entity" data-entity="PiecewiseSettingsFrame" data-source-line="4" data-uid="ent0002" id="entity_PiecewiseSettingsFrame"><rect fill="#F1F1F1" height="131.7852" rx="2.5" ry="2.5" style="stroke:#181818;stroke-width:0.5;" width="505.1255" x="129.5" y="156"/><ellipse cx="317.7886" cy="170" fill="#ADD1B2" rx="9" ry="9" style="stroke:#181818;stroke-width:1;"/><path d="M319.3198,167.2656 Q319.4136,167.125 319.5386,167.0625 Q319.6636,166.9844 319.8042,166.9844 Q320.0386,166.9844 320.1948,167.1563 Q320.3511,167.3281 320.3511,167.7188 L320.3511,168.6563 Q320.3511,169.0469 320.1948,169.2188 Q320.0386,169.3906 319.8042,169.3906 Q319.5854,169.3906 319.4448,169.2656 Q319.3042,169.1406 319.2417,168.8125 Q319.2104,168.5781 319.1011,168.4531 Q318.8823,168.2188 318.4761,168.0781 Q318.0854,167.9219 317.6948,167.9219 Q317.1948,167.9219 316.7729,168.1406 Q316.3667,168.3594 316.0386,168.8438 Q315.7261,169.3281 315.7261,169.9844 L315.7261,170.7031 Q315.7261,171.5 316.3042,172.0313 Q316.8823,172.5625 317.9136,172.5625 Q318.5229,172.5625 318.9448,172.3906 Q319.1948,172.2969 319.4761,172.0156 Q319.6479,171.8438 319.7417,171.7969 Q319.8354,171.7344 319.9604,171.7344 Q320.1792,171.7344 320.3511,171.9063 Q320.5229,172.0781 320.5229,172.2969 Q320.5229,172.5156 320.2886,172.7813 Q319.9604,173.1563 319.4448,173.375 Q318.7573,173.6563 317.9136,173.6563 Q316.9448,173.6563 316.1636,173.2656 Q315.5229,172.9375 315.0698,172.25 Q314.6323,171.5469 314.6323,170.7188 L314.6323,169.9688 Q314.6323,169.1094 315.0229,168.375 Q315.4292,167.625 316.1323,167.2344 Q316.8511,166.8281 317.6479,166.8281 Q318.1167,166.8281 318.5386,166.9375 Q318.9604,167.0469 319.3198,167.2656 Z " fill="#000000"/><text fill="#000000" font-family="sans-serif" font-size="11" lengthAdjust="spacing" textLength="121.0483" x="335.2886" y="174.5547">PiecewiseSettingsFrame</text><line style="stroke:#181818;stroke-width:0.5;" x1="130.5" x2="633.6255" y1="184" y2="184"/><text fill="#000000" font-family="sans-serif" font-size="11" lengthAdjust="spacing" textLength="153.1836" x="135.5" y="199.8701">+radiobuttons: PairRadioButton</text><text fill="#000000" font-family="sans-serif" font-size="11" lengthAdjust="spacing" textLength="111.0044" x="135.5" y="214.501">+add_button: tk.Button</text><text fill="#000000" font-family="sans-serif" font-size="11" lengthAdjust="spacing" textLength="129.3306" x="135.5" y="229.1318">+remove_button: tk.Button</text><text fill="#000000" font-family="sans-serif" font-size="11" lengthAdjust="spacing" textLength="140.3359" x="135.5" y="243.7627">+normalise_button: tk.Button</text><line style="stroke:#181818;stroke-width:1;" x1="130.5" x2="633.6255" y1="250.5234" y2="250.5234"/><text fill="#000000" font-family="sans-serif" font-size="11" lengthAdjust="spacing" textLength="493.1255" x="135.5" y="266.3936">+__init__(master: tk.Widget, on_change: callable, add: callable, remove: callable, normalise: callable)</text><text fill="#000000" font-family="sans-serif" font-size="11" lengthAdjust="spacing" textLength="83.4614" x="135.5" y="281.0244">+place_widgets()</text></g><!--class PairRadioButton--><g class="entity" data-entity="PairRadioButton" data-source-line="14" data-uid="ent0003" id="entity_PairRadioButton"><rect fill="#F1F1F1" height="102.5234" rx="2.5" ry="2.5" style="stroke:#181818;stroke-width:0.5;" width="116.2798" x="7" y="364"/><ellipse cx="23.6789" cy="378" fill="#ADD1B2" rx="9" ry="9" style="stroke:#181818;stroke-width:1;"/><path d="M25.2101,375.2656 Q25.3039,375.125 25.4289,375.0625 Q25.5539,374.9844 25.6945,374.9844 Q25.9289,374.9844 26.0851,375.1563 Q26.2414,375.3281 26.2414,375.7188 L26.2414,376.6563 Q26.2414,377.0469 26.0851,377.2188 Q25.9289,377.3906 25.6945,377.3906 Q25.4758,377.3906 25.3351,377.2656 Q25.1945,377.1406 25.132,376.8125 Q25.1008,376.5781 24.9914,376.4531 Q24.7726,376.2188 24.3664,376.0781 Q23.9758,375.9219 23.5851,375.9219 Q23.0851,375.9219 22.6633,376.1406 Q22.257,376.3594 21.9289,376.8438 Q21.6164,377.3281 21.6164,377.9844 L21.6164,378.7031 Q21.6164,379.5 22.1945,380.0313 Q22.7726,380.5625 23.8039,380.5625 Q24.4133,380.5625 24.8351,380.3906 Q25.0851,380.2969 25.3664,380.0156 Q25.5383,379.8438 25.632,379.7969 Q25.7258,379.7344 25.8508,379.7344 Q26.0695,379.7344 26.2414,379.9063 Q26.4133,380.0781 26.4133,380.2969 Q26.4133,380.5156 26.1789,380.7813 Q25.8508,381.1563 25.3351,381.375 Q24.6476,381.6563 23.8039,381.6563 Q22.8351,381.6563 22.0539,381.2656 Q21.4133,380.9375 20.9601,380.25 Q20.5226,379.5469 20.5226,378.7188 L20.5226,377.9688 Q20.5226,377.1094 20.9133,376.375 Q21.3195,375.625 22.0226,375.2344 Q22.7414,374.8281 23.5383,374.8281 Q24.007,374.8281 24.4289,374.9375 Q24.8508,375.0469 25.2101,375.2656 Z " fill="#000000"/><text fill="#000000" font-family="sans-serif" font-size="11" lengthAdjust="spacing" textLength="80.1045" x="36.4964" y="382.5547">PairRadioButton</text><line style="stroke:#181818;stroke-width:0.5;" x1="8" x2="122.2798" y1="392" y2="392"/><text fill="#000000" font-family="sans-serif" font-size="11" lengthAdjust="spacing" textLength="79.7822" x="13" y="407.8701">+options: list[str]</text><text fill="#000000" font-family="sans-serif" font-size="11" lengthAdjust="spacing" textLength="75.5015" x="13" y="422.501">+v: tk.StringVar</text><line style="stroke:#181818;stroke-width:1;" x1="8" x2="122.2798" y1="429.2617" y2="429.2617"/><text fill="#000000" font-family="sans-serif" font-size="11" lengthAdjust="spacing" textLength="104.2798" x="13" y="445.1318">+on_option_change()</text><text fill="#000000" font-family="sans-serif" font-size="11" lengthAdjust="spacing" textLength="47.373" x="13" y="459.7627">+get(): str</text></g><!--class View--><g class="entity" data-entity="View" data-source-line="22" data-uid="ent0004" id="entity_View"><rect fill="#F1F1F1" height="73.2617" rx="2.5" ry="2.5" style="stroke:#181818;stroke-width:0.5;" width="211.606" x="276" y="7"/><ellipse cx="366.1318" cy="21" fill="#ADD1B2" rx="9" ry="9" style="stroke:#181818;stroke-width:1;"/><path d="M367.6631,18.2656 Q367.7568,18.125 367.8818,18.0625 Q368.0068,17.9844 368.1475,17.9844 Q368.3818,17.9844 368.5381,18.1563 Q368.6943,18.3281 368.6943,18.7188 L368.6943,19.6563 Q368.6943,20.0469 368.5381,20.2188 Q368.3818,20.3906 368.1475,20.3906 Q367.9287,20.3906 367.7881,20.2656 Q367.6475,20.1406 367.585,19.8125 Q367.5537,19.5781 367.4443,19.4531 Q367.2256,19.2188 366.8193,19.0781 Q366.4287,18.9219 366.0381,18.9219 Q365.5381,18.9219 365.1162,19.1406 Q364.71,19.3594 364.3818,19.8438 Q364.0693,20.3281 364.0693,20.9844 L364.0693,21.7031 Q364.0693,22.5 364.6475,23.0313 Q365.2256,23.5625 366.2568,23.5625 Q366.8662,23.5625 367.2881,23.3906 Q367.5381,23.2969 367.8193,23.0156 Q367.9912,22.8438 368.085,22.7969 Q368.1787,22.7344 368.3037,22.7344 Q368.5225,22.7344 368.6943,22.9063 Q368.8662,23.0781 368.8662,23.2969 Q368.8662,23.5156 368.6318,23.7813 Q368.3037,24.1563 367.7881,24.375 Q367.1006,24.6563 366.2568,24.6563 Q365.2881,24.6563 364.5068,24.2656 Q363.8662,23.9375 363.4131,23.25 Q362.9756,22.5469 362.9756,21.7188 L362.9756,20.9688 Q362.9756,20.1094 363.3662,19.375 Q363.7725,18.625 364.4756,18.2344 Q365.1943,17.8281 365.9912,17.8281 Q366.46,17.8281 366.8818,17.9375 Q367.3037,18.0469 367.6631,18.2656 Z " fill="#000000"/><text fill="#000000" font-family="sans-serif" font-size="11" lengthAdjust="spacing" textLength="23.8423" x="383.6318" y="25.5547">View</text><line style="stroke:#181818;stroke-width:0.5;" x1="277" x2="486.606" y1="35" y2="35"/><text fill="#000000" font-family="sans-serif" font-size="11" lengthAdjust="spacing" textLength="93.8384" x="282" y="50.8701">+settings: tk.Frame</text><line style="stroke:#181818;stroke-width:1;" x1="277" x2="486.606" y1="57.6309" y2="57.6309"/><text fill="#000000" font-family="sans-serif" font-size="11" lengthAdjust="spacing" textLength="199.606" x="282" y="73.501">+set_settings(mode: str, *args, **kwargs)</text></g><!--class Controller--><g class="entity" data-entity="Controller" data-source-line="28" data-uid="ent0005" id="entity_Controller"><rect fill="#F1F1F1" height="102.5234" rx="2.5" ry="2.5" style="stroke:#181818;stroke-width:0.5;" width="215.2959" x="359.5" y="364"/><ellipse cx="439.5557" cy="378" fill="#ADD1B2" rx="9" ry="9" style="stroke:#181818;stroke-width:1;"/><path d="M441.0869,375.2656 Q441.1807,375.125 441.3057,375.0625 Q441.4307,374.9844 441.5713,374.9844 Q441.8057,374.9844 441.9619,375.1563 Q442.1182,375.3281 442.1182,375.7188 L442.1182,376.6563 Q442.1182,377.0469 441.9619,377.2188 Q441.8057,377.3906 441.5713,377.3906 Q441.3525,377.3906 441.2119,377.2656 Q441.0713,377.1406 441.0088,376.8125 Q440.9775,376.5781 440.8682,376.4531 Q440.6494,376.2188 440.2432,376.0781 Q439.8525,375.9219 439.4619,375.9219 Q438.9619,375.9219 438.54,376.1406 Q438.1338,376.3594 437.8057,376.8438 Q437.4932,377.3281 437.4932,377.9844 L437.4932,378.7031 Q437.4932,379.5 438.0713,380.0313 Q438.6494,380.5625 439.6807,380.5625 Q440.29,380.5625 440.7119,380.3906 Q440.9619,380.2969 441.2432,380.0156 Q441.415,379.8438 441.5088,379.7969 Q441.6025,379.7344 441.7275,379.7344 Q441.9463,379.7344 442.1182,379.9063 Q442.29,380.0781 442.29,380.2969 Q442.29,380.5156 442.0557,380.7813 Q441.7275,381.1563 441.2119,381.375 Q440.5244,381.6563 439.6807,381.6563 Q438.7119,381.6563 437.9307,381.2656 Q437.29,380.9375 436.8369,380.25 Q436.3994,379.5469 436.3994,378.7188 L436.3994,377.9688 Q436.3994,377.1094 436.79,376.375 Q437.1963,375.625 437.8994,375.2344 Q438.6182,374.8281 439.415,374.8281 Q439.8838,374.8281 440.3057,374.9375 Q440.7275,375.0469 441.0869,375.2656 Z " fill="#000000"/><text fill="#000000" font-family="sans-serif" font-size="11" lengthAdjust="spacing" textLength="47.6846" x="457.0557" y="382.5547">Controller</text><line style="stroke:#181818;stroke-width:0.5;" x1="360.5" x2="573.7959" y1="392" y2="392"/><line style="stroke:#181818;stroke-width:1;" x1="360.5" x2="573.7959" y1="400" y2="400"/><text fill="#000000" font-family="sans-serif" font-size="11" lengthAdjust="spacing" textLength="203.2959" x="365.5" y="415.8701">+set_piecewise_type(piecewise_type: str)</text><text fill="#000000" font-family="sans-serif" font-size="11" lengthAdjust="spacing" textLength="155.042" x="365.5" y="430.501">+handle_add_point(point: tuple)</text><text fill="#000000" font-family="sans-serif" font-size="11" lengthAdjust="spacing" textLength="119.5498" x="365.5" y="445.1318">+handle_remove_point()</text><text fill="#000000" font-family="sans-serif" font-size="11" lengthAdjust="spacing" textLength="100.5845" x="365.5" y="459.7627">+handle_normalise()</text></g><!--reverse link View to PiecewiseSettingsFrame--><g class="link" data-entity-1="View" data-entity-2="PiecewiseSettingsFrame" data-source-line="36" data-uid="lnk6" id="link_View_PiecewiseSettingsFrame"><path codeLine="36" d="M382,92.22 C382,113.87 382,130.17 382,155.7" fill="none" id="View-backto-PiecewiseSettingsFrame" style="stroke:#181818;stroke-width:1;"/><polygon fill="#181818" points="382,80.22,378,86.22,382,92.22,386,86.22,382,80.22" style="stroke:#181818;stroke-width:1;"/><text fill="#000000" font-family="sans-serif" font-size="11" lengthAdjust="spacing" textLength="106.3799" x="383" y="122.8701">settings (Piece mode)</text></g><!--reverse link PiecewiseSettingsFrame to PairRadioButton--><g class="link" data-entity-1="PiecewiseSettingsFrame" data-entity-2="PairRadioButton" data-source-line="37" data-uid="lnk7" id="link_PiecewiseSettingsFrame_PairRadioButton"><path codeLine="37" d="M119.3548,288.3305 C103.3348,298.5205 98.7,304.02 86,318 C74.7,330.44 68.98,347.5 66.22,363.81" fill="none" id="PiecewiseSettingsFrame-backto-PairRadioButton" style="stroke:#181818;stroke-width:1;"/><polygon fill="#181818" points="129.48,281.89,122.2706,281.7352,119.3548,288.3305,126.5642,288.4853,129.48,281.89" style="stroke:#181818;stroke-width:1;"/><text fill="#000000" font-family="sans-serif" font-size="11" lengthAdjust="spacing" textLength="60.543" x="87" y="330.8701">radiobuttons</text></g><!--link PiecewiseSettingsFrame to Controller--><g class="link" data-entity-1="PiecewiseSettingsFrame" data-entity-2="Controller" data-source-line="38" data-uid="lnk8" id="link_PiecewiseSettingsFrame_Controller"><path codeLine="38" d="M162.28,288.04 C151.58,300.94 150.28,316.16 164,334 C188.1,365.33 276.4723,386.0396 353.5523,398.9396" fill="none" id="PiecewiseSettingsFrame-to-Controller" style="stroke:#181818;stroke-width:1;"/><polygon fill="#181818" points="359.47,399.93,351.2537,394.4993,354.5386,399.1047,349.9332,402.3896,359.47,399.93" style="stroke:#181818;stroke-width:1;"/><text fill="#000000" font-family="sans-serif" font-size="11" lengthAdjust="spacing" textLength="173.3735" x="165" y="330.8701">on_change &#8594; set_piecewise_type()</text></g><!--link PiecewiseSettingsFrame to Controller--><g class="link" data-entity-1="PiecewiseSettingsFrame" data-entity-2="Controller" data-source-line="39" data-uid="lnk9" id="link_PiecewiseSettingsFrame_Controller"><path codeLine="39" d="M370.88,288.24 C370.74,303.75 372.78,319.89 379,334 C383.76,344.8 386.7686,350.3002 394.7786,359.2902" fill="none" id="PiecewiseSettingsFrame-to-Controller-1" style="stroke:#181818;stroke-width:1;"/><polygon fill="#181818" points="398.77,363.77,395.7694,354.3894,395.4438,360.0369,389.7963,359.7113,398.77,363.77" style="stroke:#181818;stroke-width:1;"/><text fill="#000000" font-family="sans-serif" font-size="11" lengthAdjust="spacing" textLength="128.7559" x="380" y="330.8701">add &#8594; handle_add_point()</text></g><!--link PiecewiseSettingsFrame to Controller--><g class="link" data-entity-1="PiecewiseSettingsFrame" data-entity-2="Controller" data-source-line="40" data-uid="lnk10" id="link_PiecewiseSettingsFrame_Controller"><path codeLine="40" d="M491.46,288.2 C500,297.18 507.45,307.11 513,318 C520.51,332.71 519.9292,343.5014 512.4692,358.3114" fill="none" id="PiecewiseSettingsFrame-to-Controller-2" style="stroke:#181818;stroke-width:1;"/><polygon fill="#181818" points="509.77,363.67,517.3912,357.4316,512.0193,359.2045,510.2464,353.8327,509.77,363.67" style="stroke:#181818;stroke-width:1;"/><text fill="#000000" font-family="sans-serif" font-size="11" lengthAdjust="spacing" textLength="165.4082" x="519" y="330.8701">remove &#8594; handle_remove_point()</text></g><!--link PiecewiseSettingsFrame to Controller--><g class="link" data-entity-1="PiecewiseSettingsFrame" data-entity-2="Controller" data-source-line="41" data-uid="lnk11" id="link_PiecewiseSettingsFrame_Controller"><path codeLine="41" d="M634.51,281.82 C661.79,292.66 683.22,304.78 693,318 C730.44,368.58 655.6405,391.9994 580.4805,403.5394" fill="none" id="PiecewiseSettingsFrame-to-Controller-3" style="stroke:#181818;stroke-width:1;"/><polygon fill="#181818" points="574.55,404.45,584.0528,407.0378,579.4921,403.6912,582.8387,399.1305,574.55,404.45" style="stroke:#181818;stroke-width:1;"/><text fill="#000000" font-family="sans-serif" font-size="11" lengthAdjust="spacing" textLength="157.4482" x="701" y="330.8701">normalise &#8594; handle_normalise()</text></g><!--SRC=[ZL9DJyCm3BttL-JOZXMnQmz8W3I9syIaSK0e2gqfqTAaIhnLWBZo0_Y9_19IjskpiKcxzCD-VhRVirjBNGihAfOhuTmDefKl6uJxtEYb_01s5Ra1Ki2hs2YS6usKcysYYChOGa8EZNIm14IfIpVtU62V4MCNp8f26a-AHhkCBOIq3stabYA444N1Eq36S7qPP2nKPWidajhOIYZVzMW-JGd4kTGIEOyhuH0iOHvbKG9EcT4yVnEwX8pbGYdnec3Q3XF-TXE4aQ7j64oeLQr43hmXSXSdqTSWp_xElIwcHacIU2vyScYVARob4PVU25skX1qtyTDs9VtGSTVLDukJZFdwiU5AGjDtSRqZn4gsZ8m-ntVvk3854CsKJOGjdNzDratx5MnovxstHYcmH1_mrBiJuFXUGxp_IxpTk7xqGW5lBQ-Dr1ZJqq-tgNSwzf3U-mwrbnaSw4IcRITfUkeCiq445XE4jRicqGauCHqubkrTyQdADBqE5Sh60sE_tp_7P4hEflA24Sa__Swdw0GDMGuaFfTeq3_a2atv0m00]--></g></svg>