<svg xmlns="http://www.w3.org/2000/svg" xmlns:xlink="http://www.w3.org/1999/xlink" contentStyleType="text/css" data-diagram-type="ACTIVITY" height="1550.4px" preserveAspectRatio="none" style="width:540px;height:1550px;background:#FFFFFF;" version="1.1" viewBox="0 0 540 1550" width="540px" zoomAndPan="magnify"><defs/><g><rect fill="none" height="1524.6398" style="stroke:#000000;stroke-width:1.8;" width="513.8273" x="13.2" y="13.2"/><path d="M153.1359,13.2 L153.1359,27.1453 L141.1359,39.1453 L13.2,39.1453" fill="none" style="stroke:#000000;stroke-width:1.8;"/><text fill="#000000" font-family="sans-serif" font-size="16.8" lengthAdjust="spacing" textLength="127.9359" x="16.8" y="32.5289">getpieces(points)</text><ellipse cx="270.1137" cy="63.1453" fill="#222222" rx="12" ry="12" style="stroke:#222222;stroke-width:1.2;"/><rect fill="#F1F1F1" height="43.1531" rx="15" ry="15" style="stroke:#181818;stroke-width:0.6;" width="86.4445" x="226.8914" y="99.1453"/><text fill="#000000" font-family="sans-serif" font-size="14.4" lengthAdjust="spacing" textLength="62.4445" x="238.8914" y="126.6844">get points</text><rect fill="#F1F1F1" height="43.1531" rx="15" ry="15" style="stroke:#181818;stroke-width:0.6;" width="310.5445" x="114.8414" y="166.2984"/><text fill="#000000" font-family="sans-serif" font-size="14.4" lengthAdjust="spacing" textLength="286.5445" x="126.8414" y="193.8375">Sort points by x-coordinate using merge_sort</text><rect fill="#F1F1F1" height="43.1531" rx="15" ry="15" style="stroke:#181818;stroke-width:0.6;" width="264.1383" x="138.0445" y="233.4516"/><text fill="#000000" font-family="sans-serif" font-size="14.4" lengthAdjust="spacing" textLength="240.1383" x="150.0445" y="260.9906">calculate n as the number of points -1</text><rect fill="none" height="171.0516" style="stroke:#000000;stroke-width:1.8;" width="343.3125" x="98.4574" y="288.6047"/><path d="M248.6391,288.6047 L248.6391,302.55 L236.6391,314.55 L98.4574,314.55" fill="none" style="stroke:#000000;stroke-width:1.8;"/><text fill="#000000" font-family="sans-serif" font-size="16.8" lengthAdjust="spacing" textLength="138.1816" x="102.0574" y="307.9336">Matrix Initialisation</text><rect fill="#F1F1F1" height="43.1531" rx="15" ry="15" style="stroke:#181818;stroke-width:0.6;" width="319.3125" x="110.4574" y="334.95"/><text fill="#000000" font-family="sans-serif" font-size="14.4" lengthAdjust="spacing" textLength="295.3125" x="122.4574" y="362.4891">initialise matrix, a matrix 4n by 4n filled with 0s</text><rect fill="#F1F1F1" height="43.1531" rx="15" ry="15" style="stroke:#181818;stroke-width:0.6;" width="319.3125" x="110.4574" y="402.1031"/><text fill="#000000" font-family="sans-serif" font-size="14.4" lengthAdjust="spacing" textLength="295.3125" x="122.4574" y="429.6422">initialise matrixb, a matrix 4n by 1 filled with 0s</text><rect fill="none" height="268.2516" style="stroke:#000000;stroke-width:1.8;" width="290.2078" x="123.2098" y="471.6563"/><path d="M284.6133,471.6563 L284.6133,485.6016 L272.6133,497.6016 L123.2098,497.6016" fill="none" style="stroke:#000000;stroke-width:1.8;"/><text fill="#000000" font-family="sans-serif" font-size="16.8" lengthAdjust="spacing" textLength="149.4035" x="126.8098" y="490.9852">Position Constraints</text><rect fill="#F1F1F1" height="43.1531" rx="15" ry="15" style="stroke:#181818;stroke-width:0.6;" width="100.8094" x="219.709" y="570.8016"/><text fill="#000000" font-family="sans-serif" font-size="14.4" lengthAdjust="spacing" textLength="76.8094" x="231.709" y="598.3406">Set f&#7522;(x&#7522;) = y&#7522;</text><rect fill="#F1F1F1" height="43.1531" rx="15" ry="15" style="stroke:#181818;stroke-width:0.6;" width="121.9031" x="209.1621" y="655.9547"/><text fill="#000000" font-family="sans-serif" font-size="14.4" lengthAdjust="spacing" textLength="97.9031" x="221.1621" y="683.4938">Set f&#7522;(x&#7522;&#8330;&#8321;) = y&#7522;&#8330;&#8321;</text><polygon fill="#F1F1F1" points="178.4098,518.0016,361.8176,518.0016,376.2176,532.4016,361.8176,546.8016,178.4098,546.8016,164.0098,532.4016,178.4098,518.0016" style="stroke:#181818;stroke-width:0.6;"/><text fill="#000000" font-family="sans-serif" font-size="13.2" lengthAdjust="spacing" textLength="183.4078" x="178.4098" y="537.8672">For each interval i from 0 to n-1</text><rect fill="none" height="268.2516" style="stroke:#000000;stroke-width:1.8;" width="290.2078" x="123.2098" y="751.9078"/><path d="M299.5512,751.9078 L299.5512,765.8531 L287.5512,777.8531 L123.2098,777.8531" fill="none" style="stroke:#000000;stroke-width:1.8;"/><text fill="#000000" font-family="sans-serif" font-size="16.8" lengthAdjust="spacing" textLength="164.3414" x="126.8098" y="771.2367">Continuity Constraints</text><rect fill="#F1F1F1" height="43.1531" rx="15" ry="15" style="stroke:#181818;stroke-width:0.6;" width="153.8039" x="193.2117" y="851.0531"/><text fill="#000000" font-family="sans-serif" font-size="14.4" lengthAdjust="spacing" textLength="129.8039" x="205.2117" y="878.5922">Set f'&#7522;(x&#7522;&#8330;&#8321;) = f'&#7522;&#8330;&#8321;(x&#7522;&#8330;&#8321;)</text><rect fill="#F1F1F1" height="43.1531" rx="15" ry="15" style="stroke:#181818;stroke-width:0.6;" width="95.2266" x="222.5004" y="936.2063"/><text fill="#000000" font-family="sans-serif" font-size="14.4" lengthAdjust="spacing" textLength="71.2266" x="234.5004" y="963.7453">Increment i</text><polygon fill="#F1F1F1" points="178.4098,798.2531,361.8176,798.2531,376.2176,812.6531,361.8176,827.0531,178.4098,827.0531,164.0098,812.6531,178.4098,798.2531" style="stroke:#181818;stroke-width:0.6;"/><text fill="#000000" font-family="sans-serif" font-size="13.2" lengthAdjust="spacing" textLength="183.4078" x="178.4098" y="818.1188">For each interval i from 0 to n-1</text><rect fill="none" height="171.0516" style="stroke:#000000;stroke-width:1.8;" width="185.5523" x="177.3375" y="1033.3758"/><path d="M350.8898,1033.3758 L350.8898,1047.3211 L338.8898,1059.3211 L177.3375,1059.3211" fill="none" style="stroke:#000000;stroke-width:1.8;"/><text fill="#000000" font-family="sans-serif" font-size="16.8" lengthAdjust="spacing" textLength="161.5523" x="180.9375" y="1052.7047">Boundary Constraints</text><rect fill="#F1F1F1" height="43.1531" rx="15" ry="15" style="stroke:#181818;stroke-width:0.6;" width="110.8711" x="214.6781" y="1079.7211"/><text fill="#000000" font-family="sans-serif" font-size="14.4" lengthAdjust="spacing" textLength="86.8711" x="226.6781" y="1107.2602">Set f''&#8320;(x&#8320;) = 0</text><rect fill="#F1F1F1" height="43.1531" rx="15" ry="15" style="stroke:#181818;stroke-width:0.6;" width="120.4055" x="209.9109" y="1146.8742"/><text fill="#000000" font-family="sans-serif" font-size="14.4" lengthAdjust="spacing" textLength="96.4055" x="221.9109" y="1174.4133">Set f''&#8345;&#8331;&#8321;(x&#8345;) = 0</text><rect fill="#F1F1F1" height="43.1531" rx="15" ry="15" style="stroke:#181818;stroke-width:0.6;" width="290.0695" x="125.0789" y="1228.4273"/><text fill="#000000" font-family="sans-serif" font-size="14.4" lengthAdjust="spacing" textLength="266.0695" x="137.0789" y="1255.9664">coefficient_matrix = solve(matrix, matrixb)</text><rect fill="#F1F1F1" height="43.1531" rx="15" ry="15" style="stroke:#181818;stroke-width:0.6;" width="489.8273" x="25.2" y="1295.5805"/><text fill="#000000" font-family="sans-serif" font-size="14.4" lengthAdjust="spacing" textLength="465.8273" x="37.2" y="1323.1195">Group coefficients into [x1, x2, a, b, c, d] for each interval as list of pieces</text><rect fill="#F1F1F1" height="43.1531" rx="15" ry="15" style="stroke:#181818;stroke-width:0.6;" width="197.6648" x="171.2813" y="1362.7336"/><text fill="#000000" font-family="sans-serif" font-size="14.4" lengthAdjust="spacing" textLength="173.6648" x="183.2813" y="1390.2727">DealWithNegatives(pieces)</text><rect fill="#F1F1F1" height="43.1531" rx="15" ry="15" style="stroke:#181818;stroke-width:0.6;" width="107.243" x="216.4922" y="1429.8867"/><text fill="#000000" font-family="sans-serif" font-size="14.4" lengthAdjust="spacing" textLength="83.243" x="228.4922" y="1457.4258">return pieces</text><ellipse cx="270.1137" cy="1510.2398" fill="none" rx="13.2" ry="13.2" style="stroke:#222222;stroke-width:1.2;"/><ellipse cx="270.1137" cy="1510.2398" fill="#222222" rx="7.2" ry="7.2" style="stroke:#222222;stroke-width:1.2;"/><line style="stroke:#181818;stroke-width:1.2;" x1="270.1137" x2="270.1137" y1="75.1453" y2="99.1453"/><polygon fill="#181818" points="265.3137,87.1453,270.1137,99.1453,274.9137,87.1453,270.1137,91.9453" style="stroke:#181818;stroke-width:1.2;"/><line style="stroke:#181818;stroke-width:1.2;" x1="270.1137" x2="270.1137" y1="142.2984" y2="166.2984"/><polygon fill="#181818" points="265.3137,154.2984,270.1137,166.2984,274.9137,154.2984,270.1137,159.0984" style="stroke:#181818;stroke-width:1.2;"/><line style="stroke:#181818;stroke-width:1.2;" x1="270.1137" x2="270.1137" y1="209.4516" y2="233.4516"/><polygon fill="#181818" points="265.3137,221.4516,270.1137,233.4516,274.9137,221.4516,270.1137,226.2516" style="stroke:#181818;stroke-width:1.2;"/><line style="stroke:#181818;stroke-width:1.2;" x1="270.1137" x2="270.1137" y1="378.1031" y2="402.1031"/><polygon fill="#181818" points="265.3137,390.1031,270.1137,402.1031,274.9137,390.1031,270.1137,394.9031" style="stroke:#181818;stroke-width:1.2;"/><line style="stroke:#181818;stroke-width:1.2;" x1="270.1137" x2="270.1137" y1="276.6047" y2="334.95"/><polygon fill="#181818" points="265.3137,322.95,270.1137,334.95,274.9137,322.95,270.1137,327.75" style="stroke:#181818;stroke-width:1.2;"/><line style="stroke:#181818;stroke-width:1.2;" x1="270.1137" x2="270.1137" y1="613.9547" y2="655.9547"/><polygon fill="#181818" points="265.3137,643.9547,270.1137,655.9547,274.9137,643.9547,270.1137,648.7547" style="stroke:#181818;stroke-width:1.2;"/><line style="stroke:#181818;stroke-width:1.2;" x1="270.1137" x2="270.1137" y1="546.8016" y2="570.8016"/><polygon fill="#181818" points="265.3137,558.8016,270.1137,570.8016,274.9137,558.8016,270.1137,563.6016" style="stroke:#181818;stroke-width:1.2;"/><line style="stroke:#181818;stroke-width:1.2;" x1="270.1137" x2="270.1137" y1="699.1078" y2="711.1078"/><line style="stroke:#181818;stroke-width:1.2;" x1="270.1137" x2="390.6176" y1="711.1078" y2="711.1078"/><polygon fill="#181818" points="385.8176,632.5547,390.6176,620.5547,395.4176,632.5547,390.6176,627.7547" style="stroke:#181818;stroke-width:1.2;"/><line style="stroke:#181818;stroke-width:1.2;" x1="390.6176" x2="390.6176" y1="532.4016" y2="711.1078"/><line style="stroke:#181818;stroke-width:1.2;" x1="390.6176" x2="376.2176" y1="532.4016" y2="532.4016"/><polygon fill="#181818" points="388.2176,527.6016,376.2176,532.4016,388.2176,537.2016,383.4176,532.4016" style="stroke:#181818;stroke-width:1.2;"/><line style="stroke:#181818;stroke-width:1.2;" x1="164.0098" x2="149.6098" y1="532.4016" y2="532.4016"/><polygon fill="#181818" points="144.8098,615.7547,149.6098,627.7547,154.4098,615.7547,149.6098,620.5547" style="stroke:#181818;stroke-width:1.2;"/><line style="stroke:#181818;stroke-width:1.2;" x1="149.6098" x2="149.6098" y1="532.4016" y2="725.5078"/><line style="stroke:#181818;stroke-width:1.2;" x1="149.6098" x2="270.1137" y1="725.5078" y2="725.5078"/><line style="stroke:#181818;stroke-width:1.2;" x1="270.1137" x2="270.1137" y1="725.5078" y2="798.2531"/><polygon fill="#181818" points="265.3137,786.2531,270.1137,798.2531,274.9137,786.2531,270.1137,791.0531" style="stroke:#181818;stroke-width:1.2;"/><line style="stroke:#181818;stroke-width:1.2;" x1="270.1137" x2="270.1137" y1="445.2562" y2="518.0016"/><polygon fill="#181818" points="265.3137,506.0016,270.1137,518.0016,274.9137,506.0016,270.1137,510.8016" style="stroke:#181818;stroke-width:1.2;"/><line style="stroke:#181818;stroke-width:1.2;" x1="270.1137" x2="270.1137" y1="894.2063" y2="936.2063"/><polygon fill="#181818" points="265.3137,924.2063,270.1137,936.2063,274.9137,924.2063,270.1137,929.0062" style="stroke:#181818;stroke-width:1.2;"/><line style="stroke:#181818;stroke-width:1.2;" x1="270.1137" x2="270.1137" y1="827.0531" y2="851.0531"/><polygon fill="#181818" points="265.3137,839.0531,270.1137,851.0531,274.9137,839.0531,270.1137,843.8531" style="stroke:#181818;stroke-width:1.2;"/><line style="stroke:#181818;stroke-width:1.2;" x1="270.1137" x2="270.1137" y1="979.3594" y2="991.3594"/><line style="stroke:#181818;stroke-width:1.2;" x1="270.1137" x2="390.6176" y1="991.3594" y2="991.3594"/><polygon fill="#181818" points="385.8176,912.8063,390.6176,900.8063,395.4176,912.8063,390.6176,908.0063" style="stroke:#181818;stroke-width:1.2;"/><line style="stroke:#181818;stroke-width:1.2;" x1="390.6176" x2="390.6176" y1="812.6531" y2="991.3594"/><line style="stroke:#181818;stroke-width:1.2;" x1="390.6176" x2="376.2176" y1="812.6531" y2="812.6531"/><polygon fill="#181818" points="388.2176,807.8531,376.2176,812.6531,388.2176,817.4531,383.4176,812.6531" style="stroke:#181818;stroke-width:1.2;"/><line style="stroke:#181818;stroke-width:1.2;" x1="164.0098" x2="149.6098" y1="812.6531" y2="812.6531"/><polygon fill="#181818" points="144.8098,896.0063,149.6098,908.0063,154.4098,896.0063,149.6098,900.8063" style="stroke:#181818;stroke-width:1.2;"/><line style="stroke:#181818;stroke-width:1.2;" x1="149.6098" x2="149.6098" y1="812.6531" y2="1005.7594"/><line style="stroke:#181818;stroke-width:1.2;" x1="149.6098" x2="270.1137" y1="1005.7594" y2="1005.7594"/><line style="stroke:#181818;stroke-width:1.2;" x1="270.1137" x2="270.1137" y1="1005.7594" y2="1079.7211"/><polygon fill="#181818" points="265.3137,1067.7211,270.1137,1079.7211,274.9137,1067.7211,270.1137,1072.5211" style="stroke:#181818;stroke-width:1.2;"/><line style="stroke:#181818;stroke-width:1.2;" x1="270.1137" x2="270.1137" y1="1122.8742" y2="1146.8742"/><polygon fill="#181818" points="265.3137,1134.8742,270.1137,1146.8742,274.9137,1134.8742,270.1137,1139.6742" style="stroke:#181818;stroke-width:1.2;"/><line style="stroke:#181818;stroke-width:1.2;" x1="270.1137" x2="270.1137" y1="1190.0273" y2="1228.4273"/><polygon fill="#181818" points="265.3137,1216.4273,270.1137,1228.4273,274.9137,1216.4273,270.1137,1221.2273" style="stroke:#181818;stroke-width:1.2;"/><line style="stroke:#181818;stroke-width:1.2;" x1="270.1137" x2="270.1137" y1="1271.5805" y2="1295.5805"/><polygon fill="#181818" points="265.3137,1283.5805,270.1137,1295.5805,274.9137,1283.5805,270.1137,1288.3805" style="stroke:#181818;stroke-width:1.2;"/><line style="stroke:#181818;stroke-width:1.2;" x1="270.1137" x2="270.1137" y1="1338.7336" y2="1362.7336"/><polygon fill="#181818" points="265.3137,1350.7336,270.1137,1362.7336,274.9137,1350.7336,270.1137,1355.5336" style="stroke:#181818;stroke-width:1.2;"/><line style="stroke:#181818;stroke-width:1.2;" x1="270.1137" x2="270.1137" y1="1405.8867" y2="1429.8867"/><polygon fill="#181818" points="265.3137,1417.8867,270.1137,1429.8867,274.9137,1417.8867,270.1137,1422.6867" style="stroke:#181818;stroke-width:1.2;"/><line style="stroke:#181818;stroke-width:1.2;" x1="270.1137" x2="270.1137" y1="1473.0398" y2="1497.0398"/><polygon fill="#181818" points="265.3137,1485.0398,270.1137,1497.0398,274.9137,1485.0398,270.1137,1489.8398" style="stroke:#181818;stroke-width:1.2;"/><!--SRC=[hLF1Yjim4BtxAnwvh0C99AKdXxsqIyiUMWfxwA6KHR77oO0i6KdEEYo5DiVs2thjF_I3cY_foB53M9SzzIBDp7kZUKXFjNA10rk33OMQAIUVrfPDyDF41m6JJ02SIgiakxDkoB3Uevtdrhg2ZGg4nhFPe2AteNilFA7dIkUDZg21yWXR2PfgJGws78wPBrT9VPOnUQU2unQtHdAbsQjOdk0noNWe4QgED8Fg8xmqKOwi9MjD1HuuRB68YaTTwr7RSjJr9RcKzC7wK_JQ6X-SYh8dZmdmi6LDIDzO1rBv5WAGsoaDHkbiXGM2XPalfy85iZkvoVBFxrzfAyiKrzZBlle7TZnyFnw-3OnJ5dbaYcxa4tqYAx1fEEp_YyAhiOokTaelaLxxhSaTLMG2-1cLhsnZ2kN66izphuw7hsahInovM3s1VXuFFxhv4lO46P3bbigISvRnz_shNiDRlQDqS4d_xY8tU-jiK-EYnyShiVZKBcTeNuWrPX23v3CKdr6ERaqyB4uAdNkxpo97tf3I7yKuxsaZNjt53zH1SPoZq3XpvlfWwxy0]--></g></svg>