<svg xmlns="http://www.w3.org/2000/svg" xmlns:xlink="http://www.w3.org/1999/xlink" contentStyleType="text/css" data-diagram-type="CLASS" height="488px" preserveAspectRatio="none" style="width:746px;height:488px;background:#FFFFFF;" version="1.1" viewBox="0 0 746 488" width="746px" zoomAndPan="magnify"><defs/><g><!--class PiecewiseGraph--><g class="entity" data-entity="PiecewiseGraph" data-source-line="4" data-uid="ent0002" id="entity_PiecewiseGraph"><rect fill="#F1F1F1" height="175.6777" rx="2.5" ry="2.5" style="stroke:#181818;stroke-width:0.5;" width="732.5859" x="7" y="7"/><ellipse cx="329.4961" cy="21" fill="#ADD1B2" rx="9" ry="9" style="stroke:#181818;stroke-width:1;"/><path d="M331.0273,18.2656 Q331.1211,18.125 331.2461,18.0625 Q331.3711,17.9844 331.5117,17.9844 Q331.7461,17.9844 331.9023,18.1563 Q332.0586,18.3281 332.0586,18.7188 L332.0586,19.6563 Q332.0586,20.0469 331.9023,20.2188 Q331.7461,20.3906 331.5117,20.3906 Q331.293,20.3906 331.1523,20.2656 Q331.0117,20.1406 330.9492,19.8125 Q330.918,19.5781 330.8086,19.4531 Q330.5898,19.2188 330.1836,19.0781 Q329.793,18.9219 329.4023,18.9219 Q328.9023,18.9219 328.4805,19.1406 Q328.0742,19.3594 327.7461,19.8438 Q327.4336,20.3281 327.4336,20.9844 L327.4336,21.7031 Q327.4336,22.5 328.0117,23.0313 Q328.5898,23.5625 329.6211,23.5625 Q330.2305,23.5625 330.6523,23.3906 Q330.9023,23.2969 331.1836,23.0156 Q331.3555,22.8438 331.4492,22.7969 Q331.543,22.7344 331.668,22.7344 Q331.8867,22.7344 332.0586,22.9063 Q332.2305,23.0781 332.2305,23.2969 Q332.2305,23.5156 331.9961,23.7813 Q331.668,24.1563 331.1523,24.375 Q330.4648,24.6563 329.6211,24.6563 Q328.6523,24.6563 327.8711,24.2656 Q327.2305,23.9375 326.7773,23.25 Q326.3398,22.5469 326.3398,21.7188 L326.3398,20.9688 Q326.3398,20.1094 326.7305,19.375 Q327.1367,18.625 327.8398,18.2344 Q328.5586,17.8281 329.3555,17.8281 Q329.8242,17.8281 330.2461,17.9375 Q330.668,18.0469 331.0273,18.2656 Z " fill="#000000"/><text fill="#000000" font-family="sans-serif" font-size="11" lengthAdjust="spacing" textLength="80.0938" x="346.9961" y="25.5547">PiecewiseGraph</text><line style="stroke:#181818;stroke-width:0.5;" x1="8" x2="738.5859" y1="35" y2="35"/><text fill="#000000" font-family="sans-serif" font-size="11" lengthAdjust="spacing" textLength="105.4614" x="13" y="50.8701">+controller: Controller</text><text fill="#000000" font-family="sans-serif" font-size="11" lengthAdjust="spacing" textLength="98.1621" x="13" y="65.501">+add_point: callable</text><text fill="#000000" font-family="sans-serif" font-size="11" lengthAdjust="spacing" textLength="55.333" x="13" y="80.1318">+fig: Figure</text><text fill="#000000" font-family="sans-serif" font-size="11" lengthAdjust="spacing" textLength="48.6084" x="13" y="94.7627">+ax: Axes</text><text fill="#000000" font-family="sans-serif" font-size="11" lengthAdjust="spacing" textLength="147.6567" x="13" y="109.3936">+canvas: FigureCanvasTkAgg</text><text fill="#000000" font-family="sans-serif" font-size="11" lengthAdjust="spacing" textLength="192.3228" x="13" y="124.0244">+draggable_points: list[DraggablePoint]</text><line style="stroke:#181818;stroke-width:1;" x1="8" x2="738.5859" y1="130.7852" y2="130.7852"/><text fill="#000000" font-family="sans-serif" font-size="11" lengthAdjust="spacing" textLength="322.5288" x="13" y="146.6553">+__init__(master: tk.Widget, controller: object, add_point: callable)</text><text fill="#000000" font-family="sans-serif" font-size="11" lengthAdjust="spacing" textLength="720.5859" x="13" y="161.2861">+update_plot(points: list[tuple], pieces: list[ndarray], is_normalised: bool, cdf_func: callable, shade_min: float, shade_max: float, show_cursors: bool)</text><text fill="#000000" font-family="sans-serif" font-size="11" lengthAdjust="spacing" textLength="180.6943" x="13" y="175.917">+add_point_on_click(event: tk.Event)</text></g><!--class DraggablePoint--><g class="entity" data-entity="DraggablePoint" data-source-line="17" data-uid="ent0003" id="entity_DraggablePoint"><rect fill="#F1F1F1" height="73.2617" rx="2.5" ry="2.5" style="stroke:#181818;stroke-width:0.5;" width="208.582" x="177" y="259"/><ellipse cx="239.6265" cy="273" fill="#ADD1B2" rx="9" ry="9" style="stroke:#181818;stroke-width:1;"/><path d="M241.1577,270.2656 Q241.2515,270.125 241.3765,270.0625 Q241.5015,269.9844 241.6421,269.9844 Q241.8765,269.9844 242.0327,270.1563 Q242.189,270.3281 242.189,270.7188 L242.189,271.6563 Q242.189,272.0469 242.0327,272.2188 Q241.8765,272.3906 241.6421,272.3906 Q241.4233,272.3906 241.2827,272.2656 Q241.1421,272.1406 241.0796,271.8125 Q241.0483,271.5781 240.939,271.4531 Q240.7202,271.2188 240.314,271.0781 Q239.9233,270.9219 239.5327,270.9219 Q239.0327,270.9219 238.6108,271.1406 Q238.2046,271.3594 237.8765,271.8438 Q237.564,272.3281 237.564,272.9844 L237.564,273.7031 Q237.564,274.5 238.1421,275.0313 Q238.7202,275.5625 239.7515,275.5625 Q240.3608,275.5625 240.7827,275.3906 Q241.0327,275.2969 241.314,275.0156 Q241.4858,274.8438 241.5796,274.7969 Q241.6733,274.7344 241.7983,274.7344 Q242.0171,274.7344 242.189,274.9063 Q242.3608,275.0781 242.3608,275.2969 Q242.3608,275.5156 242.1265,275.7813 Q241.7983,276.1563 241.2827,276.375 Q240.5952,276.6563 239.7515,276.6563 Q238.7827,276.6563 238.0015,276.2656 Q237.3608,275.9375 236.9077,275.25 Q236.4702,274.5469 236.4702,273.7188 L236.4702,272.9688 Q236.4702,272.1094 236.8608,271.375 Q237.2671,270.625 237.9702,270.2344 Q238.689,269.8281 239.4858,269.8281 Q239.9546,269.8281 240.3765,269.9375 Q240.7983,270.0469 241.1577,270.2656 Z " fill="#000000"/><text fill="#000000" font-family="sans-serif" font-size="11" lengthAdjust="spacing" textLength="75.8291" x="257.1265" y="277.5547">DraggablePoint</text><line style="stroke:#181818;stroke-width:0.5;" x1="178" x2="384.582" y1="287" y2="287"/><line style="stroke:#181818;stroke-width:0.5;" x1="178" x2="384.582" y1="295" y2="295"/><text fill="#000000" font-family="sans-serif" font-size="11" lengthAdjust="spacing" textLength="196.582" x="183" y="310.8701">+__init__(coord: tuple, controller: object)</text><text fill="#000000" font-family="sans-serif" font-size="11" lengthAdjust="spacing" textLength="85.8999" x="183" y="325.501">+attach(ax: Axes)</text></g><!--class Controller--><g class="entity" data-entity="Controller" data-source-line="22" data-uid="ent0004" id="entity_Controller"><rect fill="#F1F1F1" height="73.2617" rx="2.5" ry="2.5" style="stroke:#181818;stroke-width:0.5;" width="223.2612" x="277" y="408"/><ellipse cx="361.0383" cy="422" fill="#ADD1B2" rx="9" ry="9" style="stroke:#181818;stroke-width:1;"/><path d="M362.5696,419.2656 Q362.6633,419.125 362.7883,419.0625 Q362.9133,418.9844 363.054,418.9844 Q363.2883,418.9844 363.4446,419.1563 Q363.6008,419.3281 363.6008,419.7188 L363.6008,420.6563 Q363.6008,421.0469 363.4446,421.2188 Q363.2883,421.3906 363.054,421.3906 Q362.8352,421.3906 362.6946,421.2656 Q362.554,421.1406 362.4915,420.8125 Q362.4602,420.5781 362.3508,420.4531 Q362.1321,420.2188 361.7258,420.0781 Q361.3352,419.9219 360.9446,419.9219 Q360.4446,419.9219 360.0227,420.1406 Q359.6165,420.3594 359.2883,420.8438 Q358.9758,421.3281 358.9758,421.9844 L358.9758,422.7031 Q358.9758,423.5 359.554,424.0313 Q360.1321,424.5625 361.1633,424.5625 Q361.7727,424.5625 362.1946,424.3906 Q362.4446,424.2969 362.7258,424.0156 Q362.8977,423.8438 362.9915,423.7969 Q363.0852,423.7344 363.2102,423.7344 Q363.429,423.7344 363.6008,423.9063 Q363.7727,424.0781 363.7727,424.2969 Q363.7727,424.5156 363.5383,424.7813 Q363.2102,425.1563 362.6946,425.375 Q362.0071,425.6563 361.1633,425.6563 Q360.1946,425.6563 359.4133,425.2656 Q358.7727,424.9375 358.3196,424.25 Q357.8821,423.5469 357.8821,422.7188 L357.8821,421.9688 Q357.8821,421.1094 358.2727,420.375 Q358.679,419.625 359.3821,419.2344 Q360.1008,418.8281 360.8977,418.8281 Q361.3665,418.8281 361.7883,418.9375 Q362.2102,419.0469 362.5696,419.2656 Z " fill="#000000"/><text fill="#000000" font-family="sans-serif" font-size="11" lengthAdjust="spacing" textLength="47.6846" x="378.5383" y="426.5547">Controller</text><line style="stroke:#181818;stroke-width:0.5;" x1="278" x2="499.2612" y1="436" y2="436"/><line style="stroke:#181818;stroke-width:0.5;" x1="278" x2="499.2612" y1="444" y2="444"/><text fill="#000000" font-family="sans-serif" font-size="11" lengthAdjust="spacing" textLength="155.042" x="283" y="459.8701">+handle_add_point(point: tuple)</text><text fill="#000000" font-family="sans-serif" font-size="11" lengthAdjust="spacing" textLength="211.2612" x="283" y="474.501">+point_moved(old_x, old_y, new_x, new_y)</text></g><!--reverse link PiecewiseGraph to DraggablePoint--><g class="link" data-entity-1="PiecewiseGraph" data-entity-2="DraggablePoint" data-source-line="27" data-uid="lnk5" id="link_PiecewiseGraph_DraggablePoint"><path codeLine="27" d="M259.7445,192.8775 C252.8745,202.2475 254.01,202.54 249.5,213 C243.06,227.93 247.59,244.62 255.05,258.99" fill="none" id="PiecewiseGraph-backto-DraggablePoint" style="stroke:#181818;stroke-width:1;"/><polygon fill="#181818" points="266.84,183.2,260.0664,185.6736,259.7445,192.8775,266.5181,190.4039,266.84,183.2" style="stroke:#181818;stroke-width:1;"/><text fill="#000000" font-family="sans-serif" font-size="11" lengthAdjust="spacing" textLength="218.915" x="250.5" y="225.8701">creates one per control point in update_plot()</text></g><!--link PiecewiseGraph to Controller--><g class="link" data-entity-1="PiecewiseGraph" data-entity-2="Controller" data-source-line="28" data-uid="lnk6" id="link_PiecewiseGraph_Controller"><path codeLine="28" d="M458.6,183.21 C464.56,192.74 469.71,202.72 473.5,213 C498.89,281.8 505.87,312.2 473.5,378 C467.91,389.37 463.795,395.3571 454.155,403.8371" fill="none" id="PiecewiseGraph-to-Controller" style="stroke:#181818;stroke-width:1;"/><polygon fill="#181818" points="449.65,407.8,459.0495,404.859,453.4042,404.4976,453.7656,398.8523,449.65,407.8" style="stroke:#181818;stroke-width:1;"/><text fill="#000000" font-family="sans-serif" font-size="11" lengthAdjust="spacing" textLength="91.1206" x="495.5" y="300.3701">add_point callback</text></g><!--link DraggablePoint to Controller--><g class="link" data-entity-1="DraggablePoint" data-entity-2="Controller" data-source-line="29" data-uid="lnk7" id="link_DraggablePoint_Controller"><path codeLine="29" d="M288.12,332.22 C292.07,347.26 298.19,364.39 307.5,378 C314.95,388.9 320.1857,395.0038 330.3757,403.7438" fill="none" id="DraggablePoint-to-Controller" style="stroke:#181818;stroke-width:1;"/><polygon fill="#181818" points="334.93,407.65,330.7027,398.7545,331.1348,404.3948,325.4944,404.8269,334.93,407.65" style="stroke:#181818;stroke-width:1;"/><text fill="#000000" font-family="sans-serif" font-size="11" lengthAdjust="spacing" textLength="160.1875" x="308.5" y="374.8701">on_release() calls point_moved()</text></g><!--SRC=[RL9DRzmW4BtxLypHRjTHS_MXqYfjgjmYjL8FLOJ6CFPIOx00xqUh_lS2_jXuanFm1jwRUG_NIJsWnHwuGkVstbjPZvwUkD7VvH-2JvbRhmXgS5J-qMYVQlVtMPQUmRCaJYVfw9l5uG1_Cu2F42YyDKgHhU1XtQSI2i468xMlWADIM2jAU2FR2XvbEzhfZESAzcTo4n_g8xgb_f1EFxfzswQgiDYsaMWY3lUKTFxNbmL-ZkXBk5gMwJvZKalFMDwZyx55tztzbA8blzjqRkhVn0FsJij58Xe7WJweAkFpZRGV1qKlEnYYEGke1LgBbm1BnxInFGQOH0MrCIeeYuOre-PNaHsu0mfYlTGLDCgWNv7epegO4-EZTSQwYQlO6isCPbn9tkLqf3X46FTht1NPloN5hLTpYgjFt1WR-anJlMVHBEWzyaE-1FUA_Ve5PkO3QX7YMblCPtkJmiGsjTwR8udSAC7EEuZBPGUQJl4KbqiIkVc27yhoTfxWgQKGbGEZ2ORGnpp490DIRx8iRYdBylFh8QghkIci6dcNtKY-UH9IiAG87UL5UkKsCnRPVm00]--></g></svg>