<svg xmlns="http://www.w3.org/2000/svg" xmlns:xlink="http://www.w3.org/1999/xlink" contentStyleType="text/css" data-diagram-type="CLASS" height="136.8px" preserveAspectRatio="none" style="width:223px;height:136px;background:#FFFFFF;" version="1.1" viewBox="0 0 223 136" width="223.8px" zoomAndPan="magnify"><defs/><g><!--class PiecewiseGraph--><g class="entity" data-entity="PiecewiseGraph" data-source-line="5" data-uid="ent0002" id="entity_PiecewiseGraph"><rect fill="#F1F1F1" height="52.7033" rx="0.75" ry="0.75" style="stroke:#181818;stroke-width:0.15;" width="219.7758" x="2.1" y="2.1"/><ellipse cx="98.8488" cy="6.3" fill="#ADD1B2" rx="2.7" ry="2.7" style="stroke:#181818;stroke-width:0.3;"/><path d="M99.3082,5.4797 Q99.3363,5.4375 99.3738,5.4188 Q99.4113,5.3953 99.4535,5.3953 Q99.5238,5.3953 99.5707,5.4469 Q99.6176,5.4984 99.6176,5.6156 L99.6176,5.8969 Q99.6176,6.0141 99.5707,6.0656 Q99.5238,6.1172 99.4535,6.1172 Q99.3879,6.1172 99.3457,6.0797 Q99.3035,6.0422 99.2848,5.9438 Q99.2754,5.8734 99.2426,5.8359 Q99.177,5.7656 99.0551,5.7234 Q98.9379,5.6766 98.8207,5.6766 Q98.6707,5.6766 98.5441,5.7422 Q98.4223,5.8078 98.3238,5.9531 Q98.2301,6.0984 98.2301,6.2953 L98.2301,6.5109 Q98.2301,6.75 98.4035,6.9094 Q98.577,7.0688 98.8863,7.0688 Q99.0691,7.0688 99.1957,7.0172 Q99.2707,6.9891 99.3551,6.9047 Q99.4066,6.8531 99.4348,6.8391 Q99.4629,6.8203 99.5004,6.8203 Q99.566,6.8203 99.6176,6.8719 Q99.6691,6.9234 99.6691,6.9891 Q99.6691,7.0547 99.5988,7.1344 Q99.5004,7.2469 99.3457,7.3125 Q99.1395,7.3969 98.8863,7.3969 Q98.5957,7.3969 98.3613,7.2797 Q98.1691,7.1812 98.0332,6.975 Q97.902,6.7641 97.902,6.5156 L97.902,6.2906 Q97.902,6.0328 98.0191,5.8125 Q98.141,5.5875 98.352,5.4703 Q98.5676,5.3484 98.8066,5.3484 Q98.9473,5.3484 99.0738,5.3813 Q99.2004,5.4141 99.3082,5.4797 Z " fill="#000000"/><text fill="#000000" font-family="sans-serif" font-size="3.3" lengthAdjust="spacing" textLength="24.0281" x="104.0988" y="7.6664">PiecewiseGraph</text><line style="stroke:#181818;stroke-width:0.15;" x1="2.4" x2="221.5758" y1="10.5" y2="10.5"/><text fill="#000000" font-family="sans-serif" font-size="3.3" lengthAdjust="spacing" textLength="31.6384" x="3.9" y="15.261">+controller: Controller</text><text fill="#000000" font-family="sans-serif" font-size="3.3" lengthAdjust="spacing" textLength="29.4486" x="3.9" y="19.6503">+add_point: callable</text><text fill="#000000" font-family="sans-serif" font-size="3.3" lengthAdjust="spacing" textLength="16.5999" x="3.9" y="24.0396">+fig: Figure</text><text fill="#000000" font-family="sans-serif" font-size="3.3" lengthAdjust="spacing" textLength="14.5825" x="3.9" y="28.4288">+ax: Axes</text><text fill="#000000" font-family="sans-serif" font-size="3.3" lengthAdjust="spacing" textLength="44.297" x="3.9" y="32.8181">+canvas: FigureCanvasTkAgg</text><text fill="#000000" font-family="sans-serif" font-size="3.3" lengthAdjust="spacing" textLength="57.6968" x="3.9" y="37.2073">+draggable_points: list[DraggablePoint]</text><line style="stroke:#181818;stroke-width:0.3;" x1="2.4" x2="221.5758" y1="39.2355" y2="39.2355"/><text fill="#000000" font-family="sans-serif" font-size="3.3" lengthAdjust="spacing" textLength="96.7586" x="3.9" y="43.9966">+__init__(master: tk.Widget, controller: object, add_point: callable)</text><text fill="#000000" font-family="sans-serif" font-size="3.3" lengthAdjust="spacing" textLength="216.1758" x="3.9" y="48.3858">+update_plot(points: list[tuple], pieces: list[ndarray], is_normalised: bool, cdf_func: callable, shade_min: float, shade_max: float, show_cursors: bool)</text><text fill="#000000" font-family="sans-serif" font-size="3.3" lengthAdjust="spacing" textLength="54.2083" x="3.9" y="52.7751">+add_point_on_click(event: tk.Event)</text></g><!--class DraggablePoint--><g class="entity" data-entity="DraggablePoint" data-source-line="18" data-uid="ent0003" id="entity_DraggablePoint"><rect fill="#F1F1F1" height="21.9785" rx="0.75" ry="0.75" style="stroke:#181818;stroke-width:0.15;" width="62.5746" x="57" y="72.9"/><ellipse cx="75.7879" cy="77.1" fill="#ADD1B2" rx="2.7" ry="2.7" style="stroke:#181818;stroke-width:0.3;"/><path d="M76.2473,76.2797 Q76.2754,76.2375 76.3129,76.2188 Q76.3504,76.1953 76.3926,76.1953 Q76.4629,76.1953 76.5098,76.2469 Q76.5567,76.2984 76.5567,76.4156 L76.5567,76.6969 Q76.5567,76.8141 76.5098,76.8656 Q76.4629,76.9172 76.3926,76.9172 Q76.327,76.9172 76.2848,76.8797 Q76.2426,76.8422 76.2239,76.7437 Q76.2145,76.6734 76.1817,76.6359 Q76.1161,76.5656 75.9942,76.5234 Q75.877,76.4766 75.7598,76.4766 Q75.6098,76.4766 75.4833,76.5422 Q75.3614,76.6078 75.2629,76.7531 Q75.1692,76.8984 75.1692,77.0953 L75.1692,77.3109 Q75.1692,77.55 75.3426,77.7094 Q75.5161,77.8687 75.8254,77.8687 Q76.0083,77.8687 76.1348,77.8172 Q76.2098,77.7891 76.2942,77.7047 Q76.3458,77.6531 76.3739,77.6391 Q76.402,77.6203 76.4395,77.6203 Q76.5051,77.6203 76.5567,77.6719 Q76.6083,77.7234 76.6083,77.7891 Q76.6083,77.8547 76.5379,77.9344 Q76.4395,78.0469 76.2848,78.1125 Q76.0786,78.1969 75.8254,78.1969 Q75.5348,78.1969 75.3004,78.0797 Q75.1083,77.9813 74.9723,77.775 Q74.8411,77.5641 74.8411,77.3156 L74.8411,77.0906 Q74.8411,76.8328 74.9583,76.6125 Q75.0801,76.3875 75.2911,76.2703 Q75.5067,76.1484 75.7458,76.1484 Q75.8864,76.1484 76.0129,76.1812 Q76.1395,76.2141 76.2473,76.2797 Z " fill="#000000"/><text fill="#000000" font-family="sans-serif" font-size="3.3" lengthAdjust="spacing" textLength="22.7487" x="81.0379" y="78.4664">DraggablePoint</text><line style="stroke:#181818;stroke-width:0.15;" x1="57.3" x2="119.2746" y1="81.3" y2="81.3"/><line style="stroke:#181818;stroke-width:0.15;" x1="57.3" x2="119.2746" y1="83.7" y2="83.7"/><text fill="#000000" font-family="sans-serif" font-size="3.3" lengthAdjust="spacing" textLength="58.9746" x="58.8" y="88.461">+__init__(coord: tuple, controller: object)</text><text fill="#000000" font-family="sans-serif" font-size="3.3" lengthAdjust="spacing" textLength="25.77" x="58.8" y="92.8503">+attach(ax: Axes)</text></g><!--class Controller--><g class="entity" data-entity="Controller" data-source-line="23" data-uid="ent0004" id="entity_Controller"><rect fill="#F1F1F1" height="21.9785" rx="0.75" ry="0.75" style="stroke:#181818;stroke-width:0.15;" width="66.9784" x="78.6" y="112.8"/><ellipse cx="103.8115" cy="117" fill="#ADD1B2" rx="2.7" ry="2.7" style="stroke:#181818;stroke-width:0.3;"/><path d="M104.2709,116.1797 Q104.299,116.1375 104.3365,116.1187 Q104.374,116.0953 104.4162,116.0953 Q104.4865,116.0953 104.5334,116.1469 Q104.5802,116.1984 104.5802,116.3156 L104.5802,116.5969 Q104.5802,116.7141 104.5334,116.7656 Q104.4865,116.8172 104.4162,116.8172 Q104.3506,116.8172 104.3084,116.7797 Q104.2662,116.7422 104.2474,116.6438 Q104.2381,116.5734 104.2052,116.5359 Q104.1396,116.4656 104.0177,116.4234 Q103.9006,116.3766 103.7834,116.3766 Q103.6334,116.3766 103.5068,116.4422 Q103.3849,116.5078 103.2865,116.6531 Q103.1927,116.7984 103.1927,116.9953 L103.1927,117.2109 Q103.1927,117.45 103.3662,117.6094 Q103.5396,117.7688 103.849,117.7688 Q104.0318,117.7688 104.1584,117.7172 Q104.2334,117.6891 104.3177,117.6047 Q104.3693,117.5531 104.3974,117.5391 Q104.4256,117.5203 104.4631,117.5203 Q104.5287,117.5203 104.5802,117.5719 Q104.6318,117.6234 104.6318,117.6891 Q104.6318,117.7547 104.5615,117.8344 Q104.4631,117.9469 104.3084,118.0125 Q104.1021,118.0969 103.849,118.0969 Q103.5584,118.0969 103.324,117.9797 Q103.1318,117.8813 102.9959,117.675 Q102.8646,117.4641 102.8646,117.2156 L102.8646,116.9906 Q102.8646,116.7328 102.9818,116.5125 Q103.1037,116.2875 103.3146,116.1703 Q103.5302,116.0484 103.7693,116.0484 Q103.9099,116.0484 104.0365,116.0813 Q104.1631,116.1141 104.2709,116.1797 Z " fill="#000000"/><text fill="#000000" font-family="sans-serif" font-size="3.3" lengthAdjust="spacing" textLength="14.3054" x="109.0615" y="118.3664">Controller</text><line style="stroke:#181818;stroke-width:0.15;" x1="78.9" x2="145.2784" y1="121.2" y2="121.2"/><line style="stroke:#181818;stroke-width:0.15;" x1="78.9" x2="145.2784" y1="123.6" y2="123.6"/><text fill="#000000" font-family="sans-serif" font-size="3.3" lengthAdjust="spacing" textLength="46.5126" x="80.4" y="128.361">+handle_add_point(point: tuple)</text><text fill="#000000" font-family="sans-serif" font-size="3.3" lengthAdjust="spacing" textLength="63.3784" x="80.4" y="132.7503">+point_moved(old_x, old_y, new_x, new_y)</text></g><!--reverse link PiecewiseGraph to DraggablePoint--><g class="link" data-entity-1="PiecewiseGraph" data-entity-2="DraggablePoint" data-source-line="28" data-uid="lnk5" id="link_PiecewiseGraph_DraggablePoint"><path codeLine="28" d="M88.35,58.56 C88.35,64.896 88.35,67.719 88.35,72.894" fill="none" id="PiecewiseGraph-backto-DraggablePoint" style="stroke:#181818;stroke-width:0.3;"/><polygon fill="#181818" points="88.35,54.96,87.15,56.76,88.35,58.56,89.55,56.76,88.35,54.96" style="stroke:#181818;stroke-width:0.3;"/><text fill="#000000" font-family="sans-serif" font-size="3.3" lengthAdjust="spacing" textLength="65.6745" x="22.65" y="62.988">creates one per control point in update_plot()</text></g><!--link PiecewiseGraph to Controller--><g class="link" data-entity-1="PiecewiseGraph" data-entity-2="Controller" data-source-line="29" data-uid="lnk6" id="link_PiecewiseGraph_Controller"><path codeLine="29" d="M132.6,54.906 C132.6,73.956 132.6,96.897 132.6,110.94" fill="none" id="PiecewiseGraph-to-Controller" style="stroke:#181818;stroke-width:0.3;"/><polygon fill="#181818" points="132.6,112.74,133.8,110.04,132.6,111.24,131.4,110.04,132.6,112.74" style="stroke:#181818;stroke-width:0.3;"/><text fill="#000000" font-family="sans-serif" font-size="3.3" lengthAdjust="spacing" textLength="27.3362" x="132.9" y="82.884">add_point callback</text></g><!--link DraggablePoint to Controller--><g class="link" data-entity-1="DraggablePoint" data-entity-2="Controller" data-source-line="30" data-uid="lnk7" id="link_DraggablePoint_Controller"><path codeLine="30" d="M99.15,94.857 C99.15,100.44 99.15,105.399 99.15,110.976" fill="none" id="DraggablePoint-to-Controller" style="stroke:#181818;stroke-width:0.3;"/><polygon fill="#181818" points="99.15,112.776,100.35,110.076,99.15,111.276,97.95,110.076,99.15,112.776" style="stroke:#181818;stroke-width:0.3;"/><text fill="#000000" font-family="sans-serif" font-size="3.3" lengthAdjust="spacing" textLength="48.0563" x="50.85" y="102.879">on_release() calls point_moved()</text></g><!--SRC=[RLBBZjmW4BpxA_fe9tQKlVeGQRJ9Hhcjb4WvH2lKXhPDZC42F8z4-VTW_9Znx9w0QgZghi9rKWzeiGUkqBc3zrPMewTltEZlyW_1nyHjLmJLE2h_PBIFjOU7cwAIclnb833MjoP98XyyI-9qaew-MXnQ-9i0l8V0xQrHYcm9Zzi-bb08DXYfVGaSbS9AKSHhsPJm99lHpcSybt0uavlvK1_HhVN7UFhH7PecLeN5ffc8Pk9mJqddVtrUuUS9VGbNYoBUPqngwHbBUtH-Qj5t7tvAqP3FTvsRwZVnWBtHSXQ9na6W3whA-7GdxST1qKiEmsJE2cg1rk8bmD8nRMoF0IPHGcMC2igYPlMe-LKa1zUY8DPBNKAj3FeDcTpP47DYVBJEM3TpPNkZcT6CAycxb8uq3H76_JBjikJVckBUgoN5pITkZ0rzngdUicWHz1vvcwx1tR1Vly32tA8M8QwjnNInDohCR7FhlJcII8qIx9p3j5noq7IQJjDoYI9tN_1TKTpF4por5A9oO3J14FfOXfXbGEfTbjazPL5ykXsYl9eRmwgGTycTvAid8GLBYj1HciLNRZTZblm7]--></g></svg>