<svg xmlns="http://www.w3.org/2000/svg" xmlns:xlink="http://www.w3.org/1999/xlink" contentStyleType="text/css" data-diagram-type="CLASS" height="858px" preserveAspectRatio="none" style="width:732px;height:858px;background:#FFFFFF;" version="1.1" viewBox="0 0 732 858" width="732px" zoomAndPan="magnify"><defs/><g><!--class Piecewise--><g class="entity" data-entity="Piecewise" data-source-line="4" data-uid="ent0002" id="entity_Piecewise"><rect fill="#F1F1F1" height="512.1875" rx="2.5" ry="2.5" style="stroke:#181818;stroke-width:0.5;" width="245.2397" x="226" y="215"/><ellipse cx="320.1091" cy="229" fill="#ADD1B2" rx="9" ry="9" style="stroke:#181818;stroke-width:1;"/><path d="M321.6404,226.2656 Q321.7341,226.125 321.8591,226.0625 Q321.9841,225.9844 322.1248,225.9844 Q322.3591,225.9844 322.5154,226.1563 Q322.6716,226.3281 322.6716,226.7188 L322.6716,227.6563 Q322.6716,228.0469 322.5154,228.2188 Q322.3591,228.3906 322.1248,228.3906 Q321.906,228.3906 321.7654,228.2656 Q321.6248,228.1406 321.5623,227.8125 Q321.531,227.5781 321.4216,227.4531 Q321.2029,227.2188 320.7966,227.0781 Q320.406,226.9219 320.0154,226.9219 Q319.5154,226.9219 319.0935,227.1406 Q318.6873,227.3594 318.3591,227.8438 Q318.0466,228.3281 318.0466,228.9844 L318.0466,229.7031 Q318.0466,230.5 318.6248,231.0313 Q319.2029,231.5625 320.2341,231.5625 Q320.8435,231.5625 321.2654,231.3906 Q321.5154,231.2969 321.7966,231.0156 Q321.9685,230.8438 322.0623,230.7969 Q322.156,230.7344 322.281,230.7344 Q322.4998,230.7344 322.6716,230.9063 Q322.8435,231.0781 322.8435,231.2969 Q322.8435,231.5156 322.6091,231.7813 Q322.281,232.1563 321.7654,232.375 Q321.0779,232.6563 320.2341,232.6563 Q319.2654,232.6563 318.4841,232.2656 Q317.8435,231.9375 317.3904,231.25 Q316.9529,230.5469 316.9529,229.7188 L316.9529,228.9688 Q316.9529,228.1094 317.3435,227.375 Q317.7498,226.625 318.4529,226.2344 Q319.1716,225.8281 319.9685,225.8281 Q320.4373,225.8281 320.8591,225.9375 Q321.281,226.0469 321.6404,226.2656 Z " fill="#000000"/><text fill="#000000" font-family="sans-serif" font-size="11" lengthAdjust="spacing" textLength="49.5215" x="337.6091" y="233.5547">Piecewise</text><line style="stroke:#181818;stroke-width:0.5;" x1="227" x2="470.2397" y1="243" y2="243"/><text fill="#000000" font-family="sans-serif" font-size="11" lengthAdjust="spacing" textLength="142.4629" x="232" y="258.8701">-_points: list[tuple[float, float]]</text><text fill="#000000" font-family="sans-serif" font-size="11" lengthAdjust="spacing" textLength="125.3452" x="232" y="273.501">+is_discrete: bool = False</text><text fill="#000000" font-family="sans-serif" font-size="11" lengthAdjust="spacing" textLength="101.1968" x="232" y="288.1318">+is_normalised: bool</text><text fill="#000000" font-family="sans-serif" font-size="11" lengthAdjust="spacing" textLength="57.7769" x="232" y="302.7627">+pieces: list</text><line style="stroke:#181818;stroke-width:1;" x1="227" x2="470.2397" y1="309.5234" y2="309.5234"/><text fill="#000000" font-family="sans-serif" font-size="11" lengthAdjust="spacing" textLength="131.1567" x="232" y="325.3936">+__init__(points: list[tuple])</text><text fill="#000000" font-family="sans-serif" font-size="11" lengthAdjust="spacing" textLength="104.2529" x="232" y="340.0244">+mini: float {property}</text><text fill="#000000" font-family="sans-serif" font-size="11" lengthAdjust="spacing" textLength="107.3091" x="232" y="354.6553">+maxi: float {property}</text><text fill="#000000" font-family="sans-serif" font-size="11" lengthAdjust="spacing" textLength="114.0337" x="232" y="369.2861">+get_points(): list[tuple]</text><text fill="#000000" font-family="sans-serif" font-size="11" lengthAdjust="spacing" textLength="109.7583" x="232" y="383.917">+get_num_points(): int</text><text fill="#000000" font-family="sans-serif" font-size="11" lengthAdjust="spacing" textLength="211.0625" x="232" y="398.5479">+check_for_point(point: tuple): tuple | False</text><text fill="#000000" font-family="sans-serif" font-size="11" lengthAdjust="spacing" textLength="151.1587" x="232" y="413.1787">+add_point(point: tuple | None)</text><text fill="#000000" font-family="sans-serif" font-size="11" lengthAdjust="spacing" textLength="169.4849" x="232" y="427.8096">+remove_point(point: tuple | None)</text><text fill="#000000" font-family="sans-serif" font-size="11" lengthAdjust="spacing" textLength="148.8921" x="232" y="442.4404">+calculate_pieces(linear: bool)</text><text fill="#000000" font-family="sans-serif" font-size="11" lengthAdjust="spacing" textLength="211.8896" x="232" y="457.0713">+update_point(old_x, old_y, new_x, new_y)</text><text fill="#000000" font-family="sans-serif" font-size="11" lengthAdjust="spacing" textLength="61.4346" x="232" y="471.7021">+normalise()</text><text fill="#000000" font-family="sans-serif" font-size="11" lengthAdjust="spacing" textLength="206.3628" x="232" y="486.333">+integrate_piecewise(l: float, u: float): float</text><text fill="#000000" font-family="sans-serif" font-size="11" lengthAdjust="spacing" textLength="135.4429" x="232" y="500.9639">+expectation(sq: bool): float</text><text fill="#000000" font-family="sans-serif" font-size="11" lengthAdjust="spacing" textLength="82.2314" x="232" y="515.5947">+variance(): float</text><text fill="#000000" font-family="sans-serif" font-size="11" lengthAdjust="spacing" textLength="132.7734" x="232" y="530.2256">+cdf(x_vals): float | ndarray</text><text fill="#000000" font-family="sans-serif" font-size="11" lengthAdjust="spacing" textLength="98.7422" x="232" y="544.8564">+pxlessthan(x): float</text><text fill="#000000" font-family="sans-serif" font-size="11" lengthAdjust="spacing" text-decoration="underline" textLength="90.186" x="232" y="559.4873">+pxequals(x): float</text><text fill="#000000" font-family="sans-serif" font-size="11" lengthAdjust="spacing" textLength="134.8306" x="232" y="574.1182">+pxlessthanequalto(x): float</text><text fill="#000000" font-family="sans-serif" font-size="11" lengthAdjust="spacing" textLength="114.0337" x="232" y="588.749">+pxgreaterthan(x): float</text><text fill="#000000" font-family="sans-serif" font-size="11" lengthAdjust="spacing" textLength="150.1221" x="232" y="603.3799">+pxgreaterthanequalto(x): float</text><text fill="#000000" font-family="sans-serif" font-size="11" lengthAdjust="spacing" textLength="121.3652" x="232" y="618.0107">+pxinclusivein(a, b): float</text><text fill="#000000" font-family="sans-serif" font-size="11" lengthAdjust="spacing" textLength="124.4214" x="232" y="632.6416">+pxexclusivein(a, b): float</text><text fill="#000000" font-family="sans-serif" font-size="11" lengthAdjust="spacing" textLength="99.3599" x="232" y="647.2725">+xplessthan(p): float</text><text fill="#000000" font-family="sans-serif" font-size="11" lengthAdjust="spacing" textLength="135.4482" x="232" y="661.9033">+xplessthanequalto(p): float</text><text fill="#000000" font-family="sans-serif" font-size="11" lengthAdjust="spacing" textLength="114.6514" x="232" y="676.5342">+xpgreaterthan(p): float</text><text fill="#000000" font-family="sans-serif" font-size="11" lengthAdjust="spacing" textLength="150.7397" x="232" y="691.165">+xpgreaterthanequalto(p): float</text><text fill="#000000" font-family="sans-serif" font-size="11" lengthAdjust="spacing" textLength="230.1836" x="232" y="705.7959">+xpinclusivein(p) {raises NotImplementedError}</text><text fill="#000000" font-family="sans-serif" font-size="11" lengthAdjust="spacing" textLength="233.2397" x="232" y="720.4268">+xpexclusivein(p) {raises NotImplementedError}</text></g><!--class Controller--><g class="entity" data-entity="Controller" data-source-line="40" data-uid="ent0003" id="entity_Controller"><rect fill="#F1F1F1" height="131.7852" rx="2.5" ry="2.5" style="stroke:#181818;stroke-width:0.5;" width="223.2612" x="135" y="7"/><ellipse cx="219.0383" cy="21" fill="#ADD1B2" rx="9" ry="9" style="stroke:#181818;stroke-width:1;"/><path d="M220.5696,18.2656 Q220.6633,18.125 220.7883,18.0625 Q220.9133,17.9844 221.054,17.9844 Q221.2883,17.9844 221.4446,18.1563 Q221.6008,18.3281 221.6008,18.7188 L221.6008,19.6563 Q221.6008,20.0469 221.4446,20.2188 Q221.2883,20.3906 221.054,20.3906 Q220.8352,20.3906 220.6946,20.2656 Q220.554,20.1406 220.4915,19.8125 Q220.4602,19.5781 220.3508,19.4531 Q220.1321,19.2188 219.7258,19.0781 Q219.3352,18.9219 218.9446,18.9219 Q218.4446,18.9219 218.0227,19.1406 Q217.6165,19.3594 217.2883,19.8438 Q216.9758,20.3281 216.9758,20.9844 L216.9758,21.7031 Q216.9758,22.5 217.554,23.0313 Q218.1321,23.5625 219.1633,23.5625 Q219.7727,23.5625 220.1946,23.3906 Q220.4446,23.2969 220.7258,23.0156 Q220.8977,22.8438 220.9915,22.7969 Q221.0852,22.7344 221.2102,22.7344 Q221.429,22.7344 221.6008,22.9063 Q221.7727,23.0781 221.7727,23.2969 Q221.7727,23.5156 221.5383,23.7813 Q221.2102,24.1563 220.6946,24.375 Q220.0071,24.6563 219.1633,24.6563 Q218.1946,24.6563 217.4133,24.2656 Q216.7727,23.9375 216.3196,23.25 Q215.8821,22.5469 215.8821,21.7188 L215.8821,20.9688 Q215.8821,20.1094 216.2727,19.375 Q216.679,18.625 217.3821,18.2344 Q218.1008,17.8281 218.8977,17.8281 Q219.3665,17.8281 219.7883,17.9375 Q220.2102,18.0469 220.5696,18.2656 Z " fill="#000000"/><text fill="#000000" font-family="sans-serif" font-size="11" lengthAdjust="spacing" textLength="47.6846" x="236.5383" y="25.5547">Controller</text><line style="stroke:#181818;stroke-width:0.5;" x1="136" x2="357.2612" y1="35" y2="35"/><text fill="#000000" font-family="sans-serif" font-size="11" lengthAdjust="spacing" textLength="92.0176" x="141" y="50.8701">+model: Piecewise</text><line style="stroke:#181818;stroke-width:1;" x1="136" x2="357.2612" y1="57.6309" y2="57.6309"/><text fill="#000000" font-family="sans-serif" font-size="11" lengthAdjust="spacing" textLength="155.042" x="141" y="73.501">+handle_add_point(point: tuple)</text><text fill="#000000" font-family="sans-serif" font-size="11" lengthAdjust="spacing" textLength="119.5498" x="141" y="88.1318">+handle_remove_point()</text><text fill="#000000" font-family="sans-serif" font-size="11" lengthAdjust="spacing" textLength="100.5845" x="141" y="102.7627">+handle_normalise()</text><text fill="#000000" font-family="sans-serif" font-size="11" lengthAdjust="spacing" textLength="211.2612" x="141" y="117.3936">+point_moved(old_x, old_y, new_x, new_y)</text><text fill="#000000" font-family="sans-serif" font-size="11" lengthAdjust="spacing" textLength="203.2959" x="141" y="132.0244">+set_piecewise_type(piecewise_type: str)</text></g><!--class CalculationFrame--><g class="entity" data-entity="CalculationFrame" data-source-line="50" data-uid="ent0004" id="entity_CalculationFrame"><rect fill="#F1F1F1" height="102.5234" rx="2.5" ry="2.5" style="stroke:#181818;stroke-width:0.5;" width="114.2007" x="393.5" y="21.5"/><ellipse cx="406.5" cy="35.5" fill="#ADD1B2" rx="9" ry="9" style="stroke:#181818;stroke-width:1;"/><path d="M408.0313,32.7656 Q408.125,32.625 408.25,32.5625 Q408.375,32.4844 408.5156,32.4844 Q408.75,32.4844 408.9063,32.6563 Q409.0625,32.8281 409.0625,33.2188 L409.0625,34.1563 Q409.0625,34.5469 408.9063,34.7188 Q408.75,34.8906 408.5156,34.8906 Q408.2969,34.8906 408.1563,34.7656 Q408.0156,34.6406 407.9531,34.3125 Q407.9219,34.0781 407.8125,33.9531 Q407.5938,33.7188 407.1875,33.5781 Q406.7969,33.4219 406.4063,33.4219 Q405.9063,33.4219 405.4844,33.6406 Q405.0781,33.8594 404.75,34.3438 Q404.4375,34.8281 404.4375,35.4844 L404.4375,36.2031 Q404.4375,37 405.0156,37.5313 Q405.5938,38.0625 406.625,38.0625 Q407.2344,38.0625 407.6563,37.8906 Q407.9063,37.7969 408.1875,37.5156 Q408.3594,37.3438 408.4531,37.2969 Q408.5469,37.2344 408.6719,37.2344 Q408.8906,37.2344 409.0625,37.4063 Q409.2344,37.5781 409.2344,37.7969 Q409.2344,38.0156 409,38.2813 Q408.6719,38.6563 408.1563,38.875 Q407.4688,39.1563 406.625,39.1563 Q405.6563,39.1563 404.875,38.7656 Q404.2344,38.4375 403.7813,37.75 Q403.3438,37.0469 403.3438,36.2188 L403.3438,35.4688 Q403.3438,34.6094 403.7344,33.875 Q404.1406,33.125 404.8438,32.7344 Q405.5625,32.3281 406.3594,32.3281 Q406.8281,32.3281 407.25,32.4375 Q407.6719,32.5469 408.0313,32.7656 Z " fill="#000000"/><text fill="#000000" font-family="sans-serif" font-size="11" lengthAdjust="spacing" textLength="86.2007" x="418.5" y="40.0547">CalculationFrame</text><line style="stroke:#181818;stroke-width:0.5;" x1="394.5" x2="506.7007" y1="49.5" y2="49.5"/><text fill="#000000" font-family="sans-serif" font-size="11" lengthAdjust="spacing" textLength="92.0176" x="399.5" y="65.3701">+model: Piecewise</text><line style="stroke:#181818;stroke-width:1;" x1="394.5" x2="506.7007" y1="72.1309" y2="72.1309"/><text fill="#000000" font-family="sans-serif" font-size="11" lengthAdjust="spacing" textLength="92.646" x="399.5" y="88.001">+entry1_updating()</text><text fill="#000000" font-family="sans-serif" font-size="11" lengthAdjust="spacing" textLength="92.646" x="399.5" y="102.6318">+entry2_updating()</text><text fill="#000000" font-family="sans-serif" font-size="11" lengthAdjust="spacing" textLength="92.0444" x="399.5" y="117.2627">+update_shading()</text></g><g class="entity" data-entity="piecewise_cubic_spline" data-source-line="58" data-uid="ent0005" id="entity_piecewise_cubic_spline"><rect fill="#F1F1F1" height="49.2617" rx="2.5" ry="2.5" style="stroke:#181818;stroke-width:0.5;" width="128.9575" x="7" y="803"/><text fill="#000000" font-family="sans-serif" font-size="11" font-style="italic" lengthAdjust="spacing" textLength="50.7622" x="46.0977" y="814.8701">&#171;function&#187;</text><text fill="#000000" font-family="sans-serif" font-size="11" lengthAdjust="spacing" textLength="114.9575" x="14" y="831.501">piecewise_cubic_spline</text><line style="stroke:#181818;stroke-width:0.5;" x1="8" x2="134.9575" y1="836.2617" y2="836.2617"/></g><g class="entity" data-entity="piecewise_linear" data-source-line="59" data-uid="ent0006" id="entity_piecewise_linear"><rect fill="#F1F1F1" height="49.2617" rx="2.5" ry="2.5" style="stroke:#181818;stroke-width:0.5;" width="95.3237" x="171" y="803"/><text fill="#000000" font-family="sans-serif" font-size="11" font-style="italic" lengthAdjust="spacing" textLength="50.7622" x="193.2808" y="814.8701">&#171;function&#187;</text><text fill="#000000" font-family="sans-serif" font-size="11" lengthAdjust="spacing" textLength="81.3237" x="178" y="831.501">piecewise_linear</text><line style="stroke:#181818;stroke-width:0.5;" x1="172" x2="265.3237" y1="836.2617" y2="836.2617"/></g><g class="entity" data-entity="integrate_nbic" data-source-line="60" data-uid="ent0007" id="entity_integrate_nbic"><rect fill="#F1F1F1" height="49.2617" rx="2.5" ry="2.5" style="stroke:#181818;stroke-width:0.5;" width="83.1045" x="307" y="803"/><text fill="#000000" font-family="sans-serif" font-size="11" font-style="italic" lengthAdjust="spacing" textLength="50.7622" x="323.1711" y="814.8701">&#171;function&#187;</text><text fill="#000000" font-family="sans-serif" font-size="11" lengthAdjust="spacing" textLength="69.1045" x="314" y="831.501">integrate_nbic</text><line style="stroke:#181818;stroke-width:0.5;" x1="308" x2="389.1045" y1="836.2617" y2="836.2617"/></g><g class="entity" data-entity="binary_search_for_x" data-source-line="61" data-uid="ent0008" id="entity_binary_search_for_x"><rect fill="#F1F1F1" height="49.2617" rx="2.5" ry="2.5" style="stroke:#181818;stroke-width:0.5;" width="113.666" x="507.5" y="803"/><text fill="#000000" font-family="sans-serif" font-size="11" font-style="italic" lengthAdjust="spacing" textLength="50.7622" x="538.9519" y="814.8701">&#171;function&#187;</text><text fill="#000000" font-family="sans-serif" font-size="11" lengthAdjust="spacing" textLength="99.666" x="514.5" y="831.501">binary_search_for_x</text><line style="stroke:#181818;stroke-width:0.5;" x1="508.5" x2="620.166" y1="836.2617" y2="836.2617"/></g><g class="entity" data-entity="merge_sort" data-source-line="62" data-uid="ent0009" id="entity_merge_sort"><rect fill="#F1F1F1" height="49.2617" rx="2.5" ry="2.5" style="stroke:#181818;stroke-width:0.5;" width="69.6338" x="656.5" y="803"/><text fill="#000000" font-family="sans-serif" font-size="11" font-style="italic" lengthAdjust="spacing" textLength="50.7622" x="665.9358" y="814.8701">&#171;function&#187;</text><text fill="#000000" font-family="sans-serif" font-size="11" lengthAdjust="spacing" textLength="55.6338" x="663.5" y="831.501">merge_sort</text><line style="stroke:#181818;stroke-width:0.5;" x1="657.5" x2="725.1338" y1="836.2617" y2="836.2617"/></g><!--reverse link Controller to Piecewise--><g class="link" data-entity-1="Controller" data-entity-2="Piecewise" data-source-line="64" data-uid="lnk10" id="link_Controller_Piecewise"><path codeLine="64" d="M266.3337,151.0106 C271.9937,172.9806 275.7,187.36 282.81,214.97" fill="none" id="Controller-backto-Piecewise" style="stroke:#181818;stroke-width:1;"/><polygon fill="none" points="263.34,139.39,260.9633,146.1982,266.3337,151.0106,268.7104,144.2024,263.34,139.39" style="stroke:#181818;stroke-width:1;"/><text fill="#000000" font-family="sans-serif" font-size="11" lengthAdjust="spacing" textLength="98.4307" x="275.5" y="181.8701">model (Piece mode)</text></g><!--reverse link CalculationFrame to Piecewise--><g class="link" data-entity-1="CalculationFrame" data-entity-2="Piecewise" data-source-line="65" data-uid="lnk11" id="link_CalculationFrame_Piecewise"><path codeLine="65" d="M434.4852,136.1803 C428.1452,160.7803 423,180.77 414.22,214.85" fill="none" id="CalculationFrame-backto-Piecewise" style="stroke:#181818;stroke-width:1;"/><polygon fill="none" points="437.48,124.56,432.1092,129.3719,434.4852,136.1803,439.856,131.3684,437.48,124.56" style="stroke:#181818;stroke-width:1;"/><text fill="#000000" font-family="sans-serif" font-size="11" lengthAdjust="spacing" textLength="29.96" x="426.5" y="181.8701">model</text></g><!--link Piecewise to piecewise_cubic_spline--><g class="link" data-entity-1="Piecewise" data-entity-2="piecewise_cubic_spline" data-source-line="67" data-uid="lnk12" id="link_Piecewise_piecewise_cubic_spline"><path codeLine="67" d="M226,628.78 C173.57,695.87 121.7446,762.2024 93.7046,798.0824" fill="none" id="Piecewise-to-piecewise_cubic_spline" style="stroke:#181818;stroke-width:1;stroke-dasharray:7,7;"/><polygon fill="#181818" points="90.01,802.81,98.7036,798.1817,93.0888,798.8703,92.4001,793.2556,90.01,802.81" style="stroke:#181818;stroke-width:1;"/><text fill="#000000" font-family="sans-serif" font-size="11" lengthAdjust="spacing" textLength="88.6553" x="125.5" y="769.8701">calculate_pieces()</text></g><!--link Piecewise to piecewise_linear--><g class="link" data-entity-1="Piecewise" data-entity-2="piecewise_linear" data-source-line="68" data-uid="lnk13" id="link_Piecewise_piecewise_linear"><path codeLine="68" d="M254.89,727.28 C243.63,757.98 235.8648,779.1365 229.2748,797.1165" fill="none" id="Piecewise-to-piecewise_linear" style="stroke:#181818;stroke-width:1;stroke-dasharray:7,7;"/><polygon fill="#181818" points="227.21,802.75,234.0629,795.6762,228.9307,798.0554,226.5515,792.9232,227.21,802.75" style="stroke:#181818;stroke-width:1;"/><text fill="#000000" font-family="sans-serif" font-size="11" lengthAdjust="spacing" textLength="88.6553" x="244.5" y="769.8701">calculate_pieces()</text></g><!--link Piecewise to integrate_nbic--><g class="link" data-entity-1="Piecewise" data-entity-2="integrate_nbic" data-source-line="69" data-uid="lnk14" id="link_Piecewise_integrate_nbic"><path codeLine="69" d="M345.68,727.2 C345.61,737.27 345.55,747.23 345.5,757 C345.46,764.11 345.3,765.89 345.5,773 C345.77,782.76 345.969,787.5309 346.529,796.8209" fill="none" id="Piecewise-to-integrate_nbic" style="stroke:#181818;stroke-width:1;stroke-dasharray:7,7;"/><polygon fill="#181818" points="346.89,802.81,350.3412,793.5856,346.5891,797.8191,342.3557,794.067,346.89,802.81" style="stroke:#181818;stroke-width:1;"/><text fill="#000000" font-family="sans-serif" font-size="11" lengthAdjust="spacing" textLength="174.2544" x="346.5" y="769.8701">integrate_piecewise(), expectation()</text></g><!--link Piecewise to binary_search_for_x--><g class="link" data-entity-1="Piecewise" data-entity-2="binary_search_for_x" data-source-line="70" data-uid="lnk15" id="link_Piecewise_binary_search_for_x"><path codeLine="70" d="M471.05,666.77 C489.52,696.85 508.17,727.66 525.5,757 C534.44,772.13 541.2084,784.0983 548.6784,797.6183" fill="none" id="Piecewise-to-binary_search_for_x" style="stroke:#181818;stroke-width:1;stroke-dasharray:7,7;"/><polygon fill="#181818" points="551.58,802.87,550.7287,793.058,549.162,798.4936,543.7264,796.9269,551.58,802.87" style="stroke:#181818;stroke-width:1;"/><text fill="#000000" font-family="sans-serif" font-size="11" lengthAdjust="spacing" textLength="59.9146" x="534.5" y="769.8701">xplessthan()</text></g><!--link Piecewise to merge_sort--><g class="link" data-entity-1="Piecewise" data-entity-2="merge_sort" data-source-line="71" data-uid="lnk16" id="link_Piecewise_merge_sort"><path codeLine="71" d="M471.12,598.73 C543.62,673.66 624.6675,757.4284 664.5675,798.6584" fill="none" id="Piecewise-to-merge_sort" style="stroke:#181818;stroke-width:1;stroke-dasharray:7,7;"/><polygon fill="#181818" points="668.74,802.97,665.3556,793.7209,665.2629,799.377,659.6068,799.2843,668.74,802.97" style="stroke:#181818;stroke-width:1;"/><text fill="#000000" font-family="sans-serif" font-size="11" lengthAdjust="spacing" textLength="88.6553" x="634.5" y="769.8701">calculate_pieces()</text></g><!--SRC=[ZLNBRjim4BphAtYKK3jeUXJI047H0BaK1NeC0e8crpORYcH8of7h-j-x8cLRakMu9rexC_iYT-rVfRRCiOfmnRn_2C79HHtWYHlzI_u1yZdpHug09QjLU3GwHEpsDikYZFoKmE5TUY2xZ90veTP87Nn9bFJXETHMmVDI6HPc91ulBqZxHAIdGdhk84195iOeyfKyCkNXW6hZAeO-G2GyscqRhFFTHfj7AwLIoq1fVXxwfOYC2WbbYazsrXaBBcpt2MBD9MW5eQicBmPEZwYkgnu3puZmDV1NkZGkOIcjaaHjqPtaRwzS9iG45Ia_Z8PKWOFARE0QYpF5QyK24cEdSYKrC9Swc2Yr5H6FZemIj9cHzjZEY8Rtzgizjebyl8GyVQC6LkxelxtsN7NTcv6w-rLqPvH0Ou475gJHkN_hCkaJDin9fZda0oiNoxoX6spHmOo5Qi6SOzlq51e5teSrqtapKDe6tchKdSnavzi4-7uaZBnWplGh1rYYc_JTmox9fUQgzd83KkTiHXRZx9eFuCOUgx8NW4FOCTxF-WFiahoVjIt8pZ6yN8zlApnL6Bi2l7hntJdZzfsYNyWrnVwmBhxX1d56AN1nN-3y6G7uX8vhv3JMcAnGGAU7e-XJ1iCnGCOFE59eonPN7xzln_-G5WrR2_dmioG-kA9NMpTz-DGVSMd2rGgnGsvxI-D8IhtgSepMBsDhDxT-pKGoObYp-8spHKvPyNeXEVMs7NjoTxUiDM-pkRy_fwRDC4awJRb6TvEKXTJCRQb75tmTLrqpoQl0hJ1fuy8GpdhlmCpdlN-HClMBvD4KFuhihBEJcYmxcMvkxY_rfJnVayL5PTUc_z2CkbPEBijYDbY8OnzJRItxIs4iwFLtCiL_]--></g></svg>