<svg xmlns="http://www.w3.org/2000/svg" xmlns:xlink="http://www.w3.org/1999/xlink" contentStyleType="text/css" data-diagram-type="CLASS" height="458px" preserveAspectRatio="none" style="width:249px;height:458px;background:#FFFFFF;" version="1.1" viewBox="0 0 249 458" width="249px" zoomAndPan="magnify"><defs/><g><!--class AbstractStatisticalModel--><g class="entity" data-entity="AbstractStatisticalModel" data-source-line="4" data-uid="ent0002" id="entity_AbstractStatisticalModel"><rect fill="#F1F1F1" height="73.2617" rx="2.5" ry="2.5" style="stroke:#181818;stroke-width:0.5;" width="145.3799" x="62.5" y="7"/><ellipse cx="75.5" cy="21" fill="#A9DCDF" rx="9" ry="9" style="stroke:#181818;stroke-width:1;"/><path d="M76.6406,22.7344 L73.9688,22.7344 L73.7031,23.4063 L73.9688,23.4063 Q74.375,23.4063 74.5313,23.5625 Q74.7031,23.7031 74.7031,23.9531 Q74.7031,24.1875 74.5313,24.3438 Q74.375,24.5 73.9688,24.5 L72.4844,24.5 Q72.0938,24.5 71.9219,24.3438 Q71.75,24.1875 71.75,23.9531 Q71.75,23.7031 71.9375,23.5469 Q72.1094,23.3906 72.5156,23.4063 L74.25,19.0938 L73.5313,19.0938 Q73.125,19.0938 72.9531,18.9375 Q72.7969,18.7813 72.7969,18.5313 Q72.7969,18.2969 72.9531,18.1406 Q73.125,17.9844 73.5313,17.9844 L75.9063,17.9844 L78.0938,23.4063 Q78.4844,23.4063 78.6094,23.4844 Q78.8594,23.6563 78.8594,23.9531 Q78.8594,24.1875 78.6875,24.3438 Q78.5156,24.5 78.125,24.5 L76.6406,24.5 Q76.25,24.5 76.0781,24.3438 Q75.9063,24.1875 75.9063,23.9531 Q75.9063,23.7031 76.0781,23.5625 Q76.25,23.4063 76.6406,23.4063 L76.9063,23.4063 L76.6406,22.7344 Z M76.1875,21.625 L75.2969,19.4531 L74.4063,21.625 L76.1875,21.625 Z " fill="#000000"/><text fill="#000000" font-family="sans-serif" font-size="11" font-style="italic" lengthAdjust="spacing" textLength="117.3799" x="87.5" y="25.5547">AbstractStatisticalModel</text><line style="stroke:#181818;stroke-width:0.5;" x1="63.5" x2="206.8799" y1="35" y2="35"/><text fill="#000000" font-family="sans-serif" font-size="11" lengthAdjust="spacing" textLength="85.2876" x="68.5" y="50.8701">+parameters: dict</text><text fill="#000000" font-family="sans-serif" font-size="11" lengthAdjust="spacing" textLength="85.9106" x="68.5" y="65.501">+is_discrete: bool</text><line style="stroke:#181818;stroke-width:0.5;" x1="63.5" x2="206.8799" y1="72.2617" y2="72.2617"/></g><!--class Poisson--><g class="entity" data-entity="Poisson" data-source-line="9" data-uid="ent0003" id="entity_Poisson"><rect fill="#F1F1F1" height="161.0469" rx="2.5" ry="2.5" style="stroke:#181818;stroke-width:0.5;" width="181.0605" x="44.5" y="141"/><ellipse cx="111.7134" cy="155" fill="#ADD1B2" rx="9" ry="9" style="stroke:#181818;stroke-width:1;"/><path d="M113.2446,152.2656 Q113.3384,152.125 113.4634,152.0625 Q113.5884,151.9844 113.729,151.9844 Q113.9634,151.9844 114.1196,152.1563 Q114.2759,152.3281 114.2759,152.7188 L114.2759,153.6563 Q114.2759,154.0469 114.1196,154.2188 Q113.9634,154.3906 113.729,154.3906 Q113.5103,154.3906 113.3696,154.2656 Q113.229,154.1406 113.1665,153.8125 Q113.1353,153.5781 113.0259,153.4531 Q112.8071,153.2188 112.4009,153.0781 Q112.0103,152.9219 111.6196,152.9219 Q111.1196,152.9219 110.6978,153.1406 Q110.2915,153.3594 109.9634,153.8438 Q109.6509,154.3281 109.6509,154.9844 L109.6509,155.7031 Q109.6509,156.5 110.229,157.0313 Q110.8071,157.5625 111.8384,157.5625 Q112.4478,157.5625 112.8696,157.3906 Q113.1196,157.2969 113.4009,157.0156 Q113.5728,156.8438 113.6665,156.7969 Q113.7603,156.7344 113.8853,156.7344 Q114.104,156.7344 114.2759,156.9063 Q114.4478,157.0781 114.4478,157.2969 Q114.4478,157.5156 114.2134,157.7813 Q113.8853,158.1563 113.3696,158.375 Q112.6821,158.6563 111.8384,158.6563 Q110.8696,158.6563 110.0884,158.2656 Q109.4478,157.9375 108.9946,157.25 Q108.5571,156.5469 108.5571,155.7188 L108.5571,154.9688 Q108.5571,154.1094 108.9478,153.375 Q109.354,152.625 110.0571,152.2344 Q110.7759,151.8281 111.5728,151.8281 Q112.0415,151.8281 112.4634,151.9375 Q112.8853,152.0469 113.2446,152.2656 Z " fill="#000000"/><text fill="#000000" font-family="sans-serif" font-size="11" lengthAdjust="spacing" textLength="39.1338" x="129.2134" y="159.5547">Poisson</text><line style="stroke:#181818;stroke-width:0.5;" x1="45.5" x2="224.5605" y1="169" y2="169"/><text fill="#000000" font-family="sans-serif" font-size="11" lengthAdjust="spacing" textLength="169.0605" x="50.5" y="184.8701">+parameters: {lambda: Parameter}</text><text fill="#000000" font-family="sans-serif" font-size="11" lengthAdjust="spacing" textLength="121.0645" x="50.5" y="199.501">+is_discrete: bool = True</text><line style="stroke:#181818;stroke-width:1;" x1="45.5" x2="224.5605" y1="206.2617" y2="206.2617"/><text fill="#000000" font-family="sans-serif" font-size="11" lengthAdjust="spacing" textLength="131.146" x="50.5" y="222.1318">+__init__(parameters: dict)</text><text fill="#000000" font-family="sans-serif" font-size="11" lengthAdjust="spacing" textLength="60.8438" x="50.5" y="236.7627">+mini: int {0}</text><text fill="#000000" font-family="sans-serif" font-size="11" lengthAdjust="spacing" textLength="94.5313" x="50.5" y="251.3936">+maxi: int {&#955; + 5&#8730;&#955;}</text><text fill="#000000" font-family="sans-serif" font-size="11" lengthAdjust="spacing" textLength="107.7119" x="50.5" y="266.0244">+pdf(x): float | ndarray</text><text fill="#000000" font-family="sans-serif" font-size="11" lengthAdjust="spacing" textLength="112.8198" x="50.5" y="280.6553">+expectation(): float {&#955;}</text><text fill="#000000" font-family="sans-serif" font-size="11" lengthAdjust="spacing" textLength="98.1353" x="50.5" y="295.2861">+variance(): float {&#955;}</text></g><!--class Parameter--><g class="entity" data-entity="Parameter" data-source-line="21" data-uid="ent0004" id="entity_Parameter"><rect fill="#F1F1F1" height="73.2617" rx="2.5" ry="2.5" style="stroke:#181818;stroke-width:0.5;" width="122.3813" x="7" y="378"/><ellipse cx="39.3627" cy="392" fill="#ADD1B2" rx="9" ry="9" style="stroke:#181818;stroke-width:1;"/><path d="M40.894,389.2656 Q40.9877,389.125 41.1127,389.0625 Q41.2377,388.9844 41.3784,388.9844 Q41.6127,388.9844 41.769,389.1563 Q41.9252,389.3281 41.9252,389.7188 L41.9252,390.6563 Q41.9252,391.0469 41.769,391.2188 Q41.6127,391.3906 41.3784,391.3906 Q41.1596,391.3906 41.019,391.2656 Q40.8784,391.1406 40.8159,390.8125 Q40.7846,390.5781 40.6752,390.4531 Q40.4565,390.2188 40.0502,390.0781 Q39.6596,389.9219 39.269,389.9219 Q38.769,389.9219 38.3471,390.1406 Q37.9409,390.3594 37.6127,390.8438 Q37.3002,391.3281 37.3002,391.9844 L37.3002,392.7031 Q37.3002,393.5 37.8784,394.0313 Q38.4565,394.5625 39.4877,394.5625 Q40.0971,394.5625 40.519,394.3906 Q40.769,394.2969 41.0502,394.0156 Q41.2221,393.8438 41.3159,393.7969 Q41.4096,393.7344 41.5346,393.7344 Q41.7534,393.7344 41.9252,393.9063 Q42.0971,394.0781 42.0971,394.2969 Q42.0971,394.5156 41.8627,394.7813 Q41.5346,395.1563 41.019,395.375 Q40.3315,395.6563 39.4877,395.6563 Q38.519,395.6563 37.7377,395.2656 Q37.0971,394.9375 36.644,394.25 Q36.2065,393.5469 36.2065,392.7188 L36.2065,391.9688 Q36.2065,391.1094 36.5971,390.375 Q37.0034,389.625 37.7065,389.2344 Q38.4252,388.8281 39.2221,388.8281 Q39.6909,388.8281 40.1127,388.9375 Q40.5346,389.0469 40.894,389.2656 Z " fill="#000000"/><text fill="#000000" font-family="sans-serif" font-size="11" lengthAdjust="spacing" textLength="51.353" x="55.6656" y="396.5547">Parameter</text><line style="stroke:#181818;stroke-width:0.5;" x1="8" x2="128.3813" y1="406" y2="406"/><text fill="#000000" font-family="sans-serif" font-size="11" lengthAdjust="spacing" textLength="62.9814" x="13" y="421.8701">-_value: float</text><line style="stroke:#181818;stroke-width:1;" x1="8" x2="128.3813" y1="428.6309" y2="428.6309"/><text fill="#000000" font-family="sans-serif" font-size="11" lengthAdjust="spacing" textLength="110.3813" x="13" y="444.501">+value: float {property}</text></g><g class="entity" data-entity="factorial" data-source-line="27" data-uid="ent0005" id="entity_factorial"><rect fill="#F1F1F1" height="41.2617" rx="2.5" ry="2.5" style="stroke:#181818;stroke-width:0.5;" width="78.0269" x="164" y="394"/><text fill="#000000" font-family="sans-serif" font-size="11" lengthAdjust="spacing" textLength="38.5161" x="183.7554" y="407.8701">factorial</text><line style="stroke:#181818;stroke-width:0.5;" x1="165" x2="241.0269" y1="412.6309" y2="412.6309"/><text fill="#000000" font-family="sans-serif" font-size="11" lengthAdjust="spacing" textLength="66.0269" x="170" y="428.501">math.factorial</text></g><!--reverse link AbstractStatisticalModel to Poisson--><g class="link" data-entity-1="AbstractStatisticalModel" data-entity-2="Poisson" data-source-line="31" data-uid="lnk6" id="link_AbstractStatisticalModel_Poisson"><path codeLine="31" d="M135,98.12 C135,115.69 135,119.66 135,140.95" fill="none" id="AbstractStatisticalModel-backto-Poisson" style="stroke:#181818;stroke-width:1;"/><polygon fill="none" points="135,80.12,129,98.12,141,98.12,135,80.12" style="stroke:#181818;stroke-width:1;"/></g><!--reverse link Poisson to Parameter--><g class="link" data-entity-1="Poisson" data-entity-2="Parameter" data-source-line="32" data-uid="lnk7" id="link_Poisson_Parameter"><path codeLine="32" d="M103.0995,313.4441 C93.8395,339.8541 87.96,356.6 80.47,377.96" fill="none" id="Poisson-backto-Parameter" style="stroke:#181818;stroke-width:1;"/><polygon fill="#181818" points="107.07,302.12,101.31,306.4585,103.0995,313.4441,108.8594,309.1055,107.07,302.12" style="stroke:#181818;stroke-width:1;"/><text fill="#000000" font-family="sans-serif" font-size="11" lengthAdjust="spacing" textLength="36.0776" x="97" y="344.8701">lambda</text></g><!--link Poisson to factorial--><g class="link" data-entity-1="Poisson" data-entity-2="factorial" data-source-line="33" data-uid="lnk8" id="link_Poisson_factorial"><path codeLine="33" d="M163.35,302.12 C175.3,335.69 186.1968,366.3078 193.9368,388.0378" fill="none" id="Poisson-to-factorial" style="stroke:#181818;stroke-width:1;stroke-dasharray:7,7;"/><polygon fill="#181818" points="195.95,393.69,196.6982,383.8696,194.2723,388.9799,189.162,386.5539,195.95,393.69" style="stroke:#181818;stroke-width:1;"/><text fill="#000000" font-family="sans-serif" font-size="11" lengthAdjust="spacing" textLength="22.6177" x="180" y="344.8701">pdf()</text></g><!--SRC=[TL5BRi8m4Dtx5BE4La6mwCPgAtLJgOjAI7GVJMn7TUlOaJr1qC2-P-XLk0E7w4bg718GeijvxysRpmkVsjReiG9XC8Gd8g-BXjIBS7QXlnHCMHWaKfNO67fsbX8tcp66HI2FWhf-U3gM2qBIWRH0y-gaCj0oW5j8FegK3noa5fH07NAfW_0Hvr0uPzYMiSvkxdG8pbxfRWrMXKGEynxSNZU31tZpZOfabYL5dckhASz7bykC4rr5beEs1EsqiwnmrIFxNQplVhz_zhkEgsKvMeqvbCOXmGQiHEzndJYrgfKu_C7PqI1f-yubUerMg0lgT7g_NJe-Wto9fb57xUcQSnJQshjQULed7rTynFbGnZXSdDLbK26zJmRe8FitiljDblK9i3w9cmCshCQXYs6W9vF7iu4y_MVC_W00]--></g></svg>