<svg xmlns="http://www.w3.org/2000/svg" xmlns:xlink="http://www.w3.org/1999/xlink" contentStyleType="text/css" data-diagram-type="CLASS" height="356px" preserveAspectRatio="none" style="width:325px;height:356px;background:#FFFFFF;" version="1.1" viewBox="0 0 325 356" width="325px" zoomAndPan="magnify"><defs/><g><!--class TwoLabels--><g class="entity" data-entity="TwoLabels" data-source-line="4" data-uid="ent0002" id="entity_TwoLabels"><rect fill="#F1F1F1" height="58.6309" rx="2.5" ry="2.5" style="stroke:#181818;stroke-width:0.5;" width="311.2451" x="7" y="291"/><ellipse cx="132.2749" cy="305" fill="#ADD1B2" rx="9" ry="9" style="stroke:#181818;stroke-width:1;"/><path d="M133.8062,302.2656 Q133.8999,302.125 134.0249,302.0625 Q134.1499,301.9844 134.2905,301.9844 Q134.5249,301.9844 134.6812,302.1563 Q134.8374,302.3281 134.8374,302.7188 L134.8374,303.6563 Q134.8374,304.0469 134.6812,304.2188 Q134.5249,304.3906 134.2905,304.3906 Q134.0718,304.3906 133.9312,304.2656 Q133.7905,304.1406 133.728,303.8125 Q133.6968,303.5781 133.5874,303.4531 Q133.3687,303.2188 132.9624,303.0781 Q132.5718,302.9219 132.1812,302.9219 Q131.6812,302.9219 131.2593,303.1406 Q130.853,303.3594 130.5249,303.8438 Q130.2124,304.3281 130.2124,304.9844 L130.2124,305.7031 Q130.2124,306.5 130.7905,307.0313 Q131.3687,307.5625 132.3999,307.5625 Q133.0093,307.5625 133.4312,307.3906 Q133.6812,307.2969 133.9624,307.0156 Q134.1343,306.8438 134.228,306.7969 Q134.3218,306.7344 134.4468,306.7344 Q134.6655,306.7344 134.8374,306.9063 Q135.0093,307.0781 135.0093,307.2969 Q135.0093,307.5156 134.7749,307.7813 Q134.4468,308.1563 133.9312,308.375 Q133.2437,308.6563 132.3999,308.6563 Q131.4312,308.6563 130.6499,308.2656 Q130.0093,307.9375 129.5562,307.25 Q129.1187,306.5469 129.1187,305.7188 L129.1187,304.9688 Q129.1187,304.1094 129.5093,303.375 Q129.9155,302.625 130.6187,302.2344 Q131.3374,301.8281 132.1343,301.8281 Q132.603,301.8281 133.0249,301.9375 Q133.4468,302.0469 133.8062,302.2656 Z " fill="#000000"/><text fill="#000000" font-family="sans-serif" font-size="11" lengthAdjust="spacing" textLength="53.1953" x="149.7749" y="309.5547">TwoLabels</text><line style="stroke:#181818;stroke-width:0.5;" x1="8" x2="317.2451" y1="319" y2="319"/><line style="stroke:#181818;stroke-width:1;" x1="8" x2="317.2451" y1="327" y2="327"/><text fill="#000000" font-family="sans-serif" font-size="11" lengthAdjust="spacing" textLength="299.2451" x="13" y="342.8701">+__init__(master: tk.Widget, names: list[str], values: list[float])</text></g><!--class View--><g class="entity" data-entity="View" data-source-line="9" data-uid="ent0003" id="entity_View"><rect fill="#F1F1F1" height="73.2617" rx="2.5" ry="2.5" style="stroke:#181818;stroke-width:0.5;" width="268.4966" x="28.5" y="142"/><ellipse cx="147.0771" cy="156" fill="#ADD1B2" rx="9" ry="9" style="stroke:#181818;stroke-width:1;"/><path d="M148.6084,153.2656 Q148.7021,153.125 148.8271,153.0625 Q148.9521,152.9844 149.0928,152.9844 Q149.3271,152.9844 149.4834,153.1563 Q149.6396,153.3281 149.6396,153.7188 L149.6396,154.6563 Q149.6396,155.0469 149.4834,155.2188 Q149.3271,155.3906 149.0928,155.3906 Q148.874,155.3906 148.7334,155.2656 Q148.5928,155.1406 148.5303,154.8125 Q148.499,154.5781 148.3896,154.4531 Q148.1709,154.2188 147.7646,154.0781 Q147.374,153.9219 146.9834,153.9219 Q146.4834,153.9219 146.0615,154.1406 Q145.6553,154.3594 145.3271,154.8438 Q145.0146,155.3281 145.0146,155.9844 L145.0146,156.7031 Q145.0146,157.5 145.5928,158.0313 Q146.1709,158.5625 147.2021,158.5625 Q147.8115,158.5625 148.2334,158.3906 Q148.4834,158.2969 148.7646,158.0156 Q148.9365,157.8438 149.0303,157.7969 Q149.124,157.7344 149.249,157.7344 Q149.4678,157.7344 149.6396,157.9063 Q149.8115,158.0781 149.8115,158.2969 Q149.8115,158.5156 149.5771,158.7813 Q149.249,159.1563 148.7334,159.375 Q148.0459,159.6563 147.2021,159.6563 Q146.2334,159.6563 145.4521,159.2656 Q144.8115,158.9375 144.3584,158.25 Q143.9209,157.5469 143.9209,156.7188 L143.9209,155.9688 Q143.9209,155.1094 144.3115,154.375 Q144.7178,153.625 145.4209,153.2344 Q146.1396,152.8281 146.9365,152.8281 Q147.4053,152.8281 147.8271,152.9375 Q148.249,153.0469 148.6084,153.2656 Z " fill="#000000"/><text fill="#000000" font-family="sans-serif" font-size="11" lengthAdjust="spacing" textLength="23.8423" x="164.5771" y="160.5547">View</text><line style="stroke:#181818;stroke-width:0.5;" x1="29.5" x2="295.9966" y1="170" y2="170"/><text fill="#000000" font-family="sans-serif" font-size="11" lengthAdjust="spacing" textLength="107.916" x="34.5" y="185.8701">+e_and_var: tk.Frame</text><line style="stroke:#181818;stroke-width:1;" x1="29.5" x2="295.9966" y1="192.6309" y2="192.6309"/><text fill="#000000" font-family="sans-serif" font-size="11" lengthAdjust="spacing" textLength="256.4966" x="34.5" y="208.501">+update_e_and_var(labels: list[str], values: list[float])</text></g><!--class Controller--><g class="entity" data-entity="Controller" data-source-line="15" data-uid="ent0004" id="entity_Controller"><rect fill="#F1F1F1" height="58.6309" rx="2.5" ry="2.5" style="stroke:#181818;stroke-width:0.5;" width="75.6846" x="124.5" y="7"/><ellipse cx="137.5" cy="21" fill="#ADD1B2" rx="9" ry="9" style="stroke:#181818;stroke-width:1;"/><path d="M139.0313,18.2656 Q139.125,18.125 139.25,18.0625 Q139.375,17.9844 139.5156,17.9844 Q139.75,17.9844 139.9063,18.1563 Q140.0625,18.3281 140.0625,18.7188 L140.0625,19.6563 Q140.0625,20.0469 139.9063,20.2188 Q139.75,20.3906 139.5156,20.3906 Q139.2969,20.3906 139.1563,20.2656 Q139.0156,20.1406 138.9531,19.8125 Q138.9219,19.5781 138.8125,19.4531 Q138.5938,19.2188 138.1875,19.0781 Q137.7969,18.9219 137.4063,18.9219 Q136.9063,18.9219 136.4844,19.1406 Q136.0781,19.3594 135.75,19.8438 Q135.4375,20.3281 135.4375,20.9844 L135.4375,21.7031 Q135.4375,22.5 136.0156,23.0313 Q136.5938,23.5625 137.625,23.5625 Q138.2344,23.5625 138.6563,23.3906 Q138.9063,23.2969 139.1875,23.0156 Q139.3594,22.8438 139.4531,22.7969 Q139.5469,22.7344 139.6719,22.7344 Q139.8906,22.7344 140.0625,22.9063 Q140.2344,23.0781 140.2344,23.2969 Q140.2344,23.5156 140,23.7813 Q139.6719,24.1563 139.1563,24.375 Q138.4688,24.6563 137.625,24.6563 Q136.6563,24.6563 135.875,24.2656 Q135.2344,23.9375 134.7813,23.25 Q134.3438,22.5469 134.3438,21.7188 L134.3438,20.9688 Q134.3438,20.1094 134.7344,19.375 Q135.1406,18.625 135.8438,18.2344 Q136.5625,17.8281 137.3594,17.8281 Q137.8281,17.8281 138.25,17.9375 Q138.6719,18.0469 139.0313,18.2656 Z " fill="#000000"/><text fill="#000000" font-family="sans-serif" font-size="11" lengthAdjust="spacing" textLength="47.6846" x="149.5" y="25.5547">Controller</text><line style="stroke:#181818;stroke-width:0.5;" x1="125.5" x2="199.1846" y1="35" y2="35"/><line style="stroke:#181818;stroke-width:1;" x1="125.5" x2="199.1846" y1="43" y2="43"/><text fill="#000000" font-family="sans-serif" font-size="11" lengthAdjust="spacing" textLength="47.9854" x="130.5" y="58.8701">+refresh()</text></g><!--reverse link View to TwoLabels--><g class="link" data-entity-1="View" data-entity-2="TwoLabels" data-source-line="20" data-uid="lnk5" id="link_View_TwoLabels"><path codeLine="20" d="M162.5,227.19 C162.5,250.68 162.5,269.03 162.5,290.92" fill="none" id="View-backto-TwoLabels" style="stroke:#181818;stroke-width:1;"/><polygon fill="#181818" points="162.5,215.19,158.5,221.19,162.5,227.19,166.5,221.19,162.5,215.19" style="stroke:#181818;stroke-width:1;"/><text fill="#000000" font-family="sans-serif" font-size="11" lengthAdjust="spacing" textLength="51.9868" x="163.5" y="257.8701">e_and_var</text></g><!--link Controller to View--><g class="link" data-entity-1="Controller" data-entity-2="View" data-source-line="21" data-uid="lnk6" id="link_Controller_View"><path codeLine="21" d="M162.5,66.17 C162.5,88.09 162.5,112.43 162.5,135.9" fill="none" id="Controller-to-View" style="stroke:#181818;stroke-width:1;"/><polygon fill="#181818" points="162.5,141.9,166.5,132.9,162.5,136.9,158.5,132.9,162.5,141.9" style="stroke:#181818;stroke-width:1;"/><text fill="#000000" font-family="sans-serif" font-size="11" lengthAdjust="spacing" textLength="124.1367" x="163.5" y="108.8701">calls update_e_and_var()</text></g><!--SRC=[bOy_QyD03CNt-nGQdJyNcjL3eHGCXMu9wL32eTXoUqI-2oSvWOP-zveBTGoTkcYGdjxxFJdwSCA47TIC8a-goHzwfPSwXet_8dWmCaeQQh5dhMBGV5klZSbliBt4LpmG2rmDWBN3M81pFdXrhkXGb589Uboz-UQ3T0a1Ev8Is8k-YwRz4ix8_RXgEQBkP-RxDs3dwPAz5q0EG-FEU3Ei1Z2wP_Qd1fNSg2auO_qZwNbebo8pfMcNH6qY-IooCCFChPtKBkzOPk9WxUCDlOGQUT3zuPkP7m00]--></g></svg>