<svg xmlns="http://www.w3.org/2000/svg" xmlns:xlink="http://www.w3.org/1999/xlink" contentStyleType="text/css" data-diagram-type="CLASS" height="359.8px" preserveAspectRatio="none" style="width:1686px;height:359px;background:#FFFFFF;" version="1.1" viewBox="0 0 1686 359" width="1687px" zoomAndPan="magnify"><defs/><g><!--class View--><g class="entity" data-entity="View" data-source-line="4" data-uid="ent0002" id="entity_View"><rect fill="#F1F1F1" height="225.3904" rx="1.75" ry="1.75" style="stroke:#181818;stroke-width:0.35;" width="187.9476" x="784.7" y="4.9"/><ellipse cx="867.704" cy="14.7" fill="#ADD1B2" rx="6.3" ry="6.3" style="stroke:#181818;stroke-width:0.7;"/><path d="M868.7759,12.7859 Q868.8415,12.6875 868.929,12.6437 Q869.0165,12.5891 869.1149,12.5891 Q869.279,12.5891 869.3884,12.7094 Q869.4978,12.8297 869.4978,13.1031 L869.4978,13.7594 Q869.4978,14.0328 869.3884,14.1531 Q869.279,14.2734 869.1149,14.2734 Q868.9618,14.2734 868.8634,14.1859 Q868.7649,14.0984 868.7212,13.8687 Q868.6993,13.7047 868.6228,13.6172 Q868.4696,13.4531 868.1853,13.3547 Q867.9118,13.2453 867.6384,13.2453 Q867.2884,13.2453 866.9931,13.3984 Q866.7087,13.5516 866.479,13.8906 Q866.2603,14.2297 866.2603,14.6891 L866.2603,15.1922 Q866.2603,15.75 866.6649,16.1219 Q867.0696,16.4937 867.7915,16.4937 Q868.2181,16.4937 868.5134,16.3734 Q868.6884,16.3078 868.8853,16.1109 Q869.0056,15.9906 869.0712,15.9578 Q869.1368,15.9141 869.2243,15.9141 Q869.3774,15.9141 869.4978,16.0344 Q869.6181,16.1547 869.6181,16.3078 Q869.6181,16.4609 869.454,16.6469 Q869.2243,16.9094 868.8634,17.0625 Q868.3821,17.2594 867.7915,17.2594 Q867.1134,17.2594 866.5665,16.9859 Q866.1181,16.7562 865.8009,16.275 Q865.4946,15.7828 865.4946,15.2031 L865.4946,14.6781 Q865.4946,14.0766 865.7681,13.5625 Q866.0524,13.0375 866.5446,12.7641 Q867.0478,12.4797 867.6056,12.4797 Q867.9337,12.4797 868.229,12.5562 Q868.5243,12.6328 868.7759,12.7859 Z " fill="#000000"/><text fill="#000000" font-family="sans-serif" font-size="7.7" lengthAdjust="spacing" textLength="16.6896" x="879.954" y="17.8883">View</text><line style="stroke:#181818;stroke-width:0.35;" x1="785.4" x2="971.9476" y1="24.5" y2="24.5"/><text fill="#000000" font-family="sans-serif" font-size="7.7" lengthAdjust="spacing" textLength="73.823" x="788.9" y="35.6091">+controller: Controller</text><text fill="#000000" font-family="sans-serif" font-size="7.7" lengthAdjust="spacing" textLength="58.8441" x="788.9" y="45.8507">+graph: tk.Frame</text><text fill="#000000" font-family="sans-serif" font-size="7.7" lengthAdjust="spacing" textLength="103.7846" x="788.9" y="56.0923">+combobox: ComboboxFrame</text><text fill="#000000" font-family="sans-serif" font-size="7.7" lengthAdjust="spacing" textLength="65.6869" x="788.9" y="66.3339">+settings: tk.Frame</text><text fill="#000000" font-family="sans-serif" font-size="7.7" lengthAdjust="spacing" textLength="82.3802" x="788.9" y="76.5755">+dice_or_calc: tk.Frame</text><text fill="#000000" font-family="sans-serif" font-size="7.7" lengthAdjust="spacing" textLength="75.5412" x="788.9" y="86.8171">+e_and_var: tk.Frame</text><line style="stroke:#181818;stroke-width:0.7;" x1="785.4" x2="971.9476" y1="91.5496" y2="91.5496"/><text fill="#000000" font-family="sans-serif" font-size="7.7" lengthAdjust="spacing" textLength="154.6956" x="788.9" y="102.6587">+__init__(master: tk.Tk, controller: Controller)</text><text fill="#000000" font-family="sans-serif" font-size="7.7" lengthAdjust="spacing" textLength="75.1201" x="788.9" y="112.9003">+set_up_blank_view()</text><text fill="#000000" font-family="sans-serif" font-size="7.7" lengthAdjust="spacing" textLength="47.2941" x="788.9" y="123.1419">+grid_config()</text><text fill="#000000" font-family="sans-serif" font-size="7.7" lengthAdjust="spacing" textLength="58.423" x="788.9" y="133.3835">+place_widgets()</text><text fill="#000000" font-family="sans-serif" font-size="7.7" lengthAdjust="spacing" textLength="84.0984" x="788.9" y="143.6251">+set_definition(latex: str)</text><text fill="#000000" font-family="sans-serif" font-size="7.7" lengthAdjust="spacing" textLength="100.3594" x="788.9" y="153.8667">+set_options(options: list[str])</text><text fill="#000000" font-family="sans-serif" font-size="7.7" lengthAdjust="spacing" textLength="139.7242" x="788.9" y="164.1083">+set_settings(mode: str, *args, **kwargs)</text><text fill="#000000" font-family="sans-serif" font-size="7.7" lengthAdjust="spacing" textLength="132.8814" x="788.9" y="174.3499">+set_graph(mode: str, *args, **kwargs)</text><text fill="#000000" font-family="sans-serif" font-size="7.7" lengthAdjust="spacing" textLength="179.5476" x="788.9" y="184.5915">+update_e_and_var(labels: list[str], values: list[float])</text><text fill="#000000" font-family="sans-serif" font-size="7.7" lengthAdjust="spacing" textLength="109.7889" x="788.9" y="194.8331">+update_graph(*args, **kwargs)</text><text fill="#000000" font-family="sans-serif" font-size="7.7" lengthAdjust="spacing" textLength="135.0357" x="788.9" y="205.0747">+update_dice_or_calc(mode: str, *args)</text><text fill="#000000" font-family="sans-serif" font-size="7.7" lengthAdjust="spacing" textLength="51.5652" x="788.9" y="215.3163">+refresh_calc()</text><text fill="#000000" font-family="sans-serif" font-size="7.7" lengthAdjust="spacing" textLength="99.0623" x="788.9" y="225.5579">+create_menu(master: tk.Tk)</text></g><!--class Controller--><g class="entity" data-entity="Controller" data-source-line="27" data-uid="ent0003" id="entity_Controller"><rect fill="#F1F1F1" height="71.7664" rx="1.75" ry="1.75" style="stroke:#181818;stroke-width:0.35;" width="113.4667" x="4.9" y="283.5"/><ellipse cx="42.3187" cy="293.3" fill="#ADD1B2" rx="6.3" ry="6.3" style="stroke:#181818;stroke-width:0.7;"/><path d="M43.3906,291.3859 Q43.4562,291.2875 43.5437,291.2437 Q43.6312,291.1891 43.7297,291.1891 Q43.8937,291.1891 44.0031,291.3094 Q44.1125,291.4297 44.1125,291.7031 L44.1125,292.3594 Q44.1125,292.6328 44.0031,292.7531 Q43.8937,292.8734 43.7297,292.8734 Q43.5765,292.8734 43.4781,292.7859 Q43.3797,292.6984 43.3359,292.4687 Q43.314,292.3047 43.2375,292.2172 Q43.0844,292.0531 42.8,291.9547 Q42.5265,291.8453 42.2531,291.8453 Q41.9031,291.8453 41.6078,291.9984 Q41.3234,292.1516 41.0937,292.4906 Q40.875,292.8297 40.875,293.2891 L40.875,293.7922 Q40.875,294.35 41.2797,294.7219 Q41.6844,295.0937 42.4062,295.0937 Q42.8328,295.0937 43.1281,294.9734 Q43.3031,294.9078 43.5,294.7109 Q43.6203,294.5906 43.6859,294.5578 Q43.7515,294.5141 43.839,294.5141 Q43.9922,294.5141 44.1125,294.6344 Q44.2328,294.7547 44.2328,294.9078 Q44.2328,295.0609 44.0687,295.2469 Q43.839,295.5094 43.4781,295.6625 Q42.9969,295.8594 42.4062,295.8594 Q41.7281,295.8594 41.1812,295.5859 Q40.7328,295.3562 40.4156,294.875 Q40.1094,294.3828 40.1094,293.8031 L40.1094,293.2781 Q40.1094,292.6766 40.3828,292.1625 Q40.6672,291.6375 41.1594,291.3641 Q41.6625,291.0797 42.2203,291.0797 Q42.5484,291.0797 42.8437,291.1562 Q43.139,291.2328 43.3906,291.3859 Z " fill="#000000"/><text fill="#000000" font-family="sans-serif" font-size="7.7" lengthAdjust="spacing" textLength="33.3792" x="54.5687" y="296.4883">Controller</text><line style="stroke:#181818;stroke-width:0.35;" x1="5.6" x2="117.6667" y1="303.1" y2="303.1"/><text fill="#000000" font-family="sans-serif" font-size="7.7" lengthAdjust="spacing" textLength="36.59" x="9.1" y="314.2091">+mode: str</text><line style="stroke:#181818;stroke-width:0.35;" x1="5.6" x2="117.6667" y1="318.9416" y2="318.9416"/><text fill="#000000" font-family="sans-serif" font-size="7.7" lengthAdjust="spacing" textLength="105.0667" x="9.1" y="330.0507">+set_distribution(dist_type: str)</text><text fill="#000000" font-family="sans-serif" font-size="7.7" lengthAdjust="spacing" textLength="75.5337" x="9.1" y="340.2923">+set_mode(mode: str)</text><text fill="#000000" font-family="sans-serif" font-size="7.7" lengthAdjust="spacing" textLength="93.073" x="9.1" y="350.5339">+initialise_view(view: View)</text></g><!--class ComboboxFrame--><g class="entity" data-entity="ComboboxFrame" data-source-line="34" data-uid="ent0004" id="entity_ComboboxFrame"><rect fill="#F1F1F1" height="51.2832" rx="1.75" ry="1.75" style="stroke:#181818;stroke-width:0.35;" width="108.7594" x="143.15" y="294"/><ellipse cx="165.6043" cy="303.8" fill="#ADD1B2" rx="6.3" ry="6.3" style="stroke:#181818;stroke-width:0.7;"/><path d="M166.6762,301.8859 Q166.7418,301.7875 166.8293,301.7437 Q166.9168,301.6891 167.0152,301.6891 Q167.1793,301.6891 167.2887,301.8094 Q167.398,301.9297 167.398,302.2031 L167.398,302.8594 Q167.398,303.1328 167.2887,303.2531 Q167.1793,303.3734 167.0152,303.3734 Q166.8621,303.3734 166.7637,303.2859 Q166.6652,303.1984 166.6215,302.9687 Q166.5996,302.8047 166.523,302.7172 Q166.3699,302.5531 166.0855,302.4547 Q165.8121,302.3453 165.5387,302.3453 Q165.1887,302.3453 164.8933,302.4984 Q164.609,302.6516 164.3793,302.9906 Q164.1605,303.3297 164.1605,303.7891 L164.1605,304.2922 Q164.1605,304.85 164.5652,305.2219 Q164.9699,305.5937 165.6918,305.5937 Q166.1183,305.5937 166.4137,305.4734 Q166.5887,305.4078 166.7855,305.2109 Q166.9058,305.0906 166.9715,305.0578 Q167.0371,305.0141 167.1246,305.0141 Q167.2777,305.0141 167.398,305.1344 Q167.5183,305.2547 167.5183,305.4078 Q167.5183,305.5609 167.3543,305.7469 Q167.1246,306.0094 166.7637,306.1625 Q166.2824,306.3594 165.6918,306.3594 Q165.0137,306.3594 164.4668,306.0859 Q164.0183,305.8562 163.7012,305.375 Q163.3949,304.8828 163.3949,304.3031 L163.3949,303.7781 Q163.3949,303.1766 163.6683,302.6625 Q163.9527,302.1375 164.4449,301.8641 Q164.948,301.5797 165.5058,301.5797 Q165.834,301.5797 166.1293,301.6562 Q166.4246,301.7328 166.6762,301.8859 Z " fill="#000000"/><text fill="#000000" font-family="sans-serif" font-size="7.7" lengthAdjust="spacing" textLength="59.4833" x="176.9719" y="306.9883">ComboboxFrame</text><line style="stroke:#181818;stroke-width:0.35;" x1="143.85" x2="251.2094" y1="313.6" y2="313.6"/><line style="stroke:#181818;stroke-width:0.35;" x1="143.85" x2="251.2094" y1="319.2" y2="319.2"/><text fill="#000000" font-family="sans-serif" font-size="7.7" lengthAdjust="spacing" textLength="84.0984" x="147.35" y="330.3091">+set_definition(latex: str)</text><text fill="#000000" font-family="sans-serif" font-size="7.7" lengthAdjust="spacing" textLength="100.3594" x="147.35" y="340.5507">+set_options(options: list[str])</text></g><!--class TwoLabels--><g class="entity" data-entity="TwoLabels" data-source-line="39" data-uid="ent0005" id="entity_TwoLabels"><rect fill="#F1F1F1" height="41.0416" rx="1.75" ry="1.75" style="stroke:#181818;stroke-width:0.35;" width="181.4996" x="276.15" y="298.9"/><ellipse cx="345.6564" cy="308.7" fill="#ADD1B2" rx="6.3" ry="6.3" style="stroke:#181818;stroke-width:0.7;"/><path d="M346.7283,306.7859 Q346.7939,306.6875 346.8814,306.6437 Q346.9689,306.5891 347.0674,306.5891 Q347.2314,306.5891 347.3408,306.7094 Q347.4502,306.8297 347.4502,307.1031 L347.4502,307.7594 Q347.4502,308.0328 347.3408,308.1531 Q347.2314,308.2734 347.0674,308.2734 Q346.9143,308.2734 346.8158,308.1859 Q346.7174,308.0984 346.6736,307.8687 Q346.6518,307.7047 346.5752,307.6172 Q346.4221,307.4531 346.1377,307.3547 Q345.8643,307.2453 345.5908,307.2453 Q345.2408,307.2453 344.9455,307.3984 Q344.6611,307.5516 344.4314,307.8906 Q344.2127,308.2297 344.2127,308.6891 L344.2127,309.1922 Q344.2127,309.75 344.6174,310.1219 Q345.0221,310.4937 345.7439,310.4937 Q346.1705,310.4937 346.4658,310.3734 Q346.6408,310.3078 346.8377,310.1109 Q346.958,309.9906 347.0236,309.9578 Q347.0893,309.9141 347.1768,309.9141 Q347.3299,309.9141 347.4502,310.0344 Q347.5705,310.1547 347.5705,310.3078 Q347.5705,310.4609 347.4064,310.6469 Q347.1768,310.9094 346.8158,311.0625 Q346.3346,311.2594 345.7439,311.2594 Q345.0658,311.2594 344.5189,310.9859 Q344.0705,310.7562 343.7533,310.275 Q343.4471,309.7828 343.4471,309.2031 L343.4471,308.6781 Q343.4471,308.0766 343.7205,307.5625 Q344.0049,307.0375 344.4971,306.7641 Q345.0002,306.4797 345.558,306.4797 Q345.8861,306.4797 346.1814,306.5562 Q346.4768,306.6328 346.7283,306.7859 Z " fill="#000000"/><text fill="#000000" font-family="sans-serif" font-size="7.7" lengthAdjust="spacing" textLength="37.2367" x="357.9064" y="311.8883">TwoLabels</text><line style="stroke:#181818;stroke-width:0.35;" x1="276.85" x2="456.9496" y1="318.5" y2="318.5"/><line style="stroke:#181818;stroke-width:0.35;" x1="276.85" x2="456.9496" y1="324.1" y2="324.1"/><text fill="#000000" font-family="sans-serif" font-size="7.7" lengthAdjust="spacing" textLength="173.0996" x="280.35" y="335.2091">+__init__(master, names: list[str], values: list[float])</text></g><!--class ModeMenu--><g class="entity" data-entity="ModeMenu" data-source-line="43" data-uid="ent0006" id="entity_ModeMenu"><rect fill="#F1F1F1" height="51.2832" rx="1.75" ry="1.75" style="stroke:#181818;stroke-width:0.35;" width="113.9028" x="481.95" y="294"/><ellipse cx="517.0151" cy="303.8" fill="#ADD1B2" rx="6.3" ry="6.3" style="stroke:#181818;stroke-width:0.7;"/><path d="M518.087,301.8859 Q518.1526,301.7875 518.2401,301.7437 Q518.3276,301.6891 518.426,301.6891 Q518.5901,301.6891 518.6995,301.8094 Q518.8089,301.9297 518.8089,302.2031 L518.8089,302.8594 Q518.8089,303.1328 518.6995,303.2531 Q518.5901,303.3734 518.426,303.3734 Q518.2729,303.3734 518.1745,303.2859 Q518.076,303.1984 518.0323,302.9687 Q518.0104,302.8047 517.9339,302.7172 Q517.7807,302.5531 517.4964,302.4547 Q517.2229,302.3453 516.9495,302.3453 Q516.5995,302.3453 516.3042,302.4984 Q516.0198,302.6516 515.7901,302.9906 Q515.5714,303.3297 515.5714,303.7891 L515.5714,304.2922 Q515.5714,304.85 515.976,305.2219 Q516.3807,305.5937 517.1026,305.5937 Q517.5292,305.5937 517.8245,305.4734 Q517.9995,305.4078 518.1964,305.2109 Q518.3167,305.0906 518.3823,305.0578 Q518.4479,305.0141 518.5354,305.0141 Q518.6885,305.0141 518.8089,305.1344 Q518.9292,305.2547 518.9292,305.4078 Q518.9292,305.5609 518.7651,305.7469 Q518.5354,306.0094 518.1745,306.1625 Q517.6932,306.3594 517.1026,306.3594 Q516.4245,306.3594 515.8776,306.0859 Q515.4292,305.8562 515.112,305.375 Q514.8057,304.8828 514.8057,304.3031 L514.8057,303.7781 Q514.8057,303.1766 515.0792,302.6625 Q515.3635,302.1375 515.8557,301.8641 Q516.3589,301.5797 516.9167,301.5797 Q517.2448,301.5797 517.5401,301.6562 Q517.8354,301.7328 518.087,301.8859 Z " fill="#000000"/><text fill="#000000" font-family="sans-serif" font-size="7.7" lengthAdjust="spacing" textLength="38.5226" x="529.2651" y="306.9883">ModeMenu</text><line style="stroke:#181818;stroke-width:0.35;" x1="482.65" x2="595.1528" y1="313.6" y2="313.6"/><text fill="#000000" font-family="sans-serif" font-size="7.7" lengthAdjust="spacing" textLength="66.5554" x="486.15" y="324.7091">+menubar: tk.Menu</text><line style="stroke:#181818;stroke-width:0.35;" x1="482.65" x2="595.1528" y1="329.4416" y2="329.4416"/><text fill="#000000" font-family="sans-serif" font-size="7.7" lengthAdjust="spacing" textLength="105.5028" x="486.15" y="340.5507">+__init__(root, mode, callback)</text></g><!--class DistributionGraph--><g class="entity" data-entity="DistributionGraph" data-source-line="48" data-uid="ent0007" id="entity_DistributionGraph"><rect fill="#F1F1F1" height="41.0416" rx="1.75" ry="1.75" style="stroke:#181818;stroke-width:0.35;" width="110.91" x="620.9" y="298.9"/><ellipse cx="644.1275" cy="308.7" fill="#ADD1B2" rx="6.3" ry="6.3" style="stroke:#181818;stroke-width:0.7;"/><path d="M645.1993,306.7859 Q645.265,306.6875 645.3525,306.6437 Q645.44,306.5891 645.5384,306.5891 Q645.7025,306.5891 645.8118,306.7094 Q645.9212,306.8297 645.9212,307.1031 L645.9212,307.7594 Q645.9212,308.0328 645.8118,308.1531 Q645.7025,308.2734 645.5384,308.2734 Q645.3853,308.2734 645.2868,308.1859 Q645.1884,308.0984 645.1447,307.8687 Q645.1228,307.7047 645.0462,307.6172 Q644.8931,307.4531 644.6087,307.3547 Q644.3353,307.2453 644.0618,307.2453 Q643.7118,307.2453 643.4165,307.3984 Q643.1322,307.5516 642.9025,307.8906 Q642.6837,308.2297 642.6837,308.6891 L642.6837,309.1922 Q642.6837,309.75 643.0884,310.1219 Q643.4931,310.4937 644.215,310.4937 Q644.6415,310.4937 644.9368,310.3734 Q645.1118,310.3078 645.3087,310.1109 Q645.429,309.9906 645.4947,309.9578 Q645.5603,309.9141 645.6478,309.9141 Q645.8009,309.9141 645.9212,310.0344 Q646.0415,310.1547 646.0415,310.3078 Q646.0415,310.4609 645.8775,310.6469 Q645.6478,310.9094 645.2868,311.0625 Q644.8056,311.2594 644.215,311.2594 Q643.5368,311.2594 642.99,310.9859 Q642.5415,310.7562 642.2243,310.275 Q641.9181,309.7828 641.9181,309.2031 L641.9181,308.6781 Q641.9181,308.0766 642.1915,307.5625 Q642.4759,307.0375 642.9681,306.7641 Q643.4712,306.4797 644.029,306.4797 Q644.3572,306.4797 644.6525,306.5562 Q644.9478,306.6328 645.1993,306.7859 Z " fill="#000000"/><text fill="#000000" font-family="sans-serif" font-size="7.7" lengthAdjust="spacing" textLength="59.9156" x="655.6669" y="311.8883">DistributionGraph</text><line style="stroke:#181818;stroke-width:0.35;" x1="621.6" x2="731.11" y1="318.5" y2="318.5"/><line style="stroke:#181818;stroke-width:0.35;" x1="621.6" x2="731.11" y1="324.1" y2="324.1"/><text fill="#000000" font-family="sans-serif" font-size="7.7" lengthAdjust="spacing" textLength="102.51" x="625.1" y="335.2091">+update_plot(*args, **kwargs)</text></g><!--class DicetributionGraph--><g class="entity" data-entity="DicetributionGraph" data-source-line="52" data-uid="ent0008" id="entity_DicetributionGraph"><rect fill="#F1F1F1" height="41.0416" rx="1.75" ry="1.75" style="stroke:#181818;stroke-width:0.35;" width="110.91" x="756" y="298.9"/><ellipse cx="777.3004" cy="308.7" fill="#ADD1B2" rx="6.3" ry="6.3" style="stroke:#181818;stroke-width:0.7;"/><path d="M778.3723,306.7859 Q778.4379,306.6875 778.5254,306.6437 Q778.6129,306.5891 778.7113,306.5891 Q778.8754,306.5891 778.9848,306.7094 Q779.0942,306.8297 779.0942,307.1031 L779.0942,307.7594 Q779.0942,308.0328 778.9848,308.1531 Q778.8754,308.2734 778.7113,308.2734 Q778.5582,308.2734 778.4598,308.1859 Q778.3613,308.0984 778.3176,307.8687 Q778.2957,307.7047 778.2192,307.6172 Q778.066,307.4531 777.7817,307.3547 Q777.5082,307.2453 777.2348,307.2453 Q776.8848,307.2453 776.5895,307.3984 Q776.3051,307.5516 776.0754,307.8906 Q775.8567,308.2297 775.8567,308.6891 L775.8567,309.1922 Q775.8567,309.75 776.2613,310.1219 Q776.666,310.4937 777.3879,310.4937 Q777.8145,310.4937 778.1098,310.3734 Q778.2848,310.3078 778.4817,310.1109 Q778.602,309.9906 778.6676,309.9578 Q778.7332,309.9141 778.8207,309.9141 Q778.9738,309.9141 779.0942,310.0344 Q779.2145,310.1547 779.2145,310.3078 Q779.2145,310.4609 779.0504,310.6469 Q778.8207,310.9094 778.4598,311.0625 Q777.9785,311.2594 777.3879,311.2594 Q776.7098,311.2594 776.1629,310.9859 Q775.7145,310.7562 775.3973,310.275 Q775.091,309.7828 775.091,309.2031 L775.091,308.6781 Q775.091,308.0766 775.3645,307.5625 Q775.6488,307.0375 776.141,306.7641 Q776.6442,306.4797 777.202,306.4797 Q777.5301,306.4797 777.8254,306.5562 Q778.1207,306.6328 778.3723,306.7859 Z " fill="#000000"/><text fill="#000000" font-family="sans-serif" font-size="7.7" lengthAdjust="spacing" textLength="64.198" x="788.4116" y="311.8883">DicetributionGraph</text><line style="stroke:#181818;stroke-width:0.35;" x1="756.7" x2="866.21" y1="318.5" y2="318.5"/><line style="stroke:#181818;stroke-width:0.35;" x1="756.7" x2="866.21" y1="324.1" y2="324.1"/><text fill="#000000" font-family="sans-serif" font-size="7.7" lengthAdjust="spacing" textLength="102.51" x="760.2" y="335.2091">+update_plot(*args, **kwargs)</text></g><!--class PiecewiseGraph--><g class="entity" data-entity="PiecewiseGraph" data-source-line="56" data-uid="ent0009" id="entity_PiecewiseGraph"><rect fill="#F1F1F1" height="41.0416" rx="1.75" ry="1.75" style="stroke:#181818;stroke-width:0.35;" width="110.91" x="891.1" y="298.9"/><ellipse cx="916.06" cy="308.7" fill="#ADD1B2" rx="6.3" ry="6.3" style="stroke:#181818;stroke-width:0.7;"/><path d="M917.1318,306.7859 Q917.1975,306.6875 917.285,306.6437 Q917.3725,306.5891 917.4709,306.5891 Q917.635,306.5891 917.7443,306.7094 Q917.8537,306.8297 917.8537,307.1031 L917.8537,307.7594 Q917.8537,308.0328 917.7443,308.1531 Q917.635,308.2734 917.4709,308.2734 Q917.3178,308.2734 917.2193,308.1859 Q917.1209,308.0984 917.0772,307.8687 Q917.0553,307.7047 916.9787,307.6172 Q916.8256,307.4531 916.5412,307.3547 Q916.2678,307.2453 915.9943,307.2453 Q915.6443,307.2453 915.349,307.3984 Q915.0647,307.5516 914.835,307.8906 Q914.6162,308.2297 914.6162,308.6891 L914.6162,309.1922 Q914.6162,309.75 915.0209,310.1219 Q915.4256,310.4937 916.1475,310.4937 Q916.574,310.4937 916.8693,310.3734 Q917.0443,310.3078 917.2412,310.1109 Q917.3615,309.9906 917.4272,309.9578 Q917.4928,309.9141 917.5803,309.9141 Q917.7334,309.9141 917.8537,310.0344 Q917.974,310.1547 917.974,310.3078 Q917.974,310.4609 917.81,310.6469 Q917.5803,310.9094 917.2193,311.0625 Q916.7381,311.2594 916.1475,311.2594 Q915.4693,311.2594 914.9225,310.9859 Q914.474,310.7562 914.1568,310.275 Q913.8506,309.7828 913.8506,309.2031 L913.8506,308.6781 Q913.8506,308.0766 914.124,307.5625 Q914.4084,307.0375 914.9006,306.7641 Q915.4037,306.4797 915.9615,306.4797 Q916.2897,306.4797 916.585,306.5562 Q916.8803,306.6328 917.1318,306.7859 Z " fill="#000000"/><text fill="#000000" font-family="sans-serif" font-size="7.7" lengthAdjust="spacing" textLength="56.0656" x="927.9844" y="311.8883">PiecewiseGraph</text><line style="stroke:#181818;stroke-width:0.35;" x1="891.8" x2="1001.31" y1="318.5" y2="318.5"/><line style="stroke:#181818;stroke-width:0.35;" x1="891.8" x2="1001.31" y1="324.1" y2="324.1"/><text fill="#000000" font-family="sans-serif" font-size="7.7" lengthAdjust="spacing" textLength="102.51" x="895.3" y="335.2091">+update_plot(*args, **kwargs)</text></g><!--class DistributionSettingsFrame--><g class="entity" data-entity="DistributionSettingsFrame" data-source-line="60" data-uid="ent0010" id="entity_DistributionSettingsFrame"><rect fill="#F1F1F1" height="41.0416" rx="1.75" ry="1.75" style="stroke:#181818;stroke-width:0.35;" width="125.4453" x="1026.55" y="298.9"/><ellipse cx="1043.4176" cy="308.7" fill="#ADD1B2" rx="6.3" ry="6.3" style="stroke:#181818;stroke-width:0.7;"/><path d="M1044.4895,306.7859 Q1044.5551,306.6875 1044.6426,306.6437 Q1044.7301,306.5891 1044.8286,306.5891 Q1044.9926,306.5891 1045.102,306.7094 Q1045.2114,306.8297 1045.2114,307.1031 L1045.2114,307.7594 Q1045.2114,308.0328 1045.102,308.1531 Q1044.9926,308.2734 1044.8286,308.2734 Q1044.6755,308.2734 1044.577,308.1859 Q1044.4786,308.0984 1044.4348,307.8687 Q1044.413,307.7047 1044.3364,307.6172 Q1044.1833,307.4531 1043.8989,307.3547 Q1043.6255,307.2453 1043.352,307.2453 Q1043.002,307.2453 1042.7067,307.3984 Q1042.4223,307.5516 1042.1926,307.8906 Q1041.9739,308.2297 1041.9739,308.6891 L1041.9739,309.1922 Q1041.9739,309.75 1042.3786,310.1219 Q1042.7833,310.4937 1043.5051,310.4937 Q1043.9317,310.4937 1044.227,310.3734 Q1044.402,310.3078 1044.5989,310.1109 Q1044.7192,309.9906 1044.7848,309.9578 Q1044.8505,309.9141 1044.938,309.9141 Q1045.0911,309.9141 1045.2114,310.0344 Q1045.3317,310.1547 1045.3317,310.3078 Q1045.3317,310.4609 1045.1676,310.6469 Q1044.938,310.9094 1044.577,311.0625 Q1044.0958,311.2594 1043.5051,311.2594 Q1042.827,311.2594 1042.2801,310.9859 Q1041.8317,310.7562 1041.5145,310.275 Q1041.2083,309.7828 1041.2083,309.2031 L1041.2083,308.6781 Q1041.2083,308.0766 1041.4817,307.5625 Q1041.7661,307.0375 1042.2583,306.7641 Q1042.7614,306.4797 1043.3192,306.4797 Q1043.6473,306.4797 1043.9426,306.5562 Q1044.238,306.6328 1044.4895,306.7859 Z " fill="#000000"/><text fill="#000000" font-family="sans-serif" font-size="7.7" lengthAdjust="spacing" textLength="88.5838" x="1053.5438" y="311.8883">DistributionSettingsFrame</text><line style="stroke:#181818;stroke-width:0.35;" x1="1027.25" x2="1151.2953" y1="318.5" y2="318.5"/><line style="stroke:#181818;stroke-width:0.35;" x1="1027.25" x2="1151.2953" y1="324.1" y2="324.1"/><text fill="#000000" font-family="sans-serif" font-size="7.7" lengthAdjust="spacing" textLength="117.0453" x="1030.75" y="335.2091">+__init__(master, *args, **kwargs)</text></g><!--class DicetributionSettingsFrame--><g class="entity" data-entity="DicetributionSettingsFrame" data-source-line="64" data-uid="ent0011" id="entity_DicetributionSettingsFrame"><rect fill="#F1F1F1" height="41.0416" rx="1.75" ry="1.75" style="stroke:#181818;stroke-width:0.35;" width="125.4453" x="1176.35" y="298.9"/><ellipse cx="1191.2906" cy="308.7" fill="#ADD1B2" rx="6.3" ry="6.3" style="stroke:#181818;stroke-width:0.7;"/><path d="M1192.3624,306.7859 Q1192.4281,306.6875 1192.5156,306.6437 Q1192.6031,306.5891 1192.7015,306.5891 Q1192.8656,306.5891 1192.9749,306.7094 Q1193.0843,306.8297 1193.0843,307.1031 L1193.0843,307.7594 Q1193.0843,308.0328 1192.9749,308.1531 Q1192.8656,308.2734 1192.7015,308.2734 Q1192.5484,308.2734 1192.4499,308.1859 Q1192.3515,308.0984 1192.3078,307.8687 Q1192.2859,307.7047 1192.2093,307.6172 Q1192.0562,307.4531 1191.7718,307.3547 Q1191.4984,307.2453 1191.2249,307.2453 Q1190.8749,307.2453 1190.5796,307.3984 Q1190.2953,307.5516 1190.0656,307.8906 Q1189.8468,308.2297 1189.8468,308.6891 L1189.8468,309.1922 Q1189.8468,309.75 1190.2515,310.1219 Q1190.6562,310.4937 1191.3781,310.4937 Q1191.8046,310.4937 1192.0999,310.3734 Q1192.2749,310.3078 1192.4718,310.1109 Q1192.5921,309.9906 1192.6578,309.9578 Q1192.7234,309.9141 1192.8109,309.9141 Q1192.964,309.9141 1193.0843,310.0344 Q1193.2046,310.1547 1193.2046,310.3078 Q1193.2046,310.4609 1193.0406,310.6469 Q1192.8109,310.9094 1192.4499,311.0625 Q1191.9687,311.2594 1191.3781,311.2594 Q1190.6999,311.2594 1190.1531,310.9859 Q1189.7046,310.7562 1189.3874,310.275 Q1189.0812,309.7828 1189.0812,309.2031 L1189.0812,308.6781 Q1189.0812,308.0766 1189.3546,307.5625 Q1189.639,307.0375 1190.1312,306.7641 Q1190.6343,306.4797 1191.1921,306.4797 Q1191.5203,306.4797 1191.8156,306.5562 Q1192.1109,306.6328 1192.3624,306.7859 Z " fill="#000000"/><text fill="#000000" font-family="sans-serif" font-size="7.7" lengthAdjust="spacing" textLength="92.8662" x="1200.9885" y="311.8883">DicetributionSettingsFrame</text><line style="stroke:#181818;stroke-width:0.35;" x1="1177.05" x2="1301.0953" y1="318.5" y2="318.5"/><line style="stroke:#181818;stroke-width:0.35;" x1="1177.05" x2="1301.0953" y1="324.1" y2="324.1"/><text fill="#000000" font-family="sans-serif" font-size="7.7" lengthAdjust="spacing" textLength="117.0453" x="1180.55" y="335.2091">+__init__(master, *args, **kwargs)</text></g><!--class PiecewiseSettingsFrame--><g class="entity" data-entity="PiecewiseSettingsFrame" data-source-line="68" data-uid="ent0012" id="entity_PiecewiseSettingsFrame"><rect fill="#F1F1F1" height="41.0416" rx="1.75" ry="1.75" style="stroke:#181818;stroke-width:0.35;" width="125.4453" x="1326.15" y="298.9"/><ellipse cx="1344.7501" cy="308.7" fill="#ADD1B2" rx="6.3" ry="6.3" style="stroke:#181818;stroke-width:0.7;"/><path d="M1345.822,306.7859 Q1345.8876,306.6875 1345.9751,306.6437 Q1346.0626,306.5891 1346.1611,306.5891 Q1346.3251,306.5891 1346.4345,306.7094 Q1346.5439,306.8297 1346.5439,307.1031 L1346.5439,307.7594 Q1346.5439,308.0328 1346.4345,308.1531 Q1346.3251,308.2734 1346.1611,308.2734 Q1346.008,308.2734 1345.9095,308.1859 Q1345.8111,308.0984 1345.7673,307.8687 Q1345.7455,307.7047 1345.6689,307.6172 Q1345.5158,307.4531 1345.2314,307.3547 Q1344.958,307.2453 1344.6845,307.2453 Q1344.3345,307.2453 1344.0392,307.3984 Q1343.7548,307.5516 1343.5251,307.8906 Q1343.3064,308.2297 1343.3064,308.6891 L1343.3064,309.1922 Q1343.3064,309.75 1343.7111,310.1219 Q1344.1158,310.4937 1344.8376,310.4937 Q1345.2642,310.4937 1345.5595,310.3734 Q1345.7345,310.3078 1345.9314,310.1109 Q1346.0517,309.9906 1346.1173,309.9578 Q1346.183,309.9141 1346.2705,309.9141 Q1346.4236,309.9141 1346.5439,310.0344 Q1346.6642,310.1547 1346.6642,310.3078 Q1346.6642,310.4609 1346.5001,310.6469 Q1346.2705,310.9094 1345.9095,311.0625 Q1345.4283,311.2594 1344.8376,311.2594 Q1344.1595,311.2594 1343.6126,310.9859 Q1343.1642,310.7562 1342.847,310.275 Q1342.5408,309.7828 1342.5408,309.2031 L1342.5408,308.6781 Q1342.5408,308.0766 1342.8142,307.5625 Q1343.0986,307.0375 1343.5908,306.7641 Q1344.0939,306.4797 1344.6517,306.4797 Q1344.9798,306.4797 1345.2751,306.5562 Q1345.5705,306.6328 1345.822,306.7859 Z " fill="#000000"/><text fill="#000000" font-family="sans-serif" font-size="7.7" lengthAdjust="spacing" textLength="84.7338" x="1355.2613" y="311.8883">PiecewiseSettingsFrame</text><line style="stroke:#181818;stroke-width:0.35;" x1="1326.85" x2="1450.8953" y1="318.5" y2="318.5"/><line style="stroke:#181818;stroke-width:0.35;" x1="1326.85" x2="1450.8953" y1="324.1" y2="324.1"/><text fill="#000000" font-family="sans-serif" font-size="7.7" lengthAdjust="spacing" textLength="117.0453" x="1330.35" y="335.2091">+__init__(master, *args, **kwargs)</text></g><!--class CalculationFrame--><g class="entity" data-entity="CalculationFrame" data-source-line="72" data-uid="ent0013" id="entity_CalculationFrame"><rect fill="#F1F1F1" height="51.2832" rx="1.75" ry="1.75" style="stroke:#181818;stroke-width:0.35;" width="90.784" x="1476.3" y="294"/><ellipse cx="1490.2796" cy="303.8" fill="#ADD1B2" rx="6.3" ry="6.3" style="stroke:#181818;stroke-width:0.7;"/><path d="M1491.3515,301.8859 Q1491.4171,301.7875 1491.5046,301.7437 Q1491.5921,301.6891 1491.6905,301.6891 Q1491.8546,301.6891 1491.964,301.8094 Q1492.0733,301.9297 1492.0733,302.2031 L1492.0733,302.8594 Q1492.0733,303.1328 1491.964,303.2531 Q1491.8546,303.3734 1491.6905,303.3734 Q1491.5374,303.3734 1491.439,303.2859 Q1491.3405,303.1984 1491.2968,302.9687 Q1491.2749,302.8047 1491.1983,302.7172 Q1491.0452,302.5531 1490.7608,302.4547 Q1490.4874,302.3453 1490.214,302.3453 Q1489.864,302.3453 1489.5686,302.4984 Q1489.2843,302.6516 1489.0546,302.9906 Q1488.8358,303.3297 1488.8358,303.7891 L1488.8358,304.2922 Q1488.8358,304.85 1489.2405,305.2219 Q1489.6452,305.5937 1490.3671,305.5937 Q1490.7936,305.5937 1491.089,305.4734 Q1491.264,305.4078 1491.4608,305.2109 Q1491.5811,305.0906 1491.6468,305.0578 Q1491.7124,305.0141 1491.7999,305.0141 Q1491.953,305.0141 1492.0733,305.1344 Q1492.1936,305.2547 1492.1936,305.4078 Q1492.1936,305.5609 1492.0296,305.7469 Q1491.7999,306.0094 1491.439,306.1625 Q1490.9577,306.3594 1490.3671,306.3594 Q1489.689,306.3594 1489.1421,306.0859 Q1488.6936,305.8562 1488.3765,305.375 Q1488.0702,304.8828 1488.0702,304.3031 L1488.0702,303.7781 Q1488.0702,303.1766 1488.3436,302.6625 Q1488.628,302.1375 1489.1202,301.8641 Q1489.6233,301.5797 1490.1811,301.5797 Q1490.5093,301.5797 1490.8046,301.6562 Q1491.0999,301.7328 1491.3515,301.8859 Z " fill="#000000"/><text fill="#000000" font-family="sans-serif" font-size="7.7" lengthAdjust="spacing" textLength="60.3405" x="1499.7639" y="306.9883">CalculationFrame</text><line style="stroke:#181818;stroke-width:0.35;" x1="1477" x2="1566.384" y1="313.6" y2="313.6"/><line style="stroke:#181818;stroke-width:0.35;" x1="1477" x2="1566.384" y1="319.2" y2="319.2"/><text fill="#000000" font-family="sans-serif" font-size="7.7" lengthAdjust="spacing" textLength="33.5897" x="1480.5" y="330.3091">+refresh()</text><text fill="#000000" font-family="sans-serif" font-size="7.7" lengthAdjust="spacing" textLength="82.384" x="1480.5" y="340.5507">+__init__(master, *args)</text></g><!--class DiceCanvas--><g class="entity" data-entity="DiceCanvas" data-source-line="77" data-uid="ent0014" id="entity_DiceCanvas"><rect fill="#F1F1F1" height="41.0416" rx="1.75" ry="1.75" style="stroke:#181818;stroke-width:0.35;" width="90.784" x="1591.8" y="298.9"/><ellipse cx="1614.2526" cy="308.7" fill="#ADD1B2" rx="6.3" ry="6.3" style="stroke:#181818;stroke-width:0.7;"/><path d="M1615.3245,306.7859 Q1615.3901,306.6875 1615.4776,306.6437 Q1615.5651,306.5891 1615.6635,306.5891 Q1615.8276,306.5891 1615.937,306.7094 Q1616.0463,306.8297 1616.0463,307.1031 L1616.0463,307.7594 Q1616.0463,308.0328 1615.937,308.1531 Q1615.8276,308.2734 1615.6635,308.2734 Q1615.5104,308.2734 1615.412,308.1859 Q1615.3135,308.0984 1615.2698,307.8687 Q1615.2479,307.7047 1615.1713,307.6172 Q1615.0182,307.4531 1614.7338,307.3547 Q1614.4604,307.2453 1614.187,307.2453 Q1613.837,307.2453 1613.5416,307.3984 Q1613.2573,307.5516 1613.0276,307.8906 Q1612.8088,308.2297 1612.8088,308.6891 L1612.8088,309.1922 Q1612.8088,309.75 1613.2135,310.1219 Q1613.6182,310.4937 1614.3401,310.4937 Q1614.7666,310.4937 1615.062,310.3734 Q1615.237,310.3078 1615.4338,310.1109 Q1615.5541,309.9906 1615.6198,309.9578 Q1615.6854,309.9141 1615.7729,309.9141 Q1615.926,309.9141 1616.0463,310.0344 Q1616.1666,310.1547 1616.1666,310.3078 Q1616.1666,310.4609 1616.0026,310.6469 Q1615.7729,310.9094 1615.412,311.0625 Q1614.9307,311.2594 1614.3401,311.2594 Q1613.662,311.2594 1613.1151,310.9859 Q1612.6666,310.7562 1612.3495,310.275 Q1612.0432,309.7828 1612.0432,309.2031 L1612.0432,308.6781 Q1612.0432,308.0766 1612.3166,307.5625 Q1612.601,307.0375 1613.0932,306.7641 Q1613.5963,306.4797 1614.1541,306.4797 Q1614.4823,306.4797 1614.7776,306.5562 Q1615.0729,306.6328 1615.3245,306.7859 Z " fill="#000000"/><text fill="#000000" font-family="sans-serif" font-size="7.7" lengthAdjust="spacing" textLength="41.5116" x="1625.6198" y="311.8883">DiceCanvas</text><line style="stroke:#181818;stroke-width:0.35;" x1="1592.5" x2="1681.884" y1="318.5" y2="318.5"/><line style="stroke:#181818;stroke-width:0.35;" x1="1592.5" x2="1681.884" y1="324.1" y2="324.1"/><text fill="#000000" font-family="sans-serif" font-size="7.7" lengthAdjust="spacing" textLength="82.384" x="1596" y="335.2091">+__init__(master, *args)</text></g><!--link View to Controller--><g class="link" data-entity-1="View" data-entity-2="Controller" data-source-line="81" data-uid="lnk15" id="link_View_Controller"><path codeLine="81" d="M784.588,131.201 C640.787,152.691 358.757,201.719 130.9,283.5 C126.77,284.984 126.4287,284.9986 122.2427,286.7976" fill="none" id="View-to-Controller" style="stroke:#181818;stroke-width:0.7;"/><polygon fill="#181818" points="118.384,288.456,125.2777,288.541,121.5996,287.074,123.0665,283.396,118.384,288.456" style="stroke:#181818;stroke-width:0.7;"/><text fill="#000000" font-family="sans-serif" font-size="7.7" lengthAdjust="spacing" textLength="31.6685" x="210.7" y="260.3091">controller</text></g><!--reverse link View to ComboboxFrame--><g class="link" data-entity-1="View" data-entity-2="ComboboxFrame" data-source-line="83" data-uid="lnk16" id="link_View_ComboboxFrame"><path codeLine="83" d="M776.2867,138.3489 C653.8637,163.7869 442.624,213.031 263.9,283.5 C256.298,286.496 248.444,290.136 240.912,293.93" fill="none" id="View-backto-ComboboxFrame" style="stroke:#181818;stroke-width:0.7;"/><polygon fill="#181818" points="784.511,136.64,779.8292,134.753,776.2867,138.3489,780.9685,140.2359,784.511,136.64" style="stroke:#181818;stroke-width:0.7;"/><text fill="#000000" font-family="sans-serif" font-size="7.7" lengthAdjust="spacing" textLength="35.526" x="345.8" y="260.3091">combobox</text></g><!--reverse link View to TwoLabels--><g class="link" data-entity-1="View" data-entity-2="TwoLabels" data-source-line="84" data-uid="lnk17" id="link_View_TwoLabels"><path codeLine="84" d="M776.8233,158.1504 C668.9183,200.4444 503.524,265.265 417.984,298.788" fill="none" id="View-backto-TwoLabels" style="stroke:#181818;stroke-width:0.7;"/><polygon fill="#181818" points="784.644,155.085,779.7119,154.0108,776.8233,158.1504,781.7554,159.2246,784.644,155.085" style="stroke:#181818;stroke-width:0.7;"/><text fill="#000000" font-family="sans-serif" font-size="7.7" lengthAdjust="spacing" textLength="36.3908" x="533.4" y="260.3091">e_and_var</text></g><!--reverse link View to DistributionGraph--><g class="link" data-entity-1="View" data-entity-2="DistributionGraph" data-source-line="86" data-uid="lnk18" id="link_View_DistributionGraph"><path codeLine="86" d="M778.4895,217.4468 C745.3725,250.2768 717.192,278.215 696.325,298.893" fill="none" id="View-backto-DistributionGraph" style="stroke:#181818;stroke-width:0.7;"/><polygon fill="#181818" points="784.455,211.533,779.501,212.5014,778.4895,217.4468,783.4435,216.4784,784.455,211.533" style="stroke:#181818;stroke-width:0.7;"/><text fill="#000000" font-family="sans-serif" font-size="7.7" lengthAdjust="spacing" textLength="61.6226" x="742.7" y="260.3091">graph (Dist mode)</text></g><!--reverse link View to DicetributionGraph--><g class="link" data-entity-1="View" data-entity-2="DicetributionGraph" data-source-line="87" data-uid="lnk19" id="link_View_DicetributionGraph"><path codeLine="87" d="M838.304,238.2647 C829.463,264.6477 823.662,281.96 818.048,298.711" fill="none" id="View-backto-DicetributionGraph" style="stroke:#181818;stroke-width:0.7;"/><polygon fill="#181818" points="840.973,230.3,836.9836,233.3927,838.304,238.2647,842.2934,235.172,840.973,230.3" style="stroke:#181818;stroke-width:0.7;"/><text fill="#000000" font-family="sans-serif" font-size="7.7" lengthAdjust="spacing" textLength="63.7656" x="834.4" y="260.3091">graph (Dice mode)</text></g><!--reverse link View to PiecewiseGraph--><g class="link" data-entity-1="View" data-entity-2="PiecewiseGraph" data-source-line="88" data-uid="lnk20" id="link_View_PiecewiseGraph"><path codeLine="88" d="M919.1126,238.2564 C928.0446,264.6394 933.912,281.96 939.582,298.711" fill="none" id="View-backto-PiecewiseGraph" style="stroke:#181818;stroke-width:0.7;"/><polygon fill="#181818" points="916.419,230.3,915.1137,235.1761,919.1126,238.2564,920.418,233.3803,916.419,230.3" style="stroke:#181818;stroke-width:0.7;"/><text fill="#000000" font-family="sans-serif" font-size="7.7" lengthAdjust="spacing" textLength="67.6231" x="927.5" y="260.3091">graph (Piece mode)</text></g><!--reverse link View to DistributionSettingsFrame--><g class="link" data-entity-1="View" data-entity-2="DistributionSettingsFrame" data-source-line="90" data-uid="lnk21" id="link_View_DistributionSettingsFrame"><path codeLine="90" d="M978.5312,213.5166 C1014.1962,247.4666 1045.541,277.298 1068.13,298.795" fill="none" id="View-backto-DistributionSettingsFrame" style="stroke:#181818;stroke-width:0.7;"/><polygon fill="#181818" points="972.447,207.725,973.5586,212.6489,978.5312,213.5166,977.4196,208.5927,972.447,207.725" style="stroke:#181818;stroke-width:0.7;"/><text fill="#000000" font-family="sans-serif" font-size="7.7" lengthAdjust="spacing" textLength="68.4653" x="1028.3" y="260.3091">settings (Dist mode)</text></g><!--reverse link View to DicetributionSettingsFrame--><g class="link" data-entity-1="View" data-entity-2="DicetributionSettingsFrame" data-source-line="91" data-uid="lnk22" id="link_View_DicetributionSettingsFrame"><path codeLine="91" d="M979.8505,174.6808 C1055.2685,216.6388 1149.694,269.171 1203.006,298.83" fill="none" id="View-backto-DicetributionSettingsFrame" style="stroke:#181818;stroke-width:0.7;"/><polygon fill="#181818" points="972.51,170.597,974.819,175.0857,979.8505,174.6808,977.5415,170.1921,972.51,170.597" style="stroke:#181818;stroke-width:0.7;"/><text fill="#000000" font-family="sans-serif" font-size="7.7" lengthAdjust="spacing" textLength="70.6084" x="1133.3" y="260.3091">settings (Dice mode)</text></g><!--reverse link View to PiecewiseSettingsFrame--><g class="link" data-entity-1="View" data-entity-2="PiecewiseSettingsFrame" data-source-line="92" data-uid="lnk23" id="link_View_PiecewiseSettingsFrame"><path codeLine="92" d="M980.2451,154.3401 C1068.9981,186.3021 1197.637,234.094 1313.9,283.5 C1325.016,288.225 1336.902,293.65 1347.857,298.816" fill="none" id="View-backto-PiecewiseSettingsFrame" style="stroke:#181818;stroke-width:0.7;"/><polygon fill="#181818" points="972.342,151.494,975.3449,155.5514,980.2451,154.3401,977.2423,150.2827,972.342,151.494" style="stroke:#181818;stroke-width:0.7;"/><text fill="#000000" font-family="sans-serif" font-size="7.7" lengthAdjust="spacing" textLength="74.4659" x="1256.5" y="260.3091">settings (Piece mode)</text></g><!--reverse link View to CalculationFrame--><g class="link" data-entity-1="View" data-entity-2="CalculationFrame" data-source-line="94" data-uid="lnk24" id="link_View_CalculationFrame"><path codeLine="94" d="M980.6255,138.2905 C1098.5125,163.0635 1297.233,210.98 1463.7,283.5 C1470.518,286.468 1477.504,290.122 1484.154,293.937" fill="none" id="View-backto-CalculationFrame" style="stroke:#181818;stroke-width:0.7;"/><polygon fill="#181818" points="972.405,136.563,975.9394,140.1669,980.6255,138.2905,977.091,134.6866,972.405,136.563" style="stroke:#181818;stroke-width:0.7;"/><text fill="#000000" font-family="sans-serif" font-size="7.7" lengthAdjust="spacing" textLength="85.5911" x="1403.5" y="260.3091">dice_or_calc (calc mode)</text></g><!--reverse link View to DiceCanvas--><g class="link" data-entity-1="View" data-entity-2="DiceCanvas" data-source-line="95" data-uid="lnk25" id="link_View_DiceCanvas"><path codeLine="95" d="M980.6014,135.433 C1102.4504,156.832 1312.857,197.316 1495.2,251.3 C1533.819,262.731 1543.773,265.706 1579.9,283.5 C1589.035,288.001 1598.59,293.524 1607.221,298.858" fill="none" id="View-backto-DiceCanvas" style="stroke:#181818;stroke-width:0.7;"/><polygon fill="#181818" points="972.328,133.98,975.9804,137.4643,980.6014,135.433,976.949,131.9487,972.328,133.98" style="stroke:#181818;stroke-width:0.7;"/><text fill="#000000" font-family="sans-serif" font-size="7.7" lengthAdjust="spacing" textLength="86.0234" x="1531.6" y="260.3091">dice_or_calc (dice mode)</text></g><!--reverse link View to ModeMenu--><g class="link" data-entity-1="View" data-entity-2="ModeMenu" data-source-line="97" data-uid="lnk26" id="link_View_ModeMenu"><path codeLine="97" d="M777.1881,174.1327 C734.0541,198.2757 689.759,223.636 644,251.3 C621.369,264.985 596.463,280.966 576.59,293.951" fill="none" id="View-backto-ModeMenu" style="stroke:#181818;stroke-width:0.7;"/><polygon fill="none" points="784.518,170.03,779.4855,169.638,777.1881,174.1327,782.2206,174.5247,784.518,170.03" style="stroke:#181818;stroke-width:0.7;"/><text fill="#000000" font-family="sans-serif" font-size="7.7" lengthAdjust="spacing" textLength="85.5948" x="644.7" y="260.3091">creates in create_menu()</text></g><!--SRC=[fLLDYzim4BtxL-Zef77fNdKeb9GjXIuKTkcbB4As9raHnJAIdFI3_lUEPCMIxMmQceijIsz6RsRUZCrED2tNV4ygoOtvOAqMPMVXSwMQH_4BoBlC390QDhoJzburrf_TtMMPDoFV11p9xuoGDmGDhLPIWgPaFQpzqLRpzeKIktjxZ-uWmFUbAjKF1-vNySo0jQBPceb9BIfWIhEAosfo18mtDJjmFTel2d_8c6Y4PIpVSsEXXppjLgymNfmeiAvbfUJDZXqmodmHGX4rGyEDs8QTLdAaTHJr5gp9epKcpLqhL9DBRW43DJPnhbftPFBmfaGAOxyZv3bYJdd8zwe6RxyYIwwt1b_BtT6j8jWd-P_8hgsH31loXTnAaEdrAtBWieFJraOgRfz7nlrDbzodbPfHwf4QDXhCIm_fjoeDpdWFJJSkrIBxSn9Sh5EGtU0z9XvfUp6xrBiFPd-sC4c_CulC-drVBevHGrznzw1UuYC2YLe3XnlBFVX-EgellXp1xqIuAzBWdLVKQd3uW04-O3fFkS9b6Nh4ROylqKhPbSydjWQNikHLclcFILe_EGK4fw7ahLHshed4ke8RpByAgE28bVcVcoFlnz1GQV5cIRuoY1jz3H7Tw6UD_TEXuf1HwY6qL-Yiy_ucaQrvS-3c8WDluMT-KRnFUv4cmpGWbaKnQHOw3Fs8Y9AdSOWd7kQge_tlXEJkoCjraS9dCalm5Kpn4rqDMByVmEV9ZCj6Xt_M5RmkcLwW-BhPUROpPT3H7vJa_dc6Q13255wBoIKAySE4eM5y6noZeqc-oFu2]--></g></svg>